<?xml version="1.0" encoding="UTF-8"?>
<svg width="18px" height="18px" viewBox="0 0 18 18" version="1.1" xmlns="http://www.w3.org/2000/svg" xmlns:xlink="http://www.w3.org/1999/xlink">
    <title>通讯录选中</title>
    <defs>
        <rect id="path-1" x="0" y="0" width="18" height="18"></rect>
    </defs>
    <g id="工作台" stroke="none" stroke-width="1" fill="none" fill-rule="evenodd">
        <g id="1920-极限状态" transform="translate(-69.000000, -834.000000)">
            <g id="下" transform="translate(17.000000, 828.000000)">
                <g id="通讯录" transform="translate(52.000000, 6.000000)">
                    <mask id="mask-2" fill="white">
                        <use xlink:href="#path-1"></use>
                    </mask>
                    <g id="蒙版"></g>
                    <g id="编组" mask="url(#mask-2)" fill="#7F8393" fill-rule="nonzero">
                        <g transform="translate(-0.000000, 0.000000)">
                            <path d="M12.6005231,6 C12.2692729,6 12.0005791,6.3029417 12,6.67706616 L12,12.550102 C12.0134562,12.9133435 12.2781029,13.2 12.5999982,13.2 C12.9218934,13.2 13.1865401,12.9133435 13.2,12.550102 L13.2,6.67825191 C13.2005554,6.49838135 13.13761,6.3256785 13.0250959,6.19837879 C12.9125818,6.07107909 12.7597812,5.99968438 12.6005231,6 Z" id="路径"></path>
                            <path d="M13.407888,0 L4.68563737,0 C2.81222564,0 1.29352537,1.51103897 1.29352537,3.375 L1.29352537,5.999625 L0.646762687,5.999625 C0.300384932,6.01404418 0.0270365962,6.29763058 0.0270365962,6.6425625 C0.0270365962,6.98749442 0.300384932,7.27108082 0.646762687,7.2855 L1.29352537,7.2855 L1.29352537,11.142 L0.646762687,11.142 C0.289565518,11.142 0,11.4301048 0,11.7855 C0,12.1408952 0.289565518,12.429 0.646762687,12.429 L1.29352537,12.429 L1.29352537,14.625 C1.29352537,16.488961 2.81222564,18 4.68563737,18 L13.407888,18 C15.2803338,18 16.8,16.488 16.8,14.625 L16.8,3.375 C16.8,1.51103897 15.2812997,0 13.407888,0 Z M15.508736,14.464125 C15.508736,15.7067657 14.4962692,16.714125 13.247328,16.714125 L4.84732804,16.714125 C3.59838689,16.714125 2.58592004,15.7067657 2.58592004,14.464125 L2.58592004,3.535875 C2.58592004,2.29323431 3.59838689,1.285875 4.84732804,1.285875 L13.247328,1.285875 C14.4962692,1.285875 15.508736,2.29323431 15.508736,3.535875 L15.508736,14.464125 Z" id="形状"></path>
                        </g>
                    </g>
                </g>
            </g>
        </g>
    </g>
</svg>