<?xml version="1.0" encoding="UTF-8"?>
<svg width="40px" height="40px" viewBox="0 0 40 40" version="1.1" xmlns="http://www.w3.org/2000/svg" xmlns:xlink="http://www.w3.org/1999/xlink">
    <!-- Generator: Sketch 60.1 (88133) - https://sketch.com -->
    <title>公告</title>
    <desc>Created with Sketch.</desc>
    <defs>
        <linearGradient x1="28.458639%" y1="0%" x2="81.2314737%" y2="89.7163118%" id="linearGradient-1">
            <stop stop-color="#857AFF" offset="0%"></stop>
            <stop stop-color="#0961D3" offset="100%"></stop>
        </linearGradient>
        <rect id="path-2" x="0" y="0" width="28" height="28" rx="10"></rect>
        <filter x="-35.7%" y="-28.6%" width="171.4%" height="171.4%" filterUnits="objectBoundingBox" id="filter-3">
            <feOffset dx="0" dy="2" in="SourceAlpha" result="shadowOffsetOuter1"></feOffset>
            <feGaussianBlur stdDeviation="3" in="shadowOffsetOuter1" result="shadowBlurOuter1"></feGaussianBlur>
            <feColorMatrix values="0 0 0 0 0.396078431   0 0 0 0 0.466666667   0 0 0 0 0.97254902  0 0 0 0.297394012 0" type="matrix" in="shadowBlurOuter1"></feColorMatrix>
        </filter>
        <path d="M13.6280087,20.7577404 C13.0572331,20.3206538 12.4530572,19.8644842 11.8151552,19.3893129 C11.1773682,18.914223 10.5842938,18.4770549 10.0359128,18.0779553 C9.39812576,17.621802 8.76031959,17.1704356 8.12241756,16.7238075 C7.99932374,16.7332839 7.87622994,16.7380872 7.75321283,16.7380872 C7.65247532,16.7475473 7.54617748,16.7522855 7.43420429,16.7522855 L7.14892193,16.7522855 C6.84672854,16.7522855 6.60061761,16.673918 6.41039741,16.5171015 C6.22015804,16.3602851 6.125,16.1726459 6.125,15.9540863 L6.125,12.3620108 L6.14181515,12.3620108 L6.125,12.347731 C6.125,12.0816429 6.22293818,11.8630996 6.41873788,11.6920197 C6.61453757,11.5210049 6.85796419,11.4354731 7.14892193,11.4354731 L8.1056216,11.4354731 C9.135123,10.6942137 10.0695239,10.0290423 10.9087859,9.43987742 C11.2668509,9.18331454 11.6193555,8.93386711 11.9662039,8.69153512 C12.3131483,8.44917056 12.6264623,8.22826631 12.9061843,8.02870836 C13.1860022,7.82916671 13.4209734,7.66282498 13.6111936,7.5298135 C13.8014138,7.39675316 13.9188706,7.31599211 13.9636982,7.28746523 C14.2994068,7.07836576 14.5707501,6.98337383 14.7776896,7.00237548 C14.9847441,7.02137712 15.1470093,7.10690894 15.2645428,7.2589872 C15.3819805,7.41098405 15.4631035,7.59627856 15.5078736,7.81488699 C15.5526245,8.03344657 15.575,8.23298824 15.575,8.41352826 L15.575,19.9594598 C15.575,20.1400161 15.5359053,20.3324586 15.4575624,20.5367873 C15.3792003,20.7410672 15.2588866,20.9026219 15.0966981,21.021435 C14.9344137,21.1402482 14.7301777,21.1900563 14.4839517,21.1710709 C14.2378599,21.1521018 13.9524817,21.0143521 13.6280087,20.7577404 Z M18.1633627,12.446224 C18.3342764,12.7522593 18.4706168,13.0610254 18.572384,13.3724139 C18.6740815,13.6837301 18.725,14.0611471 18.725,14.5044299 C18.725,14.9265893 18.6720593,15.3065563 18.5662337,15.6443671 C18.460422,15.9821236 18.3261735,16.2881769 18.1633627,16.5626176 C18.0982607,16.6787237 18.0290445,16.7816096 17.9557698,16.8713657 C17.8825789,16.9610314 17.7889146,17.0058824 17.6749861,17.0058824 C17.5284507,17.0058824 17.4043413,16.9373038 17.3026299,16.8001106 C17.2008627,16.6628812 17.15,16.4993019 17.15,16.3092822 C17.15,16.2248612 17.1621613,16.1404582 17.1866094,16.0559467 L17.1743784,16.0559467 C17.215102,15.9398407 17.2639146,15.8290516 17.3209137,15.7235254 C17.3778989,15.6179267 17.432806,15.5097781 17.4857467,15.3989167 C17.5386177,15.2881276 17.5833858,15.1614237 17.6199813,15.0189678 C17.6566604,14.8764756 17.6749582,14.7049389 17.6749582,14.5044118 C17.6749582,14.3143921 17.6566604,14.1481904 17.6199813,14.0056983 C17.5833858,13.8632242 17.5386038,13.733898 17.4857467,13.6177919 C17.432806,13.5016859 17.3778989,13.3908968 17.3209137,13.2852982 C17.2639146,13.1797719 17.2191465,13.0689105 17.1865955,12.9528768 C17.1621474,12.8789813 17.15,12.7945602 17.15,12.6995413 C17.15,12.5095398 17.2008487,12.3459423 17.302616,12.2087491 C17.4043134,12.0715197 17.5284229,12.0029412 17.6749721,12.0029412 C17.7889006,12.0029412 17.882565,12.0477921 17.9557559,12.1374578 C18.0290445,12.2271959 18.0982607,12.3300998 18.1633627,12.446224 Z M19.1406389,20.1810393 C19.0155774,20.2878381 18.8697943,20.3411765 18.7030933,20.3411765 C18.4948062,20.3411765 18.3151475,20.255152 18.1640992,20.0831844 C18.0130331,19.9111559 17.9375,19.7065226 17.9375,19.4692236 C17.9375,19.2082028 18.02608,18.9887917 18.2031686,18.810848 C18.2135384,18.7989566 18.2239795,18.7900939 18.2343671,18.7840974 C18.2448439,18.7781823 18.2552136,18.7693196 18.2656547,18.7574282 L18.2813075,18.7396013 C18.5729629,18.514214 18.8438253,18.2472781 19.0937341,17.9388137 C19.34375,17.6303494 19.5624782,17.2952159 19.7500079,16.9334132 C19.9375377,16.5715902 20.0833207,16.1860657 20.1874643,15.7767381 C20.2916792,15.3674715 20.3437064,14.9433661 20.3437064,14.5044219 C20.3437064,13.6146625 20.1458247,12.8019632 19.7500079,12.066446 C19.3541911,11.3309289 18.8593532,10.7258917 18.2656547,10.2513953 C18.0469265,10.0734515 17.9375,9.83615253 17.9375,9.53959993 C17.9375,9.30230092 18.0130509,9.09768796 18.164117,8.92563908 C18.3151653,8.75359018 18.4948419,8.66764706 18.7031111,8.66764706 C18.8801997,8.66764706 19.0364418,8.73281587 19.1718552,8.86331607 C19.5573022,9.17178039 19.916709,9.53063566 20.2500397,9.93996323 C20.5833525,10.3492298 20.8697606,10.7941095 21.1094067,11.2746024 C21.3489636,11.7550343 21.536422,12.2681116 21.6718175,12.8138749 C21.8072487,13.3595366 21.875,13.9231064 21.875,14.5044016 C21.875,15.0976084 21.8072487,15.6669715 21.6718175,16.2127349 C21.5364041,16.7584169 21.3463578,17.2744619 21.1015357,17.76087 C20.856785,18.247278 20.5677176,18.6951052 20.2344047,19.1044531 C19.9010384,19.5137197 19.5364378,19.8725953 19.1406389,20.1810393 Z" id="path-4"></path>
        <filter x="-44.4%" y="-35.3%" width="188.9%" height="198.8%" filterUnits="objectBoundingBox" id="filter-5">
            <feOffset dx="0" dy="2" in="SourceAlpha" result="shadowOffsetOuter1"></feOffset>
            <feGaussianBlur stdDeviation="2" in="shadowOffsetOuter1" result="shadowBlurOuter1"></feGaussianBlur>
            <feColorMatrix values="0 0 0 0 0.435294118   0 0 0 0 0.462745098   0 0 0 0 1  0 0 0 1 0" type="matrix" in="shadowBlurOuter1"></feColorMatrix>
        </filter>
    </defs>
    <g id="----·项目V5.2.9（8.12）" stroke="none" stroke-width="1" fill="none" fill-rule="evenodd">
        <g id="3工作台-windows1334" transform="translate(-1076.000000, -27.000000)">
            <g id="顶部" transform="translate(60.000000, 20.000000)">
                <g id="公告-2" transform="translate(1016.000000, 7.000000)">
                    <g id="公告" transform="translate(6.000000, 4.000000)">
                        <g id="矩形备份-42">
                            <use fill="black" fill-opacity="1" filter="url(#filter-3)" xlink:href="#path-2"></use>
                            <use fill="url(#linearGradient-1)" fill-rule="evenodd" xlink:href="#path-2"></use>
                        </g>
                        <g id="形状" opacity="0.921356005">
                            <use fill="black" fill-opacity="1" filter="url(#filter-5)" xlink:href="#path-4"></use>
                            <use fill="#FFFFFF" fill-rule="evenodd" xlink:href="#path-4"></use>
                        </g>
                    </g>
                </g>
            </g>
        </g>
    </g>
</svg>