<?xml version="1.0" encoding="UTF-8"?>
<svg width="28px" height="28px" viewBox="0 0 28 28" version="1.1" xmlns="http://www.w3.org/2000/svg" xmlns:xlink="http://www.w3.org/1999/xlink">
    <!-- Generator: Sketch 60.1 (88133) - https://sketch.com -->
    <title>应用-选中</title>
    <desc>Created with Sketch.</desc>
    <defs>
        <rect id="path-1" x="0" y="0" width="28" height="28"></rect>
    </defs>
    <g id="ICON库" stroke="none" stroke-width="1" fill="none" fill-rule="evenodd">
        <g id="画板" transform="translate(-744.000000, -554.000000)">
            <g id="应用--选中" transform="translate(744.000000, 554.000000)">
                <g id="应用选中">
                    <mask id="mask-2" fill="white">
                        <use xlink:href="#path-1"></use>
                    </mask>
                    <g id="蒙版"></g>
                    <path d="M11.0653706,4.14817303 C11.457312,4.14817303 11.7927274,4.28384624 12.0716167,4.55519265 C12.350506,4.82653906 12.4899506,5.15819059 12.4899506,5.55014724 L12.4899506,11.2032558 C12.4899506,11.5951972 12.350506,11.9306126 12.0716167,12.2095019 C11.7927274,12.4883912 11.457312,12.6278587 11.0653706,12.6278587 L5.41223923,12.6278587 C5.02028258,12.6278587 4.68863105,12.4884064 4.41728464,12.2095019 C4.14593823,11.9305974 4.01026502,11.595182 4.01026502,11.2032558 L4.01026502,5.55014724 C4.01026502,5.1582058 4.14593823,4.82655427 4.41728464,4.55519265 C4.68863105,4.28383103 5.02028258,4.14817303 5.41223923,4.14817303 L11.0653478,4.14817303 L11.0653706,4.14817303 Z M11.0653706,15.4543901 C11.457312,15.4543901 11.7927274,15.5900633 12.0716167,15.8614097 C12.350506,16.1327561 12.4899506,16.4644077 12.4899506,16.8563643 L12.4899506,22.5320787 C12.4899506,22.9240354 12.350506,23.2556869 12.0716167,23.5270333 C11.7927274,23.7983797 11.457312,23.9340529 11.0653706,23.9340529 L5.41223923,23.9340529 C5.02028258,23.9340529 4.68863105,23.7983797 4.41728464,23.5270333 C4.14593823,23.2556869 4.01026502,22.9240354 4.01026502,22.5320787 L4.01026502,16.8563643 C4.01026502,16.4644077 4.14593823,16.1327561 4.41728464,15.8614097 C4.68863105,15.5900633 5.02028258,15.4543901 5.41223923,15.4543901 L11.0653478,15.4543901 L11.0653706,15.4543901 Z M22.3941935,15.4543901 C22.786135,15.4543901 23.1177865,15.5900633 23.3891481,15.8614097 C23.6605097,16.1327561 23.7961677,16.4644077 23.7961677,16.8563643 L23.7961677,22.5320787 C23.7961677,22.9240354 23.6604945,23.2556869 23.3891481,23.5270333 C23.1178017,23.7983797 22.7861502,23.9340529 22.3941935,23.9340529 L16.741085,23.9340529 C16.3491435,23.9340529 16.0137282,23.7983797 15.7348389,23.5270333 C15.4559496,23.2556869 15.3164821,22.9240354 15.3164821,22.5320787 L15.3164821,16.8563643 C15.3164821,16.4644077 15.4559344,16.1327561 15.7348389,15.8614097 C16.0137434,15.5900633 16.3491588,15.4543901 16.741085,15.4543901 L22.3941935,15.4543901 L22.3941935,15.4543901 Z M23.8057711,11.3550804 C23.8057711,11.7666292 23.6668791,12.1112955 23.3890951,12.3890795 C23.1113111,12.6668635 22.7717824,12.8006179 22.3705088,12.7903426 L16.62946,12.7903426 C16.217932,12.7903426 15.8758397,12.6540143 15.6031829,12.3813575 C15.3305262,12.1087008 15.1942082,11.7666084 15.1942289,11.3550804 L15.1942289,5.61403161 C15.1942289,5.22307484 15.3331261,4.88869928 15.6109205,4.61090492 C15.8887148,4.33311056 16.2282332,4.18907058 16.6294756,4.17878497 L22.3705244,4.17878497 C22.7717668,4.18907058 23.1087112,4.33053656 23.3813575,4.60318293 C23.6540039,4.8758293 23.7954751,5.21277886 23.8057711,5.61403161 L23.8057711,11.3550804 Z" id="应用" fill="#FFFFFF" fill-rule="nonzero" mask="url(#mask-2)"></path>
                </g>
            </g>
        </g>
    </g>
</svg>