<?xml version="1.0" encoding="UTF-8"?>
<svg width="18px" height="18px" viewBox="0 0 18 18" version="1.1" xmlns="http://www.w3.org/2000/svg" xmlns:xlink="http://www.w3.org/1999/xlink">
    <!-- Generator: Sketch 60.1 (88133) - https://sketch.com -->
    <title>云盘</title>
    <desc>Created with Sketch.</desc>
    <defs>
        <rect id="path-1" x="0" y="0" width="18" height="18"></rect>
    </defs>
    <g id="ICON库" stroke="none" stroke-width="1" fill="none" fill-rule="evenodd" opacity="0.600000024">
        <g id="画板" transform="translate(-1115.000000, -410.000000)">
            <g id="下" transform="translate(1101.000000, 404.000000)">
                <g id="云盘-" transform="translate(14.000000, 6.000000)">
                    <g id="云盘">
                        <mask id="mask-2" fill="white">
                            <use xlink:href="#path-1"></use>
                        </mask>
                        <g id="蒙版"></g>
                        <path d="M8.99862909,3 C11.0884734,3 13.1867779,4.32920829 14.0307769,6.14390285 C16.2913398,6.43729135 18,8.31768097 18,10.553832 C18,12.9379219 16.0646518,14.8959966 13.6189318,15 L13.4937971,15 L13.4170867,15 L4.50776684,15 L4.42820937,15 L4.36736433,15 C1.92877913,14.8903454 0,12.9337325 0,10.553832 C0,8.31755171 1.70877556,6.43731816 3.89425244,6.19782183 C4.82152917,4.33308261 6.92292728,3 8.99862909,3 Z M8.99862909,4.10593869 C7.33276215,4.10593869 5.60607672,5.23100791 4.88796377,6.73442749 L4.80669981,6.91660613 L4.73706382,7.09748665 L4.69514269,7.22899642 L4.58291333,7.21038173 C2.67800723,7.21038173 1.13475998,8.70785127 1.13475998,10.553832 C1.13475998,12.2742682 2.47871718,13.7014054 4.21529946,13.8786676 L4.40282091,13.8928337 L4.58291333,13.8972823 L13.4170867,13.8972823 C15.3219928,13.8972823 16.86524,12.3998127 16.86524,10.553832 C16.86524,8.83339582 15.5212828,7.40625856 13.7847005,7.22899642 L13.5971791,7.21483031 L13.4146481,7.21035182 L13.2987267,7.21483031 L13.2583449,7.09235875 C12.6722004,5.41473971 10.8160599,4.10593869 8.99862909,4.10593869 Z" fill="#FFFFFF" fill-rule="nonzero" mask="url(#mask-2)"></path>
                    </g>
                </g>
            </g>
        </g>
    </g>
</svg>