<?xml version="1.0" encoding="UTF-8"?>
<svg width="28px" height="28px" viewBox="0 0 28 28" version="1.1" xmlns="http://www.w3.org/2000/svg" xmlns:xlink="http://www.w3.org/1999/xlink">
    <!-- Generator: Sketch 60.1 (88133) - https://sketch.com -->
    <title>数据中心</title>
    <desc>Created with Sketch.</desc>
    <g id="----·侧边栏优化" stroke="none" stroke-width="1" fill="none" fill-rule="evenodd" opacity="0.5">
        <g id="侧边栏补充" transform="translate(-93.000000, -449.000000)" fill="#FFFFFF" fill-rule="nonzero">
            <g id="数据中心-2" transform="translate(93.000000, 449.000000)">
                <g id="数据中心" transform="translate(4.000000, 4.000000)">
                    <path d="M20,10.4604326 C19.7507689,15.7692604 15.3805153,20 10.0118184,20 C7.14587447,20 4.56964801,18.7899154 2.74344054,16.8598554 L2.74344054,16.8598554 L2.782,16.8257429 L3.02394443,17.1045513 L10.4840556,10.638 L10.4847927,10.8 L19.903649,10.8 L19.903,10.4597429 Z M9.20044617,0.0214887827 L9.2,9.634 L1.97605557,15.8954487 L2.163,16.1107429 L2.12684159,16.1431787 C0.868145764,14.5342674 0.0854922367,12.5349797 0.0065943469,10.3527902 L0,9.98743401 C0,4.73358713 4.05181369,0.435319641 9.20044617,0.0214887827 Z M19.5852398,7.1327118 C19.72165,7.58753179 19.8343522,8.05295989 19.903649,8.53265081 L19.903649,8.53265081 L19.128,9.19974292 L17.181,9.19974292 Z M18.6380572,4.9380422 C18.8576948,5.31371663 19.0512037,5.70429463 19.2238523,6.11044069 L19.2238523,6.11044069 L15.636,9.19974292 L13.679,9.19974292 Z M17.2670252,3.11805029 C17.5572173,3.42307514 17.8266679,3.74746515 18.0766584,4.08773173 L18.0766584,4.08773173 L12.142,9.19974292 L10.7990556,9.2 L10.799,8.67774292 Z M15.4950448,1.63279545 C15.8560526,1.87068304 16.2027263,2.12995298 16.5309842,2.41257501 L16.5309842,2.41257501 L10.799,7.35074292 L10.799,5.66774292 Z M13.2708792,0.532826422 C13.7207862,0.687771358 14.1498092,0.881327937 14.5671087,1.09429713 L14.5671087,1.09429713 L10.8,4.34174292 L10.8,2.65774292 Z M10.8010756,0.0207429236 C11.2406144,0.0575044193 11.6712257,0.125995032 12.0942579,0.214701614 L12.0942579,0.214701614 L10.8,1.33074292 Z" id="形状结合"></path>
                </g>
            </g>
        </g>
    </g>
</svg>