<?xml version="1.0" encoding="UTF-8"?>
<svg width="22px" height="24px" viewBox="0 0 22 24" version="1.1" xmlns="http://www.w3.org/2000/svg" xmlns:xlink="http://www.w3.org/1999/xlink">
    <!-- Generator: Sketch 60.1 (88133) - https://sketch.com -->
    <title>编辑</title>
    <desc>Created with Sketch.</desc>
    <g id="ICON库" stroke="none" stroke-width="1" fill="none" fill-rule="evenodd">
        <g id="画板" transform="translate(-746.000000, -190.000000)" stroke="#3949AB">
            <g id="编辑-" transform="translate(746.000000, 190.000000)">
                <g id="编辑" transform="translate(1.000000, 2.000000)">
                    <circle id="椭圆形" stroke-width="1.8" cx="10" cy="10" r="3"></circle>
                    <path d="M12,-1.11022302e-16 L17.660254,3.26794919 C18.8978583,3.98248037 19.660254,5.30298845 19.660254,6.73205081 L19.660254,13.2679492 C19.660254,14.6970116 18.8978583,16.0175196 17.660254,16.7320508 L12,20 C10.7623957,20.7145312 9.23760431,20.7145312 8,20 L2.33974596,16.7320508 C1.10214166,16.0175196 0.339745962,14.6970116 0.339745962,13.2679492 L0.339745962,6.73205081 C0.339745962,5.30298845 1.10214166,3.98248037 2.33974596,3.26794919 L8,-4.4408921e-16 C9.23760431,-0.71453118 10.7623957,-0.71453118 12,-8.8817842e-16 Z" id="多边形" stroke-width="2" stroke-linejoin="round"></path>
                </g>
            </g>
        </g>
    </g>
</svg>