<?xml version="1.0" encoding="UTF-8"?>
<svg width="20px" height="20px" viewBox="0 0 20 20" version="1.1" xmlns="http://www.w3.org/2000/svg" xmlns:xlink="http://www.w3.org/1999/xlink">
    <!-- Generator: Sketch 60.1 (88133) - https://sketch.com -->
    <title>编辑</title>
    <desc>Created with Sketch.</desc>
    <g id="4.数据中心/沟通全局" stroke="none" stroke-width="1" fill="none" fill-rule="evenodd">
        <g id="3沟通展开1334-区域说明" transform="translate(-1295.000000, -14.000000)" stroke="#545454" stroke-width="1.2">
            <g id="顶部" transform="translate(60.000000, 0.000000)">
                <g id="编辑-" transform="translate(1235.000000, 14.000000)">
                    <g id="编辑" transform="translate(1.666667, 1.666667)">
                        <path d="M10.1333333,0.346410162 L14.3502117,2.78102602 C15.4640556,3.42410408 16.1502117,4.61256135 16.1502117,5.89871747 L16.1502117,10.7679492 C16.1502117,12.0541053 15.4640556,13.2425626 14.3502117,13.8856406 L10.1333333,16.3202565 C9.01948946,16.9633346 7.64717721,16.9633346 6.53333333,16.3202565 L2.31645497,13.8856406 C1.20261109,13.2425626 0.516454968,12.0541053 0.516454968,10.7679492 L0.516454968,5.89871747 C0.516454968,4.61256135 1.20261109,3.42410408 2.31645497,2.78102602 L6.53333333,0.346410162 C7.64717721,-0.2966679 9.01948946,-0.2966679 10.1333333,0.346410162 Z" id="多边形" stroke-linejoin="round"></path>
                        <circle id="椭圆形" cx="8.33333333" cy="8.33333333" r="2.5"></circle>
                    </g>
                </g>
            </g>
        </g>
    </g>
</svg>