<?xml version="1.0" encoding="UTF-8"?>
<svg width="16px" height="16px" viewBox="0 0 16 16" version="1.1" xmlns="http://www.w3.org/2000/svg" xmlns:xlink="http://www.w3.org/1999/xlink">
    <!-- Generator: Sketch 60.1 (88133) - https://sketch.com -->
    <title>男性</title>
    <desc>Created with Sketch.</desc>
    <g id="----·项目V5.2.9（8.12）" stroke="none" stroke-width="1" fill="none" fill-rule="evenodd">
        <g id="3工作台-个人中心" transform="translate(-56.000000, -154.000000)" fill="#4EDEF2" fill-rule="nonzero">
            <g id="个人名片" transform="translate(40.000000, 80.000000)">
                <g id="男性-2" transform="translate(16.000000, 74.000000)">
                    <g id="男性">
                        <path d="M15.9086081,0.658122788 C15.9066231,0.480410106 15.8311943,0.310508971 15.7001863,0.187477115 C15.5731483,0.0663981448 15.4044259,0 15.2297486,0 L15.2158539,0 L10.6861545,0.0878798975 C10.5055223,0.0898327841 10.33283,0.164042475 10.2097619,0.292932992 C10.0211898,0.486268766 9.96759568,0.771390211 10.074784,1.01940681 C10.1819723,1.26547052 10.4281085,1.42756011 10.7000493,1.42756011 L10.713944,1.42756011 L13.6358185,1.3709264 L10.2454914,4.83730013 C9.09817924,3.95654827 7.67694139,3.49176126 6.22195907,3.51714879 C2.72047366,3.58940559 -0.0624529558,6.43476138 0.00106605401,9.87965336 C0.07252494,13.2757232 2.88919603,15.9941413 6.34304219,16 L6.46809524,15.9980471 C9.96958065,15.9257903 12.7505223,13.0804345 12.6870033,9.63554254 C12.6592137,8.21969974 12.1431218,6.85658489 11.2220961,5.76882705 L14.5786788,2.33760527 L14.6342579,5.14195045 C14.6421978,5.50714024 14.9439131,5.79812035 15.3151023,5.79812035 L15.3309821,5.79812035 C15.5116143,5.79421457 15.6843066,5.72000488 15.8093596,5.59306725 C15.9344127,5.46417674 16.0019016,5.29232271 15.9999592,5.11461003 L15.9086081,0.658122788 Z M11.3253145,9.66288295 C11.3550891,10.9615525 10.8528919,12.2192115 9.93385121,13.1546442 C9.02076544,14.0939827 7.76229506,14.6349323 6.44229064,14.6583669 L6.34304219,14.6603256 C5.05678224,14.6622727 3.81816155,14.1701452 2.89316597,13.2893934 C1.93839585,12.3910655 1.38657445,11.1529354 1.3647398,9.85426584 C1.31511557,7.14951788 3.49858153,4.9154156 6.24776367,4.85878189 L6.34701212,4.856829 C7.63724201,4.856829 8.85998295,5.34114488 9.79688834,6.2277554 C10.7536434,7.12608324 11.3034799,8.36421335 11.3253145,9.66288295 L11.3253145,9.66288295 Z" id="形状"></path>
                    </g>
                </g>
            </g>
        </g>
    </g>
</svg>