<?xml version="1.0" encoding="UTF-8"?>
<svg width="28px" height="28px" viewBox="0 0 28 28" version="1.1" xmlns="http://www.w3.org/2000/svg" xmlns:xlink="http://www.w3.org/1999/xlink">
    <!-- Generator: Sketch 60.1 (88133) - https://sketch.com -->
    <title>OKR-选中</title>
    <desc>Created with Sketch.</desc>
    <defs>
        <rect id="path-1" x="0" y="0" width="20" height="20"></rect>
    </defs>
    <g id="----·侧边栏优化" stroke="none" stroke-width="1" fill="none" fill-rule="evenodd">
        <g id="侧边栏补充" transform="translate(-382.000000, -241.000000)">
            <g id="OKR-2备份-2" transform="translate(382.000000, 241.000000)">
                <g id="OKR" transform="translate(4.000000, 4.000000)">
                    <mask id="mask-2" fill="white">
                        <use xlink:href="#path-1"></use>
                    </mask>
                    <g id="蒙版"></g>
                    <path d="M10.0003462,0 C15.5737735,0 20.0827384,4.56055556 19.9988481,10.1533333 C19.9166245,15.6611111 15.2376567,20 9.72923047,20 L9.72923047,20 L2.77800215,20 C2.16410291,20 1.6668723,19.5027778 1.6668723,18.8888889 L1.6668723,18.8888889 L1.6668723,15.5233333 C0.444629472,13.6827778 -0.18871454,11.4166667 0.0496228118,8.99222222 C0.506852744,4.33777778 4.24969363,0.555 8.90032761,0.0588888889 C9.27088941,0.0194444444 9.63756226,0 10.0003462,0 Z M4.67822266,6.82128906 C3.62353516,6.82128906 2.78710938,7.17138672 2.16894531,7.87158203 C1.92285156,8.14990234 1.7265625,8.48461914 1.58007812,8.87573242 C1.43359375,9.2668457 1.36035156,9.6484375 1.36035156,10.0205078 C1.36035156,10.8349609 1.63134766,11.5498047 2.17333984,12.1650391 C2.79150391,12.8652344 3.62646484,13.215332 4.67822266,13.215332 C5.73291016,13.215332 6.56933594,12.8652344 7.1875,12.1650391 C7.72949219,11.5498047 8.00048828,10.8349609 8.00048828,10.0205078 C8.00048828,9.203125 7.72949219,8.48681641 7.1875,7.87158203 C6.56933594,7.17138672 5.73291016,6.82128906 4.67822266,6.82128906 Z M9.79931641,7.00146484 L8.23925781,7.00146484 L8.23925781,13 L9.79931641,13 L9.79931641,10.3984375 L11.8251953,13 L13.7866211,13 L13.786,12.927 L11.2451172,9.84033203 L13.6269531,7.00146484 L11.7021484,7.00146484 L9.79931641,9.47558594 L9.79931641,7.00146484 Z M16.2124023,7.00146484 L13.7866211,7.00146484 L13.786,12.927 L13.8466797,13 L15.3466797,13 L15.3466797,10.6972656 L16.8320312,13 L18.7744141,13 L16.8891602,10.5390625 C17.2436523,10.4599609 17.5219727,10.3193359 17.7241211,10.1171875 C18.0405273,9.80078125 18.1987305,9.37744141 18.1987305,8.84716797 C18.1987305,8.38427734 18.0610352,7.98144531 17.7856445,7.63867188 C17.4797852,7.25634766 17.0244238,7.04606934 16.4195605,7.00783691 L16.2124023,7.00146484 Z M4.67822266,8.33740234 C5.19677734,8.33740234 5.62890625,8.53369141 5.97460938,8.92626953 C6.24414062,9.23388672 6.37890625,9.59863281 6.37890625,10.0205078 C6.37890625,10.4335938 6.24414062,10.796875 5.97460938,11.1103516 C5.63769531,11.5029297 5.20556641,11.6992188 4.67822266,11.6992188 C4.15087891,11.6992188 3.72021484,11.5014648 3.38623047,11.105957 C3.11669922,10.7866211 2.98193359,10.4248047 2.98193359,10.0205078 C2.98193359,9.82421875 3.01708984,9.63085938 3.08740234,9.44042969 C3.21044922,9.10644531 3.41699219,8.83911133 3.70703125,8.63842773 C3.99707031,8.43774414 4.32080078,8.33740234 4.67822266,8.33740234 Z M15.6367188,8.18798828 C15.9619141,8.18798828 16.1977539,8.25683594 16.3442383,8.39453125 C16.4995117,8.54101562 16.5771484,8.72119141 16.5771484,8.93505859 C16.5771484,9.14892578 16.4995117,9.33056641 16.3442383,9.47998047 C16.2006836,9.61767578 15.9648438,9.68652344 15.6367188,9.68652344 L15.3466797,9.68652344 L15.3466797,8.18798828 L15.6367188,8.18798828 Z" id="形状结合" fill="#FFFFFF" mask="url(#mask-2)"></path>
                </g>
            </g>
        </g>
    </g>
</svg>