<?xml version="1.0" encoding="UTF-8"?>
<svg width="40px" height="40px" viewBox="0 0 40 40" version="1.1" xmlns="http://www.w3.org/2000/svg" xmlns:xlink="http://www.w3.org/1999/xlink">
    <!-- Generator: Sketch 60.1 (88133) - https://sketch.com -->
    <title>规划</title>
    <desc>Created with Sketch.</desc>
    <defs>
        <linearGradient x1="50%" y1="0%" x2="74.3323736%" y2="96.5163624%" id="linearGradient-1">
            <stop stop-color="#F99360" offset="0%"></stop>
            <stop stop-color="#F63D72" offset="100%"></stop>
        </linearGradient>
        <rect id="path-2" x="0" y="0" width="28" height="28" rx="10"></rect>
        <filter x="-35.7%" y="-28.6%" width="171.4%" height="171.4%" filterUnits="objectBoundingBox" id="filter-3">
            <feOffset dx="0" dy="2" in="SourceAlpha" result="shadowOffsetOuter1"></feOffset>
            <feGaussianBlur stdDeviation="3" in="shadowOffsetOuter1" result="shadowBlurOuter1"></feGaussianBlur>
            <feColorMatrix values="0 0 0 0 0.821671196   0 0 0 0 0.119101616   0 0 0 0 0.4105467  0 0 0 0.320722247 0" type="matrix" in="shadowBlurOuter1"></feColorMatrix>
        </filter>
        <path d="M14,6 C18.418278,6 22,9.581722 22,14 C22,18.418278 18.418278,22 14,22 C9.581722,22 6,18.418278 6,14 C6,9.581722 9.581722,6 14,6 Z M13.7692295,8 C13.3443958,8 13,8.28781673 13,8.64285665 L13,8.64285665 L13.0001019,13.7745674 L13.0051752,13.8606805 C13.0188474,13.9590551 13.0590944,14.0506559 13.1197598,14.1303377 L13.1197598,14.1303377 L13.1629912,14.1814723 L13.2186748,14.2347099 L13.2581812,14.2661869 L16.719714,16.8376135 L16.7958137,16.8874433 C17.1108331,17.0683832 17.5451585,17.029175 17.8056916,16.7842272 C18.0879357,16.518867 18.0593352,16.1125351 17.7418105,15.8766594 L17.7418105,15.8766594 L14.538459,13.4970672 L14.538459,8.64285665 L14.5332838,8.56788598 C14.4888492,8.2481685 14.163718,8 13.7692295,8 Z" id="path-4"></path>
        <filter x="-43.8%" y="-31.2%" width="187.5%" height="187.5%" filterUnits="objectBoundingBox" id="filter-5">
            <feOffset dx="0" dy="2" in="SourceAlpha" result="shadowOffsetOuter1"></feOffset>
            <feGaussianBlur stdDeviation="2" in="shadowOffsetOuter1" result="shadowBlurOuter1"></feGaussianBlur>
            <feColorMatrix values="0 0 0 0 0.964705882   0 0 0 0 0.258823529   0 0 0 0 0.431372549  0 0 0 1 0" type="matrix" in="shadowBlurOuter1"></feColorMatrix>
        </filter>
    </defs>
    <g id="----·项目V5.2.9（8.12）" stroke="none" stroke-width="1" fill="none" fill-rule="evenodd">
        <g id="3工作台-windows1334" transform="translate(-1204.000000, -27.000000)">
            <g id="顶部" transform="translate(60.000000, 20.000000)">
                <g id="规划-2" transform="translate(1144.000000, 7.000000)">
                    <g id="规划" transform="translate(6.000000, 4.000000)">
                        <g id="矩形备份-42">
                            <use fill="black" fill-opacity="1" filter="url(#filter-3)" xlink:href="#path-2"></use>
                            <use fill="url(#linearGradient-1)" fill-rule="evenodd" xlink:href="#path-2"></use>
                        </g>
                        <g id="形状结合备份" opacity="0.959999979">
                            <use fill="black" fill-opacity="1" filter="url(#filter-5)" xlink:href="#path-4"></use>
                            <use fill="#FFFFFF" fill-rule="evenodd" xlink:href="#path-4"></use>
                        </g>
                    </g>
                </g>
            </g>
        </g>
    </g>
</svg>