<?xml version="1.0" encoding="UTF-8"?>
<svg width="28px" height="28px" viewBox="0 0 28 28" version="1.1" xmlns="http://www.w3.org/2000/svg" xmlns:xlink="http://www.w3.org/1999/xlink">
    <!-- Generator: Sketch 60.1 (88133) - https://sketch.com -->
    <title>任务</title>
    <desc>Created with Sketch.</desc>
    <g id="----·侧边栏优化" stroke="none" stroke-width="1" fill="none" fill-rule="evenodd" opacity="0.5">
        <g id="侧边栏补充" transform="translate(-93.000000, -293.000000)" fill="#FFFFFF">
            <g id="任务-2" transform="translate(93.000000, 293.000000)">
                <g id="任务" transform="translate(5.000000, 4.000000)">
                    <path d="M16,2 C17.1045695,2 18,2.8954305 18,4 L18,16 C18,17.1045695 17.1045695,18 16,18 L2,18 C0.8954305,18 1.3527075e-16,17.1045695 0,16 L0,4 C-1.3527075e-16,2.8954305 0.8954305,2 2,2 L3,2 L3,2 C3,3.0824971 4.23316316,4 5.83432138,4 L12.1656786,4 L12.2914231,3.99685722 L12.4434053,3.98924987 L12.5691614,3.97976902 C13.986781,3.83668083 15,2.98026997 15,2 L16,2 Z M13.7540919,7.14191981 L13.6642033,7.21919081 L7.675,13.183 L4.7283089,10.7620261 L4.63978801,10.6987677 C4.30442314,10.4918579 3.8594055,10.5594801 3.60233959,10.8724485 C3.34527367,11.185417 3.36539298,11.6350932 3.63351183,11.9238726 L3.71276197,11.9984178 L7.21932817,14.8786398 L7.31865554,14.9484145 C7.59350852,15.1119198 7.94141087,15.0952672 8.19939041,14.9062574 L8.29159931,14.8273147 L14.7931986,8.35293219 L14.870846,8.26336852 C15.1038805,7.95067103 15.0789929,7.50617659 14.7955716,7.22156382 C14.5121503,6.93695106 14.0677642,6.91019913 13.7540919,7.14191981 Z" id="形状结合"></path>
                    <path d="M9,-3 C9.50626102,-3 9.92465461,-2.60672767 9.99087118,-2.09648344 L10,-1.95463338 L10,3.95463338 C10,4.53197342 9.55228475,5 9,5 C8.49373898,5 8.07534539,4.60672767 8.00912882,4.09648344 L8,3.95463338 L8,-1.95463338 C8,-2.53197342 8.44771525,-3 9,-3 Z" id="路径" fill-rule="nonzero" transform="translate(9.000000, 1.000000) rotate(-270.000000) translate(-9.000000, -1.000000) "></path>
                </g>
            </g>
        </g>
    </g>
</svg>