<?xml version="1.0" encoding="UTF-8"?>
<svg width="18px" height="18px" viewBox="0 0 18 18" version="1.1" xmlns="http://www.w3.org/2000/svg" xmlns:xlink="http://www.w3.org/1999/xlink">
    <!-- Generator: Sketch 60.1 (88133) - https://sketch.com -->
    <title>提醒-上移</title>
    <desc>Created with Sketch.</desc>
    <g id="----·侧边栏优化" stroke="none" stroke-width="1" fill="none" fill-rule="evenodd">
        <g id="侧边栏补充" transform="translate(-387.000000, -705.000000)" fill="#FFFFFF" fill-rule="nonzero">
            <g id="提醒备份-2" transform="translate(387.000000, 705.000000)">
                <path d="M9,-1.55431223e-14 C9.32307692,-1.55431223e-14 9.6,0.223448276 9.6,0.484137931 L9.6,1.262 L9.7710169,1.2736281 C13.0684985,1.65161391 15.641301,4.4088592 15.7591829,7.82245195 L15.7634046,8.06737298 L15.7634046,13.8291566 L17.2826015,13.8291566 C17.7468005,13.8291566 18,13.9151534 18,14.4741324 C18,14.7751211 17.7468005,14.9471146 17.2404016,14.9471146 L17.2404016,14.9471146 L12.0076123,14.9471146 C12.0076123,16.6240517 10.6572151,18 9.01141846,18 C7.36562184,18 6.01522461,16.6240517 6.01522461,14.9471146 L6.01522461,14.9471146 L0.740235448,14.9471146 C0.318236315,14.9471146 -0.103762819,14.7321227 0.0228369214,14.2591405 C0.107236748,13.9151534 0.444836055,13.8291566 0.782435361,13.8291566 L0.782435361,13.8291566 L2.30163224,13.8291566 L2.25943233,8.06737298 C2.25943233,4.54150539 4.87582695,1.66061357 8.25182002,1.2736281 C8.30020133,1.26914658 8.34904105,1.26513214 8.39833919,1.2615848 L8.4,0.484137931 C8.4,0.223448276 8.67692308,-1.55431223e-14 9,-1.55431223e-14 Z M10.7838148,14.9471146 L7.2390221,14.9471146 C7.11242236,15.8070823 8.16742019,16.8390436 9.01141846,16.8390436 C9.93981655,16.9250404 10.7838148,15.8500807 10.7838148,14.9471146 L10.7838148,14.9471146 Z M8.92701863,2.34858773 C6.01522461,2.34858773 3.35663007,5.1004844 3.35663007,8.06737298 L3.35663007,8.06737298 L3.35663007,13.872155 L12.0076123,13.872155 L12.0076123,13.8291566 L14.6662068,13.8291566 L14.6662068,7.98137621 C14.6662068,5.01448762 11.8388127,2.34858773 8.92701863,2.34858773 Z" id="提醒"></path>
            </g>
        </g>
    </g>
</svg>