<?xml version="1.0" encoding="UTF-8"?>
<svg width="16px" height="16px" viewBox="0 0 16 16" version="1.1" xmlns="http://www.w3.org/2000/svg" xmlns:xlink="http://www.w3.org/1999/xlink">
    <!-- Generator: Sketch 60.1 (88133) - https://sketch.com -->
    <title>女性</title>
    <desc>Created with Sketch.</desc>
    <g id="【ICON库】" stroke="none" stroke-width="1" fill="none" fill-rule="evenodd">
        <g id="8.16迭代版本工作台/项目" transform="translate(-122.000000, -704.000000)" fill="#FFD600" fill-rule="nonzero">
            <g id="女性" transform="translate(122.000000, 704.000000)">
                <g id="女">
                    <path d="M13.2454914,1.83730013 C12.0981792,0.956548273 10.6769414,0.49176126 9.22195907,0.517148786 C5.72047366,0.58940559 2.93754704,3.43476138 3.00106605,6.87965336 C3.07252494,10.2757232 5.88919603,12.9941413 9.34304219,13 L9.46809524,12.9980471 C12.9695807,12.9257903 15.7505223,10.0804345 15.6870033,6.63554254 C15.6592137,5.21969974 15.1431218,3.85658489 14.2220961,2.76882705 C13.9918574,2.51364852 13.8233512,2.33513668 13.7165776,2.23329151 C13.606328,2.1281307 13.4492992,1.99613357 13.2454914,1.83730013 Z M14.3253145,6.66288295 C14.3550891,7.96155254 13.8528919,9.21921152 12.9338512,10.1546442 C12.0207654,11.0939827 10.7622951,11.6349323 9.44229064,11.6583669 L9.34304219,11.6603256 C8.05678224,11.6622727 6.81816155,11.1701452 5.89316597,10.2893934 C4.93839585,9.39106554 4.38657445,8.15293543 4.3647398,6.85426584 C4.31511557,4.14951788 6.49858153,1.9154156 9.24776367,1.85878189 L9.34701212,1.856829 C10.637242,1.856829 11.8599829,2.34114488 12.7968883,3.2277554 C13.7536434,4.12608324 14.3034799,5.36421335 14.3253145,6.66288295 L14.3253145,6.66288295 Z" id="形状"></path>
                    <path d="M0.836791298,15.672076 C0.702222785,15.5437466 0.626075745,15.3659087 0.626075745,15.1799595 C0.626075745,14.9940102 0.702222785,14.8161723 0.836791298,14.687843 L5.05507479,10.4695595 C5.18340416,10.3349909 5.36124208,10.2588439 5.5471913,10.2588439 C5.73314052,10.2588439 5.91097843,10.3349909 6.0393078,10.4695595 C6.25007285,10.6803245 6.25007285,11.1018546 5.96971557,11.3842002 L1.7504379,15.6004954 C1.60926508,15.740674 1.46908644,15.8818468 1.32791363,15.8818468 C1.14472602,15.8746397 0.969814403,15.799728 0.836791298,15.672076 Z" id="路径"></path>
                    <path d="M5.92111555,15.5635839 C5.73693377,15.5553826 5.56202215,15.4804709 5.42899905,15.3528189 L1.21071555,11.1345354 C1.07614704,11.006206 1,10.8283681 1,10.6424189 C1,10.4564697 1.07614704,10.2786317 1.21071555,10.1503024 C1.4214806,9.93953732 1.84400487,9.93953732 2.12535633,10.2198946 L6.34264565,14.4381781 C6.5534107,14.6499373 6.5534107,15.0714674 6.27305342,15.3528189 C6.1318806,15.4929975 6.06129419,15.5635839 5.92111555,15.5635839 L5.92111555,15.5635839 Z" id="路径"></path>
                </g>
            </g>
        </g>
    </g>
</svg>