<?xml version="1.0" encoding="UTF-8"?>
<svg width="28px" height="28px" viewBox="0 0 28 28" version="1.1" xmlns="http://www.w3.org/2000/svg" xmlns:xlink="http://www.w3.org/1999/xlink">
    <!-- Generator: Sketch 60.1 (88133) - https://sketch.com -->
    <title>公告-选中</title>
    <desc>Created with Sketch.</desc>
    <defs>
        <rect id="path-1" x="0" y="0" width="20" height="20"></rect>
    </defs>
    <g id="----·侧边栏优化" stroke="none" stroke-width="1" fill="none" fill-rule="evenodd">
        <g id="侧边栏补充" transform="translate(-382.000000, -345.000000)">
            <rect fill="#F7F8FD" x="0" y="0" width="516" height="1080"></rect>
            <rect id="侧边栏底色" fill="#29304B" x="0" y="0" width="436" height="1080"></rect>
            <rect id="矩形备份-14" fill="#FFFFFF" opacity="0.100000001" x="377" y="340" width="38" height="38" rx="8"></rect>
            <g id="公告-2备份-2" transform="translate(382.000000, 345.000000)">
                <g id="公告" transform="translate(4.000000, 4.000000)">
                    <mask id="mask-2" fill="white">
                        <use xlink:href="#path-1"></use>
                    </mask>
                    <g id="蒙版"></g>
                    <g id="4" mask="url(#mask-2)" fill="#FFFFFF" fill-rule="nonzero">
                        <path d="M8.57522058,18.6064626 C7.92411475,18.0154578 7.23490801,17.3986499 6.50722852,16.756149 C5.77968026,16.1137582 5.10313736,15.5226433 4.47757797,14.9830025 C3.75002971,14.3662166 3.02245956,13.7559035 2.29478007,13.1519972 C2.1543622,13.1648106 2.01394435,13.1713054 1.87361397,13.1713054 C1.7586988,13.1840969 1.63744075,13.1905036 1.50970861,13.1905036 L1.184276,13.1905036 C0.839552326,13.1905036 0.558804078,13.0845393 0.341812545,12.8725006 C0.124799147,12.6604619 0.0162486979,12.4067463 0.0162486979,12.1112219 L0.0162486979,7.25421206 L0.0354303862,7.25421206 L0.0162486979,7.23490378 C0.0162486979,6.87511386 0.127970565,6.57961144 0.351326842,6.34828647 C0.574683119,6.11704957 0.852369271,6.0013981 1.184276,6.0013981 L2.27562027,6.0013981 C3.45001229,4.99910729 4.5159195,4.09969854 5.47329812,3.30306173 C5.88175662,2.95615132 6.28387226,2.61886203 6.6795357,2.29119385 C7.07530849,1.96348163 7.43271787,1.66478686 7.75180763,1.39495542 C8.07100674,1.12514601 8.33904738,0.900227755 8.55603892,0.720376832 C8.77303045,0.540459859 8.90701796,0.431259143 8.95815456,0.392686643 C9.34111038,0.109953677 9.65064209,-0.0184892703 9.88670597,0.00720373401 C10.1229011,0.0328967168 10.3080033,0.148548207 10.4420783,0.354180194 C10.576044,0.55970209 10.6685841,0.81024728 10.7196551,1.10583775 C10.7707042,1.40136218 10.7962288,1.67117161 10.7962288,1.91528803 L10.7962288,17.5270709 C10.7962288,17.7712093 10.7516319,18.0314196 10.6622631,18.3077018 C10.5728725,18.583918 10.4356261,18.8023634 10.2506113,18.9630162 C10.0654872,19.1236689 9.8325073,19.1910167 9.55162782,19.1653457 C9.27090144,19.1396967 8.94535946,18.9534391 8.57522058,18.6064626 Z M14.7598182,7.15784685 C15.0278589,7.5304062 15.241679,7.90629002 15.4012785,8.2853662 C15.5607687,8.66435431 15.6406232,9.1238119 15.6406232,9.66345275 C15.6406232,10.1773786 15.5575973,10.6399405 15.391633,11.0511824 C15.2256906,11.4623583 15.0151513,11.8349397 14.7598182,12.1690366 C14.65772,12.3103811 14.5491696,12.4356317 14.4342544,12.5448984 C14.3194705,12.6540551 14.1725785,12.7086555 13.9939066,12.7086555 C13.7640981,12.7086555 13.5694597,12.6251698 13.4099476,12.4581543 C13.2503481,12.2910949 13.1705811,12.0919577 13.1705811,11.8606327 C13.1705811,11.7578608 13.1896534,11.6551108 13.227995,11.5522288 L13.2088133,11.5522288 C13.2726793,11.4108843 13.3492311,11.2760126 13.4386218,11.1475477 C13.5279905,11.0189947 13.6141003,10.8873373 13.6971262,10.7523776 C13.7800428,10.6175059 13.8502517,10.4632599 13.9076437,10.2898377 C13.9651669,10.1163715 13.9938629,9.90754717 13.9938629,9.66343074 C13.9938629,9.43210577 13.9651669,9.22977623 13.9076437,9.05631001 C13.8502517,8.88286582 13.7800209,8.72542745 13.6971262,8.58408297 C13.6141004,8.4427385 13.5279905,8.30786681 13.4386218,8.17931381 C13.3492311,8.05084886 13.2790222,7.91588911 13.2279731,7.77463271 C13.1896316,7.68467423 13.1705811,7.58190228 13.1705811,7.46622878 C13.1705811,7.23492582 13.2503262,7.03576661 13.4099258,6.86875117 C13.569416,6.7016917 13.7640544,6.61820598 13.9938847,6.61820598 C14.1725566,6.61820598 14.3194486,6.67280632 14.4342325,6.78196302 C14.5491696,6.89120776 14.65772,7.01648036 14.7598182,7.15784685 Z M15.8320902,15.811761 C15.6788335,15.9274345 15.5001835,15.9852052 15.2958995,15.9852052 C15.040654,15.9852052 14.820491,15.8920324 14.6353888,15.7057747 C14.4502647,15.519451 14.3577026,15.2978132 14.3577026,15.0407952 C14.3577026,14.7580843 14.4662531,14.5204406 14.6832664,14.3277102 C14.6959741,14.3148307 14.7087691,14.3052316 14.7214986,14.2987368 C14.7343374,14.29233 14.747045,14.2827309 14.7598401,14.2698514 L14.7790218,14.2505431 C15.1364312,14.0064267 15.4683598,13.717309 15.7746107,13.3832121 C16.0809929,13.0491151 16.3490335,12.6861328 16.578842,12.2942652 C16.8086505,11.9023756 16.9873005,11.4848149 17.1149233,11.0414733 C17.2426336,10.5981976 17.3063902,10.1388501 17.3063902,9.66343072 C17.3063902,8.69973444 17.063896,7.81950186 16.578842,7.02286504 C16.0937879,6.22622823 15.4873884,5.5709139 14.7598401,5.05698805 C14.4917995,4.86425761 14.3577026,4.60723963 14.3577026,4.28604424 C14.3577026,4.02902626 14.4502865,3.80741047 14.6354106,3.62106475 C14.8205129,3.43471902 15.0406977,3.34163423 15.2959214,3.34163423 C15.5129348,3.34163423 15.7044018,3.41221841 15.8703442,3.55356286 C16.3426906,3.8876598 16.7831259,4.27633506 17.1916063,4.71967674 C17.6000648,5.16295237 17.9510439,5.6448005 18.2447184,6.16522115 C18.5382836,6.68557575 18.7680046,7.24128849 18.9339252,7.83240338 C19.0998895,8.42340821 19.1829154,9.03380935 19.1829154,9.66340869 C19.1829154,10.3059096 19.0998895,10.9225853 18.9339252,11.5137003 C18.7679828,12.1047271 18.5350903,12.6636542 18.2350729,13.1904816 C17.935143,13.717309 17.580905,14.2023495 17.1724465,14.6457132 C16.7639224,15.0889888 16.3171224,15.4776861 15.8320902,15.811761 Z" id="形状"></path>
                    </g>
                </g>
            </g>
        </g>
    </g>
</svg>