<svg xmlns="http://www.w3.org/2000/svg" width="12.176" height="14" viewBox="0 0 12.176 14">
  <defs>
    <style>
      .cls-1 {
        fill: #70707a;
      }
    </style>
  </defs>
  <path id="路径_210" data-name="路径 210" class="cls-1" d="M133.077,190.572l-4.108,4.107a3.292,3.292,0,0,1-4.655-4.655l4.108-4.107h0l1.369-1.369a2.009,2.009,0,0,1,2.83,0,2.056,2.056,0,0,1,0,2.829l-4.108,4.108h0l-1.369,1.37a.71.71,0,1,1-1-1l4.108-4.108a.581.581,0,0,0-.822-.822l-4.107,4.108a1.876,1.876,0,0,0,0,2.648,1.876,1.876,0,0,0,2.648,0l1.369-1.37,4.108-4.108a3.163,3.163,0,0,0-4.474-4.473l-4.108,4.108h0l-1.369,1.369a4.454,4.454,0,0,0,6.3,6.3l4.108-4.107a.581.581,0,0,0-.822-.822Z" transform="translate(-122.19 -182.801)"/>
</svg>
