<svg xmlns="http://www.w3.org/2000/svg" width="14" height="14" viewBox="0 0 14 14">
  <defs>
    <style>
      .cls-1, .cls-5 {
        fill: #70707a;
      }

      .cls-2, .cls-3, .cls-6 {
        fill: none;
      }

      .cls-2, .cls-3 {
        stroke-miterlimit: 10;
      }

      .cls-3 {
        stroke: #70707a;
        stroke-width: 1.4px;
      }

      .cls-4, .cls-5 {
        stroke: none;
      }
    </style>
  </defs>
  <g id="组_719" data-name="组 719" transform="translate(-100.979 -182.188)">
    <rect id="矩形_1306" data-name="矩形 1306" class="cls-1" width="14" height="1.225" rx="0.612" transform="translate(100.979 194.963)"/>
    <g id="组_718" data-name="组 718">
      <g id="路径_209" data-name="路径 209" class="cls-2">
        <path class="cls-4" d="M107.628,182.188H104.3a1.839,1.839,0,0,0-1.837,1.838v12.162h7V184.026a1.839,1.839,0,0,0-1.838-1.838Z"/>
        <path class="cls-5" d="M 104.3030014038086 183.5879974365234 C 104.0620422363281 183.5879974365234 103.8660049438477 183.7845001220703 103.8660049438477 184.0260009765625 L 103.8660049438477 194.7880096435547 L 108.0660018920898 194.7880096435547 L 108.0660018920898 184.0260009765625 C 108.0660018920898 183.7845001220703 107.869514465332 183.5879974365234 107.6279907226563 183.5879974365234 L 104.3030014038086 183.5879974365234 M 104.3030014038086 182.1880035400391 L 107.6279907226563 182.1880035400391 C 108.6419906616211 182.1880035400391 109.4660034179688 183.0119934082031 109.4660034179688 184.0260009765625 L 109.4660034179688 196.1880035400391 L 102.4660034179688 196.1880035400391 L 102.4660034179688 184.0260009765625 C 102.4660034179688 183.0119934082031 103.2900009155273 182.1880035400391 104.3030014038086 182.1880035400391 Z"/>
      </g>
      <g id="矩形_1307" data-name="矩形 1307" class="cls-3" transform="translate(108.242 187.438)">
        <path class="cls-4" d="M0,0H3.25a2,2,0,0,1,2,2V8.75a0,0,0,0,1,0,0H0a0,0,0,0,1,0,0V0A0,0,0,0,1,0,0Z"/>
        <path class="cls-6" d="M1.4.7H3.25A1.3,1.3,0,0,1,4.55,2V7.35a.7.7,0,0,1-.7.7H1.4a.7.7,0,0,1-.7-.7V1.4A.7.7,0,0,1,1.4.7Z"/>
      </g>
    </g>
  </g>
</svg>
