<?xml version="1.0" encoding="UTF-8"?>
<svg width="14px" height="14px" viewBox="0 0 14 14" version="1.1" xmlns="http://www.w3.org/2000/svg" xmlns:xlink="http://www.w3.org/1999/xlink">
    <!-- Generator: Sketch 60.1 (88133) - https://sketch.com -->
    <title>编组 11</title>
    <desc>Created with Sketch.</desc>
    <defs>
        <polygon id="path-1" points="0.89615 0.00025 7 0.00025 7 6.1045 0.89615 6.1045"></polygon>
    </defs>
    <g id="工作台" stroke="none" stroke-width="1" fill="none" fill-rule="evenodd">
        <g id="任务管理备份-3" transform="translate(-270.000000, -169.000000)">
            <g id="编组-26" transform="translate(60.000000, 0.000000)">
                <g id="编组-20" transform="translate(210.000000, 168.999900)">
                    <g id="编组-11" transform="translate(0.000081, 0.000000)">
                        <g id="编组" transform="translate(6.999919, 0.000000)">
                            <mask id="mask-2" fill="white">
                                <use xlink:href="#path-1"></use>
                            </mask>
                            <g id="Clip-2"></g>
                            <path d="M6.0064,5.9335 L1.0664,0.9945 C0.8394,0.7665 0.8394,0.3985 1.0664,0.1705 C1.2934,-0.0565 1.6624,-0.0565 1.8894,0.1705 L6.8294,5.1105 C7.0574,5.3375 7.0574,5.7055 6.8294,5.9335 C6.6024,6.1615 6.2344,6.1615 6.0064,5.9335" id="Fill-1" fill="#545454" mask="url(#mask-2)"></path>
                        </g>
                        <path d="M8.58051921,12.829 L1.17151921,5.419 C0.943519209,5.191 0.943519209,4.823 1.17151921,4.596 C1.39851921,4.368 1.76751921,4.368 1.99451921,4.596 L9.40351921,12.006 C9.63151921,12.232 9.63151921,12.601 9.40351921,12.829 C9.17751921,13.057 8.80851921,13.057 8.58051921,12.829" id="Fill-3" fill="#545454"></path>
                        <path d="M0.224019209,13.9628 L4.71501921,10.9228 C4.82401921,10.8528 4.86601921,10.7158 4.80001921,10.6498 L3.34901921,9.1998 C3.28401921,9.1348 3.14701921,9.1768 3.07801921,9.2838 L0.0370192089,13.7758 C-0.0669807911,13.9358 0.0650192089,14.0668 0.224019209,13.9628" id="Fill-5" fill="#545454"></path>
                        <path d="M9.68691921,0.9745 L2.07391921,6.2975 L7.73691921,11.9615 L13.0609192,4.3485 L9.68691921,0.9745 Z M9.55391921,2.4915 L11.5439192,4.4815 L7.57891921,10.1535 L3.88191921,6.4565 L9.55391921,2.4915 Z" id="Fill-7" fill="#545454"></path>
                    </g>
                </g>
            </g>
        </g>
    </g>
</svg>