<?xml version="1.0" encoding="UTF-8"?>
<svg width="16px" height="16px" viewBox="0 0 16 16" version="1.1" xmlns="http://www.w3.org/2000/svg" xmlns:xlink="http://www.w3.org/1999/xlink">
    <!-- Generator: Sketch 60.1 (88133) - https://sketch.com -->
    <title>编组 5</title>
    <desc>Created with Sketch.</desc>
    <defs>
        <rect id="path-1" x="60" y="0" width="240" height="840"></rect>
        <filter x="-7.9%" y="-2.0%" width="115.8%" height="104.5%" filterUnits="objectBoundingBox" id="filter-2">
            <feOffset dx="0" dy="2" in="SourceAlpha" result="shadowOffsetOuter1"></feOffset>
            <feGaussianBlur stdDeviation="6" in="shadowOffsetOuter1" result="shadowBlurOuter1"></feGaussianBlur>
            <feColorMatrix values="0 0 0 0 0   0 0 0 0 0   0 0 0 0 0  0 0 0 0.08 0" type="matrix" in="shadowBlurOuter1"></feColorMatrix>
        </filter>
    </defs>
    <g id="任务管理" stroke="none" stroke-width="1" fill="none" fill-rule="evenodd">
        <g id="任务管理---描述图片备份" transform="translate(-269.000000, -306.000000)">
            <rect fill="#EFF1FF" x="0" y="0" width="1334" height="840"></rect>
            <g id="蒙版">
                <use fill="black" fill-opacity="1" filter="url(#filter-2)" xlink:href="#path-1"></use>
                <use fill="#FFFFFF" fill-rule="evenodd" xlink:href="#path-1"></use>
            </g>
            <g id="编组-13" transform="translate(269.000000, 306.000000)">
                <g id="编组-5" transform="translate(1.000000, 1.000000)">
                    <polygon id="Clip-2" points="7.89596921 5e-05 13.9998192 5e-05 13.9998192 6.1045 7.89596921 6.1045"></polygon>
                    <path d="M13.0062192,5.93425 L8.06621921,0.99425 C7.83921921,0.76625 7.83921921,0.39825 8.06621921,0.17025 C8.29321921,-0.05675 8.66221921,-0.05675 8.88921921,0.17025 L13.8292192,5.11125 C14.0572192,5.33725 14.0572192,5.70625 13.8292192,5.93425 C13.6022192,6.16125 13.2342192,6.16125 13.0062192,5.93425" id="Fill-1" fill="#3949AB"></path>
                    <path d="M8.58041921,12.82875 L1.17141921,5.41875 C0.943419209,5.19175 0.943419209,4.82275 1.17141921,4.59575 C1.39841921,4.36875 1.76741921,4.36875 1.99441921,4.59575 L9.40341921,12.00575 C9.63141921,12.23275 9.63141921,12.60075 9.40341921,12.82875 C9.17741921,13.05675 8.80841921,13.05675 8.58041921,12.82875" id="Fill-3" fill="#3949AB"></path>
                    <polygon id="Clip-6" points="-1.15418786e-12 9.16867279 4.8315543 9.16867279 4.8315543 14.00005 -1.15418786e-12 14.00005"></polygon>
                    <path d="M0.224019209,13.96355 L4.71501921,10.92255 C4.82401921,10.85255 4.86601921,10.71655 4.80001921,10.65055 L3.34901921,9.19955 C3.28401921,9.13455 3.14701921,9.17655 3.07801921,9.28455 L0.0370192089,13.77655 C-0.0669807911,13.93555 0.0650192089,14.06755 0.224019209,13.96355" id="Fill-5" fill="#3949AB"></path>
                    <polygon id="Fill-7" fill="#3949AB" points="9.55411921 2.49085 11.5441192 4.48085 7.57811921 10.15285 3.88211921 6.45685"></polygon>
                    <polygon id="Fill-9" fill="#3949AB" points="9.68691921 0.97425 2.07391921 6.29825 7.73691921 11.96125 13.0609192 4.34825"></polygon>
                </g>
            </g>
        </g>
    </g>
</svg>