<svg xmlns="http://www.w3.org/2000/svg" width="13" height="13.999" viewBox="0 0 13 13.999">
  <defs>
    <style>
      .cls-1 {
        fill: #70707a;
      }
    </style>
  </defs>
  <path id="Color_Overlay" data-name="Color Overlay" class="cls-1" d="M973.6,1292.766l-4.693-2.625a1.746,1.746,0,0,1-.9-1.516v-5.251a1.748,1.748,0,0,1,.9-1.517l4.693-2.625a1.869,1.869,0,0,1,1.807,0l1.739.973a.574.574,0,0,1,.22.8.614.614,0,0,1-.823.214l-1.74-.973a.618.618,0,0,0-.6,0l-4.693,2.624a.584.584,0,0,0-.3.506v5.251a.583.583,0,0,0,.3.5l4.693,2.625a.623.623,0,0,0,.6,0l4.693-2.625a.583.583,0,0,0,.3-.5v-2.048a.6.6,0,0,1,1.2,0v2.048a1.746,1.746,0,0,1-.9,1.516l-4.694,2.625a1.868,1.868,0,0,1-1.807,0Zm.453-4.01-1.787-1a.871.871,0,0,1-.451-.757v-2a.871.871,0,0,1,.452-.757l1.786-1a.919.919,0,0,1,.9,0l1.622.907,2.668-1.54a.583.583,0,1,1,.583,1.011l-2.634,1.522V1287a.87.87,0,0,1-.452.757l-1.786,1a.935.935,0,0,1-.9,0Zm-1.034-3.587v1.661l1.484.831,1.485-.831v-1.661l-1.485-.83Z" transform="translate(-968 -1279)"/>
</svg>
