<svg xmlns="http://www.w3.org/2000/svg" width="14" height="14" viewBox="0 0 14 14">
  <g id="组_5133" data-name="组 5133" transform="translate(-126.644 -54.396)">
    <path id="路径_2683" data-name="路径 2683" d="M137.265,58.944l-3.212-3.212a.584.584,0,0,0-.825,0l-3.205,3.2-.825-.825,3.205-3.2a1.752,1.752,0,0,1,2.474,0l3.213,3.213Z" fill="#70707a"/>
    <g id="组_5132" data-name="组 5132">
      <rect id="矩形_1852" data-name="矩形 1852" width="8.167" height="1.167" rx="0.583" transform="translate(129.561 61.103)" fill="#70707a"/>
      <rect id="矩形_1853" data-name="矩形 1853" width="5.833" height="1.167" rx="0.583" transform="translate(129.561 64.02)" fill="#70707a"/>
    </g>
    <path id="路径_2684" data-name="路径 2684" d="M138.894,68.395h-10.5a1.752,1.752,0,0,1-1.75-1.75v-7a1.752,1.752,0,0,1,1.75-1.75h10.5a1.752,1.752,0,0,1,1.75,1.75v7A1.752,1.752,0,0,1,138.894,68.395Zm-10.5-9.334a.584.584,0,0,0-.583.584v7a.584.584,0,0,0,.583.583h10.5a.584.584,0,0,0,.584-.583v-7a.585.585,0,0,0-.584-.584Z" fill="#70707a"/>
  </g>
</svg>
