<svg xmlns="http://www.w3.org/2000/svg" width="14" height="13.417" viewBox="0 0 14 13.417">
  <g id="组_5134" data-name="组 5134" transform="translate(-108.025 -33.116)">
    <path id="路径_2685" data-name="路径 2685" d="M119.692,44.2h-9.333a1.752,1.752,0,0,1-1.75-1.75V34.282h12.833v8.167A1.752,1.752,0,0,1,119.692,44.2Zm-9.917-8.75v7a.584.584,0,0,0,.584.583h9.333a.583.583,0,0,0,.583-.583v-7Z" fill="#70707a"/>
    <path id="路径_2686" data-name="路径 2686" d="M116.056,39.447l-1.237-1.237-.413-.413a.582.582,0,0,0-.824,0l-.413.413-1.65,1.649a.583.583,0,0,0,0,.825h0a.583.583,0,0,0,.825,0l1.65-1.65,1.237,1.238.413.412a.583.583,0,0,0,.825,0l.412-.412,1.65-1.65a.583.583,0,0,0,0-.825h0a.583.583,0,0,0-.825,0Z" fill="#70707a"/>
    <rect id="矩形_1854" data-name="矩形 1854" width="14" height="1.167" rx="0.583" transform="translate(108.025 34.282)" fill="#70707a"/>
    <path id="矩形_1855" data-name="矩形 1855" d="M.583,0h0a.583.583,0,0,1,.583.583v.583a0,0,0,0,1,0,0H0a0,0,0,0,1,0,0V.583A.583.583,0,0,1,.583,0Z" transform="translate(114.442 33.116)" fill="#70707a"/>
    <path id="路径_2687" data-name="路径 2687" d="M118.155,45.535l-2.042-2.042v.186h-1.805V43.41l-2.127,2.127a.583.583,0,1,0,.825.825l2.163-2.163,2.161,2.161a.583.583,0,0,0,.825,0h0A.583.583,0,0,0,118.155,45.535Z" fill="#70707a"/>
  </g>
</svg>
