<svg xmlns="http://www.w3.org/2000/svg" width="13" height="14" viewBox="0 0 13 14">
  <g id="组_5135" data-name="组 5135" transform="translate(-56.932 -55.07)">
    <path id="路径_2688" data-name="路径 2688" d="M67.724,66.77H59.18a2.292,2.292,0,0,1-.7-.1,2.114,2.114,0,0,1-1.538-2.24A2.2,2.2,0,0,1,59.188,62.6h1.929a.445.445,0,0,0,.448-.44.426.426,0,0,0-.2-.364,3.559,3.559,0,0,1-1.729-3.691,3.732,3.732,0,0,1,2.944-2.943,4.007,4.007,0,0,1,3.27.709,3.529,3.529,0,0,1,.04,5.666c-.08.059-.147.1-.215.146a1.256,1.256,0,0,0-.259.194.44.44,0,0,0,.346.722h1.961a2.25,2.25,0,0,1,.687.1,2.056,2.056,0,0,1,0,3.971h0A2.262,2.262,0,0,1,67.724,66.77Zm-8.536-3.145a1.115,1.115,0,0,0-1.143.912A1.1,1.1,0,0,0,58.84,65.7a1.168,1.168,0,0,0,.341.044h8.544a1.1,1.1,0,0,0,.325-.042h0a1.061,1.061,0,0,0-.325-2.078H65.763a1.514,1.514,0,0,1-1.556-1.464,1.418,1.418,0,0,1,.332-.9,2.044,2.044,0,0,1,.506-.414c.051-.032.1-.065.149-.1a2.553,2.553,0,0,0-.044-4.078,2.839,2.839,0,0,0-2.317-.5,2.673,2.673,0,0,0-2.1,2.114,2.571,2.571,0,0,0,1.248,2.668,1.42,1.42,0,0,1,.694,1.223,1.512,1.512,0,0,1-1.555,1.458Z" fill="#70707a"/>
    <rect id="矩形_1856" data-name="矩形 1856" width="9.356" height="1.112" rx="0.556" transform="translate(58.754 67.959)" fill="#70707a"/>
  </g>
</svg>
