<svg xmlns="http://www.w3.org/2000/svg" xmlns:xlink="http://www.w3.org/1999/xlink" width="16" height="16" viewBox="0 0 16 16">
  <defs>
    <style>
      .cls-1 {
        fill: #fff;
        stroke: #707070;
      }

      .cls-2 {
        clip-path: url(#clip-path);
      }

      .cls-3 {
        fill: #70707a;
      }
    </style>
    <clipPath id="clip-path">
      <rect id="矩形_10169" data-name="矩形 10169" class="cls-1" width="16" height="16" transform="translate(929 97)"/>
    </clipPath>
  </defs>
  <g id="蒙版组_185" data-name="蒙版组 185" class="cls-2" transform="translate(-929 -97)">
    <g id="组_13948" data-name="组 13948" transform="translate(834.667 114)">
      <path id="路径_6175" data-name="路径 6175" class="cls-3" d="M102.333-15.667v3.275l-.98-.588-.686-.412-.686.412L99-12.392v-3.275h3.333M102.848-17H98.485a.819.819,0,0,0-.818.818V-11a.539.539,0,0,0,.276.475.545.545,0,0,0,.269.072.541.541,0,0,0,.281-.079l2.174-1.3,2.173,1.3a.541.541,0,0,0,.281.079.545.545,0,0,0,.269-.072.539.539,0,0,0,.277-.475v-5.181a.819.819,0,0,0-.819-.818Z"/>
      <path id="路径_6176" data-name="路径 6176" class="cls-3" d="M107-15.667a1.335,1.335,0,0,1,1.333,1.334V-3.667A1.335,1.335,0,0,1,107-2.333H97.667a1.335,1.335,0,0,1-1.334-1.334V-14.333a1.335,1.335,0,0,1,1.334-1.334H107M107-17H97.667A2.667,2.667,0,0,0,95-14.333V-3.667A2.667,2.667,0,0,0,97.667-1H107a2.667,2.667,0,0,0,2.667-2.667V-14.333A2.667,2.667,0,0,0,107-17Z"/>
      <path id="路径_6177" data-name="路径 6177" class="cls-3" d="M107-15.667a1.335,1.335,0,0,1,1.333,1.334v8A1.335,1.335,0,0,1,107-5H97.667a1.335,1.335,0,0,1-1.334-1.333v-8a1.335,1.335,0,0,1,1.334-1.334H107M107-17H97.667A2.667,2.667,0,0,0,95-14.333v8a2.667,2.667,0,0,0,2.667,2.666H107a2.667,2.667,0,0,0,2.667-2.666v-8A2.667,2.667,0,0,0,107-17Z"/>
    </g>
  </g>
</svg>
