<svg xmlns="http://www.w3.org/2000/svg" width="14" height="13.95" viewBox="0 0 14 13.95">
  <g id="组_5136" data-name="组 5136" transform="translate(-55.956 -56.025)">
    <path id="路径_2689" data-name="路径 2689" d="M55.956,60.587" fill="#70707a"/>
    <rect id="矩形_1857" data-name="矩形 1857" width="5.811" height="1.162" rx="0.581" transform="translate(58.625 60.384)" fill="#70707a"/>
    <rect id="矩形_1858" data-name="矩形 1858" width="3.487" height="1.162" rx="0.581" transform="translate(58.625 64.452)" fill="#70707a"/>
    <path id="路径_2690" data-name="路径 2690" d="M64.8,69.975l-2.819-.026-.06-2.848,4.55-4.55a2.034,2.034,0,1,1,2.876,2.877ZM63.122,68.8l1.205.011,4.2-4.2A.872.872,0,1,0,67.3,63.373l-4.2,4.2Z" fill="#70707a"/>
    <rect id="矩形_1859" data-name="矩形 1859" width="3.868" height="1.162" transform="translate(66.141 63.015) rotate(45)" fill="#70707a"/>
    <path id="路径_2691" data-name="路径 2691" d="M60.078,69.972H57.754a1.745,1.745,0,0,1-1.744-1.743V57.769a1.746,1.746,0,0,1,1.744-1.744h7.554a1.746,1.746,0,0,1,1.744,1.744v2.324a.582.582,0,0,1-1.163,0V57.769a.581.581,0,0,0-.581-.581H57.754a.581.581,0,0,0-.581.581v10.46a.581.581,0,0,0,.581.581h2.324a.581.581,0,0,1,0,1.162Z" fill="#70707a"/>
  </g>
</svg>
