<svg xmlns="http://www.w3.org/2000/svg" width="20" height="20" viewBox="0 0 20 20">
  <g id="组_6774" data-name="组 6774" transform="translate(-596 -326)">
    <rect id="矩形_1757" data-name="矩形 1757" width="20" height="20" rx="4" transform="translate(596 326)" fill="#4285f4"/>
    <g id="组_1416" data-name="组 1416" transform="translate(494.053 216.809)">
      <path id="路径_2541" data-name="路径 2541" d="M107.364,115.025v5.833a1.251,1.251,0,0,0,1.25,1.25h6.667a1.251,1.251,0,0,0,1.25-1.25v-5.833Zm7.088,3.1-1.179,1.178-.294.295a.417.417,0,0,1-.59,0l-.294-.295-.884-.884-1.179,1.179a.416.416,0,1,1-.589-.589l1.179-1.179.294-.294a.417.417,0,0,1,.59,0l.294.294.884.884,1.179-1.178a.416.416,0,0,1,.589.589Z" fill="#fff"/>
      <rect id="矩形_1788" data-name="矩形 1788" width="10" height="0.833" rx="0.417" transform="translate(106.948 115.025)" fill="#fff"/>
      <path id="矩形_1789" data-name="矩形 1789" d="M.417,0h0A.417.417,0,0,1,.833.417V.833a0,0,0,0,1,0,0H0a0,0,0,0,1,0,0V.417A.417.417,0,0,1,.417,0Z" transform="translate(111.531 114.192)" fill="#fff"/>
      <path id="路径_2542" data-name="路径 2542" d="M114.183,123.063l-1.459-1.459v.133h-1.289v-.193l-1.519,1.52a.416.416,0,0,0,.589.589l1.545-1.545,1.544,1.544a.416.416,0,0,0,.589,0h0A.416.416,0,0,0,114.183,123.063Z" fill="#fff"/>
    </g>
  </g>
</svg>
