<svg xmlns="http://www.w3.org/2000/svg" width="16" height="15.999" viewBox="0 0 16 15.999">
  <g id="组_1185" data-name="组 1185" transform="translate(-123.835 -92.046)" opacity="0.5">
    <path id="路径_2188" data-name="路径 2188" d="M135.974,97.245,132.3,93.574a.668.668,0,0,0-.943,0L127.7,97.235l-.943-.942,3.662-3.662a2,2,0,0,1,2.829,0l3.671,3.671Z" fill="#9a9aa2"/>
    <g id="组_1184" data-name="组 1184">
      <rect id="矩形_1482" data-name="矩形 1482" width="9.333" height="1.333" rx="0.583" transform="translate(127.169 99.712)" fill="#9a9aa2"/>
      <rect id="矩形_1483" data-name="矩形 1483" width="6.667" height="1.333" rx="0.583" transform="translate(127.169 103.045)" fill="#9a9aa2"/>
    </g>
    <path id="路径_2189" data-name="路径 2189" d="M137.835,108.045h-12a2,2,0,0,1-2-2v-8a2,2,0,0,1,2-2h12a2,2,0,0,1,2,2v8A2,2,0,0,1,137.835,108.045Zm-12-10.666a.666.666,0,0,0-.666.666v8a.667.667,0,0,0,.666.667h12a.667.667,0,0,0,.667-.667v-8a.667.667,0,0,0-.667-.666Z" fill="#9a9aa2"/>
  </g>
</svg>
