<svg xmlns="http://www.w3.org/2000/svg" width="15.7" height="16" viewBox="0 0 15.7 16">
  <defs>
    <style>
      .cls-1 {
        fill: #70707a;
      }
    </style>
  </defs>
  <g id="组_1240" data-name="组 1240" transform="translate(-173.049 -92.046)">
    <path id="路径_2162" data-name="路径 2162" class="cls-1" d="M180.186,93.446A2.595,2.595,0,1,1,177.6,96.04a2.593,2.593,0,0,1,2.587-2.594m0-1.4a3.995,3.995,0,1,0,3.986,3.994,3.99,3.99,0,0,0-3.986-3.994Z"/>
    <path id="路径_2163" data-name="路径 2163" class="cls-1" d="M185.256,101.046h0a.7.7,0,0,0-.7.7v5.6a.7.7,0,0,0,.7.7h0a.7.7,0,0,0,.7-.7v-5.6a.7.7,0,0,0-.7-.7Z"/>
    <path id="路径_2164" data-name="路径 2164" class="cls-1" d="M188.049,103.846h-5.586a.7.7,0,0,0,0,1.4h5.586a.7.7,0,0,0,0-1.4Z"/>
    <path id="路径_2165" data-name="路径 2165" class="cls-1" d="M180.911,107.118h-6.6a1.26,1.26,0,0,1-1.258-1.26,4.832,4.832,0,0,1,4.822-4.83H181a.7.7,0,0,1,0,1.4h-3.127a3.428,3.428,0,0,0-3.419,3.289h6.459a.7.7,0,0,1,0,1.4Z"/>
  </g>
</svg>
