<?xml version="1.0" encoding="UTF-8"?>
<svg width="14px" height="14px" viewBox="0 0 14 14" version="1.1" xmlns="http://www.w3.org/2000/svg" xmlns:xlink="http://www.w3.org/1999/xlink">
    <!-- Generator: Sketch 60.1 (88133) - https://sketch.com -->
    <title>形状结合</title>
    <desc>Created with Sketch.</desc>
    <g id="【ICON库】" stroke="none" stroke-width="1" fill="none" fill-rule="evenodd">
        <g id="8.16迭代版本工作台/项目" transform="translate(-196.000000, -342.000000)" fill="#3949AB">
            <g id="编组-19备份-2" transform="translate(196.000000, 342.000000)">
                <path d="M7,0 C7.27614237,-5.07265313e-17 7.5,0.223857625 7.5,0.5 L7.5,6.5 L13.5,6.5 C13.7761424,6.5 14,6.72385763 14,7 C14,7.27614237 13.7761424,7.5 13.5,7.5 L7.5,7.5 L7.5,13.5 C7.5,13.7761424 7.27614237,14 7,14 C6.72385763,14 6.5,13.7761424 6.5,13.5 L6.5,7.5 L0.5,7.5 C0.223857625,7.5 3.38176876e-17,7.27614237 0,7 C-3.38176876e-17,6.72385763 0.223857625,6.5 0.5,6.5 L6.5,6.5 L6.5,0.5 C6.5,0.223857625 6.72385763,5.07265313e-17 7,0 Z" id="形状结合"></path>
            </g>
        </g>
    </g>
</svg>