<svg xmlns="http://www.w3.org/2000/svg" xmlns:xlink="http://www.w3.org/1999/xlink" width="22" height="22" viewBox="0 0 22 22">
  <defs>
    <style>
      .cls-1 {
        fill: #fff;
      }

      .cls-2 {
        clip-path: url(#clip-path);
      }

      .cls-3 {
        fill: #4285f4;
      }

      .cls-4, .cls-6 {
        fill: none;
      }

      .cls-4 {
        stroke: #4285f4;
        stroke-miterlimit: 10;
        stroke-width: 2px;
      }

      .cls-5 {
        stroke: none;
      }
    </style>
    <clipPath id="clip-path">
      <rect id="矩形_1901" data-name="矩形 1901" class="cls-1" width="22" height="22" transform="translate(24 340)"/>
    </clipPath>
  </defs>
  <g id="蒙版组_20" data-name="蒙版组 20" class="cls-2" transform="translate(-24 -340)">
    <g id="组_5163" data-name="组 5163" transform="translate(2 -65)">
      <g id="组_5162" data-name="组 5162" transform="translate(-134.599 398.031)">
        <path id="路径_2718" data-name="路径 2718" class="cls-3" d="M173.33,14.871a1,1,0,0,1-.707-.293l-4.317-4.318a1,1,0,0,0-1.414,0l-4.3,4.3a1,1,0,0,1-1.414-1.414l4.3-4.3a3,3,0,0,1,4.242,0l4.317,4.318a1,1,0,0,1-.707,1.707Z"/>
        <path id="路径_2719" data-name="路径 2719" class="cls-3" d="M168.6,23.467h-6a1,1,0,0,1,0-2h6a1,1,0,0,1,0,2Z"/>
        <path id="路径_2720" data-name="路径 2720" class="cls-3" d="M172.6,19.467h-10a1,1,0,0,1,0-2h10a1,1,0,0,1,0,2Z"/>
        <g id="矩形_1900" data-name="矩形 1900" class="cls-4" transform="translate(157.599 12.967)">
          <rect class="cls-5" width="20" height="15" rx="3"/>
          <rect class="cls-6" x="1" y="1" width="18" height="13" rx="2"/>
        </g>
      </g>
    </g>
  </g>
</svg>
