<svg xmlns="http://www.w3.org/2000/svg" width="14" height="10" viewBox="0 0 14 10">
  <defs>
    <style>
      .cls-1 {
        fill: #70707a;
      }
    </style>
  </defs>
  <g id="组_1514" data-name="组 1514" transform="translate(-130 -58)">
    <path id="路径_2386" data-name="路径 2386" class="cls-1" d="M135,68h-3.5a1.5,1.5,0,0,1-1.5-1.5v-7a1.5,1.5,0,0,1,1.5-1.5H135a1.5,1.5,0,0,1,1.5,1.5v7A1.5,1.5,0,0,1,135,68Zm-3.5-9a.5.5,0,0,0-.5.5v7a.5.5,0,0,0,.5.5H135a.5.5,0,0,0,.5-.5v-7a.5.5,0,0,0-.5-.5Z"/>
    <path id="路径_2387" data-name="路径 2387" class="cls-1" d="M142.5,68H139a1.5,1.5,0,0,1-1.5-1.5v-7A1.5,1.5,0,0,1,139,58h3.5a1.5,1.5,0,0,1,1.5,1.5v7A1.5,1.5,0,0,1,142.5,68ZM139,59a.5.5,0,0,0-.5.5v7a.5.5,0,0,0,.5.5h3.5a.5.5,0,0,0,.5-.5v-7a.5.5,0,0,0-.5-.5Z"/>
  </g>
</svg>
