<svg xmlns="http://www.w3.org/2000/svg" xmlns:xlink="http://www.w3.org/1999/xlink" width="22" height="22" viewBox="0 0 22 22">
  <defs>
    <style>
      .cls-1 {
        fill: #fff;
      }

      .cls-2 {
        clip-path: url(#clip-path);
      }

      .cls-3 {
        fill: #accaf7;
        stroke: #accaf7;
        stroke-miterlimit: 10;
        stroke-width: 0.5px;
      }
    </style>
    <clipPath id="clip-path">
      <rect id="矩形_2543" data-name="矩形 2543" class="cls-1" width="22" height="22" transform="translate(19 590)"/>
    </clipPath>
  </defs>
  <g id="蒙版组_18" data-name="蒙版组 18" class="cls-2" transform="translate(-19 -590)">
    <g id="组_401" data-name="组 401" transform="translate(8.457 472.798)">
      <path id="路径_24" data-name="路径 24" class="cls-3" d="M24.956,119.706a1.016,1.016,0,0,1,1,1v6.756a1,1,0,0,1-1,1H20.037a1.5,1.5,0,0,0-1.117.5l-1.9,2.106v-1.1a1.5,1.5,0,0,0-1.5-1.5H14.049a1,1,0,0,1-1-1v-6.756a1,1,0,0,1,1-1H24.956m0-1.5H14.049a2.514,2.514,0,0,0-2.506,2.506v6.756a2.514,2.514,0,0,0,2.506,2.506h1.468v1.849a1.215,1.215,0,0,0,2.118.814l2.4-2.663h4.919a2.513,2.513,0,0,0,2.506-2.506v-6.756a2.513,2.513,0,0,0-2.506-2.506Z"/>
      <path id="路径_25" data-name="路径 25" class="cls-3" d="M29.873,123.667v7.9a1,1,0,0,1-1,1H27.9a1.5,1.5,0,0,0-1.5,1.5v1.1l-1.9-2.106a1.5,1.5,0,0,0-1.116-.5h-2.91a.751.751,0,0,0-.751.752h0a.751.751,0,0,0,.751.751h2.91l2.4,2.664a1.215,1.215,0,0,0,2.117-.814v-1.85h.967a2.513,2.513,0,0,0,2.506-2.506v-7.9a.751.751,0,0,0-.752-.752h0A.752.752,0,0,0,29.873,123.667Z" transform="translate(0.166 0.158)"/>
    </g>
  </g>
</svg>
