<svg xmlns="http://www.w3.org/2000/svg" width="16" height="16" viewBox="0 0 16 16">
  <defs>
    <style>
      .cls-1 {
        fill: #70707a;
      }
    </style>
  </defs>
  <g id="组_5040" data-name="组 5040" transform="translate(-212.8 -34.491)">
    <path id="路径_2485" data-name="路径 2485" class="cls-1" d="M225.467,45.158h2.666a.667.667,0,1,1,0,1.333h-2.666a.667.667,0,0,0-.667.667v2.666a.667.667,0,1,1-1.333,0V47.158A2,2,0,0,1,225.467,45.158Z"/>
    <path id="路径_2486" data-name="路径 2486" class="cls-1" d="M224.133,34.491a.666.666,0,0,1,.667.667v2.666a.667.667,0,0,0,.667.667h2.666a.667.667,0,1,1,0,1.333h-2.666a2,2,0,0,1-2-2V35.158A.666.666,0,0,1,224.133,34.491Z"/>
    <path id="路径_2487" data-name="路径 2487" class="cls-1" d="M217.467,34.491a.666.666,0,0,1,.666.667v2.666a2,2,0,0,1-2,2h-2.666a.667.667,0,1,1,0-1.333h2.666a.667.667,0,0,0,.667-.667V35.158A.666.666,0,0,1,217.467,34.491Z"/>
    <path id="路径_2488" data-name="路径 2488" class="cls-1" d="M213.467,45.158h2.666a2,2,0,0,1,2,2v2.666a.666.666,0,1,1-1.333,0V47.158a.667.667,0,0,0-.667-.667h-2.666a.667.667,0,1,1,0-1.333Z"/>
  </g>
</svg>
