<svg xmlns="http://www.w3.org/2000/svg" xmlns:xlink="http://www.w3.org/1999/xlink" width="22" height="22" viewBox="0 0 22 22">
  <defs>
    <style>
      .cls-1 {
        fill: #fff;
      }

      .cls-2 {
        clip-path: url(#clip-path);
      }

      .cls-3 {
        fill: none;
        stroke-miterlimit: 10;
      }

      .cls-4, .cls-5 {
        stroke: none;
      }

      .cls-5 {
        fill: #accaf7;
      }
    </style>
    <clipPath id="clip-path">
      <rect id="矩形_2542" data-name="矩形 2542" class="cls-1" width="22" height="22" transform="translate(19 555)"/>
    </clipPath>
  </defs>
  <g id="蒙版组_17" data-name="蒙版组 17" class="cls-2" transform="translate(-19 -555)">
    <g id="路径_26" data-name="路径 26" class="cls-3" transform="translate(-27.425 437.937)">
      <path class="cls-4" d="M57.209,120.063a5,5,0,0,0-5,5c0,.076.008.151.012.226a5,5,0,0,0,.2,9.99h10a5,5,0,1,0,0-10c-.077,0-.151.008-.227.011,0-.076.011-.15.011-.227a5,5,0,0,0-5-5Z"/>
      <path class="cls-5" d="M 57.20900344848633 122.0630035400391 C 55.56115341186523 122.0630035400391 54.21935653686523 123.3983612060547 54.20906448364258 125.0438385009766 C 54.20968627929688 125.0534820556641 54.2104377746582 125.0631103515625 54.21112442016602 125.0727081298828 C 54.21372222900391 125.1093444824219 54.21621322631836 125.1459350585938 54.21816253662109 125.1825103759766 L 54.32598495483398 127.2046203613281 L 52.30270385742188 127.2873382568359 C 50.68904113769531 127.3533172607422 49.42500305175781 128.6674041748047 49.42500305175781 130.2790069580078 C 49.42500305175781 131.9332122802734 50.77079010009766 133.2790069580078 52.42500305175781 133.2790069580078 L 62.42500305175781 133.2790069580078 C 64.07920837402344 133.2790069580078 65.42500305175781 131.9332122802734 65.42500305175781 130.2790069580078 C 65.42500305175781 128.6305541992188 64.08859252929688 127.2883605957031 62.44229125976563 127.279052734375 C 62.43350601196289 127.2795715332031 62.42475509643555 127.2801971435547 62.41599273681641 127.2807769775391 C 62.36980438232422 127.2837982177734 62.32357406616211 127.2866058349609 62.27689361572266 127.2884521484375 L 60.11421203613281 127.3738174438477 L 60.19956207275391 125.2111358642578 C 60.2014045715332 125.1644897460938 60.20420455932617 125.1183013916016 60.20722198486328 125.0721435546875 C 60.20779418945313 125.0633697509766 60.20843124389648 125.0545959472656 60.20895385742188 125.0457763671875 C 60.19963455200195 123.3994750976563 58.85745620727539 122.0630035400391 57.20900344848633 122.0630035400391 M 57.20900344848633 120.0630035400391 C 59.97000122070313 120.0630035400391 62.20900344848633 122.3009948730469 62.20900344848633 125.0630035400391 C 62.20900344848633 125.1399993896484 62.20100402832031 125.2139892578125 62.19800186157227 125.2900085449219 C 62.27400207519531 125.2870025634766 62.34800338745117 125.2789916992188 62.42500305175781 125.2789916992188 C 65.18699645996094 125.2789916992188 67.42500305175781 127.5179977416992 67.42500305175781 130.2790069580078 C 67.42500305175781 133.0399932861328 65.18699645996094 135.2790069580078 62.42500305175781 135.2790069580078 L 52.42500305175781 135.2790069580078 C 49.66400146484375 135.2790069580078 47.42500305175781 133.0399932861328 47.42500305175781 130.2790069580078 C 47.42500305175781 127.5869979858398 49.55500030517578 125.3980102539063 52.22100448608398 125.2890014648438 C 52.21700286865234 125.2139892578125 52.20900344848633 125.1390075683594 52.20900344848633 125.0630035400391 C 52.20900344848633 122.3009948730469 54.44800186157227 120.0630035400391 57.20900344848633 120.0630035400391 Z"/>
    </g>
  </g>
</svg>
