<svg xmlns="http://www.w3.org/2000/svg" xmlns:xlink="http://www.w3.org/1999/xlink" width="22" height="22" viewBox="0 0 22 22">
  <defs>
    <style>
      .cls-1 {
        fill: #fff;
      }

      .cls-2 {
        clip-path: url(#clip-path);
      }

      .cls-3 {
        fill: #4285f4;
      }
    </style>
    <clipPath id="clip-path">
      <rect id="矩形_2558" data-name="矩形 2558" class="cls-1" width="22" height="22" transform="translate(-10411 5613)"/>
    </clipPath>
  </defs>
  <g id="蒙版组_27" data-name="蒙版组 27" class="cls-2" transform="translate(10411 -5613)">
    <path id="路径_2689" data-name="路径 2689" class="cls-3" d="M237.843,46.254h-.861v-3.69a2.1,2.1,0,0,0-2.091-2.094h-3.562v-.917a2.874,2.874,0,1,0-5.747,0v.917h-3.635a2.1,2.1,0,0,0-2.092,2.094v3.554h.772a2.93,2.93,0,1,1,0,5.857h-.772v3.554a2.1,2.1,0,0,0,2.092,2.1h3.635v-.855a2.874,2.874,0,1,1,5.747,0v.855h3.562a2.1,2.1,0,0,0,2.091-2.1V51.975h.861a2.864,2.864,0,1,0,0-5.721Z" transform="translate(-10629.854 5577.376)"/>
  </g>
</svg>
