<svg xmlns="http://www.w3.org/2000/svg" xmlns:xlink="http://www.w3.org/1999/xlink" width="22" height="22" viewBox="0 0 22 22">
  <defs>
    <style>
      .cls-1 {
        fill: #fff;
      }

      .cls-2 {
        clip-path: url(#clip-path);
      }

      .cls-3 {
        fill: #accaf7;
      }
    </style>
    <clipPath id="clip-path">
      <rect id="矩形_2539" data-name="矩形 2539" class="cls-1" width="22" height="22" transform="translate(23 296)"/>
    </clipPath>
  </defs>
  <g id="蒙版组_14" data-name="蒙版组 14" class="cls-2" transform="translate(-23 -296)">
    <path id="路径_2256" data-name="路径 2256" class="cls-3" d="M234.2,30.467H230V28.735a1.658,1.658,0,1,0-3.315,0v1.732h-4.259a2.861,2.861,0,0,1-2.857-2.859V23.423h1.657a1.709,1.709,0,1,0,0-3.416h-1.657V15.823a2.862,2.862,0,0,1,2.857-2.86h2.352a3.566,3.566,0,0,1,7.13,0H234.2a2.861,2.861,0,0,1,2.856,2.86v2.4a3.552,3.552,0,0,1,0,7.1v2.279A2.86,2.86,0,0,1,234.2,30.467Zm-2.289-1.909H234.2a.95.95,0,0,0,.947-.95V23.423h1.737a1.651,1.651,0,1,0,0-3.292h-1.737V15.823a.95.95,0,0,0-.947-.951H230V13.084a1.658,1.658,0,1,0-3.315,0v1.788h-4.259a.951.951,0,0,0-.948.951v2.284a3.613,3.613,0,0,1,0,7.217v2.284a.95.95,0,0,0,.948.95h2.354a3.565,3.565,0,0,1,7.125,0Z" transform="translate(-196.57 287.533)"/>
  </g>
</svg>
