<svg xmlns="http://www.w3.org/2000/svg" width="14" height="14" viewBox="0 0 14 14">
  <defs>
    <style>
      .cls-1 {
        fill: #70707a;
      }
    </style>
  </defs>
  <g id="组_5101" data-name="组 5101" transform="translate(-256.579 -19.384)">
    <path id="路径_2658" data-name="路径 2658" class="cls-1" d="M270.041,32.217a.585.585,0,0,1,0,1.167H257.118a.585.585,0,0,1,0-1.167Z"/>
    <path id="路径_2659" data-name="路径 2659" class="cls-1" d="M267.628,20.551a.8.8,0,0,1,.571.236l.255.254a.8.8,0,0,1,0,1.138l-7.272,7.256a1.518,1.518,0,0,1-.744.409l-1.516.34.425-1.441a1.532,1.532,0,0,1,.385-.646l7.325-7.31a.8.8,0,0,1,.571-.236m0-1.167a1.968,1.968,0,0,0-1.4.578l-7.326,7.31a2.694,2.694,0,0,0-.679,1.141l-.729,2.468a.538.538,0,0,0,.514.69.56.56,0,0,0,.121-.013l2.562-.575a2.685,2.685,0,0,0,1.314-.722L269.28,23a1.969,1.969,0,0,0,0-2.789l-.254-.253h0a1.97,1.97,0,0,0-1.4-.578Z"/>
    <path id="路径_2660" data-name="路径 2660" class="cls-1" d="M266.993,20.722"/>
    <path id="路径_2661" data-name="路径 2661" class="cls-1" d="M265.619,21.156l-.827.825,2.067,2.064.827-.825-2.067-2.064Z"/>
  </g>
</svg>
