<svg xmlns="http://www.w3.org/2000/svg" width="14" height="13.166" viewBox="0 0 14 13.166">
  <defs>
    <style>
      .cls-1 {
        fill: #70707a;
      }
    </style>
  </defs>
  <path id="路径_2662" data-name="路径 2662" class="cls-1" d="M417.177,108.542a.574.574,0,0,0-.693.421l-.319,1.19a6.8,6.8,0,0,0-5.847-3.349,6.584,6.584,0,1,0,6.311,8.812.551.551,0,0,0-.01-.428.587.587,0,0,0-.334-.3.56.56,0,0,0-.732.345,5.574,5.574,0,0,1-5.235,3.588,5.431,5.431,0,1,1,0-10.86,5.543,5.543,0,0,1,5.04,3.211l-1.852-.524a.563.563,0,0,0-.433.067.578.578,0,0,0-.259.355.561.561,0,0,0,.064.429.578.578,0,0,0,.357.263l2.921.77c.008,0,.031.009.045.013a.443.443,0,0,0,.323-.029l.058-.021.018-.008a.608.608,0,0,0,.265-.345l.768-2.9,0-.019A.661.661,0,0,0,417.177,108.542Z" transform="translate(-403.635 -106.804)"/>
</svg>
