<?xml version="1.0" encoding="UTF-8"?>
<svg width="10px" height="10px" viewBox="0 0 10 10" version="1.1" xmlns="http://www.w3.org/2000/svg" xmlns:xlink="http://www.w3.org/1999/xlink">
    <!-- Generator: Sketch 60.1 (88133) - https://sketch.com -->
    <title>三角形</title>
    <desc>Created with Sketch.</desc>
    <g id="----·OKR--V5.2.8(8.12)" stroke="none" stroke-width="1" fill="none" fill-rule="evenodd">
        <g id="OKR宽详情-下拉备份" transform="translate(-602.000000, -253.000000)" fill="#545454">
            <g id="编组-24备份-10" transform="translate(607.000000, 258.000000) rotate(-270.000000) translate(-607.000000, -258.000000) translate(602.000000, 253.000000)">
                <path d="M5.76822128,2.92186554 L8.63317967,6.3598156 C8.98674375,6.7840925 8.92941968,7.4146572 8.50514279,7.76822128 C8.32542779,7.91798378 8.09889489,8 7.86495839,8 L2.13504161,8 C1.58275686,8 1.13504161,7.55228475 1.13504161,7 C1.13504161,6.76606349 1.21705783,6.5395306 1.36682033,6.3598156 L4.23177872,2.92186554 C4.5853428,2.49758864 5.2159075,2.44026457 5.6401844,2.79382866 C5.68664746,2.83254788 5.72950206,2.87540247 5.76822128,2.92186554 Z" id="三角形" transform="translate(5.000000, 5.000000) rotate(-270.000000) translate(-5.000000, -5.000000) "></path>
            </g>
        </g>
    </g>
</svg>