<svg xmlns="http://www.w3.org/2000/svg" width="14" height="14.934" viewBox="0 0 14 14.934">
  <defs>
    <style>
      .cls-1 {
        fill: #4285f4;
      }
    </style>
  </defs>
  <path id="shaixuan" class="cls-1" d="M208.029,208.983a.522.522,0,0,0,.054-.063,1.8,1.8,0,0,0,.456-1.2,1.83,1.83,0,0,0-1.839-1.817H196.377a1.83,1.83,0,0,0-1.839,1.817,1.792,1.792,0,0,0,.434,1.172.527.527,0,0,0,.073.092l4.079,4.03v4.228a.506.506,0,0,0,.18.386l.019.018,3.665,3.073a.509.509,0,0,0,.711-.057.491.491,0,0,0,.115-.388v-7.13l4.214-4.164Zm-12.187-.654a.514.514,0,0,0-.046-.056.787.787,0,0,1-.224-.55.8.8,0,0,1,.805-.8H206.7a.8.8,0,0,1,.806.8.787.787,0,0,1-.221.548c-.01.011-.02.021-.028.033l-4.323,4.271a.506.506,0,0,0-.151.361v6.305l-2.624-2.2v-4.235a.508.508,0,0,0-.151-.361l-4.165-4.115Z" transform="translate(-194.539 -205.906)"/>
</svg>
