<svg xmlns="http://www.w3.org/2000/svg" xmlns:xlink="http://www.w3.org/1999/xlink" width="22" height="22" viewBox="0 0 22 22">
  <defs>
    <style>
      .cls-1 {
        fill: #fff;
      }

      .cls-2 {
        clip-path: url(#clip-path);
      }

      .cls-3 {
        fill: #4285f4;
      }
    </style>
    <clipPath id="clip-path">
      <rect id="矩形_2548" data-name="矩形 2548" class="cls-1" width="22" height="22" transform="translate(18 630)"/>
    </clipPath>
  </defs>
  <g id="蒙版组_23" data-name="蒙版组 23" class="cls-2" transform="translate(-18 -630)">
    <path id="路径_2688" data-name="路径 2688" class="cls-3" d="M134.809,129.956a3.14,3.14,0,0,0-.259-.227c-.237-.194-.563-.459-.641-2.447-.358-6.741-3.439-7.781-4.65-8.19l-.119-.043c-.531-.219-.613-.353-.663-.435a1.69,1.69,0,0,0-1.63-.943,1.713,1.713,0,0,0-1.653.984,1.592,1.592,0,0,1-.642.4l-.166.059c-1.161.392-4.242,1.432-4.6,8.185-.078,1.976-.4,2.241-.641,2.435a3.488,3.488,0,0,0-.288.255,2.512,2.512,0,0,0-.952,2.011c0,.841.607,1.929,2.317,2.23.84.147,1.729.264,2.678.358a2.149,2.149,0,0,0,.389,1.188,4.282,4.282,0,0,0,7.117,0,2.15,2.15,0,0,0,.389-1.186c.856-.082,1.778-.191,2.678-.36,1.71-.3,2.317-1.389,2.317-2.23A2.569,2.569,0,0,0,134.809,129.956Zm-1.659,2.432a36.954,36.954,0,0,1-12.606,0c-.613-.107-.769-.35-.774-.392,0-.281.016-.307.426-.712a1.458,1.458,0,0,1,.126-.108c.789-.643,1.233-1.439,1.327-3.8.29-5.475,2.5-6.223,3.332-6.5.112-.038.207-.071.284-.1a2.889,2.889,0,0,0,1.515-1.137l.056-.1.09.115a2.887,2.887,0,0,0,1.506,1.12c.075.03.17.063.281.1.832.282,3.043,1.03,3.333,6.493.093,2.367.538,3.164,1.332,3.811a1.689,1.689,0,0,1,.149.132c.368.363.4.393.4.683-.005.043-.161.286-.774.393Zm-6.3,3.467a2.587,2.587,0,0,1-2.078-1.137c.691.039,1.384.07,2.079.07s1.384-.026,2.074-.064A2.583,2.583,0,0,1,126.847,135.855Z" transform="translate(-97.905 513.329)"/>
  </g>
</svg>
