<svg xmlns="http://www.w3.org/2000/svg" xmlns:xlink="http://www.w3.org/1999/xlink" width="22" height="22" viewBox="0 0 22 22">
  <defs>
    <style>
      .cls-1 {
        fill: #fff;
      }

      .cls-2 {
        clip-path: url(#clip-path);
      }

      .cls-3 {
        fill: #accaf7;
      }
    </style>
    <clipPath id="clip-path">
      <rect id="矩形_2560" data-name="矩形 2560" class="cls-1" width="22" height="22" transform="translate(-10406 5463)"/>
    </clipPath>
  </defs>
  <g id="蒙版组_30" data-name="蒙版组 30" class="cls-2" transform="translate(10406 -5463)">
    <g id="组_6763" data-name="组 6763" transform="translate(-10429 5299)">
      <g id="组_682" data-name="组 682" transform="translate(-102.816 153.033)">
        <path id="路径_91" data-name="路径 91" d="M140,28.046"/>
        <g id="组_681" data-name="组 681">
          <rect id="矩形_1296" data-name="矩形 1296" class="cls-3" width="2" height="5" rx="1" transform="translate(132.316 11.967)"/>
          <rect id="矩形_1297" data-name="矩形 1297" class="cls-3" width="2" height="5" rx="1" transform="translate(139.316 11.967)"/>
        </g>
        <path id="路径_92" data-name="路径 92" class="cls-3" d="M141.816,31.967h-10a4,4,0,0,1-4-4v-10.5a4.005,4.005,0,0,1,4-4h10a4,4,0,0,1,4,4v10.5A4,4,0,0,1,141.816,31.967Zm-10-16.5a2,2,0,0,0-2,2v10.5a2,2,0,0,0,2,2h10a2,2,0,0,0,2-2v-10.5a2,2,0,0,0-2-2Z"/>
        <rect id="矩形_1298" data-name="矩形 1298" class="cls-3" width="10" height="2" rx="1" transform="translate(131.816 19.967)"/>
        <rect id="矩形_1299" data-name="矩形 1299" class="cls-3" width="6" height="2" rx="1" transform="translate(131.816 24.967)"/>
      </g>
    </g>
  </g>
</svg>
