<svg xmlns="http://www.w3.org/2000/svg" width="20.001" height="18.841" viewBox="0 0 20.001 18.841">
  <defs>
    <style>
      .cls-1 {
        fill: none;
        stroke-miterlimit: 10;
      }

      .cls-2 {
        stroke: #70707a;
      }

      .cls-3, .cls-4 {
        stroke: none;
      }

      .cls-4 {
        fill: #70707a;
      }
    </style>
  </defs>
  <g id="组_1269" data-name="组 1269" transform="translate(-52.941 -53.573)">
    <g id="路径_2264" data-name="路径 2264" class="cls-1">
      <path class="cls-3" d="M65.332,53.573H60.551A5.226,5.226,0,0,0,56.033,56.2l-2.4,4.174a5.282,5.282,0,0,0,0,5.244l2.4,4.174a5.226,5.226,0,0,0,4.518,2.625h4.783a5.222,5.222,0,0,0,4.516-2.625l2.4-4.174a5.282,5.282,0,0,0,0-5.244L69.85,56.2a5.223,5.223,0,0,0-4.518-2.624Z"/>
      <path class="cls-4" d="M 60.55191040039063 55.072998046875 C 59.22676086425781 55.07769012451172 57.99385833740234 55.79434204101563 57.33404541015625 56.94351959228516 L 54.94022369384766 61.11547088623047 C 54.27814483642578 62.2735710144043 54.27814483642578 63.71242904663086 54.93904113769531 64.86848449707031 L 57.33437347412109 69.04306030273438 C 57.99342346191406 70.19284057617188 59.22779846191406 70.90974426269531 60.55100250244141 70.91400146484375 L 65.32917785644531 70.91400909423828 C 66.65667724609375 70.90974426269531 67.89015197753906 70.19306945800781 68.54896545410156 69.04248046875 L 70.94277954101563 64.87052917480469 C 71.6048583984375 63.71242904663086 71.6048583984375 62.2735710144043 70.94396209716797 61.11752319335938 L 68.54862976074219 56.94293975830078 C 67.8895263671875 55.79306793212891 66.65545654296875 55.07655334472656 65.33200073242188 55.072998046875 L 60.55191040039063 55.072998046875 M 60.55100250244141 53.572998046875 L 65.33200073242188 53.572998046875 C 67.19900512695313 53.5780029296875 68.9219970703125 54.5780029296875 69.85000610351563 56.19699859619141 L 72.24500274658203 60.37100219726563 C 73.17399597167969 61.99599838256836 73.17399597167969 63.98999786376953 72.24500274658203 65.61499786376953 L 69.85000610351563 69.78900146484375 C 68.92298889160156 71.40800476074219 67.20098876953125 72.40800476074219 65.33399963378906 72.41400146484375 L 60.55100250244141 72.41400146484375 C 58.68399810791016 72.40800476074219 56.96099853515625 71.40800476074219 56.03300476074219 69.78900146484375 L 53.63800048828125 65.61499786376953 C 52.70899963378906 63.98999786376953 52.70899963378906 61.99599838256836 53.63800048828125 60.37100219726563 L 56.03300476074219 56.19699859619141 C 56.96199798583984 54.57898712158203 58.68399810791016 53.5780029296875 60.55100250244141 53.572998046875 Z"/>
    </g>
    <g id="路径_2265" data-name="路径 2265" class="cls-1">
      <path class="cls-3" d="M62.943,58.722a4.269,4.269,0,1,0,4.243,4.268,4.261,4.261,0,0,0-4.243-4.268Z"/>
      <path class="cls-4" d="M 62.94299697875977 60.22200012207031 C 61.43049621582031 60.22200012207031 60.19999694824219 61.46372222900391 60.19999694824219 62.9900016784668 C 60.19999694824219 64.51683044433594 61.43049621582031 65.75900268554688 62.94299697875977 65.75900268554688 C 64.45549774169922 65.75900268554688 65.68599700927734 64.51683044433594 65.68599700927734 62.9900016784668 C 65.68599700927734 61.46372222900391 64.45549774169922 60.22200012207031 62.94299697875977 60.22200012207031 M 62.94299697875977 58.72200012207031 C 65.28199768066406 58.72200012207031 67.18599700927734 60.63700103759766 67.18599700927734 62.9900016784668 C 67.18599700927734 65.34300231933594 65.28199768066406 67.25900268554688 62.94299697875977 67.25900268554688 C 60.60400390625 67.25900268554688 58.69999694824219 65.34300231933594 58.69999694824219 62.9900016784668 C 58.69999694824219 60.63700103759766 60.60400390625 58.72200012207031 62.94299697875977 58.72200012207031 Z"/>
    </g>
    <path id="路径_2266" data-name="路径 2266" class="cls-2" d="M62.943,60.385"/>
  </g>
</svg>
