<svg xmlns="http://www.w3.org/2000/svg" xmlns:xlink="http://www.w3.org/1999/xlink" width="24.072" height="24" viewBox="0 0 24.072 24">
  <defs>
    <style>
      .cls-1 {
        fill: none;
      }

      .cls-2 {
        fill: url(#linear-gradient);
      }

      .cls-3 {
        clip-path: url(#clip-path);
      }

      .cls-4 {
        fill: #ffc6bd;
      }

      .cls-4, .cls-5 {
        opacity: 0.3;
      }

      .cls-5 {
        fill: #ffb7ab;
      }

      .cls-6 {
        fill: #ef6135;
      }

      .cls-7 {
        fill: #fff;
      }

      .cls-8 {
        fill: #ffc9af;
      }
    </style>
    <linearGradient id="linear-gradient" y1="0.5" x2="1" y2="0.5" gradientUnits="objectBoundingBox">
      <stop offset="0" stop-color="#fd713f"/>
      <stop offset="1" stop-color="#fd8c3f"/>
    </linearGradient>
    <clipPath id="clip-path">
      <rect id="矩形_8474" data-name="矩形 8474" class="cls-1" width="24" height="24" rx="12" transform="translate(154.87 212.168)"/>
    </clipPath>
  </defs>
  <g id="组_11268" data-name="组 11268" transform="translate(-154.87 -212.168)">
    <rect id="矩形_8473" data-name="矩形 8473" class="cls-2" width="24" height="24" rx="12" transform="translate(154.942 212.168)"/>
    <g id="组_11264" data-name="组 11264">
      <g id="组_11263" data-name="组 11263" class="cls-3">
        <circle id="椭圆_878" data-name="椭圆 878" class="cls-4" cx="3.249" cy="3.249" r="3.249" transform="translate(173.622 229.342)"/>
        <circle id="椭圆_879" data-name="椭圆 879" class="cls-5" cx="3.695" cy="3.695" r="3.695" transform="translate(156.383 211.921)"/>
      </g>
    </g>
    <g id="组_11267" data-name="组 11267">
      <g id="组_11265" data-name="组 11265">
        <path id="路径_4175" data-name="路径 4175" class="cls-6" d="M169.313,218.681v.011c-.048,0-.247-.019-.748-.011h-4.491a1.5,1.5,0,0,0-1.5,1.5v8.982a1.5,1.5,0,0,0,1.5,1.5h6.736a1.5,1.5,0,0,0,1.5-1.5v-7.485Zm.375,8.982H165.2a.374.374,0,1,1,0-.748h4.491a.374.374,0,0,1,0,.748Zm0-2.245H165.2a.374.374,0,1,1,0-.749h4.491a.374.374,0,0,1,0,.749Zm.374-3.743a.749.749,0,0,1-.749-.748v-1.5l2.246,2.245Zm0,0"/>
      </g>
      <g id="组_11266" data-name="组 11266">
        <path id="路径_4176" data-name="路径 4176" class="cls-7" d="M168.813,218.181v.011c-.048,0-.247-.019-.748-.011h-4.491a1.5,1.5,0,0,0-1.5,1.5v8.982a1.5,1.5,0,0,0,1.5,1.5h6.736a1.5,1.5,0,0,0,1.5-1.5v-7.485Zm.375,8.982H164.7a.374.374,0,1,1,0-.748h4.491a.374.374,0,0,1,0,.748Zm0-2.245H164.7a.374.374,0,1,1,0-.749h4.491a.374.374,0,0,1,0,.749Zm.374-3.743a.749.749,0,0,1-.749-.748v-1.5l2.246,2.245Zm0,0"/>
      </g>
    </g>
    <rect id="矩形_8475" data-name="矩形 8475" class="cls-8" width="5.524" height="0.916" rx="0.458" transform="translate(164.18 224.002)"/>
    <rect id="矩形_8476" data-name="矩形 8476" class="cls-8" width="5.524" height="0.916" rx="0.458" transform="translate(164.18 226.247)"/>
  </g>
</svg>
