<svg xmlns="http://www.w3.org/2000/svg" xmlns:xlink="http://www.w3.org/1999/xlink" viewBox="0 0 15 15"><defs><style>.cls-1{fill:none;}.cls-2{clip-path:url(#clip-path);}.cls-3{fill:#717171;}</style><clipPath id="clip-path" transform="translate(-0.5 -0.5)"><rect class="cls-1" width="16" height="16"/></clipPath></defs><title>资源 40</title><g id="图层_2" data-name="图层 2"><g id="图层_1-2" data-name="图层 1"><g class="cls-2"><path class="cls-3" d="M6.45,10.64V5.36A.34.34,0,0,1,7,5.12L10.3,7.64a.44.44,0,0,1,0,.72L7,10.88a.34.34,0,0,1-.54-.24" transform="translate(-0.5 -0.5)"/><path class="cls-3" d="M8,1.75A6.25,6.25,0,1,1,1.75,8,6.25,6.25,0,0,1,8,1.75M8,.5A7.5,7.5,0,1,0,15.5,8,7.5,7.5,0,0,0,8,.5Z" transform="translate(-0.5 -0.5)"/></g></g></g></svg>