<svg xmlns="http://www.w3.org/2000/svg" xmlns:xlink="http://www.w3.org/1999/xlink" width="22" height="22" viewBox="0 0 22 22">
  <defs>
    <style>
      .cls-1 {
        fill: #fff;
      }

      .cls-2 {
        clip-path: url(#clip-path);
      }

      .cls-3 {
        fill: #4285f4;
      }
    </style>
    <clipPath id="clip-path">
      <rect id="矩形_1896" data-name="矩形 1896" class="cls-1" width="22" height="22" transform="translate(11 192)"/>
    </clipPath>
  </defs>
  <g id="蒙版组_17" data-name="蒙版组 17" class="cls-2" transform="translate(-11 -192)">
    <g id="组_5159" data-name="组 5159" transform="translate(-1891.17 -1195.829)">
      <path id="路径_2710" data-name="路径 2710" class="cls-3" d="M78.63,17.29" transform="translate(1842.184 1378.954)"/>
      <path id="路径_2711" data-name="路径 2711" class="cls-3" d="M74.392,13.7" transform="translate(1842.184 1378.954)"/>
      <rect id="矩形_1894" data-name="矩形 1894" class="cls-3" width="3.726" height="1.432" transform="translate(1909.236 1398.408)"/>
      <path id="路径_2712" data-name="路径 2712" class="cls-3" d="M76.316,26.346h-2.9A2.523,2.523,0,0,1,70.8,23.941V16.468a2.524,2.524,0,0,1,2.622-2.405h2.9v2h-2.9c-.356,0-.622.214-.622.405v7.473c0,.191.266.405.622.405h2.9Z" transform="translate(1842.184 1378.954)"/>
      <rect id="矩形_1895" data-name="矩形 1895" class="cls-3" width="3.946" height="2" transform="translate(1909.542 1398.159)"/>
      <path id="路径_2713" data-name="路径 2713" class="cls-3" d="M65.342,24.834H63.986a3,3,0,0,1-3-3V18.576a3,3,0,0,1,3-3h1.356a3,3,0,0,1,3,3v3.258A3,3,0,0,1,65.342,24.834Zm-1.356-7.258a1,1,0,0,0-1,1v3.258a1,1,0,0,0,1,1h1.356a1,1,0,0,0,1-1V18.576a1,1,0,0,0-1-1Z" transform="translate(1842.184 1378.954)"/>
      <path id="路径_2714" data-name="路径 2714" class="cls-3" d="M78.983,19.132H77.627a3,3,0,0,1-3-3V12.875a3,3,0,0,1,3-3h1.356a3,3,0,0,1,3,3v3.257A3,3,0,0,1,78.983,19.132Zm-1.356-7.257a1,1,0,0,0-1,1v3.257a1,1,0,0,0,1,1h1.356a1,1,0,0,0,1-1V12.875a1,1,0,0,0-1-1Z" transform="translate(1842.184 1378.954)"/>
      <path id="路径_2715" data-name="路径 2715" class="cls-3" d="M78.983,30.535H77.627a3,3,0,0,1-3-3V24.277a3,3,0,0,1,3-3h1.356a3,3,0,0,1,3,3v3.258A3,3,0,0,1,78.983,30.535Zm-1.356-7.258a1,1,0,0,0-1,1v3.258a1,1,0,0,0,1,1h1.356a1,1,0,0,0,1-1V24.277a1,1,0,0,0-1-1Z" transform="translate(1842.184 1378.954)"/>
    </g>
  </g>
</svg>
