<svg xmlns="http://www.w3.org/2000/svg" viewBox="0 0 20 20"><defs><style>.cls-1{fill:#accaf7;}</style></defs><title>资源 41</title><g id="图层_2" data-name="图层 2"><g id="图层_1-2" data-name="图层 1"><path class="cls-1" d="M16,18H4a1,1,0,0,0,0,2H16a1,1,0,0,0,0-2Z"/><path class="cls-1" d="M16,2a2,2,0,0,1,2,2v8a2,2,0,0,1-2,2H4a2,2,0,0,1-2-2V4A2,2,0,0,1,4,2H16m0-2H4A4,4,0,0,0,0,4v8a4,4,0,0,0,4,4H16a4,4,0,0,0,4-4V4a4,4,0,0,0-4-4Z"/><path class="cls-1" d="M5,7A1,1,0,0,0,4,8v3a1,1,0,0,0,2,0V8A1,1,0,0,0,5,7Z"/><path class="cls-1" d="M10,4A1,1,0,0,0,9,5v6a1,1,0,1,0,2,0V5a1,1,0,0,0-1-1Z"/><path class="cls-1" d="M15,7a1,1,0,0,0-1,1v3a1,1,0,1,0,2,0V8a1,1,0,0,0-1-1Z"/></g></g></svg>