<svg xmlns="http://www.w3.org/2000/svg" xmlns:xlink="http://www.w3.org/1999/xlink" width="24" height="24" viewBox="0 0 24 24">
  <defs>
    <style>
      .cls-1 {
        fill: none;
      }

      .cls-2 {
        fill: url(#linear-gradient);
      }

      .cls-3 {
        clip-path: url(#clip-path);
      }

      .cls-4 {
        fill: #ffedca;
      }

      .cls-4, .cls-5 {
        opacity: 0.3;
      }

      .cls-5 {
        fill: #ffebd2;
      }

      .cls-6 {
        mix-blend-mode: multiply;
        isolation: isolate;
      }

      .cls-7 {
        fill: #e0a000;
      }

      .cls-8 {
        fill: #fff;
      }
    </style>
    <linearGradient id="linear-gradient" y1="0.5" x2="1" y2="0.5" gradientUnits="objectBoundingBox">
      <stop offset="0" stop-color="#f9ba05"/>
      <stop offset="1" stop-color="#f7ce69"/>
    </linearGradient>
    <clipPath id="clip-path">
      <rect id="矩形_9106" data-name="矩形 9106" class="cls-1" width="24" height="24" rx="12" transform="translate(236.125 145.488)"/>
    </clipPath>
  </defs>
  <g id="组_12280" data-name="组 12280" transform="translate(-236.125 -145.488)">
    <g id="组_12275" data-name="组 12275">
      <g id="组_12274" data-name="组 12274">
        <rect id="矩形_9105" data-name="矩形 9105" class="cls-2" width="24" height="24" rx="12" transform="translate(236.125 145.488)"/>
        <g id="组_12273" data-name="组 12273">
          <g id="组_12272" data-name="组 12272" class="cls-3">
            <circle id="椭圆_1061" data-name="椭圆 1061" class="cls-4" cx="3.249" cy="3.249" r="3.249" transform="translate(254.876 162.662)"/>
            <circle id="椭圆_1062" data-name="椭圆 1062" class="cls-5" cx="3.695" cy="3.695" r="3.695" transform="translate(237.637 145.241)"/>
          </g>
        </g>
      </g>
    </g>
    <g id="组_12279" data-name="组 12279" transform="translate(0 -0.762)">
      <g id="组_12458" data-name="组 12458" class="cls-6" transform="translate(-103.375 -149.975)">
        <g id="组_8293" data-name="组 8293" transform="translate(345.5 308.207)">
          <path id="路径_3339" data-name="路径 3339" class="cls-7" d="M350.279,327.539a7.637,7.637,0,0,0-.679-3.665c-.027-.054-.054-.081-.082-.136a7.85,7.85,0,0,0-1.466,1.629,7.086,7.086,0,0,0,2.226,2.172Z" transform="translate(-347.076 -321.647)"/>
          <path id="路径_3340" data-name="路径 3340" class="cls-7" d="M346.1,321.262a6.28,6.28,0,0,1-.6-2.715v-.272a4.815,4.815,0,0,1,2.036,1.466,9.359,9.359,0,0,0-1.439,1.52Z" transform="translate(-345.5 -318.276)"/>
        </g>
        <g id="组_8294" data-name="组 8294" transform="translate(345.582 301.963)">
          <path id="路径_3341" data-name="路径 3341" class="cls-7" d="M365.566,320.068a10.634,10.634,0,0,1-5.376-1.954A5.643,5.643,0,0,1,359.159,317c-.3.163-.57.326-.869.516-.244.163-.488.3-.733.462.217.38.434.787.679,1.167a15.451,15.451,0,0,0,3.882,4.588A6.8,6.8,0,0,0,365.566,320.068Z" transform="translate(-353.023 -311.244)"/>
          <path id="路径_3342" data-name="路径 3342" class="cls-7" d="M358.738,326.193a6.448,6.448,0,0,1-4.4-.272,8.832,8.832,0,0,0-.733-4.371,2.423,2.423,0,0,0-.163-.271q.448-.366.977-.733l.651,1.14A17.807,17.807,0,0,0,358.738,326.193Z" transform="translate(-350.485 -313.433)"/>
          <path id="路径_3343" data-name="路径 3343" class="cls-7" d="M345.713,310.687a5.679,5.679,0,0,1,2.552,1.765c.326-.272.679-.516,1.032-.76a21.863,21.863,0,0,1-1.819-4.48A6.2,6.2,0,0,0,345.713,310.687Z" transform="translate(-345.713 -305.203)"/>
          <path id="路径_3344" data-name="路径 3344" class="cls-7" d="M351.954,303.375A6.434,6.434,0,0,1,356,301.963h.245a6.6,6.6,0,0,0-1.222,2.986,3.918,3.918,0,0,0,.326,2.091c-.3.163-.6.353-.9.516-.244.136-.461.3-.706.434A19.157,19.157,0,0,1,351.954,303.375Z" transform="translate(-349.565 -301.963)"/>
          <path id="路径_3345" data-name="路径 3345" class="cls-7" d="M363.259,302.176a5.9,5.9,0,0,0-1.33,2.986,3.384,3.384,0,0,0,.244,1.656,20.6,20.6,0,0,1,5.294-2.036A6.687,6.687,0,0,0,363.259,302.176Z" transform="translate(-355.712 -302.094)"/>
          <path id="路径_3346" data-name="路径 3346" class="cls-7" d="M368.722,310.616a6.511,6.511,0,0,1,.624,4.778,9.84,9.84,0,0,1-5.131-1.819,3.726,3.726,0,0,1-.842-.9,19.577,19.577,0,0,1,5.349-2.009Z" transform="translate(-356.613 -307.304)"/>
        </g>
      </g>
      <g id="组_8295" data-name="组 8295" transform="translate(-103.882 -150.475)">
        <g id="组_8293-2" data-name="组 8293" transform="translate(345.5 308.207)">
          <path id="路径_3339-2" data-name="路径 3339" class="cls-8" d="M350.279,327.539a7.637,7.637,0,0,0-.679-3.665c-.027-.054-.054-.081-.082-.136a7.85,7.85,0,0,0-1.466,1.629,7.086,7.086,0,0,0,2.226,2.172Z" transform="translate(-347.076 -321.647)"/>
          <path id="路径_3340-2" data-name="路径 3340" class="cls-8" d="M346.1,321.262a6.28,6.28,0,0,1-.6-2.715v-.272a4.815,4.815,0,0,1,2.036,1.466,9.359,9.359,0,0,0-1.439,1.52Z" transform="translate(-345.5 -318.276)"/>
        </g>
        <g id="组_8294-2" data-name="组 8294" transform="translate(345.582 301.963)">
          <path id="路径_3341-2" data-name="路径 3341" class="cls-8" d="M365.566,320.068a10.634,10.634,0,0,1-5.376-1.954A5.643,5.643,0,0,1,359.159,317c-.3.163-.57.326-.869.516-.244.163-.488.3-.733.462.217.38.434.787.679,1.167a15.451,15.451,0,0,0,3.882,4.588A6.8,6.8,0,0,0,365.566,320.068Z" transform="translate(-353.023 -311.244)"/>
          <path id="路径_3342-2" data-name="路径 3342" class="cls-8" d="M358.738,326.193a6.448,6.448,0,0,1-4.4-.272,8.832,8.832,0,0,0-.733-4.371,2.423,2.423,0,0,0-.163-.271q.448-.366.977-.733l.651,1.14A17.807,17.807,0,0,0,358.738,326.193Z" transform="translate(-350.485 -313.433)"/>
          <path id="路径_3343-2" data-name="路径 3343" class="cls-8" d="M345.713,310.687a5.679,5.679,0,0,1,2.552,1.765c.326-.272.679-.516,1.032-.76a21.863,21.863,0,0,1-1.819-4.48A6.2,6.2,0,0,0,345.713,310.687Z" transform="translate(-345.713 -305.203)"/>
          <path id="路径_3344-2" data-name="路径 3344" class="cls-8" d="M351.954,303.375A6.434,6.434,0,0,1,356,301.963h.245a6.6,6.6,0,0,0-1.222,2.986,3.918,3.918,0,0,0,.326,2.091c-.3.163-.6.353-.9.516-.244.136-.461.3-.706.434A19.157,19.157,0,0,1,351.954,303.375Z" transform="translate(-349.565 -301.963)"/>
          <path id="路径_3345-2" data-name="路径 3345" class="cls-8" d="M363.259,302.176a5.9,5.9,0,0,0-1.33,2.986,3.384,3.384,0,0,0,.244,1.656,20.6,20.6,0,0,1,5.294-2.036A6.687,6.687,0,0,0,363.259,302.176Z" transform="translate(-355.712 -302.094)"/>
          <path id="路径_3346-2" data-name="路径 3346" class="cls-8" d="M368.722,310.616a6.511,6.511,0,0,1,.624,4.778,9.84,9.84,0,0,1-5.131-1.819,3.726,3.726,0,0,1-.842-.9,19.577,19.577,0,0,1,5.349-2.009Z" transform="translate(-356.613 -307.304)"/>
        </g>
      </g>
    </g>
  </g>
</svg>
