<?xml version="1.0" encoding="UTF-8"?>
<svg width="12px" height="12px" viewBox="0 0 12 12" version="1.1" xmlns="http://www.w3.org/2000/svg" xmlns:xlink="http://www.w3.org/1999/xlink">
    <!-- Generator: Sketch 60.1 (88133) - https://sketch.com -->
    <title>添加聊天</title>
    <desc>Created with Sketch.</desc>
    <g id="ICON库" stroke="none" stroke-width="1" fill="none" fill-rule="evenodd">
        <g id="画板" transform="translate(-768.000000, -800.000000)" fill="#3949AB" fill-rule="nonzero">
            <g id="添加聊天" transform="translate(756.000000, 788.000000)">
                <g id="编组-5" transform="translate(12.000000, 12.000000)">
                    <path d="M5.94325493,0.0061500037 L6.0498615,0 C6.5186588,0 6.90503425,0.352889925 6.95783892,0.807520855 L6.96398892,0.914127424 L6.96382271,5.13556787 L11.0858726,5.13573407 C11.5546699,5.13573407 11.9410453,5.488624 11.99385,5.94325493 L12,6.0498615 C12,6.5186588 11.6471101,6.90503425 11.1924791,6.95783892 L11.0858726,6.96398892 L6.96382271,6.96382271 L6.96398892,11.0858726 C6.96398892,11.5546699 6.611099,11.9410453 6.15646806,11.99385 L6.0498615,12 C5.58106419,12 5.19468875,11.6471101 5.14188408,11.1924791 L5.13573407,11.0858726 L5.13556787,6.96382271 L0.914127424,6.96398892 C0.445330119,6.96398892 0.0589546731,6.611099 0.0061500037,6.15646806 L0,6.0498615 C0,5.58106419 0.352889925,5.19468875 0.807520855,5.14188408 L0.914127424,5.13573407 L5.13556787,5.13556787 L5.13573407,0.914127424 C5.13573407,0.445330119 5.488624,0.0589546731 5.94325493,0.0061500037 L6.0498615,0 L5.94325493,0.0061500037 Z" id="路径"></path>
                </g>
            </g>
        </g>
    </g>
</svg>