<?xml version="1.0" encoding="UTF-8"?>
<svg width="12px" height="12px" viewBox="0 0 12 12" version="1.1" xmlns="http://www.w3.org/2000/svg" xmlns:xlink="http://www.w3.org/1999/xlink">
    <!-- Generator: Sketch 60.1 (88133) - https://sketch.com -->
    <title>添加聊天</title>
    <desc>Created with Sketch.</desc>
    <g id="ICON库" stroke="none" stroke-width="1" fill="none" fill-rule="evenodd">
        <g id="画板" transform="translate(-718.000000, -800.000000)">
            <g id="添加聊天" transform="translate(706.000000, 788.000000)">
                <rect id="矩形备份-21" fill="#EEF0FA" x="0" y="0" width="36" height="36" rx="4"></rect>
                <path d="M17.9432549,12.00615 L18.0498615,12 C18.5186588,12 18.9050342,12.3528899 18.9578389,12.8075209 L18.9639889,12.9141274 L18.9638227,17.1355679 L23.0858726,17.1357341 C23.5546699,17.1357341 23.9410453,17.488624 23.99385,17.9432549 L24,18.0498615 C24,18.5186588 23.6471101,18.9050342 23.1924791,18.9578389 L23.0858726,18.9639889 L18.9638227,18.9638227 L18.9639889,23.0858726 C18.9639889,23.5546699 18.611099,23.9410453 18.1564681,23.99385 L18.0498615,24 C17.5810642,24 17.1946887,23.6471101 17.1418841,23.1924791 L17.1357341,23.0858726 L17.1355679,18.9638227 L12.9141274,18.9639889 C12.4453301,18.9639889 12.0589547,18.611099 12.00615,18.1564681 L12,18.0498615 C12,17.5810642 12.3528899,17.1946887 12.8075209,17.1418841 L12.9141274,17.1357341 L17.1355679,17.1355679 L17.1357341,12.9141274 C17.1357341,12.4453301 17.488624,12.0589547 17.9432549,12.00615 L18.0498615,12 L17.9432549,12.00615 Z" fill="#565682" fill-rule="nonzero"></path>
            </g>
        </g>
    </g>
</svg>