<svg xmlns="http://www.w3.org/2000/svg" width="10" height="6" viewBox="0 0 10 6">
  <defs>
    <style>
      .cls-1 {
        fill: #70707a;
      }
    </style>
  </defs>
  <g id="组_7356" data-name="组 7356" transform="translate(-553.374 -124.004)">
    <g id="组_7353" data-name="组 7353">
      <path id="路径_2904" data-name="路径 2904" class="cls-1" d="M563.041,125.106l-4.334,4.546a.467.467,0,0,1-.68,0h0a.522.522,0,0,1,0-.714l4.334-4.546a.467.467,0,0,1,.68,0h0A.524.524,0,0,1,563.041,125.106Z"/>
      <path id="路径_2905" data-name="路径 2905" class="cls-1" d="M558.367,130a.659.659,0,0,1-.476-.206.728.728,0,0,1-.2-.5.736.736,0,0,1,.2-.505l4.335-4.544a.648.648,0,0,1,.951,0,.741.741,0,0,1,0,1.006l-4.335,4.545A.655.655,0,0,1,558.367,130Zm4.334-5.555a.28.28,0,0,0-.205.09l-4.334,4.545a.31.31,0,0,0,0,.422.285.285,0,0,0,.41,0l4.334-4.546a.308.308,0,0,0,0-.421A.28.28,0,0,0,562.7,124.449Z"/>
    </g>
    <g id="组_7354" data-name="组 7354">
      <path id="路径_2906" data-name="路径 2906" class="cls-1" d="M554.446,124.367l4.286,4.5a.561.561,0,0,1,0,.764h0a.5.5,0,0,1-.73,0l-4.285-4.494a.561.561,0,0,1,0-.765h0A.5.5,0,0,1,554.446,124.367Z"/>
      <path id="路径_2907" data-name="路径 2907" class="cls-1" d="M558.366,129.988a.686.686,0,0,1-.5-.216l-4.287-4.494a.778.778,0,0,1,0-1.057.685.685,0,0,1,1,0l4.286,4.494a.763.763,0,0,1,.207.529.755.755,0,0,1-.208.528A.687.687,0,0,1,558.366,129.988Zm-4.284-5.573a.321.321,0,0,0-.231.1.342.342,0,0,0-.092.236.339.339,0,0,0,.093.236l4.285,4.495a.315.315,0,0,0,.46,0,.346.346,0,0,0,0-.472l-4.286-4.495A.317.317,0,0,0,554.082,124.415Z"/>
    </g>
  </g>
</svg>
