<?xml version="1.0" encoding="UTF-8"?>
<svg width="16px" height="16px" viewBox="0 0 16 16" version="1.1" xmlns="http://www.w3.org/2000/svg" xmlns:xlink="http://www.w3.org/1999/xlink">
    <!-- Generator: Sketch 60.1 (88133) - https://sketch.com -->
    <title>编组 11</title>
    <desc>Created with Sketch.</desc>
    <defs>
        <polygon id="path-1" points="2.40680665e-05 0 13.61565 0 13.61565 13.6157 2.40680665e-05 13.6157"></polygon>
    </defs>
    <g id="任务管理" stroke="none" stroke-width="1" fill="none" fill-rule="evenodd">
        <g id="图标" transform="translate(-421.000000, -86.000000)">
            <g id="编组-13" transform="translate(421.000000, 86.000000)">
                <g id="编组-11" transform="translate(1.000000, 1.000000)">
                    <g id="编组">
                        <mask id="mask-2" fill="white">
                            <use xlink:href="#path-1"></use>
                        </mask>
                        <g id="Clip-2"></g>
                        <path d="M12.4699,2.9847 L11.3089,4.1467 L9.4699,2.3077 L10.6319,1.1457 C10.7299,1.0477 10.8579,0.9997 10.9859,0.9997 C11.1139,0.9997 11.2409,1.0477 11.3389,1.1457 L12.4699,2.2767 C12.6649,2.4727 12.6649,2.7897 12.4699,2.9847 L12.4699,2.9847 Z M4.3489,11.1057 C4.1519,11.3027 3.9159,11.4587 3.6669,11.5567 L0.9999,12.6367 L2.0589,9.9497 C2.1569,9.6997 2.3139,9.4637 2.5109,9.2677 L8.7629,3.0147 L10.6019,4.8537 L4.3489,11.1057 Z M13.1769,1.5697 L12.0459,0.4387 C11.4619,-0.1463 10.5089,-0.1463 9.9249,0.4387 L1.8049,8.5597 C1.5119,8.8517 1.2789,9.2047 1.1289,9.5827 L0.0699,12.2707 C-0.0751,12.6407 0.0089,13.0457 0.2909,13.3267 C0.4809,13.5167 0.7269,13.6157 0.9799,13.6157 C1.1019,13.6157 1.2259,13.5927 1.3459,13.5457 L4.0339,12.4867 C4.4089,12.3387 4.7629,12.1057 5.0559,11.8127 L13.1769,3.6917 C13.7619,3.1067 13.7619,2.1547 13.1769,1.5697 L13.1769,1.5697 Z" id="Fill-1" fill="#3949AB" mask="url(#mask-2)"></path>
                    </g>
                    <line x1="6.5" y1="13.5" x2="13.5" y2="13.5" id="路径-6" stroke="#3949AB" stroke-linecap="round"></line>
                </g>
            </g>
        </g>
    </g>
</svg>