<?xml version="1.0" encoding="UTF-8"?>
<svg width="16px" height="16px" viewBox="0 0 16 16" version="1.1" xmlns="http://www.w3.org/2000/svg" xmlns:xlink="http://www.w3.org/1999/xlink">
    <!-- Generator: Sketch 60.1 (88133) - https://sketch.com -->
    <title>全屏</title>
    <desc>Created with Sketch.</desc>
    <g id="ICON库" stroke="none" stroke-width="1" fill="none" fill-rule="evenodd" stroke-linecap="round">
        <g id="画板" transform="translate(-613.000000, -986.000000)" stroke="#545454">
            <g id="全屏-2备份" transform="translate(613.000000, 986.000000)">
                <path d="M10.6358032,1 L13.25,1 C14.2164983,1 15,1.78350169 15,2.75 L15,4.45595682 L15,5.33095682 M15,10.6244446 L15,13.25 C15,14.2164983 14.2164983,15 13.25,15 L10.6358032,15 L10.6358032,15 M5.33831854,15 L2.75,15 C1.78350169,15 1,14.2164983 1,13.25 L1,10.6244446 L1,10.6244446 M1,5.33095682 L1,2.75 C1,1.78350169 1.78350169,1 2.75,1 L5.33831854,1 L5.33831854,1" id="全屏"></path>
            </g>
        </g>
    </g>
</svg>