<svg xmlns="http://www.w3.org/2000/svg" width="14" height="12.833" viewBox="0 0 14 12.833">
  <defs>
    <style>
      .cls-1 {
        fill: #70707a;
      }
    </style>
  </defs>
  <g id="组_7411" data-name="组 7411" transform="translate(-30 -67.167)">
    <rect id="矩形_3071" data-name="矩形 3071" class="cls-1" width="1.167" height="9.878" rx="0.583" transform="translate(36.417 67.167)"/>
    <g id="组_7410" data-name="组 7410">
      <rect id="矩形_3072" data-name="矩形 3072" class="cls-1" width="1.167" height="5.833" rx="0.583" transform="translate(32.875 73.162) rotate(-45)"/>
      <rect id="矩形_3073" data-name="矩形 3073" class="cls-1" width="1.167" height="5.833" rx="0.583" transform="translate(40.3 72.337) rotate(45)"/>
    </g>
    <path id="路径_3377" data-name="路径 3377" class="cls-1" d="M42.25,80H31.75A1.752,1.752,0,0,1,30,78.25V75.333a.584.584,0,0,1,1.167,0V78.25a.583.583,0,0,0,.583.583h10.5a.583.583,0,0,0,.583-.583V75.333a.584.584,0,0,1,1.167,0V78.25A1.752,1.752,0,0,1,42.25,80Z"/>
  </g>
</svg>
