<?xml version="1.0" encoding="UTF-8"?>
<svg width="24px" height="24px" viewBox="0 0 24 24" version="1.1" xmlns="http://www.w3.org/2000/svg" xmlns:xlink="http://www.w3.org/1999/xlink">
    <!-- Generator: Sketch 60.1 (88133) - https://sketch.com -->
    <title>编组 17</title>
    <desc>Created with Sketch.</desc>
    <g id="----·工作台全局+项目V5.2.9（8.12）" stroke="none" stroke-width="1" fill="none" fill-rule="evenodd">
        <g id="2工作台-说明" transform="translate(-824.000000, -572.000000)">
            <g id="编组-10" transform="translate(804.000000, 468.000000)">
                <g id="编组-23" transform="translate(20.000000, 104.000000)">
                    <g id="编组-17">
                        <circle id="椭圆形" fill="#3949AB" cx="12" cy="12" r="12"></circle>
                        <g id="编组-4" transform="translate(6.000000, 5.000000)" fill="#FFFFFF">
                            <rect id="矩形" x="0" y="1.625" width="4.875" height="4.875" rx="1"></rect>
                            <rect id="矩形备份-2" x="0" y="8.125" width="4.875" height="4.875" rx="1"></rect>
                            <rect id="矩形备份-13" x="6.5" y="8.125" width="4.875" height="4.875" rx="1"></rect>
                            <path d="M7.5,1.625 L10.375,1.625 C10.9272847,1.625 11.375,2.07271525 11.375,2.625 L11.375,5.5 C11.375,6.05228475 10.9272847,6.5 10.375,6.5 L7.5,6.5 C6.94771525,6.5 6.5,6.05228475 6.5,5.5 L6.5,2.625 C6.5,2.07271525 6.94771525,1.625 7.5,1.625 Z" id="矩形备份-26" transform="translate(8.937500, 4.062500) rotate(45.000000) translate(-8.937500, -4.062500) "></path>
                        </g>
                    </g>
                </g>
            </g>
        </g>
    </g>
</svg>