<svg xmlns="http://www.w3.org/2000/svg" width="20" height="20" viewBox="0 0 20 20">
  <defs>
    <style>
      .cls-1 {
        fill: #039789;
      }
    </style>
  </defs>
  <g id="组_1466" data-name="组 1466" transform="translate(-108.652 -267)">
    <g id="组_1460" data-name="组 1460" transform="translate(-658.172 172.958)">
      <g id="组_1459" data-name="组 1459">
        <path id="路径_2336" data-name="路径 2336" class="cls-1" d="M776.824,95.542a8.5,8.5,0,1,1-8.5,8.5,8.51,8.51,0,0,1,8.5-8.5m0-1.5a10,10,0,1,0,10,10,10,10,0,0,0-10-10Z"/>
      </g>
    </g>
    <g id="组_1462" data-name="组 1462" transform="translate(-658.172 172.958)">
      <g id="组_1461" data-name="组 1461">
        <path id="路径_2337" data-name="路径 2337" class="cls-1" d="M778.558,99.441v5.995h1.359v.949h-1.359v2.133h-1.114v-2.133h-4.236v-.9a30,30,0,0,0,2.273-2.929,27.853,27.853,0,0,0,1.887-3.118Zm-4.061,5.995h2.947v-4.325q-.609,1.1-1.306,2.124T774.5,105.436Z"/>
      </g>
    </g>
  </g>
</svg>
