<svg xmlns="http://www.w3.org/2000/svg" width="20" height="20" viewBox="0 0 20 20">
  <defs>
    <style>
      .cls-1 {
        fill: #2399ee;
      }
    </style>
  </defs>
  <g id="组_1465" data-name="组 1465" transform="translate(-83.739 -267)">
    <g id="组_1456" data-name="组 1456" transform="translate(-658.172 172.958)">
      <g id="组_1455" data-name="组 1455">
        <path id="路径_2334" data-name="路径 2334" class="cls-1" d="M751.911,95.542a8.5,8.5,0,1,1-8.5,8.5,8.51,8.51,0,0,1,8.5-8.5m0-1.5a10,10,0,1,0,10,10,10,10,0,0,0-10-10Z"/>
      </g>
    </g>
    <g id="组_1458" data-name="组 1458" transform="translate(-658.172 172.958)">
      <g id="组_1457" data-name="组 1457">
        <path id="路径_2335" data-name="路径 2335" class="cls-1" d="M749.251,107a3.351,3.351,0,0,0,2.1.721,2.242,2.242,0,0,0,1.486-.46,1.53,1.53,0,0,0,.548-1.234q0-1.722-2.467-1.722h-.756v-.95h.721q2.186,0,2.185-1.617,0-1.494-1.67-1.494a2.908,2.908,0,0,0-1.8.645V99.805a4.073,4.073,0,0,1,2.08-.516,2.75,2.75,0,0,1,1.863.607,1.978,1.978,0,0,1,.7,1.573,2.207,2.207,0,0,1-1.816,2.291v.023a2.451,2.451,0,0,1,1.555.695,2.021,2.021,0,0,1,.572,1.467,2.465,2.465,0,0,1-.882,1.975,3.5,3.5,0,0,1-2.347.75,3.964,3.964,0,0,1-2.08-.481Z"/>
      </g>
    </g>
  </g>
</svg>
