<svg xmlns="http://www.w3.org/2000/svg" width="20" height="20" viewBox="0 0 20 20">
  <defs>
    <style>
      .cls-1 {
        fill: #ff9800;
      }
    </style>
  </defs>
  <g id="组_1464" data-name="组 1464" transform="translate(-59.543 -267)">
    <g id="组_1452" data-name="组 1452" transform="translate(-658.172 172.958)">
      <g id="组_1451" data-name="组 1451">
        <path id="路径_2332" data-name="路径 2332" class="cls-1" d="M727.715,95.542a8.5,8.5,0,1,1-8.5,8.5,8.51,8.51,0,0,1,8.5-8.5m0-1.5a10,10,0,1,0,10,10,10,10,0,0,0-10-10Z"/>
      </g>
    </g>
    <g id="组_1454" data-name="组 1454" transform="translate(-658.172 172.958)">
      <g id="组_1453" data-name="组 1453">
        <path id="路径_2333" data-name="路径 2333" class="cls-1" d="M729.216,101.82a1.472,1.472,0,0,0-.463-1.151,1.81,1.81,0,0,0-1.26-.419,2.533,2.533,0,0,0-1.137.287,3.825,3.825,0,0,0-1.072.82v-1.113a3.133,3.133,0,0,1,1.011-.709,3.3,3.3,0,0,1,1.327-.246,2.9,2.9,0,0,1,1.981.659,2.255,2.255,0,0,1,.75,1.784,3.2,3.2,0,0,1-.46,1.735,5.541,5.541,0,0,1-1.574,1.5,18.791,18.791,0,0,0-1.52,1.125,2.2,2.2,0,0,0-.536.65,1.7,1.7,0,0,0-.153.756h4.512v1.02h-5.707v-.452a3.67,3.67,0,0,1,.214-1.333,3.313,3.313,0,0,1,.706-1.066,10.315,10.315,0,0,1,1.535-1.245,5.968,5.968,0,0,0,1.456-1.316A2.21,2.21,0,0,0,729.216,101.82Z"/>
      </g>
    </g>
  </g>
</svg>
