<svg xmlns="http://www.w3.org/2000/svg" width="16" height="15.046" viewBox="0 0 16 15.046">
  <defs>
    <style>
      .cls-1 {
        fill: #70707a;
      }
    </style>
  </defs>
  <path id="路径_3038" data-name="路径 3038" class="cls-1" d="M418.112,107.849a.657.657,0,0,0-.792.482l-.364,1.36a7.776,7.776,0,0,0-6.683-3.827,7.524,7.524,0,1,0,7.213,10.071.639.639,0,0,0-.012-.49.669.669,0,0,0-.382-.347.641.641,0,0,0-.837.394,6.369,6.369,0,0,1-5.982,4.1,6.207,6.207,0,1,1,0-12.412,6.335,6.335,0,0,1,5.76,3.67l-2.117-.6a.643.643,0,0,0-.495.077.662.662,0,0,0-.3.406.645.645,0,0,0,.073.489.663.663,0,0,0,.409.3l3.338.88a.246.246,0,0,1,.051.015.506.506,0,0,0,.369-.034l.067-.024.02-.01a.694.694,0,0,0,.3-.393l.877-3.318,0-.022A.757.757,0,0,0,418.112,107.849Z" transform="translate(-402.635 -105.864)"/>
</svg>
