<?xml version="1.0" encoding="UTF-8"?>
<svg width="64px" height="66px" viewBox="0 0 64 66" version="1.1" xmlns="http://www.w3.org/2000/svg" xmlns:xlink="http://www.w3.org/1999/xlink">
    <!-- Generator: Sketch 60.1 (88133) - https://sketch.com -->
    <title>搜索-缺省</title>
    <desc>Created with Sketch.</desc>
    <g id="页面-1" stroke="none" stroke-width="1" fill="none" fill-rule="evenodd">
        <g id="台账管理-搜索台账为空" transform="translate(-112.000000, -140.000000)">
            <g id="编组-2" transform="translate(96.000000, 140.000000)">
                <g id="编组" transform="translate(16.000000, 0.000000)">
                    <polygon id="Fill-1" fill="#EDEDED" points="0 17.0431278 7.52168421 64.9448822 51.8225965 58.3141454 59.7103158 31.1719699 42.7750175 1.24523308"></polygon>
                    <polygon id="Fill-2" fill="#FFFFFF" points="33.5996632 7.69295238 6.29075088 19.6519699 10.7819789 60.6344261 48.6514526 55.3948471 55.6886456 32.5081103 44.2433123 7.69295238"></polygon>
                    <polygon id="Fill-3" fill="#F9F9F9" points="42.7750737 1.24506466 41.327214 17.9479419 59.7103719 31.1718015"></polygon>
                    <polygon id="Fill-4" fill="#D8D8D8" points="22.1533754 36.6902296 18.8006737 35.4214576 21.8698667 28.5526857 25.3842526 25.1466506 33.7727439 25.7978787 37.7295158 33.2606155 33.4145684 39.5208261 34.9224982 46.037598 29.3084632 47.7218085 29.437586 38.9442647 33.7727439 32.2585103 27.1116912 29.4891068"></polygon>
                    <polygon id="Fill-5" fill="#FFDF9F" points="9.75343158 25.5026927 5.94374737 28.3377805 5.12241404 25.8692892"></polygon>
                    <polygon id="Fill-6" fill="#FFDF9F" points="10.6347228 22.8744261 6.15247719 21.3064261 7.73675789 19.2438296"></polygon>
                    <polygon id="Fill-7" fill="#FFDF9F" points="12.6182737 21.7000822 12.4593965 16.9539769 14.9553965 17.6854857"></polygon>
                    <polyline id="Stroke-8" stroke="#70707A" points="38.409993 2.48902256 42.7749053 1.24495238 48.8610807 11.9997594"></polyline>
                    <polygon id="Fill-10" fill="#D8D8D8" points="31.388014 47.4089383 30.8917333 50.2749033 34.6374175 49.9060612 34.3297684 46.4618506"></polygon>
                    <g transform="translate(11.789474, 15.541093)">
                        <path d="M16.9280561,0.435312281 C12.7124772,0.435312281 8.86574035,2.00331228 5.9296,4.58352281 L8.76805614,7.11713684 C10.9917754,5.29875088 13.8313544,4.20625965 16.9280561,4.20625965 C24.0539509,4.20625965 29.830793,9.98254035 29.830793,17.1084351 C29.830793,24.2348912 24.0539509,30.0111719 16.9280561,30.0111719 C12.3891088,30.0111719 8.40482807,27.6616982 6.1053193,24.1186807 L5.76679298,29.4929965 C8.72202105,32.1585404 12.6355649,33.7815579 16.9280561,33.7815579 C26.1367579,33.7815579 33.6011789,26.3171368 33.6011789,17.1084351 C33.6011789,7.90029474 26.1367579,0.435312281 16.9280561,0.435312281" id="Fill-11" fill="#FFDF9F"></path>
                        <path d="M4.02565614,17.1085474 C4.02565614,13.078793 5.87435789,9.48300351 8.76783158,7.11724912 L5.92993684,4.58307368 C2.45260351,7.63879298 0.255270175,12.1154246 0.255270175,17.1085474 C0.255270175,22.0241965 2.38298947,26.4413193 5.76712982,29.4931088 L6.10509474,24.1182316 C4.79477895,22.0994246 4.02565614,19.6949333 4.02565614,17.1085474" id="Fill-13" fill="#FFDF9F"></path>
                        <polygon id="Fill-15" fill="#FFDF9F" points="31.8740772 19.7817825 52.0930246 30.8986947 50.9191298 35.2332912 28.1907088 27.5078175"></polygon>
                        <path d="M7.94122105,26.3552561 C7.94122105,26.3552561 2.27329123,21.4435368 4.56269474,13.4525193" id="Stroke-17" stroke="#70707A"></path>
                        <path d="M22.4461474,37.7121684 C22.4461474,38.4610807 21.8387088,39.0679579 21.0897965,39.0679579 C20.3408842,39.0679579 19.734007,38.4610807 19.734007,37.7121684 C19.734007,36.9632561 20.3408842,36.3563789 21.0897965,36.3563789 C21.8387088,36.3563789 22.4461474,36.9632561 22.4461474,37.7121684" id="Fill-19" fill="#D8D8D8"></path>
                    </g>
                </g>
            </g>
        </g>
    </g>
</svg>