<?xml version="1.0" encoding="UTF-8"?>
<svg width="98px" height="71px" viewBox="0 0 98 71" version="1.1" xmlns="http://www.w3.org/2000/svg" xmlns:xlink="http://www.w3.org/1999/xlink">
    <!-- Generator: Sketch 60.1 (88133) - https://sketch.com -->
    <title>台账缺省通用</title>
    <desc>Created with Sketch.</desc>
    <defs>
        <polygon id="path-1" points="0.2036 0.367 4.5846 0.367 4.5846 8.2878 0.2036 8.2878"></polygon>
        <polygon id="path-3" points="0.4377 0.0451 13.6017 0.0451 13.6017 13 0.4377 13"></polygon>
    </defs>
    <g id="页面-1" stroke="none" stroke-width="1" fill="none" fill-rule="evenodd">
        <g id="台账管理-搜索台账为空" transform="translate(-742.000000, -379.000000)">
            <g id="编组-2备份" transform="translate(689.000000, 378.000000)">
                <g id="台账缺省通用" transform="translate(53.000000, 0.000000)">
                    <polygon id="Fill-1" fill="#F0F6FF" points="9.8873 17.3676 79.7903 19.8286 81.8393 68.5166 5.5893 68.5166"></polygon>
                    <polygon id="Fill-2" fill="#DFEBFC" points="9.8873 17.3676 9.3853 23.3386 80.1273 27.8356 79.7903 19.8286"></polygon>
                    <g id="编组" transform="translate(0.000000, 0.633100)">
                        <path d="M15.5914,19.8932 C15.5914,20.7462 14.8994,21.4382 14.0464,21.4382 C13.1924,21.4382 12.5004,20.7462 12.5004,19.8932 C12.5004,19.0392 13.1924,18.3482 14.0464,18.3482 C14.8994,18.3482 15.5914,19.0392 15.5914,19.8932" id="Fill-3" fill="#FFFFFF"></path>
                        <path d="M21.7164,20.4235 C21.7164,21.2765 21.0244,21.9685 20.1714,21.9685 C19.3174,21.9685 18.6254,21.2765 18.6254,20.4235 C18.6254,19.5695 19.3174,18.8785 20.1714,18.8785 C21.0244,18.8785 21.7164,19.5695 21.7164,20.4235" id="Fill-5" fill="#FFFFFF"></path>
                        <path d="M28.0045,20.7985 C28.0045,21.6515 27.3125,22.3435 26.4595,22.3435 C25.6055,22.3435 24.9135,21.6515 24.9135,20.7985 C24.9135,19.9445 25.6055,19.2535 26.4595,19.2535 C27.3125,19.2535 28.0045,19.9445 28.0045,20.7985" id="Fill-7" fill="#FFFFFF"></path>
                        <polygon id="Fill-9" fill="#C5DAFA" points="35.3248 43.2966 35.3248 54.0806 48.1608 55.5676 48.1608 43.7126"></polygon>
                        <polygon id="Stroke-11" stroke="#E2EEFF" stroke-width="0.5" points="35.4977 33.2541 23.3707 32.2711 22.3287 42.6731 35.4977 43.0991"></polygon>
                        <polygon id="Stroke-13" stroke="#E2EEFF" stroke-width="0.5" points="48.3341 43.5153 48.3341 34.2943 35.4981 33.2543 35.4981 43.0993"></polygon>
                        <polygon id="Fill-15" fill="#FFFFFF" points="63.4728 44.0055 63.0238 35.4855 48.3338 34.2945 48.3338 43.5155"></polygon>
                        <polygon id="Stroke-17" stroke="#E2EEFF" stroke-width="0.5" points="22.3288 42.6735 21.3708 52.2475 35.4978 53.8835 35.4978 43.0995"></polygon>
                        <polygon id="Stroke-19" stroke="#E2EEFF" stroke-width="0.5" points="21.3703 52.2477 20.1713 64.2297 21.3703 52.2477 10.2603 50.9607 21.3703 52.2477 22.3283 42.6737 11.0783 42.3097 22.3283 42.6737 23.3703 32.2707 12.1133 31.3587 23.3703 32.2707 23.8773 27.2027 23.3703 32.2707 35.4973 33.2537 35.4973 27.5797 35.4973 33.2537 48.3343 34.2947 48.3343 28.1837 48.3343 34.2947 63.0233 35.4857 62.6753 28.8587 63.0233 35.4857 77.0823 36.6247 76.6933 29.5187 12.5723 26.4997 9.0263 64.0177 35.4973 64.5227 35.4973 53.8837"></polygon>
                        <polygon id="Stroke-21" stroke="#E2EEFF" stroke-width="0.5" points="78.297 58.8405 64.168 57.2035 64.583 65.0785 64.168 57.2035 48.334 55.3705 48.334 64.7685 48.334 55.3705 35.498 53.8835 35.498 64.5235 78.653 65.3475"></polygon>
                        <polygon id="Stroke-23" stroke="#E2EEFF" stroke-width="0.5" points="63.4728 44.0055 77.0818 44.4455 63.4728 44.0055 64.1678 57.2035 78.2968 58.8405 77.0818 36.6245 63.0238 35.4855"></polygon>
                        <polygon id="Stroke-25" stroke="#E2EEFF" stroke-width="0.5" points="48.3341 43.5153 48.3341 55.3703 64.1681 57.2033 63.4731 44.0053"></polygon>
                        <polygon id="Stroke-27" stroke="#E2EEFF" stroke-width="0.5" points="35.4977 43.0993 35.4977 53.8833 48.3337 55.3703 48.3337 43.5153"></polygon>
                        <g transform="translate(80.000000, 0.000000)">
                            <mask id="mask-2" fill="white">
                                <use xlink:href="#path-1"></use>
                            </mask>
                            <g id="Clip-30"></g>
                            <polygon id="Fill-29" fill="#FFE9BC" mask="url(#mask-2)" points="4.0206 8.2878 0.2036 1.1238 4.5846 0.3668"></polygon>
                        </g>
                        <polygon id="Fill-31" fill="#FFE9BC" points="88.2374 10.4499 92.0344 3.2749 95.1154 6.4809"></polygon>
                        <polygon id="Fill-33" fill="#FFE9BC" points="89.715 14.1032 97.778 15.0482 95.903 19.0802"></polygon>
                        <polygon id="Fill-35" fill="#FFE9BC" points="88.4826 21.4655 85.6136 28.8775 75.0156 34.7175 64.1686 29.5195 61.5486 21.4655 66.3346 11.3305 75.0156 8.2125 83.6876 11.3305"></polygon>
                        <path d="M79.0704,17.3239 C79.0704,19.3799 77.4034,21.0459 75.3474,21.0459 C73.2924,21.0459 71.6264,19.3799 71.6264,17.3239 C71.6264,15.2679 73.2924,13.6019 75.3474,13.6019 C77.4034,13.6019 79.0704,15.2679 79.0704,17.3239" id="Fill-37" fill="#FFFFFF"></path>
                        <path d="M82.3742,26.6134 C82.3742,28.6694 79.2662,30.3354 75.4322,30.3354 C71.5992,30.3354 68.4902,28.6694 68.4902,26.6134 C68.4902,24.5574 71.5992,22.8914 75.4322,22.8914 C79.2662,22.8914 82.3742,24.5574 82.3742,26.6134" id="Fill-39" fill="#FFFFFF"></path>
                        <path d="M71.7706,8.6012 C71.7706,8.6012 78.4166,6.8552 83.6876,11.3302" id="Stroke-41" stroke="#9E9EA5"></path>
                        <g transform="translate(76.000000, 58.000000)">
                            <mask id="mask-4" fill="white">
                                <use xlink:href="#path-3"></use>
                            </mask>
                            <g id="Clip-44"></g>
                            <polygon id="Fill-43" fill="#FFE9BC" mask="url(#mask-4)" points="13.6017 6.5231 12.2377 10.1361 7.0197 13.0001 2.2967 11.4311 0.4377 6.5231 2.6537 1.6161 7.0197 0.0451 12.2377 1.6161"></polygon>
                        </g>
                        <path d="M84.379,62.7878 C84.379,63.5558 83.756,64.1788 82.988,64.1788 C82.22,64.1788 81.598,63.5558 81.598,62.7878 C81.598,62.0188 82.22,61.3958 82.988,61.3958 C83.756,61.3958 84.379,62.0188 84.379,62.7878" id="Fill-45" fill="#FFFFFF"></path>
                        <path d="M85.6134,66.2585 C85.6134,67.0265 84.4524,67.6495 83.0194,67.6495 C81.5874,67.6495 80.4264,67.0265 80.4264,66.2585 C80.4264,65.4895 81.5874,64.8675 83.0194,64.8675 C84.4524,64.8675 85.6134,65.4895 85.6134,66.2585" id="Fill-47" fill="#FFFFFF"></path>
                        <polygon id="Fill-49" fill="#FFE9BC" points="17.2506 54.4313 15.5916 60.2713 9.2066 64.6343 3.4296 61.0823 0.0006 55.5753 2.1986 49.6993 9.2066 46.5143 14.7676 49.8913"></polygon>
                        <path d="M11.3058,52.8932 C11.3058,54.0802 10.3438,55.0412 9.1578,55.0412 C7.9708,55.0412 7.0088,54.0802 7.0088,52.8932 C7.0088,51.7062 7.9708,50.7452 9.1578,50.7452 C10.3438,50.7452 11.3058,51.7062 11.3058,52.8932" id="Fill-51" fill="#FFFFFF"></path>
                        <path d="M13.213,58.2555 C13.213,59.4425 11.419,60.4035 9.206,60.4035 C6.993,60.4035 5.199,59.4425 5.199,58.2555 C5.199,57.0685 6.993,56.1075 9.206,56.1075 C11.419,56.1075 13.213,57.0685 13.213,58.2555" id="Fill-53" fill="#FFFFFF"></path>
                    </g>
                </g>
            </g>
        </g>
    </g>
</svg>