<svg xmlns="http://www.w3.org/2000/svg" width="19.5" height="21.858" viewBox="0 0 19.5 21.858">
  <defs>
    <style>
      .cls-1 {
        fill: #cedd3e;
      }
    </style>
  </defs>
  <g id="组_1467" data-name="组 1467" transform="translate(-108.902 -294.068)">
    <g id="组_1446" data-name="组 1446" transform="translate(-658.172 172.958)">
      <g id="组_1445" data-name="组 1445">
        <path id="路径_2329" data-name="路径 2329" class="cls-1" d="M776.824,142.968a10.851,10.851,0,0,1-6.861-2.333,8,8,0,0,1-2.889-6.337,6.71,6.71,0,0,1,1.076-3.565,5.732,5.732,0,0,0,.89-3.65l-.191-2.237,1.5,1.673a7.557,7.557,0,0,1,1.5,2.867c.875-1.138,3.08-4.3,3.08-7.168V121.11l1.028.412a9.012,9.012,0,0,1,4.219,4.247,15.686,15.686,0,0,1,1.116,2.439,9.917,9.917,0,0,0,.509-2.95v-1.746l1.266,1.2c3.051,2.9,3.507,7.249,3.507,9.584a8,8,0,0,1-2.88,6.329A10.344,10.344,0,0,1,776.824,142.968Zm-6.507-13.454a8.817,8.817,0,0,1-.854,1.946,5.238,5.238,0,0,0-.889,2.838,6.545,6.545,0,0,0,2.35,5.186,9.336,9.336,0,0,0,5.9,1.984,8.86,8.86,0,0,0,5.887-1.972l.014-.012a6.547,6.547,0,0,0,2.349-5.186,13.051,13.051,0,0,0-1.949-7.217,14.369,14.369,0,0,1-.563,2.062c-.04.118-.072.209-.086.267l-.063.158-1.437,2.854-.863-2.953a12.876,12.876,0,0,0-1.243-2.963,9.333,9.333,0,0,0-2.539-3.078c-.593,3.8-3.7,7.374-3.729,7.408l-1.641,2.014-.44-2.586A6.018,6.018,0,0,0,770.317,129.514Z"/>
      </g>
    </g>
    <g id="组_1448" data-name="组 1448" transform="translate(-658.172 172.958)">
      <g id="组_1447" data-name="组 1447">
        <path id="路径_2330" data-name="路径 2330" class="cls-1" d="M783.064,140.058"/>
      </g>
    </g>
    <g id="组_1450" data-name="组 1450" transform="translate(-658.172 172.958)">
      <g id="组_1449" data-name="组 1449">
        <path id="路径_2331" data-name="路径 2331" class="cls-1" d="M778.172,131.374v5H779.3v.791h-1.133v1.778h-.928V137.16h-3.53v-.747a25.018,25.018,0,0,0,1.894-2.441,23.185,23.185,0,0,0,1.573-2.6Zm-3.384,5h2.456v-3.6q-.508.913-1.089,1.77T774.788,136.369Z"/>
      </g>
    </g>
  </g>
</svg>
