<svg xmlns="http://www.w3.org/2000/svg" width="19.5" height="21.858" viewBox="0 0 19.5 21.858">
  <defs>
    <style>
      .cls-1 {
        fill: #fcd940;
      }
    </style>
  </defs>
  <g id="组_1468" data-name="组 1468" transform="translate(-84.989 -294.068)">
    <g id="组_1440" data-name="组 1440" transform="translate(-658.172 172.958)">
      <g id="组_1439" data-name="组 1439">
        <path id="路径_2326" data-name="路径 2326" class="cls-1" d="M752.911,142.968a10.851,10.851,0,0,1-6.861-2.333,8,8,0,0,1-2.889-6.337,6.71,6.71,0,0,1,1.076-3.565,5.741,5.741,0,0,0,.891-3.651l-.191-2.237,1.5,1.674a7.552,7.552,0,0,1,1.5,2.867c.875-1.138,3.08-4.3,3.08-7.168V121.11l1.028.412a9.012,9.012,0,0,1,4.219,4.247,15.772,15.772,0,0,1,1.116,2.439,9.908,9.908,0,0,0,.51-2.95v-1.747l1.266,1.2c3.051,2.9,3.506,7.249,3.506,9.584a8,8,0,0,1-2.88,6.329A10.345,10.345,0,0,1,752.911,142.968ZM746.4,129.514a8.815,8.815,0,0,1-.854,1.946,5.239,5.239,0,0,0-.889,2.838,6.545,6.545,0,0,0,2.35,5.186,9.337,9.337,0,0,0,5.9,1.984A8.86,8.86,0,0,0,758.8,139.5l.014-.012a6.547,6.547,0,0,0,2.349-5.186,13.058,13.058,0,0,0-1.948-7.217,14.483,14.483,0,0,1-.564,2.062c-.04.118-.072.209-.087.267l-.062.158-1.438,2.854-.862-2.953a12.877,12.877,0,0,0-1.243-2.963,9.333,9.333,0,0,0-2.539-3.078c-.593,3.8-3.7,7.374-3.73,7.408l-1.64,2.014-.44-2.586A6.237,6.237,0,0,0,746.4,129.514Z"/>
      </g>
    </g>
    <g id="组_1442" data-name="组 1442" transform="translate(-658.172 172.958)">
      <g id="组_1441" data-name="组 1441">
        <path id="路径_2327" data-name="路径 2327" class="cls-1" d="M759.151,140.058"/>
      </g>
    </g>
    <g id="组_1444" data-name="组 1444" transform="translate(-658.172 172.958)">
      <g id="组_1443" data-name="组 1443">
        <path id="路径_2328" data-name="路径 2328" class="cls-1" d="M750.993,137.673a2.794,2.794,0,0,0,1.753.6,1.871,1.871,0,0,0,1.239-.382,1.28,1.28,0,0,0,.456-1.029q0-1.436-2.056-1.435h-.63v-.791h.6q1.821,0,1.821-1.348,0-1.245-1.392-1.245a2.428,2.428,0,0,0-1.5.537v-.9a3.4,3.4,0,0,1,1.734-.43,2.3,2.3,0,0,1,1.553.505,1.652,1.652,0,0,1,.585,1.311,1.84,1.84,0,0,1-1.513,1.91v.019a2.05,2.05,0,0,1,1.3.579,1.692,1.692,0,0,1,.475,1.223,2.053,2.053,0,0,1-.735,1.645,2.913,2.913,0,0,1-1.955.625,3.312,3.312,0,0,1-1.734-.4Z"/>
      </g>
    </g>
  </g>
</svg>
