<svg xmlns="http://www.w3.org/2000/svg" width="19.5" height="21.858" viewBox="0 0 19.5 21.858">
  <defs>
    <style>
      .cls-1 {
        fill: #d81d1d;
      }
    </style>
  </defs>
  <g id="组_1470" data-name="组 1470" transform="translate(-36.25 -294.068)">
    <g id="组_1433" data-name="组 1433" transform="translate(-658.172 172.958)">
      <path id="路径_2320" data-name="路径 2320" class="cls-1" d="M704.172,142.968a10.855,10.855,0,0,1-6.861-2.333,8,8,0,0,1-2.889-6.337,6.716,6.716,0,0,1,1.074-3.561,5.754,5.754,0,0,0,.893-3.655l-.191-2.235,1.5,1.672a7.524,7.524,0,0,1,1.5,2.867c.874-1.138,3.08-4.3,3.08-7.168V121.11l1.029.412a9.018,9.018,0,0,1,4.219,4.246,15.775,15.775,0,0,1,1.116,2.44,9.944,9.944,0,0,0,.509-2.95v-1.747l1.267,1.2c3.051,2.9,3.506,7.249,3.506,9.584a8,8,0,0,1-2.88,6.329A10.345,10.345,0,0,1,704.172,142.968Zm-6.507-13.455a8.849,8.849,0,0,1-.854,1.947,5.247,5.247,0,0,0-.889,2.838,6.544,6.544,0,0,0,2.349,5.186,9.343,9.343,0,0,0,5.9,1.984,8.864,8.864,0,0,0,5.887-1.972l.013-.012a6.548,6.548,0,0,0,2.35-5.186,13.058,13.058,0,0,0-1.948-7.217,14.466,14.466,0,0,1-.564,2.062c-.04.118-.072.209-.087.267l-.062.158-1.438,2.854-.862-2.953a13,13,0,0,0-1.242-2.963,9.383,9.383,0,0,0-2.54-3.078c-.594,3.791-3.693,7.372-3.728,7.406l-1.643,2.015-.439-2.585A6.243,6.243,0,0,0,697.665,129.513Z"/>
    </g>
    <g id="组_1434" data-name="组 1434" transform="translate(-658.172 172.958)">
      <path id="路径_2321" data-name="路径 2321" class="cls-1" d="M710.412,140.058"/>
    </g>
    <g id="组_1435" data-name="组 1435" transform="translate(-658.172 172.958)">
      <path id="路径_2322" data-name="路径 2322" class="cls-1" d="M704.208,139.021v-6.47a3.178,3.178,0,0,1-.76.5,4.467,4.467,0,0,1-.988.39v-.937a6.391,6.391,0,0,0,1.284-.53,5.612,5.612,0,0,0,1.05-.686h.361v7.73Z"/>
    </g>
  </g>
</svg>
