<svg xmlns="http://www.w3.org/2000/svg" width="19.5" height="21.858" viewBox="0 0 19.5 21.858">
  <defs>
    <style>
      .cls-1 {
        fill: #ff9800;
      }
    </style>
  </defs>
  <g id="组_1469" data-name="组 1469" transform="translate(-59.793 -294.068)">
    <g id="组_1436" data-name="组 1436" transform="translate(-658.172 172.958)">
      <path id="路径_2323" data-name="路径 2323" class="cls-1" d="M727.715,142.968a10.855,10.855,0,0,1-6.861-2.333,8,8,0,0,1-2.889-6.337,6.707,6.707,0,0,1,1.077-3.565,5.746,5.746,0,0,0,.89-3.65l-.192-2.237,1.5,1.673a7.513,7.513,0,0,1,1.5,2.868c.875-1.138,3.081-4.3,3.081-7.169V121.11l1.029.412a9.016,9.016,0,0,1,4.218,4.246,15.635,15.635,0,0,1,1.116,2.439,9.941,9.941,0,0,0,.509-2.949v-1.747l1.267,1.2c3.051,2.9,3.506,7.249,3.506,9.584a8,8,0,0,1-2.88,6.33A10.348,10.348,0,0,1,727.715,142.968Zm-6.507-13.454a8.857,8.857,0,0,1-.854,1.946,5.247,5.247,0,0,0-.889,2.838,6.547,6.547,0,0,0,2.349,5.186,9.343,9.343,0,0,0,5.9,1.984A8.86,8.86,0,0,0,733.6,139.5l.013-.012a6.545,6.545,0,0,0,2.35-5.186,13.058,13.058,0,0,0-1.948-7.217,14.5,14.5,0,0,1-.562,2.057c-.041.12-.072.211-.088.27l-.062.16-1.438,2.854-.862-2.953a12.981,12.981,0,0,0-1.243-2.963,9.367,9.367,0,0,0-2.539-3.077c-.593,3.8-3.7,7.373-3.73,7.407l-1.639,2.013-.442-2.584A6.22,6.22,0,0,0,721.208,129.514Z"/>
    </g>
    <g id="组_1438" data-name="组 1438" transform="translate(-658.172 172.958)">
      <path id="路径_2325" data-name="路径 2325" class="cls-1" d="M729,133.42a1.231,1.231,0,0,0-.386-.96,1.509,1.509,0,0,0-1.05-.349,2.1,2.1,0,0,0-.947.24,3.145,3.145,0,0,0-.893.683v-.928a2.594,2.594,0,0,1,.841-.59,2.758,2.758,0,0,1,1.107-.205,2.411,2.411,0,0,1,1.65.549,1.878,1.878,0,0,1,.625,1.487,2.658,2.658,0,0,1-.384,1.445,4.585,4.585,0,0,1-1.31,1.25q-.948.655-1.268.937a1.864,1.864,0,0,0-.446.542,1.418,1.418,0,0,0-.127.63h3.76V139h-4.756v-.376a3.044,3.044,0,0,1,.179-1.11,2.748,2.748,0,0,1,.588-.89,8.715,8.715,0,0,1,1.279-1.037,4.958,4.958,0,0,0,1.213-1.1A1.841,1.841,0,0,0,729,133.42Z"/>
    </g>
  </g>
</svg>
