<svg xmlns="http://www.w3.org/2000/svg" width="16" height="16" viewBox="0 0 16 16">
  <defs>
    <style>
      .cls-1 {
        fill: #34a853;
      }
    </style>
  </defs>
  <g id="_-s-矢量智能对象" data-name="-s-矢量智能对象" transform="translate(-8978 -378.999)">
    <g id="矢量智能对象" transform="translate(8978 378.999)">
      <g id="矢量智能对象-2" data-name="矢量智能对象">
        <path id="路径_43" data-name="路径 43" class="cls-1" d="M278.835,152.591a8,8,0,1,0,8,8A8,8,0,0,0,278.835,152.591Zm4.718,5.97-4.914,4.914a.7.7,0,0,1-.965,0l-2.683-2.683a.663.663,0,0,1,0-.938l.015-.015a.663.663,0,0,1,.938,0l2.212,2.212,4.444-4.444a.663.663,0,0,1,.938,0l.015.015A.663.663,0,0,1,283.553,158.561Z" transform="translate(-270.835 -152.591)"/>
      </g>
      <path id="Color_Overlay" data-name="Color Overlay" class="cls-1" d="M0,8a8,8,0,1,1,8,8A8,8,0,0,1,0,8Zm7.8,2.884,4.913-4.914a.663.663,0,0,0,0-.937L12.7,5.017a.662.662,0,0,0-.937,0L7.322,9.462,5.109,7.249a.663.663,0,0,0-.937,0l-.016.015a.665.665,0,0,0,0,.937l2.683,2.683a.7.7,0,0,0,.965,0Z" transform="translate(0 0)"/>
    </g>
  </g>
</svg>
