<svg xmlns="http://www.w3.org/2000/svg" width="200" height="163.564" viewBox="0 0 200 163.564">
  <defs>
    <style>
      .cls-1 {
        fill: #d2e3fd;
      }

      .cls-2 {
        fill: #accaf7;
      }

      .cls-3 {
        fill: #e9f2ff;
      }

      .cls-4 {
        fill: #fff;
      }

      .cls-5 {
        fill: #ffdcdc;
      }

      .cls-6, .cls-8 {
        fill: none;
        stroke-miterlimit: 10;
      }

      .cls-6 {
        stroke: #e9f2ff;
      }

      .cls-7 {
        fill: #fcaba9;
      }

      .cls-8 {
        stroke: #70707a;
      }

      .cls-9 {
        fill: #fff6e1;
      }

      .cls-10 {
        fill: #ffdf9f;
      }
    </style>
  </defs>
  <g id="组_10812" data-name="组 10812" transform="translate(6714.377 6292.313)">
    <path id="路径_4068" data-name="路径 4068" class="cls-1" d="M-6684.744-6272.2l129.293-6.215,17.764,17.314-10.655,78.134h-68.7v31.52h16.5l9.336,7.547v11.152l-123.172,4V-6143.9l51.5-7.547,4.439-34.184-44.838.888Z"/>
    <path id="路径_4069" data-name="路径 4069" class="cls-2" d="M-6555.451-6278.411l-17.983,95.448h25.092l10.655-78.134Z"/>
    <path id="路径_4070" data-name="路径 4070" class="cls-3" d="M-6677.362-6255.326l114.148-11.32-18.313,70.92-112.537,3.116Z"/>
    <circle id="椭圆_868" data-name="椭圆 868" class="cls-2" cx="6.049" cy="6.049" r="6.049" transform="translate(-6649.645 -6186.681)"/>
    <ellipse id="椭圆_869" data-name="椭圆 869" class="cls-2" cx="2.442" cy="3.885" rx="2.442" ry="3.885" transform="matrix(0.998, -0.063, 0.063, 0.998, -6675.076, -6267.248)"/>
    <ellipse id="椭圆_870" data-name="椭圆 870" class="cls-2" cx="2.442" cy="3.885" rx="2.442" ry="3.885" transform="matrix(0.998, -0.063, 0.063, 0.998, -6660.821, -6268.142)"/>
    <ellipse id="椭圆_871" data-name="椭圆 871" class="cls-2" cx="2.442" cy="3.885" rx="2.442" ry="3.885" transform="matrix(0.998, -0.063, 0.063, 0.998, -6646.276, -6269.054)"/>
    <path id="路径_4071" data-name="路径 4071" class="cls-2" d="M-6600.541-6151.443v19l9.336-.3V-6143.9Z"/>
    <path id="路径_4072" data-name="路径 4072" class="cls-2" d="M-6630.25-6185.4l13.208,2.441v31.52h-8.99Z"/>
    <path id="路径_4073" data-name="路径 4073" class="cls-4" d="M-6677.94-6238.854h25.8l79.518-9.982-2.5,4.991-75.866,10.768h-27.92Z"/>
    <path id="路径_4074" data-name="路径 4074" class="cls-4" d="M-6664.654-6227.463l-15.725,2.858,51.118,1.027,50.352-4.676,2.439-5.85-48.81,5.263Z"/>
    <path id="路径_4075" data-name="路径 4075" class="cls-4" d="M-6683.116-6218.48l-1.541,5.942h52.62l37.434-3.5,15.524-3.5-15.524,1.059h-24.328l-38.254,2.441Z"/>
    <g id="组_10810" data-name="组 10810">
      <g id="组_10807" data-name="组 10807">
        <path id="路径_4076" data-name="路径 4076" class="cls-5" d="M-6573.369-6217.625l9.154,51.435,6.61-.8-5.937-58.087-5.85-3.985Z"/>
        <path id="路径_4077" data-name="路径 4077" class="cls-6" d="M-6573.127-6216.267l-3.187,1.043,2.836,15.987,3.311-.4"/>
        <path id="路径_4078" data-name="路径 4078" class="cls-7" d="M-6569.392-6229.064l5.85,3.985,4.44,43.448h-5.2l-.82-32.23Z"/>
        <path id="路径_4079" data-name="路径 4079" class="cls-8" d="M-6562.235-6212.3l-1.307-12.781-5.85-3.985-3.978,11.439"/>
      </g>
      <g id="组_10808" data-name="组 10808">
        <path id="路径_4080" data-name="路径 4080" class="cls-9" d="M-6561.582-6218.553l2.263,52.164h5.222l.87-58.379-4.177-4.662Z"/>
        <path id="路径_4081" data-name="路径 4081" class="cls-6" d="M-6561.522-6217.176l-2.58.651.7,16.213h2.615"/>
        <path id="路径_4082" data-name="路径 4082" class="cls-10" d="M-6557.4-6229.43l4.177,4.662-.642,43.04h-4.054l2.408-32.094Z"/>
        <path id="路径_4083" data-name="路径 4083" class="cls-8" d="M-6553.419-6211.923l.191-12.845-4.177-4.662-4.177,10.877"/>
      </g>
      <g id="组_10809" data-name="组 10809">
        <path id="路径_4084" data-name="路径 4084" class="cls-2" d="M-6587.137-6181.728h43.729l-5.559,47.5s-2.765,3.938-16.306,3.938-15.749-3.938-15.749-3.938Z"/>
        <path id="路径_4085" data-name="路径 4085" class="cls-1" d="M-6583.857-6181.77l6.659,12.594-.65,28.054,13.624,10.792a43.247,43.247,0,0,1-10.412-.824c-5.515-1.146-6.942-3.114-6.942-3.114l-5.559-47.5Z"/>
      </g>
    </g>
    <path id="路径_4086" data-name="路径 4086" class="cls-8" d="M-6610.25-6182.963h-6.792v31.52"/>
    <g id="组_10811" data-name="组 10811">
      <path id="路径_4087" data-name="路径 4087" class="cls-2" d="M-6538.471-6277.34l-4.937-14.972h8.635Z"/>
      <path id="路径_4088" data-name="路径 4088" class="cls-2" d="M-6531.116-6271.809l9.638-12.477,4.837,7.153Z"/>
      <path id="路径_4089" data-name="路径 4089" class="cls-2" d="M-6529.495-6264.329l15.117,4.473-4.92,7.1Z"/>
    </g>
  </g>
</svg>
