<?xml version="1.0" encoding="utf-8"?>
<!-- Generator: Adobe Illustrator 23.0.2, SVG Export Plug-In . SVG Version: 6.00 Build 0)  -->
<svg version="1.1" id="图层_1" xmlns="http://www.w3.org/2000/svg" xmlns:xlink="http://www.w3.org/1999/xlink" x="0px" y="0px"
	 viewBox="0 0 22 38" style="enable-background:new 0 0 22 38;" xml:space="preserve">
<style type="text/css">
	.st0{fill:none;stroke:#444C58;stroke-width:4;stroke-linecap:round;stroke-linejoin:round;stroke-opacity:0;}
	.st1{fill:#4285F4;}
</style>
<title>svg4</title>
<desc>Created with Sketch.</desc>
<g id="编组-21" transform="translate(0.000000, 16.000000)">
	<path id="路径备份" class="st0" d="M5.5-11.5L18.7,3.1c0.5,0.5,0.5,1.3,0,1.9L5.5,19.5l0,0"/>
	<path class="st1" d="M4.3-10.4c-0.7-0.8-0.7-2.1,0.1-2.8c0.8-0.7,2-0.7,2.7,0l0.1,0.1L20.4,1.5c1.1,1.2,1.2,3.1,0.1,4.4L20.4,6
		L7.2,20.6c-0.7,0.8-2,0.9-2.8,0.1C3.6,20,3.5,18.9,4.1,18l0.1-0.1L17,3.8L4.3-10.4z"/>
</g>
</svg>
