<?xml version="1.0" encoding="UTF-8"?>
<svg width="22px" height="38px" viewBox="0 0 22 38" version="1.1" xmlns="http://www.w3.org/2000/svg" xmlns:xlink="http://www.w3.org/1999/xlink">
    <!-- Generator: Sketch 60.1 (88133) - https://sketch.com -->
    <title>svg5</title>
    <desc>Created with Sketch.</desc>
    <g id="页面-1" stroke="none" stroke-width="1" fill="none" fill-rule="evenodd">
        <g id="首页" transform="translate(-44.000000, -6191.000000)">
            <g id="编组-6备份" transform="translate(55.000000, 6210.000000) scale(-1, 1) translate(-55.000000, -6210.000000) translate(20.000000, 6175.000000)">
                <g id="编组-23" transform="translate(24.000000, 16.000000)">
                    <path d="M29,13 L14.438056,26.1524229 C13.9050627,26.6338252 13.0942369,26.633816 12.5612545,26.1524015 L-2,13 L-2,13" id="路径备份" stroke="#444C58" stroke-width="4" opacity="0" stroke-linecap="round" stroke-linejoin="round" transform="translate(13.500000, 20.000000) rotate(-90.000000) translate(-13.500000, -20.000000) "></path>
                    <path d="M27.6594444,11.5157795 C28.4791567,10.775411 29.7438521,10.839732 30.4842205,11.6594444 C31.1856222,12.436014 31.1648096,13.6119589 30.4636992,14.3631043 L30.3405556,14.4842205 L15.7786117,27.6366434 C14.5359758,28.7589986 12.6715032,28.8038722 11.3791439,27.7712777 L11.2206651,27.6365916 L-3.34058939,14.48419 C-4.16028492,13.743803 -4.22457712,12.4791061 -3.48419004,11.6594106 C-2.7827707,10.882857 -1.61077973,10.784283 -0.792392967,11.4055866 L-0.659410606,11.51581 L13.499,24.305 L27.6594444,11.5157795 Z" id="路径备份" fill="#444C58" fill-rule="nonzero" transform="translate(13.500000, 19.756726) rotate(-90.000000) translate(-13.500000, -19.756726) "></path>
                </g>
            </g>
        </g>
    </g>
</svg>