<?xml version="1.0" encoding="UTF-8"?>
<svg width="22px" height="38px" viewBox="0 0 22 38" version="1.1" xmlns="http://www.w3.org/2000/svg" xmlns:xlink="http://www.w3.org/1999/xlink">
    <!-- Generator: Sketch 60.1 (88133) - https://sketch.com -->
    <title>svg4</title>
    <desc>Created with Sketch.</desc>
    <g id="页面-1" stroke="none" stroke-width="1" fill="none" fill-rule="evenodd">
        <g id="首页" transform="translate(-684.000000, -3043.000000)">
            <g id="编组-6" transform="translate(604.000000, 3027.000000)">
                <g id="编组-21" transform="translate(0.000000, 16.000000)">
                    <path d="M109,13 L94.438056,26.1524229 C93.9050627,26.6338252 93.0942369,26.633816 92.5612545,26.1524015 L78,13 L78,13" id="路径备份" stroke="#444C58" stroke-width="4" opacity="0" stroke-linecap="round" stroke-linejoin="round" transform="translate(93.500000, 20.000000) rotate(-90.000000) translate(-93.500000, -20.000000) "></path>
                    <path d="M107.659444,11.5157795 C108.479157,10.775411 109.743852,10.839732 110.484221,11.6594444 C111.185622,12.436014 111.16481,13.6119589 110.463699,14.3631043 L110.340556,14.4842205 L95.7786117,27.6366434 C94.5359758,28.7589986 92.6715032,28.8038722 91.3791439,27.7712777 L91.2206651,27.6365916 L76.6594106,14.48419 C75.8397151,13.743803 75.7754229,12.4791061 76.51581,11.6594106 C77.2172293,10.882857 78.3892203,10.784283 79.207607,11.4055866 L79.3405894,11.51581 L93.499,24.305 L107.659444,11.5157795 Z" id="路径备份" fill="#444C58" fill-rule="nonzero" transform="translate(93.500000, 19.756726) rotate(-90.000000) translate(-93.500000, -19.756726) "></path>
                </g>
            </g>
        </g>
    </g>
</svg>