<?xml version="1.0" encoding="utf-8"?>
<!-- Generator: Adobe Illustrator 23.0.2, SVG Export Plug-In . SVG Version: 6.00 Build 0)  -->
<svg version="1.1" id="图层_1" xmlns="http://www.w3.org/2000/svg" xmlns:xlink="http://www.w3.org/1999/xlink" x="0px" y="0px"
	 viewBox="0 0 22 38" style="enable-background:new 0 0 22 38;" xml:space="preserve">
<style type="text/css">
	.st0{fill:none;stroke:#444C58;stroke-width:4;stroke-linecap:round;stroke-linejoin:round;stroke-opacity:0;}
	.st1{fill:#4285F4;}
</style>
<path id="路径备份" class="st0" d="M17.7,4.7L4.6,19.3c-0.5,0.5-0.5,1.3,0,1.9l13.2,14.6l0,0"/>
<path class="st1" d="M19,5.8C19.7,5,19.7,3.8,18.8,3c-0.8-0.7-2-0.7-2.7,0L16,3.2L2.9,17.7c-1.1,1.2-1.2,3.1-0.1,4.4l0.1,0.2
	L16,36.8c0.7,0.8,2,0.9,2.8,0.1c0.8-0.7,0.9-1.9,0.3-2.7L19,34.2L6.2,20L19,5.8z"/>
</svg>
