<svg xmlns="http://www.w3.org/2000/svg" width="14" height="14" viewBox="0 0 14 14">
  <defs>
    <style>
      .cls-1 {
        fill: #70707a;
      }
    </style>
  </defs>
  <g id="组_1489" data-name="组 1489" transform="translate(-148.997 -81.248)">
    <path id="路径_2596" data-name="路径 2596" class="cls-1" d="M156,82.415a.579.579,0,0,1,.315.091l.059.038.064.031,4.916,2.383-4.917,2.423-.063.031-.058.039a.586.586,0,0,1-.318.093.577.577,0,0,1-.318-.093l-.059-.038-.063-.031-4.915-2.417,4.918-2.39.064-.031.059-.038a.577.577,0,0,1,.316-.091m0-1.167h0a1.749,1.749,0,0,0-.948.278l-5.667,2.754a.806.806,0,0,0,0,1.365l5.663,2.784a1.756,1.756,0,0,0,1.907,0l5.664-2.792a.806.806,0,0,0,0-1.365l-5.666-2.746a1.746,1.746,0,0,0-.946-.277Z"/>
    <path id="路径_2597" data-name="路径 2597" class="cls-1" d="M155.989,91.978a2.636,2.636,0,0,1-1.216-.344l-5.463-2.849a.583.583,0,0,1,.538-1.034L155.3,90.6a1.112,1.112,0,0,0,1.376,0l5.463-2.86a.583.583,0,0,1,.54,1.034l-5.47,2.864A2.623,2.623,0,0,1,155.989,91.978Z"/>
    <path id="路径_2598" data-name="路径 2598" class="cls-1" d="M155.989,95.248a2.636,2.636,0,0,1-1.216-.344l-5.463-2.848a.583.583,0,0,1,.538-1.035l5.457,2.845a1.112,1.112,0,0,0,1.376,0L162.144,91a.583.583,0,0,1,.54,1.033l-5.47,2.865A2.633,2.633,0,0,1,155.989,95.248Z"/>
  </g>
</svg>
