<?xml version="1.0" encoding="UTF-8"?>
<svg width="20px" height="20px" viewBox="0 0 20 20" version="1.1" xmlns="http://www.w3.org/2000/svg" xmlns:xlink="http://www.w3.org/1999/xlink">
    <title>关于掌控者</title>
    <g id="PC端升级更新" stroke="none" stroke-width="1" fill="none" fill-rule="evenodd">
        <g id="有更新" transform="translate(-265.000000, -390.000000)">
            <g id="关于掌控者-2" transform="translate(265.000000, 390.000000)">
                <g id="关于掌控者" transform="translate(2.000000, 2.000000)">
                    <circle id="椭圆形" stroke="#3949AB" cx="8" cy="8" r="8"></circle>
                    <g id="编组" transform="translate(7.800000, 8.500000) scale(-1, -1) translate(-7.800000, -8.500000) translate(6.800000, 4.000000)" fill="#3949AB" fill-rule="nonzero">
                        <path d="M0.361531006,5.8500045 C0.416088152,6.1482355 0.701566453,6.34568115 0.999153588,6.29099097 C1.22299745,6.24986537 1.39815855,6.07433126 1.43920298,5.8500045 L1.798412,0.900002997 C1.79737923,0.403381345 1.39590152,0.001035 0.900352024,0 C0.390688022,0.0126000439 -0.0122864593,0.436861459 0.000286382311,0.947628158 C0.000630634566,0.961758202 0.00130418607,0.975888255 0.00229204876,0.990003296 L0.361531006,5.8500045 Z M0.900366995,7.200009 C0.404383435,7.200009 0.00230701053,7.60294034 0.00230701053,8.099997 C0.00230701053,8.59706866 0.404383426,9 0.900366995,9 C1.39635056,9 1.79842697,8.59706866 1.79842697,8.099997 C1.82670089,7.63127544 1.4704405,7.2283291 1.00273086,7.200009 C0.968640832,7.19793901 0.934457025,7.19793901 0.900366995,7.200009 L0.900366995,7.200009 Z" id="形状"></path>
                    </g>
                </g>
            </g>
        </g>
    </g>
</svg>