<?xml version="1.0" encoding="UTF-8"?>
<svg width="16px" height="16px" viewBox="0 0 16 16" version="1.1" xmlns="http://www.w3.org/2000/svg" xmlns:xlink="http://www.w3.org/1999/xlink">
    <title>编组 9</title>
    <g id="PC端升级更新" stroke="none" stroke-width="1" fill="none" fill-rule="evenodd">
        <g id="更新图标设置" transform="translate(-69.000000, -715.000000)" stroke="#545454">
            <g id="编组-9" transform="translate(69.000000, 715.000000)">
                <circle id="椭圆形" cx="8" cy="8" r="2.4"></circle>
                <path d="M6.75,1.29903811 C7.52350269,0.852456118 8.47649731,0.852456118 9.25,1.29903811 L9.25,1.29903811 L13.1782032,3.5669873 C13.5649546,3.79027829 13.8774546,4.10825318 14.0932667,4.48205081 C14.3090789,4.85584844 14.4282032,5.28546882 14.4282032,5.73205081 L14.4282032,5.73205081 L14.4282032,10.2679492 C14.4282032,11.1611132 13.9517059,11.9864307 13.1782032,12.4330127 L13.1782032,12.4330127 L9.25,14.7009619 C8.86324865,14.9242529 8.43162433,15.0358984 8,15.0358984 C7.56837567,15.0358984 7.13675135,14.9242529 6.75,14.7009619 L6.75,14.7009619 L2.82179677,12.4330127 C2.43504542,12.2097217 2.12254542,11.8917468 1.90673326,11.5179492 C1.6909211,11.1441516 1.57179677,10.7145312 1.57179677,10.2679492 L1.57179677,10.2679492 L1.57179677,5.73205081 C1.57179677,4.83888683 2.04829408,4.01356929 2.82179677,3.5669873 L2.82179677,3.5669873 Z" id="多边形"></path>
            </g>
        </g>
    </g>
</svg>