<?xml version="1.0" encoding="UTF-8"?>
<svg width="56px" height="56px" viewBox="0 0 56 56" version="1.1" xmlns="http://www.w3.org/2000/svg" xmlns:xlink="http://www.w3.org/1999/xlink">
    <title>最大高度</title>
    <defs>
        <rect id="path-1" x="0" y="0" width="56" height="56" rx="10"></rect>
        <filter x="-28.6%" y="-25.0%" width="157.1%" height="157.1%" filterUnits="objectBoundingBox" id="filter-3">
            <feOffset dx="0" dy="2" in="SourceAlpha" result="shadowOffsetOuter1"></feOffset>
            <feGaussianBlur stdDeviation="5" in="shadowOffsetOuter1" result="shadowBlurOuter1"></feGaussianBlur>
            <feColorMatrix values="0 0 0 0 0.364705882   0 0 0 0 0.443137255   0 0 0 0 0.701960784  0 0 0 0.16 0" type="matrix" in="shadowBlurOuter1"></feColorMatrix>
        </filter>
        <polygon id="path-4" points="0.04188492 0.03775464 0.04188492 3.92486094 0.95901498 3.92486094 0.95901498 2.29492494 2.45768292 2.29492494 2.45768292 3.92486094 3.3695739 3.92486094 3.3695739 1.46394864 2.45768292 1.46394864 0.95901498 1.46394864 0.95901498 0.03775464"></polygon>
        <path d="M0.38850966,0.01304226 C0.21300048,0.05233536 0.07154532,0.19408158 0.03225222,0.3692997 L0.03225222,0.3692997 C-0.04516974,0.7171164 0.25986114,1.02214728 0.60767784,0.9441432 L0.60767784,0.9441432 C0.78318702,0.90455904 0.92464218,0.76310388 0.96393528,0.58788576 L0.96393528,0.58788576 C1.0329165,0.27703368 0.7971579,0.00081774 0.49794822,0.00081774 L0.49794822,0.00081774 C0.46214784,0.00081774 0.42547428,0.00460152 0.38850966,0.01304226 L0.38850966,0.01304226 Z" id="path-6"></path>
        <polygon id="path-8" points="0.03463614 0.03775464 0.03463614 3.92486094 2.47721166 3.92486094 2.47721166 3.0912651 0.96224436 3.0912651 0.96224436 0.03775464"></polygon>
        <path d="M1.0643787,0.03775464 L0.03198888,0.03775464 L0.03198888,3.92486094 L1.0643787,3.92486094 C1.37348442,3.92486094 1.63310994,3.90215826 1.84325526,3.85646184 L1.84325526,3.85646184 C2.05340058,3.81105648 2.2475376,3.73654512 2.42624844,3.6326367 L2.42624844,3.6326367 C2.74117536,3.4521795 2.9795535,3.22195104 3.14225604,2.94253344 L3.14225604,2.94253344 C3.30495858,2.66282478 3.38645538,2.34236772 3.38645538,1.98145332 L3.38645538,1.98145332 C3.38645538,1.37925018 3.18067596,0.90453132 2.76940818,0.5575878 L2.76940818,0.5575878 C2.3625063,0.21442806 1.80134262,0.04153842 1.08591714,0.03775464 L1.08591714,0.03775464 L1.0643787,0.03775464 Z M0.94882788,0.86640246 L1.15256988,0.86640246 C1.55859858,0.86640246 1.87585398,0.96536286 2.10462714,1.16357472 L2.10462714,1.16357472 C2.33369136,1.36207764 2.44778688,1.6345098 2.44778688,1.98145332 L2.44778688,1.98145332 C2.44778688,2.32810578 2.33369136,2.59995582 2.10462714,2.79642132 L2.10462714,2.79642132 C1.87585398,2.99288682 1.55859858,3.0912651 1.15256988,3.0912651 L1.15256988,3.0912651 L0.94882788,3.0912651 L0.94882788,0.86640246 Z" id="path-10"></path>
        <polygon id="path-12" points="0.0103026 0.03775464 0.0103026 3.92486094 2.42580954 3.92486094 2.42580954 3.1072734 0.91084224 3.1072734 0.91084224 2.33800182 2.18975988 2.33800182 2.18975988 1.54166166 0.91084224 1.54166166 0.91084224 0.83933388 2.40456216 0.83933388 2.40456216 0.03775464"></polygon>
        <path d="M0.03833676,0.03775464 L0.03833676,3.92486094 L0.93945852,3.92486094 L0.93945852,2.39941548 L1.07072658,2.39941548 L2.10835548,3.92486094 L3.16752282,3.92486094 L1.9823265,2.25504972 C2.2166298,2.1511413 2.39592276,2.00735766 2.52020538,1.82311668 L2.52020538,1.82311668 C2.64419694,1.63916676 2.70619272,1.42465554 2.70619272,1.17987408 L2.70619272,1.17987408 C2.70619272,1.0101861 2.6663175,0.8486478 2.58714918,0.69613236 L2.58714918,0.69613236 C2.50739874,0.5430348 2.39504958,0.4149684 2.25068382,0.31135104 L2.25068382,0.31135104 C2.1147588,0.21297276 1.95875064,0.1428273 1.78265934,0.10091466 L1.78265934,0.10091466 C1.60656804,0.05900202 1.35858492,0.03775464 1.03841892,0.03775464 L1.03841892,0.03775464 L0.03833676,0.03775464 Z M0.93945852,0.74561256 L1.09226502,0.74561256 C1.36207764,0.74561256 1.55679678,0.78694308 1.6767135,0.87018624 L1.6767135,0.87018624 C1.79633916,0.95313834 1.85629752,1.08760806 1.85629752,1.2735954 L1.85629752,1.2735954 C1.85629752,1.45085094 1.79488386,1.5864849 1.67147442,1.68137046 L1.67147442,1.68137046 C1.54806498,1.7756739 1.36906308,1.82311668 1.13505084,1.82311668 L1.13505084,1.82311668 L0.93945852,1.82311668 L0.93945852,0.74561256 Z" id="path-14"></path>
    </defs>
    <g id="PC端升级更新" stroke="none" stroke-width="1" fill="none" fill-rule="evenodd">
        <g id="最大高度" transform="translate(-429.000000, -216.000000)">
            <g id="编组-2" transform="translate(429.000000, 216.000000)">
                <g id="椭圆形-+-椭圆形蒙版">
                    <mask id="mask-2" fill="white">
                        <use xlink:href="#path-1"></use>
                    </mask>
                    <g id="矩形">
                        <use fill="black" fill-opacity="1" filter="url(#filter-3)" xlink:href="#path-1"></use>
                        <use fill="#FFFFFF" fill-rule="evenodd" xlink:href="#path-1"></use>
                    </g>
                    <ellipse id="椭圆形" fill="#3949AB" opacity="0.100144159" mask="url(#mask-2)" cx="28" cy="56.8476562" rx="33.9609375" ry="15.3398438"></ellipse>
                    <ellipse id="椭圆形" fill="#3949AB" mask="url(#mask-2)" cx="28" cy="71.09375" rx="33.9609375" ry="28"></ellipse>
                </g>
                <g id="编组" transform="translate(12.632812, 8.093750)" fill="#3949AB">
                    <path d="M25.7771719,15.3446234 L26.0886333,15.351757 C26.7208661,15.3801346 27.4077188,15.4922328 28.126875,15.6711078 L28.126875,15.6711078 L28.3118182,15.7225023 C30.0752823,16.2648701 31.1239359,18.1127516 30.6281719,19.9131078 L30.6281719,19.9131078 L30.6238652,19.9291859 L30.6238652,19.9291859 L30.6193125,19.9452641 L30.4834444,20.3975175 C30.3869271,20.6966703 30.2789375,20.9911078 30.1619063,21.2807328 L30.1619063,21.2807328 L30.1311445,21.3647328 L30.1311445,21.3647328 L30.1018594,21.4379047 L29.8808005,21.9376544 C29.6553018,22.4290268 29.4166523,22.8954359 29.166375,23.3384047 L29.166375,23.3384047 L29.1640781,23.3425062 L29.1617813,23.3466078 L28.9606556,23.6924437 C25.033393,30.2836306 18.5242135,31.3918824 16.1024063,31.4667172 L16.1024063,31.4667172 L15.9865781,31.4693422 L15.8438027,31.4720082 L15.8438027,31.4720082 L15.7007813,31.4739359 L15.5839688,31.4742641 L15.0963712,31.4653731 C14.1192054,31.4322775 13.1308125,31.3069203 12.1419375,31.0824828 L12.1419375,31.0824828 L11.6764146,30.9692906 C10.5979197,30.6897941 9.5739082,30.303309 8.61295313,29.8241234 L8.61295313,29.8241234 L8.38379883,29.707393 L8.38379883,29.707393 L8.15685938,29.5872172 L7.97130165,29.4737554 C7.30980013,29.0484883 6.85857813,28.5229984 6.70457813,27.9442953 L6.70457813,27.9442953 L6.67792708,27.8095939 C6.66363542,27.7192745 6.65634375,27.6279828 6.65634375,27.5361078 L6.65634375,27.5361078 L6.66065799,27.3867502 C6.66636979,27.2888474 6.67767188,27.1942016 6.69407813,27.1023266 L6.69407813,27.1023266 L6.699,27.0800141 L6.74852684,26.9174008 C7.05437754,26.0579705 8.02128585,25.3274212 9.34860938,24.8904359 L9.34860938,24.8904359 C9.37764271,24.8800991 9.43996261,24.8582956 9.53630827,24.8274526 L9.70544357,24.7750682 C10.2518508,24.6111743 11.3476427,24.3316587 12.4385708,24.3415699 L12.6309242,24.3464058 C13.3992334,24.3784267 14.1488742,24.5665322 14.6849063,25.0531859 L14.6849063,25.0531859 L14.7605533,25.1320443 C15.1008765,25.5418589 14.8780078,26.1692826 14.3390625,26.3289359 L14.3390625,26.3289359 L14.1013811,26.4016673 C12.6304746,26.8660823 11.8161094,27.4048414 11.8161094,28.1588891 L11.8161094,28.1588891 L11.8225812,28.2680103 C11.9257037,29.1352305 13.2509213,29.8600203 15.0602813,30.1230453 L15.0602813,30.1230453 L15.3491042,30.1605974 C15.5440833,30.1830557 15.743875,30.2002641 15.9481875,30.2116391 L15.9481875,30.2116391 L15.9584004,30.2124184 L15.9584004,30.2124184 L15.9688594,30.2139359 L16.0375869,30.2242181 C16.1431721,30.2389274 16.2107685,30.2421142 16.3426059,30.2430054 L16.5381891,30.2435635 L16.5381891,30.2435635 L16.671375,30.2441234 L16.692375,30.2437953 L16.7783027,30.2379711 L16.7783027,30.2379711 L16.8639844,30.2316547 L16.8987246,30.2309574 L16.8987246,30.2309574 L16.9332188,30.2300141 L17.1531035,30.2183246 L17.1531035,30.2183246 L17.3663438,30.1985141 L17.6669176,30.1704819 C19.1600121,30.0046678 20.4958975,29.4643959 21.1981875,29.0149672 L21.1981875,29.0149672 L21.3733338,28.9037985 C21.8108374,28.6286344 22.0243698,28.5129724 22.3128281,28.2980141 L22.3128281,28.2980141 L22.4192843,28.2174519 C24.0956613,26.9276323 26.1390664,24.3402045 23.5469063,20.9181547 L23.5469063,20.9181547 L23.5362422,20.9050297 L23.5362422,20.9050297 L23.5245938,20.8928891 L23.3579792,20.7205505 C23.2527604,20.604613 23.1590625,20.4867797 23.0757188,20.3682172 L23.0757188,20.3682172 L22.9968108,20.2734134 C22.950849,20.2098057 22.9176719,20.1454203 22.8942656,20.0804516 L22.8942656,20.0804516 L22.8008864,19.9032771 C22.3094719,18.9017435 22.4451719,17.9560792 22.4749219,17.7871859 C22.7869688,16.0304047 24.0518906,15.3446234 25.7771719,15.3446234 L25.7771719,15.3446234 Z M14.3541563,13.9973422 L14.5997265,13.9988916 C18.3496155,14.0462004 21.3657896,15.1822016 20.9248594,18.1405766 L20.9248594,18.1405766 L20.9201982,18.1697181 C20.8529565,18.572581 20.3148568,21.001544 17.1330469,21.1868891 L17.1330469,21.1868891 L16.5152361,21.1692189 C16.10525,21.1604932 15.69925,21.1577953 15.2985,21.1606391 L15.2985,21.1606391 L14.8871258,21.1343363 C11.1996462,20.931563 7.92583594,21.6410023 6.01157813,22.8987172 L6.01157813,22.8987172 L5.80548199,23.0229918 C4.87417438,23.6107441 4.36959688,24.3067891 4.29548438,25.0705766 L4.29548438,25.0705766 L4.26402539,25.2416527 L4.26402539,25.2416527 L4.244625,25.4154359 L4.23796765,25.6035073 C4.23952881,26.04156 4.36004297,26.4738031 4.5845625,26.8929828 L4.5845625,26.8929828 L4.52701758,26.8365863 L4.52701758,26.8365863 L4.46971875,26.7804359 L4.32279808,26.6217713 C3.67512833,25.9198341 3.53206875,25.7245078 2.76675,24.6768266 L2.76675,24.6768266 L2.6671945,24.527007 C2.19628546,23.8160688 2.10771094,23.6415922 1.47032813,22.3865141 L1.47032813,22.3865141 L1.189125,21.7424047 L1.11282283,21.5351641 C0.528350176,19.824714 1.22197536,18.5222617 2.71589063,17.1870453 C4.66725,15.4430609 9.96548438,13.9973422 14.3541563,13.9973422 L14.3541563,13.9973422 Z M16.687125,5.20490469 L17.1612219,5.2063074 C19.0299142,5.21750158 20.5679856,5.29536623 21.837375,5.42802969 L21.837375,5.42802969 L21.8631397,5.4285401 C22.0995075,5.4360126 23.9043,5.55267344 24.8653125,7.37118594 L24.8653125,7.37118594 L24.905496,7.4527547 C25.4260325,8.58551415 25.3213918,11.4871565 22.7424162,11.5787643 L22.5443248,11.5802945 L22.5443248,11.5802945 L22.3367812,11.5708578 L21.9929697,11.5472762 C20.3859189,11.4407433 18.7437301,11.3836438 17.1174179,11.3856359 L16.769184,11.3869708 C7.95435725,11.443879 -0.285211957,13.2625134 0.211640625,18.3879828 L0.211640625,18.3879828 L0.09253125,17.5473266 L0.077159175,17.4078867 C0.0238463014,16.9211968 0.00361454157,16.6900563 0.000481926119,16.2215711 L0.000372949774,15.9395328 C0.00153518871,15.6799481 0.00562993421,15.3528093 0.01115625,14.9118266 L0.01115625,14.9118266 L0.0188191992,14.7765521 C0.0656627344,13.9591 0.08570625,13.8493906 0.37996875,12.2415453 L0.37996875,12.2415453 L0.473647125,11.8821067 C0.609590625,11.3821597 0.783628125,10.8150547 0.923015625,10.3682797 L0.923015625,10.3682797 L0.989114583,10.210804 C1.03497917,10.0995818 1.08390625,9.98131094 1.1326875,9.88856094 L1.1326875,9.88856094 L1.26552432,9.65390508 C3.6999243,5.65626346 12.9023641,5.26356477 14.7534844,5.22557656 C15.4330312,5.21179531 16.0768125,5.20490469 16.687125,5.20490469 L16.687125,5.20490469 Z M16.204125,0.0546546875 L16.4533701,0.0578004665 C18.4304694,0.101282562 19.991055,0.586256563 20.283375,1.65032656 L20.283375,1.65032656 L20.2876719,1.66701138 C20.3385994,1.87747915 20.521554,3.10536207 17.8637813,3.19349844 L17.8637813,3.19349844 L17.490814,3.20578009 C11.637788,3.39800619 5.34891602,3.60477578 2.59546875,7.11196719 L2.59546875,7.11196719 L2.89176563,6.57909219 L2.9716842,6.44174881 C3.40446904,5.70122211 3.5211276,5.57216771 4.61475,4.50829531 L4.61475,4.50829531 L4.74069397,4.38613444 C5.38131472,3.76653185 5.55590901,3.63330175 6.76495313,2.81615469 L6.76495313,2.81615469 L6.87129241,2.74419449 C7.44221427,2.35771039 7.50810156,2.31496198 8.76782813,1.68773281 L8.76782813,1.68773281 L9.13289714,1.51456716 C11.1270775,0.612716971 13.8507739,0.0620664522 16.1129063,0.0546546875 L16.1129063,0.0546546875 L16.204125,0.0546546875 Z" id="形状结合"></path>
                </g>
                <g id="编组" transform="translate(16.570312, 48.398438)">
                    <g transform="translate(0.000000, 0.121982)">
                        <mask id="mask-5" fill="white">
                            <use xlink:href="#path-4"></use>
                        </mask>
                        <g id="Clip-10"></g>
                        <polygon id="Fill-9" fill="#FFFFFF" mask="url(#mask-5)" points="-0.02331252 3.99034944 3.4350624 3.99034944 3.4350624 -0.02773386 -0.02331252 -0.02773386"></polygon>
                    </g>
                    <g transform="translate(2.397780, 0.052682)">
                        <mask id="mask-7" fill="white">
                            <use xlink:href="#path-6"></use>
                        </mask>
                        <g id="Clip-12"></g>
                        <polygon id="Fill-11" fill="#FFFFFF" mask="url(#mask-7)" points="-0.04516974 1.02185622 1.04135724 1.02185622 1.04135724 -0.06467076 -0.04516974 -0.06467076"></polygon>
                    </g>
                    <g transform="translate(8.953560, 0.121982)">
                        <mask id="mask-9" fill="white">
                            <use xlink:href="#path-8"></use>
                        </mask>
                        <g id="Clip-14"></g>
                        <polygon id="Fill-13" fill="#FFFFFF" mask="url(#mask-9)" points="-0.03085236 3.99034944 2.54270016 3.99034944 2.54270016 -0.02773386 -0.03085236 -0.02773386"></polygon>
                    </g>
                    <g transform="translate(12.224520, 0.121982)">
                        <mask id="mask-11" fill="white">
                            <use xlink:href="#path-10"></use>
                        </mask>
                        <g id="Clip-16"></g>
                        <polygon id="Fill-15" fill="#FFFFFF" mask="url(#mask-11)" points="-0.03349962 3.99034944 3.45165282 3.99034944 3.45165282 -0.02773386 -0.03349962 -0.02773386"></polygon>
                    </g>
                    <g transform="translate(16.426410, 0.121982)">
                        <mask id="mask-13" fill="white">
                            <use xlink:href="#path-12"></use>
                        </mask>
                        <g id="Clip-18"></g>
                        <polygon id="Fill-17" fill="#FFFFFF" mask="url(#mask-13)" points="-0.0551859 3.99034944 2.4915891 3.99034944 2.4915891 -0.02773386 -0.0551859 -0.02773386"></polygon>
                    </g>
                    <g transform="translate(19.639620, 0.121982)">
                        <mask id="mask-15" fill="white">
                            <use xlink:href="#path-14"></use>
                        </mask>
                        <g id="Clip-20"></g>
                        <polygon id="Fill-19" fill="#FFFFFF" mask="url(#mask-15)" points="-0.02715174 3.99034944 3.23272026 3.99034944 3.23272026 -0.02773386 -0.02715174 -0.02773386"></polygon>
                    </g>
                    <path d="M8.01623038,1.27554412 C7.91872528,1.02435934 7.77552376,0.803153736 7.58575264,0.612218376 C7.39831,0.420700896 7.18321666,0.274297716 6.94105474,0.172426716 C6.69889282,0.070555716 6.44567062,0.019620216 6.18080602,0.019620216 C5.91623248,0.019620216 5.66330134,0.069973596 5.4220126,0.171262476 C5.18072386,0.271969236 4.96883218,0.417208176 4.78662862,0.606688236 C4.59365584,0.805191156 4.44725266,1.02988948 4.3480012,1.28107426 C4.2490408,1.53196798 4.1995606,1.80148954 4.1995606,2.08905682 C4.1995606,2.37691516 4.2490408,2.64556354 4.3480012,2.8947109 C4.4396851,3.1246483 4.57269952,3.33159196 4.7438428,3.51816142 L5.31170086,2.73695638 C5.20779244,2.54951374 5.15394634,2.3344204 5.15394634,2.08905682 C5.15394634,1.7479345 5.25261568,1.46327782 5.45024542,1.23537784 C5.6475841,1.00747786 5.89120132,0.893673396 6.18080602,0.893673396 C6.47215708,0.893673396 6.71606536,1.00747786 6.91282192,1.23537784 C7.10957848,1.46327782 7.20795676,1.7479345 7.20795676,2.08905682 C7.20795676,2.42872384 7.10957848,2.71221628 6.91282192,2.93895202 C6.71606536,3.16597882 6.47215708,3.27949222 6.18080602,3.27949222 C6.0026773,3.27949222 5.84434066,3.23117626 5.70113914,3.1450225 L5.17228312,3.8726725 C5.25348886,3.92244376 5.33731414,3.96843124 5.42608744,4.00597798 C5.666503,4.10784898 5.91797884,4.15878448 6.18080602,4.15878448 C6.4902028,4.15878448 6.78300916,4.08922114 7.05893404,3.9498034 C7.33514998,3.8100946 7.56799798,3.61450228 7.75747804,3.36244432 C7.89136564,3.18547984 7.99265452,2.98988752 8.0604715,2.7753763 C8.12857954,2.56115614 8.1623425,2.33209192 8.1623425,2.08905682 C8.1623425,1.79770576 8.11373548,1.5267289 8.01623038,1.27554412" id="Fill-21" fill="#FFFFFF"></path>
                </g>
            </g>
        </g>
    </g>
</svg>