<svg xmlns="http://www.w3.org/2000/svg" width="14.33" height="15" viewBox="0 0 14.33 15">
  <defs>
    <style>
      .cls-1 {
        fill: none;
        stroke: #000;
        stroke-miterlimit: 10;
      }

      .cls-2 {
        fill: #4285f4;
      }
    </style>
  </defs>
  <g id="图标icon" transform="translate(-52 -81)">
    <g id="组_6768" data-name="组 6768">
      <g id="组_6767" data-name="组 6767">
        <path id="路径_2777" data-name="路径 2777" class="cls-1" d="M57.711,81.889"/>
      </g>
    </g>
    <g id="组_6770" data-name="组 6770">
      <g id="组_6769" data-name="组 6769">
        <path id="路径_2778" data-name="路径 2778" class="cls-2" d="M59.143,94.929H53.607A1.609,1.609,0,0,1,52,93.321V82.607A1.609,1.609,0,0,1,53.607,81H59.06a1.586,1.586,0,0,1,1.131.469l3.662,3.662a1.589,1.589,0,0,1,.468,1.131v5.084H63.25V86.262a.526.526,0,0,0-.155-.374l-3.662-3.662a.525.525,0,0,0-.373-.155H53.607a.537.537,0,0,0-.536.536V93.321a.537.537,0,0,0,.536.536h5.536Z"/>
      </g>
    </g>
    <g id="组_6772" data-name="组 6772">
      <g id="组_6771" data-name="组 6771">
        <path id="路径_2779" data-name="路径 2779" class="cls-2" d="M62.179,96a4.345,4.345,0,0,1-4.066-2.473l-.086-.206.086-.205a4.579,4.579,0,0,1,8.132,0l.085.205-.085.206A4.347,4.347,0,0,1,62.179,96ZM59.2,93.321a3.564,3.564,0,0,0,5.959,0,3.566,3.566,0,0,0-5.959,0Z"/>
      </g>
    </g>
    <g id="组_6774" data-name="组 6774">
      <g id="组_6773" data-name="组 6773">
        <circle id="椭圆_117" data-name="椭圆 117" class="cls-2" cx="1.071" cy="1.071" r="1.071" transform="translate(61.107 92.25)"/>
      </g>
    </g>
    <g id="组_6776" data-name="组 6776">
      <g id="组_6775" data-name="组 6775">
        <path id="路径_2780" data-name="路径 2780" class="cls-2" d="M57.429,84.75H54.946a.535.535,0,0,1,0-1.071h2.483a.535.535,0,0,1,0,1.071Z"/>
      </g>
    </g>
    <g id="组_6778" data-name="组 6778">
      <g id="组_6777" data-name="组 6777">
        <path id="路径_2781" data-name="路径 2781" class="cls-2" d="M59.643,87.964h-4.7a.535.535,0,0,1,0-1.071h4.7a.535.535,0,1,1,0,1.071Z"/>
      </g>
    </g>
    <g id="组_6780" data-name="组 6780">
      <g id="组_6779" data-name="组 6779">
        <path id="路径_2782" data-name="路径 2782" class="cls-2" d="M57.964,91.179H54.946a.536.536,0,0,1,0-1.072h3.018a.536.536,0,1,1,0,1.072Z"/>
      </g>
    </g>
    <g id="组_6782" data-name="组 6782">
      <g id="组_6781" data-name="组 6781">
        <path id="路径_2783" data-name="路径 2783" class="cls-2" d="M63.25,86.357H60.571a1.609,1.609,0,0,1-1.607-1.607V82.071h1.072V84.75a.536.536,0,0,0,.535.536H63.25Z"/>
      </g>
    </g>
  </g>
</svg>
