<?xml version="1.0" encoding="UTF-8"?>
<svg width="16px" height="16px" viewBox="0 0 16 16" version="1.1" xmlns="http://www.w3.org/2000/svg" xmlns:xlink="http://www.w3.org/1999/xlink">
    <!-- Generator: Sketch 60.1 (88133) - https://sketch.com -->
    <title>已关注</title>
    <desc>Created with Sketch.</desc>
    <g id="----·OKR--V5.2.8(8.12)" stroke="none" stroke-width="1" fill="none" fill-rule="evenodd">
        <g id="创建目标-打分标准" transform="translate(-722.000000, -397.000000)" fill="#FFD600" fill-rule="nonzero">
            <g id="编组-29" transform="translate(242.000000, 110.000000)">
                <g id="编组-26">
                    <g id="编组-25" transform="translate(480.000000, 286.000000)">
                        <g id="已关注备份" transform="translate(0.000000, 1.000000)">
                            <path d="M13.8641148,3.14229403 C13.1211625,2.4149832 12.4728547,2 10.9416989,2 C9.05568407,2 8.00548892,3.04676844 8.00548892,3.04676844 C8.00548892,3.04676844 7.05912527,2 5.06315432,2 C3.77722953,2 2.91479235,2.41499658 2.17082836,3.14229403 C1.42787602,3.87024696 1,4.82445951 1,5.85377088 C1,6.88210573 1.35574764,7.60264777 2.24406409,8.7248227 C3.17266906,9.89788397 7.15118601,13.5760274 7.39682715,13.7465849 C7.64246829,13.9171425 7.78479742,14 8.01812096,14 C8.25144449,14 8.3337988,13.9346798 8.63974287,13.7465849 C8.94568694,13.5584901 12.912023,9.93330643 13.8654409,8.58956723 C14.5856173,7.57456931 15,6.91318064 15,5.88451137 C15,4.85552105 14.607737,3.87024696 13.8641148,3.14229403 Z" id="已关注"></path>
                        </g>
                    </g>
                </g>
            </g>
        </g>
    </g>
</svg>