<?xml version="1.0" encoding="UTF-8"?>
<svg width="16px" height="16px" viewBox="0 0 16 16" version="1.1" xmlns="http://www.w3.org/2000/svg" xmlns:xlink="http://www.w3.org/1999/xlink">
    <!-- Generator: Sketch 60.1 (88133) - https://sketch.com -->
    <title>已打分</title>
    <desc>Created with Sketch.</desc>
    <defs>
        <polygon id="path-1" points="0.000274524799 0.0025745248 13.998 0.0025745248 13.998 14 0.000274524799 14"></polygon>
    </defs>
    <g id="----·OKR-----------------------------V5.3.1(8.12)" stroke="none" stroke-width="1" fill="none" fill-rule="evenodd">
        <g id="我的企业-OKR周期备份-3" transform="translate(-765.000000, -396.000000)">
            <g id="已打分-2" transform="translate(765.000000, 396.000000)">
                <g id="已打分" transform="translate(1.000000, 0.000000)">
                    <g id="编组" transform="translate(0.000000, 0.997600)">
                        <mask id="mask-2" fill="white">
                            <use xlink:href="#path-1"></use>
                        </mask>
                        <g id="Clip-2"></g>
                    </g>
                    <path d="M12.9003427,13.8703658 L12.8914389,10.7443542 C13.2048508,9.82969216 13.498,8.66503421 13.498,7.9979 C13.498,6.05014958 12.6347103,4.22050805 11.1311749,2.98019972 C9.96371785,2.01863745 8.50307722,1.4999 6.982,1.4999 C6.55291494,1.4999 6.12114417,1.54136951 5.6940274,1.62400265 C3.15272943,2.11793265 1.11803843,4.15324484 0.625153045,6.6936673 C0.24678398,8.6428085 0.739985354,10.6254491 1.98018727,12.1299386 C3.22031922,13.6343432 5.04991327,14.4979 6.998,14.4979 C7.6318123,14.4979 8.5527185,14.269935 9.52354304,13.954417 C9.67383795,13.9059163 9.82908017,13.8753134 9.98711462,13.8630432 L10.157,13.8569 L12.9003427,13.8703658 Z" id="路径" fill="#4EDEF2" fill-rule="nonzero"></path>
                    <path d="M3.3047,8.2456 C3.2757,8.2456 3.2457,8.2436 3.2167,8.2376 C2.9457,8.1896 2.7637,7.9306 2.8117,7.6586 C3.2017,5.4446 4.9217,4.7066 4.9947,4.6766 C5.2487,4.5706 5.5417,4.6906 5.6487,4.9466 C5.7537,5.2006 5.6337,5.4926 5.3807,5.5996 C5.3157,5.6276 4.0867,6.1826 3.7957,7.8326 C3.7527,8.0756 3.5417,8.2456 3.3047,8.2456" id="Fill-3" fill="#FFFFFF"></path>
                </g>
            </g>
        </g>
    </g>
</svg>