<?xml version="1.0" encoding="UTF-8"?>
<svg width="16px" height="16px" viewBox="0 0 16 16" version="1.1" xmlns="http://www.w3.org/2000/svg" xmlns:xlink="http://www.w3.org/1999/xlink">
    <!-- Generator: Sketch 60.1 (88133) - https://sketch.com -->
    <title>打分</title>
    <desc>Created with Sketch.</desc>
    <defs>
        <polygon id="path-1" points="0.000274524799 0.0025745248 13.998 0.0025745248 13.998 14 0.000274524799 14"></polygon>
    </defs>
    <g id="----·OKR--V5.2.8(8.12)" stroke="none" stroke-width="1" fill="none" fill-rule="evenodd">
        <g id="我的企业-OKR周期备份-3" transform="translate(-765.000000, -439.000000)">
            <g id="打分" transform="translate(765.000000, 439.000000)">
                <g id="编组" transform="translate(1.000000, 0.997600)">
                    <mask id="mask-2" fill="white">
                        <use xlink:href="#path-1"></use>
                    </mask>
                    <g id="Clip-2"></g>
                    <path d="M6.982,1.0023 C6.587,1.0023 6.187,1.0403 5.789,1.1173 C3.448,1.5723 1.57,3.4513 1.116,5.7913 C0.766,7.5943 1.221,9.4253 2.366,10.8143 C3.511,12.2033 5.199,13.0003 6.998,13.0003 C7.697,13.0003 8.889,12.6373 9.369,12.4813 C9.62,12.4003 9.881,12.3593 10.146,12.3593 L10.157,12.3593 L12.399,12.3703 L12.392,9.7473 C12.392,9.6913 12.4,9.6353 12.419,9.5833 C12.58,9.1133 12.998,7.7353 12.998,7.0003 C12.998,5.2013 12.201,3.5133 10.813,2.3683 C9.73,1.4763 8.38,1.0023 6.982,1.0023 L6.982,1.0023 Z M6.998,14.0003 C4.899,14.0003 2.93,13.0713 1.594,11.4503 C0.259,9.8303 -0.273,7.6983 0.134,5.6013 C0.666,2.8643 2.861,0.6683 5.598,0.1363 C7.703,-0.2707 9.828,0.2613 11.448,1.5963 C13.068,2.9323 13.998,4.9023 13.998,7.0003 C13.998,7.9393 13.515,9.4553 13.392,9.8263 L13.401,12.8713 C13.401,13.0043 13.349,13.1323 13.255,13.2263 C13.16,13.3203 13.02,13.3303 12.898,13.3723 L10.152,13.3593 C10.016,13.3523 9.833,13.3823 9.678,13.4323 C9.025,13.6443 7.81,14.0003 6.998,14.0003 L6.998,14.0003 Z" id="Fill-1" fill="#414141" mask="url(#mask-2)"></path>
                </g>
                <path d="M4.3047,8.2456 C4.2757,8.2456 4.2457,8.2436 4.2167,8.2376 C3.9457,8.1896 3.7637,7.9306 3.8117,7.6586 C4.2017,5.4446 5.9217,4.7066 5.9947,4.6766 C6.2487,4.5706 6.5417,4.6906 6.6487,4.9466 C6.7537,5.2006 6.6337,5.4926 6.3807,5.5996 C6.3157,5.6276 5.0867,6.1826 4.7957,7.8326 C4.7527,8.0756 4.5417,8.2456 4.3047,8.2456" id="Fill-3" fill="#414141"></path>
            </g>
        </g>
    </g>
</svg>