<?xml version="1.0" encoding="UTF-8"?>
<svg width="3px" height="16px" viewBox="0 0 3 16" version="1.1" xmlns="http://www.w3.org/2000/svg" xmlns:xlink="http://www.w3.org/1999/xlink">
    <!-- Generator: Sketch 60.1 (88133) - https://sketch.com -->
    <title>更多操作</title>
    <desc>Created with Sketch.</desc>
    <g id="ICON库" stroke="none" stroke-width="1" fill="none" fill-rule="evenodd">
        <g id="画板" transform="translate(-537.000000, -985.000000)" fill="#545454">
            <g id="更多操作备份" transform="translate(537.000000, 985.000000)">
                <path d="M1.4,12.2 C2.17319865,12.2 2.8,12.8268014 2.8,13.6 C2.8,14.3731986 2.17319865,15 1.4,15 C0.62680135,15 -2.26485497e-14,14.3731986 -2.26485497e-14,13.6 C-2.26485497e-14,12.8268014 0.62680135,12.2 1.4,12.2 Z M1.4,6.6 C2.17319865,6.6 2.8,7.22680135 2.8,8 C2.8,8.77319865 2.17319865,9.4 1.4,9.4 C0.62680135,9.4 -2.26485497e-14,8.77319865 -2.26485497e-14,8 C-2.26485497e-14,7.22680135 0.62680135,6.6 1.4,6.6 Z M1.4,1 C2.17319865,1 2.8,1.62680135 2.8,2.4 C2.8,3.17319865 2.17319865,3.8 1.4,3.8 C0.62680135,3.8 -2.26485497e-14,3.17319865 -2.26485497e-14,2.4 C-2.26485497e-14,1.62680135 0.62680135,1 1.4,1 Z" id="更多操作"></path>
            </g>
        </g>
    </g>
</svg>