<svg xmlns="http://www.w3.org/2000/svg" xmlns:xlink="http://www.w3.org/1999/xlink" width="15" height="15" viewBox="0 0 15 15">
  <defs>
    <clipPath id="clip-path">
      <rect id="矩形_3099" data-name="矩形 3099" width="15" height="15" transform="translate(786 382)" fill="#fff" stroke="#707070" stroke-width="1"/>
    </clipPath>
  </defs>
  <g id="蒙版组_57" data-name="蒙版组 57" transform="translate(-786 -382)" clip-path="url(#clip-path)">
    <g id="组_7387" data-name="组 7387" transform="translate(231.922 -827.685)">
      <path id="路径_2934" data-name="路径 2934" d="M556.867,1215.586l1.735,1.626c.254.257.515.674.262.931a.572.572,0,0,1-.856,0l-2.657-2.693a.52.52,0,0,1-.015-.733l2.672-2.734a.572.572,0,0,1,.856,0c.254.257-.008.674-.262.931l-1.712,1.689h5.838a4.354,4.354,0,0,1,4.236,4.383,4.537,4.537,0,0,1-4.236,4.584H556.5c-.357,0-.657-.167-.657-.524s.3-.458.657-.458h6.175c1.575,0,3.306-2.03,3.306-3.6a3.788,3.788,0,0,0-3.306-3.4Zm0,0" fill="#70707a"/>
      <path id="路径_2935" data-name="路径 2935" d="M562.733,1223.685H556.49c-.46,0-.758-.244-.758-.622,0-.255.131-.558.758-.558h6.192c1.473,0,3.217-1.9,3.217-3.513a3.7,3.7,0,0,0-3.217-3.311h-5.576l1.557,1.46c.322.326.56.777.266,1.074a.711.711,0,0,1-.5.222h0a.7.7,0,0,1-.5-.222l-2.664-2.7a.619.619,0,0,1-.015-.872l2.679-2.742a.686.686,0,0,1,1,0c.295.3.057.749-.262,1.072l-1.546,1.526h5.614a4.481,4.481,0,0,1,4.346,4.494A4.649,4.649,0,0,1,562.733,1223.685Zm-6.243-.984c-.5,0-.561.207-.561.362,0,.4.429.426.561.426h6.243a4.448,4.448,0,0,0,4.149-4.5,4.281,4.281,0,0,0-4.149-4.3h-6.094l1.887-1.863c.052-.054.516-.537.261-.794a.482.482,0,0,0-.718,0l-2.678,2.741a.425.425,0,0,0,.015.6l2.664,2.7a.506.506,0,0,0,.359.164h0a.509.509,0,0,0,.36-.164c.254-.258-.21-.741-.263-.8l-1.918-1.8h6.074a3.922,3.922,0,0,1,3.413,3.508c0,1.551-1.719,3.71-3.413,3.71Z" fill="#70707a"/>
    </g>
  </g>
</svg>
