<?xml version="1.0" encoding="UTF-8"?>
<svg width="12px" height="14px" viewBox="0 0 12 14" version="1.1" xmlns="http://www.w3.org/2000/svg" xmlns:xlink="http://www.w3.org/1999/xlink">
    <!-- Generator: Sketch 60.1 (88133) - https://sketch.com -->
    <title>屏蔽消息</title>
    <desc>Created with Sketch.</desc>
    <g id="工作台" stroke="none" stroke-width="1" fill="none" fill-rule="evenodd">
        <g id="1推进器工作台-okr未展开" transform="translate(-1888.000000, -502.000000)" fill="#CACACA" fill-rule="nonzero">
            <g id="沟通" transform="translate(1568.000000, 60.000000)">
                <g id="屏蔽消息-2" transform="translate(320.000000, 442.000000)">
                    <g id="屏蔽消息">
                        <path d="M5.81818182,2.8 C5.01613927,2.8 4.36363636,2.17196595 4.36363636,1.4 C4.36363636,0.628034049 5.01613927,0 5.81818182,0 C6.62022436,0 7.27272727,0.628034049 7.27272727,1.4 C7.27272727,2.17196595 6.62020752,2.8 5.81818182,2.8 L5.81818182,2.8 Z M5.81818182,0.972857722 C5.57348059,0.972857722 5.37438079,1.16447507 5.37438079,1.40001621 C5.37438079,1.63555736 5.57346375,1.82717471 5.81818182,1.82717471 C6.06289989,1.82717471 6.26198285,1.63555736 6.26198285,1.40001621 C6.26198285,1.16447507 6.06288304,0.972857722 5.81818182,0.972857722 L5.81818182,0.972857722 Z" id="形状"></path>
                        <path d="M5.85053535,14 C4.46478807,14 3.3374168,12.9150277 3.3374168,11.5814174 C3.3374168,11.2219659 3.41756617,10.8757836 3.57565461,10.5525271 L4.52799187,10.9838453 C4.43638758,11.171168 4.38993639,11.3722157 4.38993639,11.5814174 C4.38993639,12.3565037 5.04516491,12.9870801 5.85053535,12.9870801 C6.6559058,12.9870801 7.31113432,12.3565037 7.31113432,11.5814174 C7.31113432,11.363437 7.26087651,11.1547755 7.16172917,10.9611897 L8.10583923,10.5134284 C8.27690875,10.8475063 8.36363636,11.2068227 8.36363636,11.5814343 C8.36363636,12.9150277 7.2362651,14 5.85053535,14 L5.85053535,14 Z M1.23616671,11.4793151 C0.554555026,11.4793151 0,10.9456413 0,10.2896575 C0,9.63367373 0.554537484,9.1 1.23616671,9.1 L1.81742065,9.1 C2.10805639,9.1 2.34368044,9.326759 2.34368044,9.60645995 C2.34368044,9.8861609 2.10805639,10.1129199 1.81742065,10.1129199 L1.23616671,10.1129199 C1.1366159,10.1129199 1.05251958,10.1938522 1.05251958,10.2896575 C1.05251958,10.3854629 1.1366159,10.4663952 1.23616671,10.4663952 C1.52680245,10.4663952 1.7624265,10.6931542 1.7624265,10.9728551 C1.7624265,11.2525561 1.52681999,11.4793151 1.23616671,11.4793151 Z" id="形状"></path>
                        <path d="M10.7299049,11.55 L3.44980233,11.55 C3.15118544,11.55 2.90909091,11.3165044 2.90909091,11.0284941 C2.90909091,10.7404838 3.15118544,10.5069882 3.44980233,10.5069882 L10.7298869,10.5069882 C10.8321715,10.5069882 10.9185772,10.4236515 10.9185772,10.325 C10.9185772,10.2263485 10.8321715,10.1430118 10.7298869,10.1430118 L10.1359334,10.1430118 C9.83731651,10.1430118 9.59522199,9.90951624 9.59522199,9.62150591 C9.59522199,9.33349558 9.83731651,9.1 10.1359334,9.1 L10.7298869,9.1 C11.4302163,9.1 12,9.64952816 12,10.325 C12,11.0004718 11.4302343,11.55 10.7299049,11.55 Z" id="路径"></path>
                        <path d="M10.0016846,9.8 C9.70137865,9.8 9.45791474,9.57279909 9.45791474,9.29255305 L9.45791474,6.51149005 C9.45791474,5.92687733 9.29405874,5.34943654 8.98403739,4.8415498 C8.94428428,4.77645824 8.90225857,4.7125985 8.85802778,4.65007315 C8.69254047,4.41620777 8.76154487,4.10142151 9.01213217,3.94698849 C9.26273759,3.79257238 9.60005619,3.85695049 9.7655435,4.09079895 C9.82272997,4.17163525 9.87774135,4.25521177 9.92901886,4.33922807 C10.3322967,4.99989016 10.5454545,5.75103005 10.5454545,6.51147313 L10.5454545,9.29255305 C10.5454545,9.572816 10.3019906,9.8 10.0016846,9.8 L10.0016846,9.8 Z M1.634679,9.8 C1.334373,9.8 1.09090909,9.57279909 1.09090909,9.29255305 L1.09090909,6.51149005 C1.09090909,5.33744387 1.58390901,4.23080357 2.47908115,3.3954444 C3.3742533,2.56006832 4.5601067,2.1 5.81817276,2.1 C6.80016683,2.1 7.74348073,2.38129476 8.54613949,2.91350512 C8.7909447,3.07582048 8.84840305,3.39261961 8.67446918,3.62107223 C8.50051719,3.84954176 8.16107789,3.90316199 7.91623643,3.74082971 C7.2986407,3.33133694 6.57314289,3.1148939 5.81817276,3.1148939 C3.81120867,3.1148939 2.17843077,4.63860485 2.17843077,6.51149005 L2.17843077,9.29255305 C2.1784489,9.572816 1.93500311,9.8 1.634679,9.8 Z" id="形状"></path>
                        <path d="M1.26632347,12.8196698 C1.0495385,12.6313768 1.03112025,12.3054208 1.22539401,12.0953097 L9.98630824,2.62001412 C10.180582,2.40990303 10.5168916,2.39205179 10.7336765,2.58034471 C10.9504615,2.76863763 10.9688798,3.09459366 10.774606,3.30470476 L2.01369176,12.7799832 C1.81941799,12.9900943 1.48310843,13.0079456 1.26632347,12.8196698 Z" id="路径"></path>
                    </g>
                </g>
            </g>
        </g>
    </g>
</svg>