<svg xmlns="http://www.w3.org/2000/svg" width="12.2" height="13.2" viewBox="0 0 12.2 13.2">
  <g id="组_7382" data-name="组 7382" transform="translate(-56.9 -56.4)">
    <path id="路径_2930" data-name="路径 2930" d="M64.818,59.75a1.021,1.021,0,0,1,.909,1.083v6.5a1.021,1.021,0,0,1-.909,1.084H59a1.021,1.021,0,0,1-.909-1.084v-6.5A1.021,1.021,0,0,1,59,59.75h5.818m0-1.083H59a2.09,2.09,0,0,0-2,2.166v6.5A2.091,2.091,0,0,0,59,69.5h5.818a2.091,2.091,0,0,0,2-2.167v-6.5a2.09,2.09,0,0,0-2-2.166Z" fill="#70707a" stroke="#70707a" stroke-miterlimit="10" stroke-width="0.2"/>
    <path id="路径_2931" data-name="路径 2931" d="M68.455,65.708a.543.543,0,0,1-.546-.541v-6.5A1.009,1.009,0,0,0,67,57.583H61.182a.542.542,0,1,1,0-1.083H67a2.091,2.091,0,0,1,2,2.167v6.5A.543.543,0,0,1,68.455,65.708Z" fill="#70707a" stroke="#70707a" stroke-miterlimit="10" stroke-width="0.2"/>
  </g>
</svg>
