<svg xmlns="http://www.w3.org/2000/svg" xmlns:xlink="http://www.w3.org/1999/xlink" width="38" height="38" viewBox="0 0 38 38">
  <defs>
    <style>
      .cls-1 {
        fill: url(#linear-gradient);
      }

      .cls-2 {
        fill: #fff;
      }

      .cls-3 {
        fill: #fcecc5;
      }
    </style>
    <linearGradient id="linear-gradient" x1="0.067" y1="0.25" x2="0.933" y2="0.75" gradientUnits="objectBoundingBox">
      <stop offset="0" stop-color="#fe9317"/>
      <stop offset="1" stop-color="#fca644"/>
    </linearGradient>
  </defs>
  <g id="组_12664" data-name="组 12664" transform="translate(-1006.628 -255.564)">
    <circle id="椭圆_1074" data-name="椭圆 1074" class="cls-1" cx="19" cy="19" r="19" transform="translate(1006.628 255.564)"/>
    <g id="组_12663" data-name="组 12663">
      <path id="路径_5582" data-name="路径 5582" class="cls-2" d="M1025.628,265.516a9.048,9.048,0,1,0,9.048,9.048A9.047,9.047,0,0,0,1025.628,265.516Zm0,14.929a3.166,3.166,0,0,1-3.166-3.167h6.333A3.167,3.167,0,0,1,1025.628,280.445Z"/>
      <path id="路径_5583" data-name="路径 5583" class="cls-3" d="M1018.03,279.4a14.209,14.209,0,0,0-.982,2.786.714.714,0,0,0,.263.787l.074.064.088.041c.225.1.6.279,3.508-.841A17.987,17.987,0,0,1,1018.03,279.4Z"/>
    </g>
  </g>
</svg>
