<svg xmlns="http://www.w3.org/2000/svg" width="17" height="16.03" viewBox="0 0 17 16.03">
  <path id="路径_4497" data-name="路径 4497" d="M958.982,533.9a2.377,2.377,0,0,1,2.591,2.591v1.717a2.854,2.854,0,0,1-.722,1.89,3.538,3.538,0,0,0-.852,2.117c0,2.133,1.968,2.7,3.271,3.068a6.9,6.9,0,0,1,1.813.7,2.174,2.174,0,0,1,.878,1.116H951.978a2.19,2.19,0,0,1,.876-1.118,6.862,6.862,0,0,1,1.822-.7c1.312-.372,3.294-.934,3.294-3.067a3.5,3.5,0,0,0-.864-2.118,2.756,2.756,0,0,1-.715-1.889V536.47a2.624,2.624,0,0,1,.652-1.894,2.651,2.651,0,0,1,1.939-.678m0-1.417a3.726,3.726,0,0,0-4.007,4.008v1.717c-.03,2.29,1.578,2.862,1.578,4.007,0,1.718-2.752,1.437-4.481,2.582a3.683,3.683,0,0,0-1.571,2.3,1.143,1.143,0,0,0,1.113,1.412h14.71a1.183,1.183,0,0,0,.265-.031,1.145,1.145,0,0,0,.849-1.379,3.66,3.66,0,0,0-1.576-2.306c-1.739-1.145-4.446-.864-4.446-2.582,0-1.145,1.573-1.717,1.573-4.007v-1.717a3.754,3.754,0,0,0-4.007-4.008Z" transform="translate(-950.469 -532.481)" fill="#70707a"/>
</svg>
