<svg xmlns="http://www.w3.org/2000/svg" width="17" height="16" viewBox="0 0 17 16">
  <g id="组_7402" data-name="组 7402" transform="translate(-149.056 -118.294)">
    <path id="路径_4412" data-name="路径 4412" d="M161.433,134.294" fill="#4285f4"/>
    <path id="路径_4413" data-name="路径 4413" d="M164.325,130.629a9.216,9.216,0,0,0-2.119-.926c-1.223-.419-2.279-.78-2.279-1.731a1.991,1.991,0,0,1,.586-1.155,4.114,4.114,0,0,0,1.085-2.761v-1.678a4.067,4.067,0,1,0-8.133,0v1.678a4.114,4.114,0,0,0,1.085,2.761,1.991,1.991,0,0,1,.586,1.155c0,.949-1.058,1.31-2.284,1.729a9.144,9.144,0,0,0-2.124.929,3.761,3.761,0,0,0-1.651,2.454.981.981,0,0,0-.021.2,1,1,0,0,0,1,1.006h3.574a.727.727,0,0,0,0-1.454H150.9a.116.116,0,0,1-.06-.017.114.114,0,0,1-.035-.156,2.744,2.744,0,0,1,.723-.827,6.047,6.047,0,0,1,1.345-.61l.664-.229c2.02-.694,3.046-1.354,3.046-3.029a2.637,2.637,0,0,0-.467-1.468c-.077-.12-.158-.233-.263-.372h0l-.059-.076h0c-.039-.049-.25-.321-.3-.392a2.4,2.4,0,0,1-.579-1.607v-1.678a2.619,2.619,0,1,1,5.237,0v1.678a2.4,2.4,0,0,1-.579,1.606c-.051.07-.256.333-.3.39h0l-.022.029-.045.059c-.1.134-.181.246-.257.363a2.634,2.634,0,0,0-.467,1.468c0,1.675,1.022,2.335,3.036,3.029l.682.236a6.137,6.137,0,0,1,1.331.606,2.327,2.327,0,0,1,.871,1h-2.968a.727.727,0,0,0,0,1.454h3.9a.715.715,0,0,0,.084-.005.729.729,0,0,0,.635-.807A3.814,3.814,0,0,0,164.325,130.629Z" fill="#4285f4"/>
    <path id="路径_4414" data-name="路径 4414" d="M158.637,130.384l-.67-.672a.614.614,0,0,0-.871,0l-.67.672a.624.624,0,0,0,0,.875l.413.413-.328,1.646a.772.772,0,0,0,.21.7.939.939,0,0,0,.672.28h.277a.939.939,0,0,0,.672-.28.768.768,0,0,0,.21-.7l-.327-1.646.412-.413A.624.624,0,0,0,158.637,130.384Z" fill="#4285f4"/>
  </g>
</svg>
