<svg xmlns="http://www.w3.org/2000/svg" width="18" height="15.509" viewBox="0 0 18 15.509">
  <defs>
    <style>
      .cls-1 {
        fill: #4285f4;
      }
    </style>
  </defs>
  <g id="组_12190" data-name="组 12190" transform="translate(-198.386 -103.208)">
    <rect id="矩形_9029" data-name="矩形 9029" class="cls-1" width="6.307" height="1.449" rx="0.538" transform="translate(198.386 103.516)"/>
    <rect id="矩形_9030" data-name="矩形 9030" class="cls-1" width="4.205" height="1.449" rx="0.538" transform="translate(198.386 110.358)"/>
    <rect id="矩形_9031" data-name="矩形 9031" class="cls-1" width="6.307" height="1.449" rx="0.538" transform="translate(198.386 117.203)"/>
    <path id="路径_5288" data-name="路径 5288" class="cls-1" d="M209.223,104.64a4.911,4.911,0,0,1,4.782,5.021c0,1.842-1.51,4.312-4.615,7.552a.229.229,0,0,1-.334,0c-3.105-3.241-4.615-5.711-4.615-7.553a4.912,4.912,0,0,1,4.782-5.021m0-1.432a6.319,6.319,0,0,0-6.159,6.453c0,2.27,1.594,4.992,5.017,8.563a1.572,1.572,0,0,0,1.142.493h0a1.572,1.572,0,0,0,1.141-.493c3.423-3.571,5.017-6.293,5.017-8.563a6.318,6.318,0,0,0-6.159-6.453Z" transform="translate(1.004)"/>
    <path id="路径_5289" data-name="路径 5289" class="cls-1" d="M208.71,107.524a1.39,1.39,0,1,1-1.343,1.39,1.368,1.368,0,0,1,1.343-1.39m0-1.449a2.84,2.84,0,1,0,2.744,2.839,2.8,2.8,0,0,0-2.744-2.839Z" transform="translate(1.468 0.55)"/>
  </g>
</svg>
