<svg xmlns="http://www.w3.org/2000/svg" width="16" height="15.457" viewBox="0 0 16 15.457">
  <defs>
    <style>
      .cls-1 {
        fill: #4285f4;
      }
    </style>
  </defs>
  <g id="组_1637" data-name="组 1637" transform="translate(-197.527 -189.454)">
    <path id="路径_2698" data-name="路径 2698" class="cls-1" d="M206.031,203.569h-6.794a.142.142,0,0,1-.136-.111.149.149,0,0,1,.018-.109,2.627,2.627,0,0,1,.693-.813,5.624,5.624,0,0,1,1.28-.6c.1-.038.205-.073.309-.109l.317-.112c1.936-.684,2.857-1.294,2.857-2.907a2.574,2.574,0,0,0-.436-1.4c-.08-.129-.165-.251-.3-.434-.037-.048-.237-.312-.287-.381a2.4,2.4,0,0,1-.554-1.581v-1.628a2.51,2.51,0,1,1,5.018,0v1.628a2.4,2.4,0,0,1-.554,1.581c-.049.067-.241.322-.283.377a.346.346,0,0,0-.024.033l-.029.037h0c-.108.143-.183.254-.254.367a2.582,2.582,0,0,0-.436,1.4,2.337,2.337,0,0,0,.533,1.621l.063.073.007,0c.039.038.061.058.068.063a.811.811,0,0,0,.915-.016.757.757,0,0,0,.262-.485.375.375,0,0,0-.061-.286,1.646,1.646,0,0,0-.118-.129l-.037-.037h0a1.1,1.1,0,0,1-.328-.8,1.97,1.97,0,0,1,.562-1.143,4.022,4.022,0,0,0,1.017-2.657v-1.629a3.811,3.811,0,1,0-7.619,0v1.629a4.012,4.012,0,0,0,1.018,2.657,1.981,1.981,0,0,1,.561,1.143c0,.946-1.011,1.3-2.182,1.711a8.488,8.488,0,0,0-2,.9,3.619,3.619,0,0,0-1.546,2.361.9.9,0,0,0-.019.189.929.929,0,0,0,.914.942h7.59a.671.671,0,0,0,0-1.342Z"/>
    <path id="路径_2699" data-name="路径 2699" class="cls-1" d="M212.876,201.916h-5.265a.672.672,0,0,0,0,1.343h1.729v-.008h2.3v.008h1.235a.672.672,0,0,0,0-1.343Z"/>
  </g>
</svg>
