<svg xmlns="http://www.w3.org/2000/svg" xmlns:xlink="http://www.w3.org/1999/xlink" width="14" height="14" viewBox="0 0 14 14">
  <defs>
    <clipPath id="clip-path">
      <rect id="矩形_3095" data-name="矩形 3095" width="14" height="14" transform="translate(782 268)" fill="#fff" stroke="#707070" stroke-width="1"/>
    </clipPath>
  </defs>
  <g id="蒙版组_53" data-name="蒙版组 53" transform="translate(-782 -268)" clip-path="url(#clip-path)">
    <path id="路径_2929" data-name="路径 2929" d="M63.58,66.973a1.29,1.29,0,0,1-.566-.13,1.417,1.417,0,0,1-.786-1.28v-1.61A6.037,6.037,0,0,0,58.72,65.88l-.38.422a1.306,1.306,0,0,1-1.6.29,1.418,1.418,0,0,1-.715-1.5l.1-.566a7.467,7.467,0,0,1,6.109-6.312V56.383a1.42,1.42,0,0,1,.783-1.279,1.306,1.306,0,0,1,1.456.216l5.071,4.6a1.45,1.45,0,0,1,.018,2.11l-5.087,4.6A1.318,1.318,0,0,1,63.58,66.973Zm-.186-4.312v2.9a.214.214,0,0,0,.114.192.169.169,0,0,0,.187-.028l5.08-4.6a.223.223,0,0,0,.058-.157.219.219,0,0,0-.069-.16l-5.071-4.6a.16.16,0,0,0-.186-.03.217.217,0,0,0-.115.193v2.911l-.533.046a6.275,6.275,0,0,0-5.593,5.387l-.095.569a.21.21,0,0,0,.1.229.167.167,0,0,0,.212-.041l.378-.42a7.154,7.154,0,0,1,4.92-2.373Z" transform="translate(726 214.026)" fill="#70707a"/>
  </g>
</svg>
