<svg xmlns="http://www.w3.org/2000/svg" xmlns:xlink="http://www.w3.org/1999/xlink" width="14" height="14" viewBox="0 0 14 14">
  <defs>
    <clipPath id="clip-path">
      <rect id="矩形_3098" data-name="矩形 3098" width="14" height="14" transform="translate(781 353)" fill="#fff" stroke="#707070" stroke-width="1"/>
    </clipPath>
  </defs>
  <g id="蒙版组_56" data-name="蒙版组 56" transform="translate(-781 -353)" clip-path="url(#clip-path)">
    <g id="组_7626" data-name="组 7626" transform="translate(568.348 -422.587)">
      <g id="路径_4499" data-name="路径 4499" transform="translate(0)" fill="#70707a">
        <path d="M 220.1521606445313 789.6373291015625 L 215.2705383300781 789.6373291015625 C 214.3504943847656 789.6373291015625 213.6019744873047 788.8888549804688 213.6019744873047 787.9688110351563 L 213.6019744873047 783.087158203125 C 213.6019744873047 779.4754028320313 216.5403747558594 776.5369873046875 220.1521606445313 776.5369873046875 C 223.7639465332031 776.5369873046875 226.7023468017578 779.4754028320313 226.7023468017578 783.087158203125 C 226.7023468017578 786.6989135742188 223.7639465332031 789.6373291015625 220.1521606445313 789.6373291015625 Z M 220.1521606445313 777.720703125 C 217.1930541992188 777.720703125 214.7856597900391 780.1281127929688 214.7856597900391 783.087158203125 L 214.7856597900391 787.9688110351563 C 214.7856597900391 788.2361450195313 215.003173828125 788.4536743164063 215.2705383300781 788.4536743164063 L 220.1521606445313 788.4536743164063 C 223.1117858886719 788.4536743164063 225.5196075439453 786.0462646484375 225.5196075439453 783.087158203125 C 225.5196075439453 780.1281127929688 223.1117858886719 777.720703125 220.1521606445313 777.720703125 Z" stroke="none"/>
        <path d="M 220.1521606445313 776.5869750976563 C 216.5678100585938 776.5869750976563 213.6519775390625 779.5028076171875 213.6519775390625 783.087158203125 L 213.6519775390625 787.9688110351563 C 213.6519775390625 788.8612060546875 214.378173828125 789.5873413085938 215.2705383300781 789.5873413085938 L 220.1521606445313 789.5873413085938 C 223.7365417480469 789.5873413085938 226.65234375 786.6715698242188 226.65234375 783.087158203125 C 226.65234375 779.5028076171875 223.7365417480469 776.5869750976563 220.1521606445313 776.5869750976563 M 220.1521606445313 788.503662109375 L 215.2705383300781 788.503662109375 C 214.9752502441406 788.503662109375 214.7356567382813 788.2640991210938 214.7356567382813 787.9688110351563 L 214.7356567382813 783.087158203125 C 214.7356567382813 780.0999145507813 217.1658020019531 777.6707153320313 220.1521606445313 777.6707153320313 C 223.1394653320313 777.6707153320313 225.5696105957031 780.0999145507813 225.5696105957031 783.087158203125 C 225.5696105957031 786.0735473632813 223.1394653320313 788.503662109375 220.1521606445313 788.503662109375 M 220.1521606445313 776.4869995117188 C 223.79150390625 776.4869995117188 226.7523345947266 779.4478149414063 226.7523345947266 783.087158203125 C 226.7523345947266 786.7265014648438 223.79150390625 789.6873168945313 220.1521606445313 789.6873168945313 L 215.2705383300781 789.6873168945313 C 214.3229217529297 789.6873168945313 213.5519866943359 788.9163818359375 213.5519866943359 787.9688110351563 L 213.5519866943359 783.087158203125 C 213.5519866943359 779.4478149414063 216.5128173828125 776.4869995117188 220.1521606445313 776.4869995117188 Z M 220.1521606445313 788.4036865234375 C 223.0842132568359 788.4036865234375 225.4696044921875 786.0186767578125 225.4696044921875 783.087158203125 C 225.4696044921875 780.1556396484375 223.0842132568359 777.7706909179688 220.1521606445313 777.7706909179688 C 217.2206268310547 777.7706909179688 214.8356628417969 780.1556396484375 214.8356628417969 783.087158203125 L 214.8356628417969 787.9688110351563 C 214.8356628417969 788.2086181640625 215.0307464599609 788.4036865234375 215.2705383300781 788.4036865234375 L 220.1521606445313 788.4036865234375 Z" stroke="none" fill="#707070"/>
      </g>
      <g id="组_7625" data-name="组 7625" transform="translate(216.902 780.92)">
        <rect id="矩形_3052" data-name="矩形 3052" width="6.5" height="1.114" rx="0.557" fill="#70707a"/>
        <rect id="矩形_3053" data-name="矩形 3053" width="3.25" height="1.114" rx="0.557" transform="translate(0 3.25)" fill="#70707a"/>
      </g>
    </g>
  </g>
</svg>
