<svg xmlns="http://www.w3.org/2000/svg" width="14" height="14" viewBox="0 0 14 14">
  <g id="组_6710" data-name="组 6710" transform="translate(-35.664 -796.603)">
    <g id="路径_4396" data-name="路径 4396" fill="none" stroke-miterlimit="10">
      <path d="M42.664,796.6a7,7,0,1,0,7,7,7,7,0,0,0-7-7Z" stroke="none"/>
      <path d="M 42.66400146484375 798.0030517578125 C 39.57615280151367 798.0030517578125 37.06400299072266 800.5151977539063 37.06400299072266 803.60302734375 C 37.06400299072266 806.6908569335938 39.57615280151367 809.2030029296875 42.66400146484375 809.2030029296875 C 45.75185012817383 809.2030029296875 48.26399993896484 806.6908569335938 48.26399993896484 803.60302734375 C 48.26399993896484 800.5151977539063 45.75185012817383 798.0030517578125 42.66400146484375 798.0030517578125 M 42.66400146484375 796.60302734375 C 46.53000259399414 796.60302734375 49.66400146484375 799.7369995117188 49.66400146484375 803.60302734375 C 49.66400146484375 807.468994140625 46.53000259399414 810.60302734375 42.66400146484375 810.60302734375 C 38.79800033569336 810.60302734375 35.66400146484375 807.468994140625 35.66400146484375 803.60302734375 C 35.66400146484375 799.7369995117188 38.79800033569336 796.60302734375 42.66400146484375 796.60302734375 Z" stroke="none" fill="#70707a"/>
    </g>
    <g id="组_6709" data-name="组 6709">
      <circle id="椭圆_733" data-name="椭圆 733" cx="1.077" cy="1.077" r="1.077" transform="translate(38.895 800.911)" fill="#70707a"/>
      <circle id="椭圆_734" data-name="椭圆 734" cx="1.077" cy="1.077" r="1.077" transform="translate(44.28 800.911)" fill="#70707a"/>
    </g>
    <path id="路径_4397" data-name="路径 4397" d="M45.442,805.134a2.778,2.778,0,0,1-5.555,0" fill="#70707a"/>
  </g>
</svg>
