<svg id="组_566" data-name="组 566" xmlns="http://www.w3.org/2000/svg" width="14" height="14" viewBox="0 0 14 14">
  <path id="路径_59" data-name="路径 59" d="M475.364,193.785h-8.975a2.517,2.517,0,0,1-2.513-2.516v-7.79a2.518,2.518,0,0,1,2.513-2.516h8.975a2.517,2.517,0,0,1,2.512,2.516v7.79A2.517,2.517,0,0,1,475.364,193.785ZM466.389,182.4a1.079,1.079,0,0,0-1.077,1.078v7.79a1.079,1.079,0,0,0,1.077,1.079h8.975a1.079,1.079,0,0,0,1.076-1.079v-7.79a1.078,1.078,0,0,0-1.076-1.078Z" transform="translate(-463.876 -179.785)" fill="#9a9aa2"/>
  <g id="组_564" data-name="组 564" transform="translate(2.989)">
    <rect id="矩形_1232" data-name="矩形 1232" width="1.438" height="3.535" rx="0.719" fill="#9a9aa2"/>
    <rect id="矩形_1233" data-name="矩形 1233" width="1.438" height="3.535" rx="0.719" transform="translate(6.585)" fill="#9a9aa2"/>
  </g>
  <g id="组_565" data-name="组 565" transform="translate(2.529 7.941)">
    <circle id="椭圆_15" data-name="椭圆 15" cx="0.899" cy="0.899" r="0.899" fill="#9a9aa2"/>
    <circle id="椭圆_16" data-name="椭圆 16" cx="0.899" cy="0.899" r="0.899" transform="translate(3.572)" fill="#9a9aa2"/>
    <circle id="椭圆_17" data-name="椭圆 17" cx="0.899" cy="0.899" r="0.899" transform="translate(7.144)" fill="#9a9aa2"/>
  </g>
  <rect id="矩形_1234" data-name="矩形 1234" width="12.377" height="1.438" transform="translate(0.812 4.843)" fill="#9a9aa2"/>
</svg>
