<svg xmlns="http://www.w3.org/2000/svg" width="16" height="14.17" viewBox="0 0 16 14.17">
  <path id="路径_6241" data-name="路径 6241" d="M960.521,548.211c-4.411,0-8-2.768-8-6.17a5.512,5.512,0,0,1,2.315-4.351l.209-.163-1.411-1.409a.629.629,0,0,1-.166-.716.739.739,0,0,1,.655-.463.67.67,0,0,1,.474.216l1.658,1.657.073-.033a9.781,9.781,0,0,1,3.3-.871l.106-.008.109-.117v-1.062a.681.681,0,0,1,1.362,0v1.167l.105.01a9.808,9.808,0,0,1,3.328.846l.073.034.131-.023,1.6-1.6a.669.669,0,0,1,.471-.187.68.68,0,0,1,.489,1.153L966,537.527l.209.163a5.51,5.51,0,0,1,2.315,4.351C968.521,545.443,964.931,548.211,960.521,548.211Zm0-10.979c-3.661,0-6.638,2.158-6.638,4.809s2.977,4.806,6.638,4.806,6.635-2.155,6.635-4.806S964.179,537.232,960.521,537.232Zm0,8.235a3.426,3.426,0,1,1,3.426-3.426A3.431,3.431,0,0,1,960.521,545.467Zm0-5.49a2.063,2.063,0,1,0,2.063,2.064A2.066,2.066,0,0,0,960.521,539.977Z" transform="translate(-952.521 -534.041)" fill="#4285f4"/>
</svg>
