<svg xmlns="http://www.w3.org/2000/svg" width="14" height="14" viewBox="0 0 14 14">
  <g id="组_14159" data-name="组 14159" transform="translate(-189.262 -56.432)">
    <path id="路径_6220" data-name="路径 6220" d="M201.512,70.432h-2.333a.584.584,0,1,1,0-1.167h2.333a.583.583,0,0,0,.583-.583V66.349a.583.583,0,1,1,1.167,0v2.333A1.752,1.752,0,0,1,201.512,70.432Z" fill="#70707a"/>
    <path id="路径_6221" data-name="路径 6221" d="M202.679,61.1a.583.583,0,0,1-.584-.584V58.182a.583.583,0,0,0-.583-.583h-2.333a.584.584,0,1,1,0-1.167h2.333a1.752,1.752,0,0,1,1.75,1.75v2.333A.583.583,0,0,1,202.679,61.1Z" fill="#70707a"/>
    <path id="路径_6222" data-name="路径 6222" d="M189.845,61.1a.583.583,0,0,1-.583-.584V58.182a1.752,1.752,0,0,1,1.75-1.75h2.333a.584.584,0,1,1,0,1.167h-2.333a.583.583,0,0,0-.583.583v2.333A.583.583,0,0,1,189.845,61.1Z" fill="#70707a"/>
    <path id="路径_6223" data-name="路径 6223" d="M193.345,70.432h-2.333a1.752,1.752,0,0,1-1.75-1.75V66.349a.584.584,0,1,1,1.167,0v2.333a.583.583,0,0,0,.583.583h2.333a.584.584,0,1,1,0,1.167Z" fill="#70707a"/>
  </g>
</svg>
