<svg xmlns="http://www.w3.org/2000/svg" width="14" height="14" viewBox="0 0 14 14">
  <g id="组_14192" data-name="组 14192" transform="translate(-460.874 -54.395)">
    <rect id="矩形_10241" data-name="矩形 10241" width="14" height="1.167" rx="0.583" transform="translate(460.874 56.728)" fill="#4285f4"/>
    <path id="路径_6218" data-name="路径 6218" d="M471.374,68.395h-7a1.752,1.752,0,0,1-1.75-1.75V56.728h10.5v9.917A1.752,1.752,0,0,1,471.374,68.395Zm-7.583-10.5v8.75a.583.583,0,0,0,.583.583h7a.583.583,0,0,0,.583-.583V57.9Z" fill="#4285f4"/>
    <path id="路径_6219" data-name="路径 6219" d="M472.318,57.9H463.43l1.377-2.753a1.494,1.494,0,0,1,1.317-.747h3.5a1.5,1.5,0,0,1,1.318.748Zm-7-1.167h5.112l-.533-1.064a.441.441,0,0,0-.273-.1h-3.5a.418.418,0,0,0-.278.11Z" fill="#4285f4"/>
    <g id="组_14157" data-name="组 14157">
      <rect id="矩形_10242" data-name="矩形 10242" width="1.167" height="5.833" rx="0.583" transform="translate(465.541 59.645)" fill="#4285f4"/>
      <rect id="矩形_10243" data-name="矩形 10243" width="1.167" height="5.833" rx="0.583" transform="translate(469.041 59.645)" fill="#4285f4"/>
    </g>
  </g>
</svg>
