<svg xmlns="http://www.w3.org/2000/svg" width="13.386" height="14" viewBox="0 0 13.386 14">
  <defs>
    <style>
      .cls-1 {
        fill: #70707a;
      }
    </style>
  </defs>
  <g id="组_14169" data-name="组 14169" transform="translate(-65.392 -103.231)">
    <path id="路径_6229" data-name="路径 6229" class="cls-1" d="M72.75,117.231H71.419a1.652,1.652,0,0,1-1.626-1.357l-.136-.746-.633-.361-.744.266a1.652,1.652,0,0,1-1.983-.717L65.64,113.2a1.646,1.646,0,0,1,.363-2.1l.623-.523v-.631L66,109.421a1.647,1.647,0,0,1-.381-2.1l.647-1.124a1.655,1.655,0,0,1,1.976-.736l.8.28.606-.346.146-.807a1.653,1.653,0,0,1,1.627-1.357H72.75a1.651,1.651,0,0,1,1.626,1.357l.139.76.616.352.758-.272a1.653,1.653,0,0,1,1.983.718l.657,1.118a1.649,1.649,0,0,1-.363,2.1l-.548.46v.754l.556.459a1.645,1.645,0,0,1,.381,2.1l-.647,1.123a1.656,1.656,0,0,1-1.976.736l-.7-.243-.733.418-.127.7A1.652,1.652,0,0,1,72.75,117.231Zm-3.615-3.744,1.573.9.233,1.281a.486.486,0,0,0,.478.4H72.75a.486.486,0,0,0,.478-.4l.225-1.234,1.666-.95,1.2.418a.485.485,0,0,0,.581-.217l.647-1.124a.484.484,0,0,0-.111-.617l-.982-.809v-1.849l.966-.809a.485.485,0,0,0,.106-.619l-.657-1.118a.486.486,0,0,0-.583-.211l-1.264.453-1.555-.887-.236-1.3a.486.486,0,0,0-.478-.4H71.419a.488.488,0,0,0-.479.4l-.244,1.342-1.539.878-1.3-.454a.487.487,0,0,0-.581.216l-.648,1.124a.485.485,0,0,0,.113.617l1.055.87v1.726l-1.039.871a.486.486,0,0,0-.108.619l.658,1.118a.486.486,0,0,0,.583.211Z"/>
    <path id="路径_6230" data-name="路径 6230" class="cls-1" d="M72.085,108.6a1.635,1.635,0,0,1,1.612,1.9,1.645,1.645,0,0,1-1.347,1.346,1.713,1.713,0,0,1-.266.021,1.634,1.634,0,0,1-.266-3.246,1.857,1.857,0,0,1,.267-.02m0-1.167h0a2.9,2.9,0,0,0-.442.034,2.8,2.8,0,0,0,.442,5.566,2.9,2.9,0,0,0,.443-.034,2.8,2.8,0,0,0-.442-5.566Z"/>
  </g>
</svg>
