<svg xmlns="http://www.w3.org/2000/svg" xmlns:xlink="http://www.w3.org/1999/xlink" width="496.484" height="280.191" viewBox="0 0 496.484 280.191">
  <defs>
    <style>
      .cls-1, .cls-13, .cls-4, .cls-44, .cls-47, .cls-5, .cls-6, .cls-9 {
        fill: none;
      }

      .cls-2, .cls-47 {
        opacity: 0.6;
      }

      .cls-3 {
        fill: #94c2f8;
        opacity: 0.5;
      }

      .cls-4, .cls-47, .cls-6, .cls-7 {
        stroke: #000;
      }

      .cls-13, .cls-4, .cls-45, .cls-47, .cls-5, .cls-6, .cls-7, .cls-9 {
        stroke-miterlimit: 10;
      }

      .cls-5 {
        stroke: #979797;
      }

      .cls-6 {
        stroke-width: 0.5px;
      }

      .cls-11, .cls-45, .cls-46, .cls-7 {
        fill: #fff;
      }

      .cls-8 {
        fill: #1fdfff;
      }

      .cls-44, .cls-45, .cls-46, .cls-9 {
        stroke: #334156;
      }

      .cls-10 {
        fill: #f5f6fa;
      }

      .cls-12 {
        fill: #ffcb63;
      }

      .cls-13 {
        stroke: #e7cb5f;
      }

      .cls-14 {
        fill: #3b475f;
      }

      .cls-15 {
        fill: #e9f2ff;
      }

      .cls-16 {
        clip-path: url(#clip-path);
      }

      .cls-17 {
        fill: #d1e2fa;
      }

      .cls-18 {
        fill: #fcecc5;
      }

      .cls-19 {
        fill: #4285f4;
      }

      .cls-20 {
        clip-path: url(#clip-path-2);
      }

      .cls-21 {
        fill: #9ec5ff;
      }

      .cls-22 {
        fill: #1d62d2;
      }

      .cls-23 {
        fill: #9fc6ff;
      }

      .cls-24 {
        fill: #1d63d4;
      }

      .cls-25 {
        fill: #334156;
      }

      .cls-26 {
        fill: #425066;
      }

      .cls-27 {
        clip-path: url(#clip-path-3);
      }

      .cls-28 {
        clip-path: url(#clip-path-4);
      }

      .cls-29 {
        clip-path: url(#clip-path-5);
      }

      .cls-30 {
        fill: #3a455e;
      }

      .cls-31 {
        clip-path: url(#clip-path-6);
      }

      .cls-32 {
        fill: #5d6780;
      }

      .cls-33 {
        fill: #edbc64;
      }

      .cls-34 {
        clip-path: url(#clip-path-7);
      }

      .cls-35 {
        clip-path: url(#clip-path-8);
      }

      .cls-36 {
        fill: #ffaa02;
      }

      .cls-37 {
        fill: #e19602;
      }

      .cls-38 {
        clip-path: url(#clip-path-9);
      }

      .cls-39 {
        clip-path: url(#clip-path-10);
      }

      .cls-40 {
        fill: #ffde92;
      }

      .cls-41 {
        fill: #181e24;
      }

      .cls-42 {
        clip-path: url(#clip-path-12);
      }

      .cls-43 {
        fill: #4f5f83;
      }

      .cls-44, .cls-46 {
        stroke-linejoin: round;
      }

      .cls-46 {
        stroke-linecap: round;
      }

      .cls-48 {
        fill: #f4f5f9;
      }
    </style>
    <clipPath id="clip-path">
      <path id="路径_3968" data-name="路径 3968" class="cls-1" d="M-799.971,3539.8l-8.644,18.618-1.074,2.353s-.716,1.279,1.125,3.734a20.306,20.306,0,0,0,16.879,7.007,56.144,56.144,0,0,0,10.079-1.306,33.078,33.078,0,0,0,4.115-1.347,6.677,6.677,0,0,0,1.25-.571c1.175-.747,1.864-2.6,2.354-3.834l9.705-20.638s-14.04,4.872-20.293,4.335a18.661,18.661,0,0,1-14.193-9.245S-799.239,3538.222-799.971,3539.8Z" transform="translate(809.826 -3538.757)"/>
    </clipPath>
    <clipPath id="clip-path-2">
      <path id="路径_3983" data-name="路径 3983" class="cls-1" d="M-776.027,3658.559l-8.058,13.731,70.2,41.969s-1.841,21.636-.46,28.541c0,0-47.669-25.778-52.478-27.62l-14.833,12.787s30.637,41.225,76.977,47.516l5.37,7.979h75.494l-25.011-95.749-33.758-10.281-.051-1.279-4.143-3.043-14.756,19.743-1.844-14.8s-11.352-2.158-18.564.757Z" transform="translate(784.085 -3658.559)"/>
    </clipPath>
    <clipPath id="clip-path-3">
      <path id="路径_3996" data-name="路径 3996" class="cls-1" d="M-810.912,3747.239s-7.819-3.276-11.042-4.913c0,0-4.4-1.33-4.756-9.615a98.073,98.073,0,0,1,.358-12.122s.665-3.376-3.273-.767a7.033,7.033,0,0,0-3.478,5.882,30.068,30.068,0,0,0,.358,4.6s0,.717-1-.307c0,0-3.069-3.9-5.025-.908l-6.637,12.851s-1.8,2.57,1.88,4.3c0,0,5.908,3.913,12.467,3.031l4.834-.921,4.25,8.972Z" transform="translate(845.846 -3718.833)"/>
    </clipPath>
    <clipPath id="clip-path-4">
      <path id="路径_4001" data-name="路径 4001" class="cls-1" d="M-635.29,3620.971s-2.659,2.916-2.864,5.218a22.315,22.315,0,0,0,.256,2.659s.2,1.688-3.069,5.319l-1.688,2.762h3.887l-1.483,7.468-1.176,6.189,20.25-1.726.413-.051,2.736,21.955,14.756-19.743-17.288-11.406a18.857,18.857,0,0,0,4.22-6.943s.844-3.414-1.266-4.488c0,0-1.419-.691-3.031,2.186,0,0-1.88,4.872-8.746,4.028,0,0,1.113-5.562,1.88-7.864,0,0,1.611-1.8-2.532-3.069C-630.034,3623.465-633.372,3621.853-635.29,3620.971Z" transform="translate(642.655 -3620.971)"/>
    </clipPath>
    <clipPath id="clip-path-5">
      <path id="路径_4009" data-name="路径 4009" class="cls-1" d="M-841.319,3631.9s-11.623,1.611-15.881-2.685c0,0-2.839-2.11,1.611-9.322a23.3,23.3,0,0,1,4.872-4.373s-.767-2.609.345-3.836c0,0,1.995-1.266,4.219,2.187,0,0,1.01,2.123,4.233,1.662,0,0,1.483-.23,1.023,1.893a3.827,3.827,0,0,0,.921,3.529s2.992,4.628,3.887,6.112c0,0,6.074,2.316,9.073,2.6l-5.461,8.465Z" transform="translate(858.092 -3611.458)"/>
    </clipPath>
    <clipPath id="clip-path-6">
      <path id="路径_4017" data-name="路径 4017" class="cls-1" d="M-633.388,3583.525s2.34,7,7.519,7.348a9.113,9.113,0,0,0,5.025-1.573,22.417,22.417,0,0,1,10.357-1.8s10.549-.154,11.981,13.3c0,0-.358,19.436-5.626,25.114l-12.992-7.877,3.606-6.752s1.266-3.337-.154-4.527c0,0-.946-1.266-2.276.192,0,0-3.325,7.25-9.424,5.677,0,0-.69-.039.154-4.066,0,0,.652-2.455,1.534-4.8,0,0,1.42-1.419-3.452-1.994,0,0-7.838-1.023-8.81-11C-635.946,3590.771-636.867,3582.749-633.388,3583.525Z" transform="translate(636.056 -3583.472)"/>
    </clipPath>
    <clipPath id="clip-path-7">
      <path id="路径_4026" data-name="路径 4026" class="cls-1" d="M-1151.6,3768.054l5.469,1.974s7.067-21.933,43.749-31.576a47.021,47.021,0,0,1,8.13-1.232s.733-3.069,7.115-9.592l8.863-7.942s2.931-2.221,4.491-1.04c0,0,1.465,1.324-.615,3.64l-5.011,6.618s-.9,2.606,2.18.939c0,0,7.321-6.115,13.915-6.044,0,0,6.63-4.041,8.793-1.24,0,0,1.24,1.1-1.738,2.411,0,0-8.083,4.573-9.962,5.5a15.037,15.037,0,0,0-3.971,3.368s-3.226,4.432-6.169,5.07c0,0-12.515,2.056-15.6,4.219l-11.416,11.522-43.394,43.607s-1.465,1.56-3.12.709l-6.714-2.5Z" transform="translate(1156.602 -3718.3)"/>
    </clipPath>
    <clipPath id="clip-path-8">
      <path id="路径_4030" data-name="路径 4030" class="cls-1" d="M-1519.119,3772.911l-45.758-.756s-24.911,52.517-26.471,55.495l25.9,15.977s17.4-7.469,20.327-33.562c0,0,4.538,29.119,4.822,32.9h75.443s2.647-8.414,5.862-32.711a62.379,62.379,0,0,0,45.568,14.275l5.294-30.063-38-15.741s-4.066-1.087-39.9-4.963c0,0-.661-4.254-2.553-6.051,0,0-4.538-3.876-15.221-3.12,0,0-6.712.449-10.222.8a3.64,3.64,0,0,0-1.95,1.1Z" transform="translate(1591.347 -3764.493)"/>
    </clipPath>
    <clipPath id="clip-path-9">
      <path id="路径_4032" data-name="路径 4032" class="cls-1" d="M-1598.39,3920.4l-6.806,15.279h31.576Z" transform="translate(1605.196 -3920.396)"/>
    </clipPath>
    <clipPath id="clip-path-10">
      <path id="路径_4036" data-name="路径 4036" class="cls-1" d="M-1378.076,3694.811l4.444-.307s1.252-.118,1.016-1.725l-1.146-3.167s-.106.142-.142-4.29l3.013-1.1s.461-.106,0-1.17l-1.808-3.262s-.177-2.872-.035-7.551c0,0-.142-6.783-3.5-8.721l-17.821,5.625-4.633,26.849-4.695,9.878,24.539,1.425S-1380.251,3704.124-1378.076,3694.811Z" transform="translate(1403.381 -3663.518)"/>
    </clipPath>
    <clipPath id="clip-path-12">
      <path id="路径_4044" data-name="路径 4044" class="cls-1" d="M-1405.036,3646.847s-8.58.071-13.472,5.885c0,0-8.225,14.465-18.01,16.1,0,0-.969.237.449,1.962,0,0,3.663,5.164,3.982,9.418,0,0-2.375,6.453-4.573,8.686,0,0-2.387,2.34.638,2.245,0,0,10.848,1.583,17.159-5.011,0,0,6.381-5.436,17.4-4.112,0,0,2.695.851,1.276-1.418,0,0-5.909-6.688-6.523-11.285,0,0-.615-2.659,1.8-2.99,0,0,.9-.331,2.553,3.64,0,0,.636.662,2.587-2.836a27.9,27.9,0,0,0,3.889-13.425S-1397.449,3646.232-1405.036,3646.847Z" transform="translate(1437.554 -3646.811)"/>
    </clipPath>
  </defs>
  <g id="组_9981" data-name="组 9981" transform="translate(-122 -266)">
    <g id="组_9979" data-name="组 9979" class="cls-2" transform="translate(133.823 313.396)">
      <circle id="椭圆形" class="cls-3" cx="27.391" cy="27.391" r="27.391" transform="translate(117.565 32.623)"/>
      <path id="路径_17" data-name="路径 17" class="cls-4" d="M0,26.226s1.6-7.238,11.027,5.2S72.39-1.565,49.723.042,36.417,59.373,21.83,64.63" transform="translate(0 22.774)"/>
      <path id="路径" class="cls-4" d="M73.669,64.825a42.467,42.467,0,0,0,7.58-24.289C81.249,17.031,62.261,0,38.839,0S0,16.954,0,40.459,15.416,83.1,38.839,83.1a42.128,42.128,0,0,0,25.684-8.69" transform="translate(54.166 0)"/>
      <path id="路径-2" data-name="路径" class="cls-4" d="M40.247,36.481c2.187-3.409,3.455-8.806,3.455-13.159C43.7,11.232,33.919,0,21.851,0S0,12.573,0,24.662,9.783,45.549,21.851,45.549c4.959,0,9.532-.65,13.2-3.439" transform="translate(73.863 15.388)"/>
      <path id="路径-3" data-name="路径" class="cls-4" d="M18.735,14.334a10.22,10.22,0,0,0,1.577-5.473C20.312,3.216,14.882,0,9.273,0S0,3.216,0,8.861A10.189,10.189,0,0,0,10.156,19.081a10.07,10.07,0,0,0,6.122-2.065" transform="translate(85.558 30.776)"/>
      <path id="路径_22" data-name="路径 22" class="cls-5" d="M.5.5" transform="translate(98.292 41.663)"/>
      <path id="路径_23" data-name="路径 23" class="cls-4" d="M0,0,31.2,41.855s1.748-11.938,4.887-14.55S0,0,0,0Z" transform="translate(96.021 40.624)"/>
      <circle id="椭圆形-2" data-name="椭圆形" cx="1.231" cy="1.231" r="1.231" transform="translate(94.79 38.778)"/>
    </g>
    <g id="编组_2" data-name="编组 2" class="cls-2" transform="translate(200.299 282.004)">
      <path id="路径-4" data-name="路径" class="cls-4" d="M9.971,19.7c2.549,0,3.98-1.44,5.781-3.268a9.1,9.1,0,0,0,2.714-6.622,8.8,8.8,0,0,0-2.392-6.622A9.969,9.969,0,0,0,9.227,0,9.284,9.284,0,0,0,2.7,3.185,9.09,9.09,0,0,0,0,9.807c0,2.579.408,4.786,2.209,6.622A12.379,12.379,0,0,0,9.971,19.7Z" transform="translate(0.615 0)"/>
      <path id="路径-5" data-name="路径" class="cls-4" d="M5.5,10.464A5.879,5.879,0,0,1,1.45,8.9,5.288,5.288,0,0,1,0,5.157,5.288,5.288,0,0,1,1.45,1.415,4.465,4.465,0,0,1,4.949,0a4.476,4.476,0,0,1,3.5,1.415,5.245,5.245,0,0,1,1.4,3.742A5.245,5.245,0,0,1,8.449,8.9C7.475,9.934,6.863,10.464,5.5,10.464Z" transform="translate(4.924 4.924)"/>
      <path id="路径-6" data-name="路径" class="cls-4" d="M13.419,18.56c.4,0,1.141.344,1.473.129.449-.306.35-1.175.458-1.7a1.9,1.9,0,0,0-.3-1.463s-1.328-2.33-2.019-3.361l-.915-1.22a3.078,3.078,0,0,1-.178-3.428l1.094-1.826c.594-.889,2.019-2.648,2.019-2.648a1.9,1.9,0,0,0,.3-1.463,1.885,1.885,0,0,0-.835-1.24,1.964,1.964,0,0,0-1.483-.3,1.884,1.884,0,0,0-1.246.843S10.223,2.833,9.48,3.941c-.7,1.04-2.016,3.387-2.016,3.387H6.147A1.847,1.847,0,0,1,4.3,5.482V1.961A2.363,2.363,0,0,0,3.91.337C3.528-.051,2.884,0,2.344,0a1.884,1.884,0,0,0-1.4.583A1.87,1.87,0,0,0,.375,1.961S0,7.3,0,9.281c0,2.894.375,7.32.375,7.32A1.885,1.885,0,0,0,.949,17.99c.382.38.847,1.092,1.4,1.092a2.208,2.208,0,0,0,1.566-.392c.382-.38.39-2.82.312-3.861l.035-1.607a1.847,1.847,0,0,1,2.023-1.8l1.415.136A20.775,20.775,0,0,1,9.48,13.731a17.043,17.043,0,0,1,1.4,2.7C11.268,17.006,12.722,18.56,13.419,18.56Z" transform="translate(22.159 0.616)"/>
      <path id="V" class="cls-4" d="M15.2,19.081a1.959,1.959,0,0,0,1.417-.579,1.934,1.934,0,0,0,.616-1.41,2.212,2.212,0,0,0-.849-1.4l-.962-.949a2.462,2.462,0,0,1-.045-3.459l.688-.715A9.275,9.275,0,0,0,17.235,6.6c0-1.913-.951-2.963-2.328-4.323A7.228,7.228,0,0,0,9.858,0S7.861.236,6.8.236h-4.4A1.936,1.936,0,0,0,.977.828a1.892,1.892,0,0,0-.587,1.4S0,6.944,0,9.179c0,2.721.39,7.913.39,7.913A1.906,1.906,0,0,0,.977,18.5a1.958,1.958,0,0,0,1.429.579A1.942,1.942,0,0,0,3.821,18.5a1.906,1.906,0,0,0,.587-1.41l.085-.757A2.462,2.462,0,0,1,6.94,14.146H7.3l.147-.054a2.307,2.307,0,0,1,3.039,1.6h0c1.079,1.065,3.058,2.807,3.058,2.807A2.545,2.545,0,0,0,15.2,19.081Z" transform="translate(38.778 0)"/>
      <path id="路径-7" data-name="路径" class="cls-4" d="M6.175,6.559l-2.638.094A2.887,2.887,0,0,1,.564,3.459h0l0-.019A3.078,3.078,0,0,1,3.34.03L3.666,0a21.532,21.532,0,0,1,2.51.316,3.238,3.238,0,0,1,2.3.894,2.784,2.784,0,0,1,.965,2.133,2.81,2.81,0,0,1-.965,2.133A3.465,3.465,0,0,1,6.175,6.559Z" transform="translate(42.878 4.309)"/>
      <g id="O" transform="translate(0 0.033)">
        <g id="路径_24备份_13" data-name="路径 24备份 13" transform="translate(22.332 8.018)">
          <path id="路径_24备份_12" data-name="路径 24备份 12" class="cls-6" d="M5.5.171.256,7.346" transform="translate(-0.256 -0.171)"/>
        </g>
        <g id="路径_24备份_14" data-name="路径 24备份 14" transform="translate(21.769 0.422)">
          <path id="路径_24备份_12-2" data-name="路径 24备份 12" class="cls-6" d="M13.149,0,0,17.12" transform="translate(0 0.103)"/>
          <path id="路径-8" data-name="路径" class="cls-6" d="M8.218,0,0,10.935" transform="translate(7.242 0.228)"/>
          <path id="路径-9" data-name="路径" class="cls-6" d="M2.793,0,0,3.744" transform="translate(1.822 14.631)"/>
          <path id="路径_24备份_16" data-name="路径 24备份 16" class="cls-6" d="M3.151.054.213,3.852" transform="translate(7.918 8.809)"/>
          <path id="路径-10" data-name="路径" class="cls-6" d="M2.413,0,0,3.219" transform="translate(17.658 0.056)"/>
          <path id="路径-11" data-name="路径" class="cls-6" d="M2.439,0,0,3.248" transform="translate(9.36 11.077)"/>
          <path id="路径-12" data-name="路径" class="cls-6" d="M4.746,0,0,6.584" transform="translate(17.401 0.056)"/>
          <path id="路径-13" data-name="路径" class="cls-6" d="M2.529,0,0,3.512" transform="translate(10.424 12.6)"/>
          <path id="路径-14" data-name="路径" class="cls-6" d="M7.366.174,0,10.042" transform="translate(17.34 -0.174)"/>
          <path id="路径-15" data-name="路径" class="cls-6" d="M2.584,0,0,3.442" transform="translate(11.374 14.372)"/>
          <path id="路径-16" data-name="路径" class="cls-6" d="M3.057,0,.067,3.8" transform="translate(24.01 0)"/>
          <path id="路径-17" data-name="路径" class="cls-6" d="M4.545.286,0,6.15" transform="translate(17.434 6.678)"/>
          <path id="路径-18" data-name="路径" class="cls-6" d="M2.177,0,0,2.9" transform="translate(12.791 16.112)"/>
          <path id="路径-19" data-name="路径" class="cls-6" d="M2.8,0,0,3.724" transform="translate(26.54 0.277)"/>
          <path id="路径-20" data-name="路径" class="cls-6" d="M4.354,0,0,5.784" transform="translate(17.643 10.035)"/>
          <path id="路径-21" data-name="路径" class="cls-6" d="M2.427,0,0,3.188" transform="translate(28.825 1.447)"/>
          <path id="路径-22" data-name="路径" class="cls-6" d="M6.238,0,0,8.193" transform="translate(18.286 10.283)"/>
          <path id="路径-23" data-name="路径" class="cls-6" d="M2.725,0,0,3.62" transform="translate(30.032 2.837)"/>
          <path id="路径-24" data-name="路径" class="cls-6" d="M2.731.084,0,3.839" transform="translate(24.284 10.256)"/>
          <path id="路径_24备份_24" data-name="路径 24备份 24" class="cls-6" d="M7.009,0,.029,9.016" transform="translate(26.986 4.699)"/>
          <path id="路径_24备份_25" data-name="路径 24备份 25" class="cls-6" d="M5.922,0,0,7.71" transform="translate(28.073 8.402)"/>
          <path id="路径_24备份_26" data-name="路径 24备份 26" class="cls-6" d="M2.731.054.213,3.219" transform="translate(29.319 14.295)"/>
          <path id="路径_24备份_27" data-name="路径 24备份 27" class="cls-6" d="M2.521.054.213,3.008" transform="translate(31.208 15.772)"/>
        </g>
        <path id="路径_24" data-name="路径 24" class="cls-6" d="M3.947.214.17,5.489" transform="translate(0.144 1.896)"/>
        <path id="路径_24备份" data-name="路径 24备份" class="cls-6" d="M7.659.171,0,10.234" transform="translate(0 0.04)"/>
        <path id="路径_24备份-2" data-name="路径 24备份" class="cls-6" d="M2.688.171.17,2.914" transform="translate(22.162 0.251)"/>
        <path id="路径_24备份_9" data-name="路径 24备份 9" class="cls-6" d="M4.242.171.256,5.236" transform="translate(21.867 0.884)"/>
        <path id="路径_24备份_10" data-name="路径 24备份 10" class="cls-6" d="M4.662.171.256,5.869" transform="translate(21.657 3.838)"/>
        <path id="路径_24备份_11" data-name="路径 24备份 11" class="cls-6" d="M4.262,0,0,5.562" transform="translate(22.122 6.694)"/>
        <path id="路径_24备份_2" data-name="路径 24备份 2" class="cls-6" d="M10.242.054.17,12.714" transform="translate(-0.066 -0.054)"/>
        <path id="路径_24备份_3" data-name="路径 24备份 3" class="cls-6" d="M12.006.335.256,14.684" transform="translate(0.898 0.509)"/>
        <path id="路径_24备份_4" data-name="路径 24备份 4" class="cls-6" d="M12.76.171.17,15.153" transform="translate(2.662 2.15)"/>
        <path id="路径_24备份_5" data-name="路径 24备份 5" class="cls-6" d="M12.425.055.256,14.4" transform="translate(4.675 4.165)"/>
        <path id="路径_24备份_6" data-name="路径 24备份 6" class="cls-6" d="M11.166.055.256,13.137" transform="translate(7.193 6.275)"/>
        <path id="路径_24备份_7" data-name="路径 24备份 7" class="cls-6" d="M8.858.055.256,10.183" transform="translate(9.921 9.862)"/>
        <path id="路径_24备份_8" data-name="路径 24备份 8" class="cls-6" d="M4.872.055.256,5.541" transform="translate(13.488 13.027)"/>
        <path id="路径-25" data-name="路径" class="cls-7" d="M6.065,10.833A6.724,6.724,0,0,1,1.6,9.213,5.3,5.3,0,0,1,0,5.339,5.3,5.3,0,0,1,1.6,1.464,5.092,5.092,0,0,1,5.457,0,5.1,5.1,0,0,1,9.316,1.464a5.245,5.245,0,0,1,1.543,3.874A5.245,5.245,0,0,1,9.316,9.213C8.242,10.284,7.568,10.833,6.065,10.833Z" transform="translate(3.966 4.672)"/>
      </g>
    </g>
    <path id="形状" class="cls-8" d="M9.1,7.7,9.091,7.69c-.187-.121-.386-.266-.584-.42a6.056,6.056,0,0,1-1.343.679,5.084,5.084,0,0,1-1.38.307H5.645a.582.582,0,0,1-.174.024,4.306,4.306,0,0,1-.945-.1A.439.439,0,0,1,4.34,8.1a.711.711,0,0,1-.224-.032,4.005,4.005,0,0,1-.671-.283.376.376,0,0,1-.187-.21.6.6,0,0,1-.324-.1A8.124,8.124,0,0,1,.024,3.039.255.255,0,0,1,.159,2.7a.71.71,0,0,1,.528-.061c.179.048.3.16.307.285a7.869,7.869,0,0,0,2.661,4.11.292.292,0,0,1,.137.177.6.6,0,0,1,.274.073,3.05,3.05,0,0,0,.5.2.589.589,0,0,1,.137.065,1.2,1.2,0,0,1,.174.016,2.857,2.857,0,0,0,.622.064.324.324,0,0,1,.087.008.656.656,0,0,1,.125-.016A3.52,3.52,0,0,0,6.69,7.4a4.968,4.968,0,0,0,1.194-.622C6.143,5.333,4.216,3.128,4.9,1.384A1.912,1.912,0,0,1,6.628,0a3.305,3.305,0,0,1,2.661,1.51l.012.008c.771,1.244,1.455,3.585-.137,5.233.237.177.46.339.684.484A10,10,0,0,0,16.5,8.45a.806.806,0,0,1,.311.008.507.507,0,0,1,.249-.121c.124-.033.249-.057.373-.1a.5.5,0,0,1,.162-.024.49.49,0,0,1,.124-.057q.334-.106.647-.234a.615.615,0,0,1,.137-.04l.112-.073a5.981,5.981,0,0,0,.609-.3.621.621,0,0,1,.112-.04.683.683,0,0,1,.1-.073,9.2,9.2,0,0,0,1.194-.783.628.628,0,0,1,.482-.142.494.494,0,0,1,.406.22.253.253,0,0,1-.129.333,11.1,11.1,0,0,1-1.318.864l-.112.048a.383.383,0,0,1-.1.081c-.249.129-.473.242-.684.331a1.071,1.071,0,0,1-.149.04.359.359,0,0,1-.125.073c-.233.1-.474.186-.721.266a.662.662,0,0,1-.174.032.624.624,0,0,1-.137.065c-.162.048-.311.081-.448.113a.839.839,0,0,1-.348,0,.483.483,0,0,1-.286.129,12.28,12.28,0,0,1-1.953.162A11.332,11.332,0,0,1,9.1,7.7Z" transform="translate(266.16 266)"/>
    <g id="组_9978" data-name="组 9978">
      <line id="直线_331" data-name="直线 331" class="cls-9" x2="14.217" y2="54.424" transform="translate(603.783 491.576)"/>
      <g id="组_9637" data-name="组 9637" transform="translate(274.266 381.78)">
        <rect id="矩形_4312" data-name="矩形 4312" class="cls-7" width="220.334" height="128.008" transform="translate(0)"/>
        <circle id="椭圆_852" data-name="椭圆 852" cx="2.5" cy="2.5" r="2.5" transform="translate(8.292 7.654)"/>
        <circle id="椭圆_853" data-name="椭圆 853" cx="2.5" cy="2.5" r="2.5" transform="translate(18.651 7.654)"/>
        <circle id="椭圆_854" data-name="椭圆 854" cx="2.5" cy="2.5" r="2.5" transform="translate(29.009 7.654)"/>
        <rect id="矩形_4316" data-name="矩形 4316" class="cls-10" width="120.695" height="27.882" transform="translate(16.611 39.762)"/>
        <rect id="矩形_4317" data-name="矩形 4317" class="cls-11" width="78.07" height="4.357" transform="translate(25.694 47.168)"/>
        <rect id="矩形_4318" data-name="矩形 4318" class="cls-11" width="49.665" height="4.357" transform="translate(25.694 55.881)"/>
        <rect id="矩形_4319" data-name="矩形 4319" class="cls-10" width="103.235" height="20.951" transform="translate(101.24 90.38)"/>
        <rect id="矩形_4320" data-name="矩形 4320" class="cls-11" width="66.776" height="3.274" transform="translate(109.009 95.945)"/>
        <rect id="矩形_4321" data-name="矩形 4321" class="cls-11" width="42.48" height="3.274" transform="translate(109.009 102.493)"/>
        <g id="组_9636" data-name="组 9636" transform="translate(141.099 36.611)">
          <path id="路径_3960" data-name="路径 3960" class="cls-12" d="M-878.153,3665.719" transform="translate(882.249 -3660.08)"/>
        </g>
        <rect id="矩形_4488" data-name="矩形 4488" width="221" height="1" transform="translate(-0.266 20.22)"/>
      </g>
      <path id="路径_3962" data-name="路径 3962" class="cls-13" d="M-779.437,3680.5h-4.64v-4.357" transform="translate(1241.992 -3247.127)"/>
      <path id="路径_3963" data-name="路径 3963" class="cls-13" d="M-766.26,3698.475h4.64v4.357" transform="translate(1231.464 -3260.373)"/>
      <path id="路径_3964" data-name="路径 3964" class="cls-14" d="M-859.192,3592.081l2.455,1.074,16.623-34.832s2.48,8.056,13.759,9.514c0,0,15.274.844,22.176-3.222l13.321-26.648s.2-1.535-2.148-.717c0,0-13.094,5.32-19.743,5.013,0,0-8.542.1-14.449-9.718,0,0-1.534-3.53-3.3,0Z" transform="translate(1286.324 -3161.25)"/>
      <path id="路径_3965" data-name="路径 3965" class="cls-15" d="M-799.971,3539.8l-8.644,18.618-1.074,2.353s-.716,1.279,1.125,3.734a20.306,20.306,0,0,0,16.879,7.007,56.144,56.144,0,0,0,10.079-1.306,33.078,33.078,0,0,0,4.115-1.347,6.677,6.677,0,0,0,1.25-.571c1.175-.747,1.864-2.6,2.354-3.834l9.705-20.638s-14.04,4.872-20.293,4.335a18.661,18.661,0,0,1-14.193-9.245S-799.239,3538.222-799.971,3539.8Z" transform="translate(1257.172 -3165.753)"/>
      <path id="路径_3966" data-name="路径 3966" class="cls-1" d="M-799.971,3539.8l-8.644,18.618-1.074,2.353s-.716,1.279,1.125,3.734a20.306,20.306,0,0,0,16.879,7.007,56.144,56.144,0,0,0,10.079-1.306,33.078,33.078,0,0,0,4.115-1.347,6.677,6.677,0,0,0,1.25-.571c1.175-.747,1.864-2.6,2.354-3.834l9.705-20.638s-14.04,4.872-20.293,4.335a18.661,18.661,0,0,1-14.193-9.245S-799.239,3538.222-799.971,3539.8Z" transform="translate(1257.172 -3165.753)"/>
      <g id="组_9639" data-name="组 9639" transform="translate(447.346 373.004)">
        <g id="组_9638" data-name="组 9638" class="cls-16" transform="translate(0 0)">
          <path id="路径_3967" data-name="路径 3967" class="cls-17" d="M-779.683,3544.645a87.659,87.659,0,0,0-10.878,7.133s-3.938,2.864-6.24,4.705c0,0-3.018,3.018-11.3,2.916l-5.763-.348-2.8,5.949s11.892,11.509,12.122,11.509h26.392s15.958-12.812,16.111-13.426,4.143-20.562,4.143-20.562l-6.521-7.9-8.823,2.532Z" transform="translate(813.868 -3536.313)"/>
        </g>
      </g>
      <path id="路径_3969" data-name="路径 3969" class="cls-18" d="M-635.29,3620.971s-2.659,2.916-2.864,5.218a22.315,22.315,0,0,0,.256,2.659s.2,1.688-3.069,5.319l-1.688,2.762h3.887l-1.483,7.468-1.176,6.189,20.25-1.726.413-.051,2.736,21.955,14.756-19.743-17.288-11.406a18.857,18.857,0,0,0,4.22-6.943s.844-3.414-1.266-4.488c0,0-1.419-.691-3.031,2.186,0,0-1.88,4.872-8.746,4.028,0,0,1.113-5.562,1.88-7.864,0,0,1.611-1.8-2.532-3.069C-630.034,3623.465-633.372,3621.853-635.29,3620.971Z" transform="translate(1158.308 -3214.604)"/>
      <path id="路径_3970" data-name="路径 3970" class="cls-1" d="M-635.29,3620.971s-2.659,2.916-2.864,5.218a22.315,22.315,0,0,0,.256,2.659s.2,1.688-3.069,5.319l-1.688,2.762h3.887l-1.483,7.468-1.176,6.189,20.25-1.726.413-.051,2.736,21.955,14.756-19.743-17.288-11.406a18.857,18.857,0,0,0,4.22-6.943s.844-3.414-1.266-4.488c0,0-1.419-.691-3.031,2.186,0,0-1.88,4.872-8.746,4.028,0,0,1.113-5.562,1.88-7.864,0,0,1.611-1.8-2.532-3.069C-630.034,3623.465-633.372,3621.853-635.29,3620.971Z" transform="translate(1158.308 -3214.604)"/>
      <path id="路径_3971" data-name="路径 3971" class="cls-19" d="M-776.027,3658.559l-8.058,13.731,70.2,41.969s-1.841,21.636-.46,28.541c0,0-47.669-25.778-52.478-27.62l-14.833,12.787s30.637,41.225,76.977,47.516l5.37,7.979h75.494l-25.011-95.749-33.758-10.281-.051-1.279-4.143-3.043-14.756,19.743-1.844-14.8s-11.352-2.158-18.564.757Z" transform="translate(1241.811 -3237.462)"/>
      <path id="路径_3972" data-name="路径 3972" class="cls-11" d="M-789.66,3651.254l-7.25,11.24,6.15,4.181,7.161-12.429Z" transform="translate(1249.568 -3232.415)"/>
      <path id="路径_3973" data-name="路径 3973" class="cls-11" d="M-770.292,3791.15l-7.007-4.092-12.666,11.544,5.193,5.8Z" transform="translate(1245.459 -3312.969)"/>
      <path id="路径_3974" data-name="路径 3974" class="cls-18" d="M-810.912,3747.239s-7.819-3.276-11.042-4.913c0,0-4.4-1.33-4.756-9.615a98.073,98.073,0,0,1,.358-12.122s.665-3.376-3.273-.767a7.033,7.033,0,0,0-3.478,5.882,30.068,30.068,0,0,0,.358,4.6s0,.717-1-.307c0,0-3.069-3.9-5.025-.908l-6.637,12.851s-1.8,2.57,1.88,4.3c0,0,5.908,3.913,12.467,3.031l4.834-.921,4.25,8.972Z" transform="translate(1278.468 -3272.613)"/>
      <path id="路径_3975" data-name="路径 3975" class="cls-18" d="M-841.319,3631.9s-11.623,1.611-15.881-2.685c0,0-2.839-2.11,1.611-9.322a23.3,23.3,0,0,1,4.872-4.373s-.767-2.609.345-3.836c0,0,1.995-1.266,4.219,2.187,0,0,1.01,2.123,4.233,1.662,0,0,1.483-.23,1.023,1.893a3.827,3.827,0,0,0,.921,3.529s2.992,4.628,3.887,6.112c0,0,6.074,2.316,9.073,2.6l-5.461,8.465Z" transform="translate(1285.708 -3208.857)"/>
      <ellipse id="椭圆_855" data-name="椭圆 855" class="cls-9" cx="1.666" cy="1.956" rx="1.666" ry="1.956" transform="translate(459.314 422.112)"/>
      <g id="组_9642" data-name="组 9642" transform="translate(457.726 421.097)">
        <g id="组_9641" data-name="组 9641" class="cls-20" transform="translate(0 0)">
          <g id="组_9640" data-name="组 9640" transform="translate(3.455 -1.125)">
            <path id="路径_3976" data-name="路径 3976" class="cls-21" d="M-775.035,3657.04s4.3,11.892,21.712,19.794c0,0,14.117,5.448,26.853,4.987,0,0,12.451,2.173,27.731-5.345l-35.633-17.441-34.217-3.222-7.058,1.228" transform="translate(775.649 -3655.812)"/>
            <path id="路径_3977" data-name="路径 3977" class="cls-22" d="M-665.488,3763.233s14.032,3.723,23.008,8.863l-1.411,4.435-11.785.476Z" transform="translate(710.608 -3719.235)"/>
            <path id="路径_3978" data-name="路径 3978" class="cls-23" d="M-608.061,3726.867s-.307,43.476-9.514,53.5c0,0-3.462-16.884,1.248-25.308" transform="translate(683.043 -3697.764)"/>
            <path id="路径_3979" data-name="路径 3979" class="cls-21" d="M-582.527,3726.063l8.543-11.43-.41,17.261-6.675,33.3Z" transform="translate(661.627 -3690.541)"/>
            <path id="路径_3980" data-name="路径 3980" class="cls-21" d="M-755.544,3770.61s33.5,49.307,75.137,44.6l45.92-68.659s-29.144,1.707-39.476,20.605c0,0-12.787,24.525-14.833,32.2l-8.7-4.5-52.478-27.62Z" transform="translate(763.779 -3709.386)"/>
            <path id="路径_3981" data-name="路径 3981" class="cls-22" d="M-541.879,3827.858c3.737-1.017,7.449-1.955,11.207-2.9,2.812-.7,5.447-1.864,6.586-4.675,2.451-6.047,5.006-12.024,6.942-18.254a160.273,160.273,0,0,0,5.477-24.535,189.264,189.264,0,0,0,1.923-25.811s-6.882,33.176-16.4,49.339C-526.138,3801.025-540.268,3826.3-541.879,3827.858Z" transform="translate(637.628 -3712.417)"/>
            <path id="路径_3982" data-name="路径 3982" class="cls-24" d="M-556.895,3692.333l4.054,6.34,37.952,2.839,5.294-4.082-33.451-13.667-7.9-2.007-6.291,10.472Z" transform="translate(646.696 -3671.13)"/>
          </g>
        </g>
      </g>
      <path id="路径_3984" data-name="路径 3984" class="cls-1" d="M-633.388,3583.1s2.34,7,7.519,7.349a9.122,9.122,0,0,0,5.025-1.573,22.415,22.415,0,0,1,10.357-1.8s10.549-.154,11.981,13.3c0,0-.358,19.436-5.626,25.113l-12.992-7.877,3.606-6.751s1.266-3.337-.154-4.527c0,0-.946-1.266-2.276.192,0,0-3.325,7.25-9.424,5.677,0,0-.69-.038.154-4.066,0,0,.652-2.455,1.534-4.8,0,0,1.42-1.42-3.452-2,0,0-7.838-1.023-8.81-11C-635.946,3590.345-636.867,3582.323-633.388,3583.1Z" transform="translate(1154.412 -3192.067)"/>
      <path id="路径_3985" data-name="路径 3985" class="cls-25" d="M-741.3,3810.4a1.639,1.639,0,0,0-.281,2.43c1.049,1.56,4.718,3.363,4.718,3.363a3.9,3.9,0,0,0,2.724.537s-.441,1.726,2.052,2.283a2.42,2.42,0,0,0,2.877-1.784c.518-2.244-1.535-2.55-3.875-2.5,0,0,.307-1.583-2.57-2.81C-735.65,3811.918-739.768,3809.079-741.3,3810.4Z" transform="translate(1217.109 -3326.905)"/>
      <path id="路径_3986" data-name="路径 3986" class="cls-26" d="M-761.282,3668.96a1.175,1.175,0,0,0-.2,1.743c.752,1.119,3.384,2.412,3.384,2.412a2.8,2.8,0,0,0,1.954.385s-.317,1.238,1.472,1.637a1.735,1.735,0,0,0,2.064-1.28c.371-1.609-1.1-1.829-2.779-1.8,0,0,.22-1.135-1.844-2.015C-757.233,3670.048-760.186,3668.011-761.282,3668.96Z" transform="translate(1228.809 -3242.73)"/>
      <ellipse id="椭圆_856" data-name="椭圆 856" class="cls-9" cx="1.666" cy="1.956" rx="1.666" ry="1.956" transform="translate(466.864 477.964)"/>
      <path id="路径_3987" data-name="路径 3987" class="cls-9" d="M-770.292,3791.15l-7.007-4.092-12.666,11.544,5.193,5.8Z" transform="translate(1245.459 -3312.969)"/>
      <path id="路径_3988" data-name="路径 3988" class="cls-25" d="M-829.739,3750.048l-2.4-3.888-2.2,3.647Z" transform="translate(1271.694 -3288.647)"/>
      <path id="路径_3989" data-name="路径 3989" class="cls-25" d="M-838,3758l3.85,2.816-5.333.057Z" transform="translate(1274.73 -3295.665)"/>
      <path id="路径_3990" data-name="路径 3990" class="cls-25" d="M-843.829,3769.84l4.546,3.222-6.265-.311Z" transform="translate(1278.315 -3302.687)"/>
      <path id="路径_3991" data-name="路径 3991" class="cls-25" d="M-855.219,3636.331s1.323,4.565,7.154,5.658c0,0,.979,1.285-2.167.94a8.6,8.6,0,0,1-5.9-4.552Z" transform="translate(1284.568 -3223.531)"/>
      <path id="路径_3992" data-name="路径 3992" class="cls-25" d="M-834.645,3625.29l1.5,1.643s1.324,1.4-.5,2.762a2.183,2.183,0,0,1-1.669-.134,1.5,1.5,0,0,1,0-2.282s.23-.269-.287-1.266c0,0-.307-.556,0-.825C-835.6,3625.187-835.282,3624.913-834.645,3625.29Z" transform="translate(1272.596 -3216.858)"/>
      <path id="路径_3993" data-name="路径 3993" class="cls-1" d="M-841.319,3631.9s-11.623,1.611-15.881-2.685c0,0-2.839-2.11,1.611-9.322a23.3,23.3,0,0,1,4.872-4.373s-.767-2.609.345-3.836c0,0,1.995-1.266,4.219,2.187,0,0,1.01,2.123,4.233,1.662,0,0,1.483-.23,1.023,1.893a3.827,3.827,0,0,0,.921,3.529s2.992,4.628,3.887,6.112c0,0,6.074,2.316,9.073,2.6l-5.461,8.465Z" transform="translate(1285.708 -3208.857)"/>
      <g id="组_9645" data-name="组 9645" transform="translate(432.621 446.22)">
        <g id="组_9644" data-name="组 9644" class="cls-27" transform="translate(0)">
          <g id="组_9643" data-name="组 9643" transform="translate(10.003 3.406)">
            <path id="路径_3994" data-name="路径 3994" class="cls-12" d="M-789.816,3795.032l-8.286-5.1-.307,12.007,3.807-1.958Z" transform="translate(807.835 -3764.215)"/>
            <path id="路径_3995" data-name="路径 3995" class="cls-12" d="M-821.243,3727.851l5.217,11.355s.767,1.887-.959.541c0,0-2.071-1.883-3.529-8.4S-821.243,3727.851-821.243,3727.851Z" transform="translate(821.425 -3727.148)"/>
          </g>
        </g>
      </g>
      <path id="路径_3997" data-name="路径 3997" class="cls-9" d="M-818.044,3744.156c-1.5-.669-2.921-1.326-3.91-1.829,0,0-4.4-1.33-4.756-9.615a98.073,98.073,0,0,1,.358-12.122s.665-3.376-3.273-.767a7.033,7.033,0,0,0-3.478,5.882,30.068,30.068,0,0,0,.358,4.6s0,.717-1-.307c0,0-3.069-3.9-5.025-.908l-6.637,12.851s-1.8,2.57,1.88,4.3c0,0,5.908,3.913,12.467,3.031l4.834-.921,4.25,8.972" transform="translate(1278.474 -3272.613)"/>
      <g id="组_9648" data-name="组 9648" transform="translate(515.653 406.367)">
        <g id="组_9647" data-name="组 9647" class="cls-28" transform="translate(0)">
          <g id="组_9646" data-name="组 9646" transform="translate(1.432 -2.66)">
            <path id="路径_3998" data-name="路径 3998" class="cls-25" d="M-638.059,3671.172h6.624l-7.723,5.14Z" transform="translate(639.159 -3647.951)"/>
            <path id="路径_3999" data-name="路径 3999" class="cls-12" d="M-582.246,3669.767l11.316,15.651,6.636-5.37Z" transform="translate(605.556 -3647.121)"/>
            <path id="路径_4000" data-name="路径 4000" class="cls-12" d="M-624.315,3614.477s-.563,13.2,5.984,17.7c0,0,3.478,2.3,2.711,8.951l-.512,5.933,6.189-2.084,1.816-9.615,4.488-8.631-1.765-5.563Z" transform="translate(630.402 -3614.477)"/>
          </g>
        </g>
      </g>
      <path id="路径_4002" data-name="路径 4002" class="cls-25" d="M-848.384,3627.307a14.509,14.509,0,0,0,7.517,6.149c.138.054.354.368.282.512-.092.186-.474.137-.63.125a8.667,8.667,0,0,1-1.793-.356,9.122,9.122,0,0,1-3.3-1.912,10.279,10.279,0,0,1-2.652-3.546S-849.177,3627.384-848.384,3627.307Z" transform="translate(1280.345 -3218.18)"/>
      <path id="路径_4003" data-name="路径 4003" class="cls-9" d="M-776.586,3804.729s32.3,41.455,76.338,46.622h16.265s2.2-.141,5.405-5.3c0,0,20.024-29.329,27.044-59" transform="translate(1237.383 -3313.33)"/>
      <path id="路径_4004" data-name="路径 4004" class="cls-9" d="M-616.993,3793.564l10,5.192s6.182-17.514,13.973-30.533,12.471-17.239,40.014-22.686" transform="translate(1143.157 -3288.814)"/>
      <path id="路径_4005" data-name="路径 4005" class="cls-9" d="M-562.581,3704.639l-10.818,21.354-7.442-3.248.545,30.577" transform="translate(1121.813 -3264.249)"/>
      <path id="路径_4006" data-name="路径 4006" class="cls-9" d="M-606.554,3726.653l-7.158,23.535-.83,4.274s-1.918,25.8-1.074,28.106" transform="translate(1142.471 -3277.666)"/>
      <path id="路径_4007" data-name="路径 4007" class="cls-9" d="M-635.29,3620.971s-2.659,2.916-2.864,5.218a22.315,22.315,0,0,0,.256,2.659s.2,1.688-3.069,5.319l-1.688,2.762h3.887l-1.483,7.468-1.176,6.189,20.25-1.726.413-.051" transform="translate(1158.408 -3214.513)"/>
      <g id="组_9650" data-name="组 9650" transform="translate(427.615 402.601)">
        <g id="组_9649" data-name="组 9649" class="cls-29" transform="translate(0 0)">
          <path id="路径_4008" data-name="路径 4008" class="cls-12" d="M-836.279,3633.375s2.033-.039,1.745,1.534l-.69,3.107s-.422,3.184,1.573,4.872a10.85,10.85,0,0,0,4.162,2.09l7.346,1.707.059.013-2.822,4.375-18.905-5.953-1.458-.46s3.913-2.072,5.7-5.243c0,0,1.381-3.555,1.65-4.667C-837.916,3634.749-837.571,3633.279-836.279,3633.375Z" transform="translate(850.521 -3624.395)"/>
        </g>
      </g>
      <path id="路径_4010" data-name="路径 4010" class="cls-9" d="M-832.478,3638.135l-8.842-6.235s-11.623,1.611-15.881-2.685a3.328,3.328,0,0,1-.886-2.262,8.337,8.337,0,0,1,.531-3.068,16.762,16.762,0,0,1,.909-2.115,12.542,12.542,0,0,1,2.323-3.265,20.535,20.535,0,0,1,3.606-2.984s-.767-2.609.345-3.836c0,0,1.995-1.266,4.219,2.187,0,0,1.01,2.123,4.233,1.662,0,0,1.483-.23,1.023,1.893a3.827,3.827,0,0,0,.921,3.529s2.992,4.628,3.887,6.112c0,0,.778.3,1.914.69" transform="translate(1285.713 -3208.857)"/>
      <path id="路径_4011" data-name="路径 4011" class="cls-9" d="M-789.66,3651.254l-7.25,11.24,6.15,4.181,7.161-12.429Z" transform="translate(1249.568 -3232.415)"/>
      <path id="路径_4012" data-name="路径 4012" class="cls-9" d="M-782.6,3687.083l-1.217,2.114,30.2,18.057" transform="translate(1241.816 -3253.687)"/>
      <path id="路径_4013" data-name="路径 4013" class="cls-30" d="M-633.388,3583.525s2.34,7,7.519,7.348a9.113,9.113,0,0,0,5.025-1.573,22.417,22.417,0,0,1,10.357-1.8s10.549-.154,11.981,13.3c0,0-.358,19.436-5.626,25.114l-12.992-7.877,3.606-6.752s1.266-3.337-.154-4.527c0,0-.946-1.266-2.276.192,0,0-3.325,7.25-9.424,5.677,0,0-.69-.039.154-4.066,0,0,.652-2.455,1.534-4.8,0,0,1.42-1.419-3.452-1.994,0,0-7.838-1.023-8.81-11C-635.946,3590.771-636.867,3582.749-633.388,3583.525Z" transform="translate(1154.412 -3192.319)"/>
      <path id="路径_4014" data-name="路径 4014" class="cls-1" d="M-633.388,3583.525s2.34,7,7.519,7.348a9.113,9.113,0,0,0,5.025-1.573,22.417,22.417,0,0,1,10.357-1.8s10.549-.154,11.981,13.3c0,0-.358,19.436-5.626,25.114l-12.992-7.877,3.606-6.752s1.266-3.337-.154-4.527c0,0-.946-1.266-2.276.192,0,0-3.325,7.25-9.424,5.677,0,0-.69-.039.154-4.066,0,0,.652-2.455,1.534-4.8,0,0,1.42-1.419-3.452-1.994,0,0-7.838-1.023-8.81-11C-635.946,3590.771-636.867,3582.749-633.388,3583.525Z" transform="translate(1154.412 -3192.319)"/>
      <g id="组_9653" data-name="组 9653" transform="translate(518.356 391.153)">
        <g id="组_9652" data-name="组 9652" class="cls-31" transform="translate(0 0)">
          <g id="组_9651" data-name="组 9651" transform="translate(-0.785 -5.948)">
            <path id="路径_4015" data-name="路径 4015" class="cls-32" d="M-637.64,3575.854s4.539,10.243,9.795,10.166c0,0,1,.23,7.4-1.458a46.882,46.882,0,0,1,9.4-.985s6.674-.771,9.782,2.453l10.7,1.178v-14.347l-19.1-3.913-13.963.614-14.347,4.91Z" transform="translate(637.972 -3568.949)"/>
            <path id="路径_4016" data-name="路径 4016" class="cls-32" d="M-591.3,3643.5s4.181.729,4.1,8.286v7.557l-10.32-4.68Z" transform="translate(614.084 -3612.966)"/>
          </g>
        </g>
      </g>
      <g id="组_9672" data-name="组 9672" transform="translate(122 416.285)">
        <path id="路径_4019" data-name="路径 4019" class="cls-33" d="M-1519.119,3772.911l-45.758-.756s-24.911,52.517-26.471,55.495l25.9,15.977s17.4-7.469,20.327-33.562c0,0,4.538,29.119,4.822,32.9h75.443s2.647-8.414,5.862-32.711a62.379,62.379,0,0,0,45.568,14.275l5.294-30.063-38-15.741s-4.066-1.087-39.9-4.963c0,0-.661-4.254-2.553-6.051,0,0-4.538-3.876-15.221-3.12,0,0-6.712.449-10.222.8a3.64,3.64,0,0,0-1.95,1.1Z" transform="translate(1597.02 -3716.292)"/>
        <path id="路径_4020" data-name="路径 4020" class="cls-11" d="M-1378.076,3694.811l4.444-.307s1.252-.118,1.016-1.725l-1.146-3.167s-.106.142-.142-4.29l3.013-1.1s.461-.106,0-1.17l-1.808-3.262s-.177-2.872-.035-7.551c0,0-.142-6.783-3.5-8.721l-17.821,5.625-4.633,26.849-4.695,9.878,24.539,1.425S-1380.251,3704.124-1378.076,3694.811Z" transform="translate(1486.042 -3656.676)"/>
        <path id="路径_4021" data-name="路径 4021" class="cls-18" d="M-1151.6,3768.054l5.469,1.974s7.067-21.933,43.749-31.576a47.021,47.021,0,0,1,8.13-1.232s.733-3.069,7.115-9.592l8.863-7.942s2.931-2.221,4.491-1.04c0,0,1.465,1.324-.615,3.64l-5.011,6.618s-.9,2.606,2.18.939c0,0,7.321-6.115,13.915-6.044,0,0,6.63-4.041,8.793-1.24,0,0,1.24,1.1-1.738,2.411,0,0-8.083,4.573-9.962,5.5a15.037,15.037,0,0,0-3.971,3.368s-3.226,4.432-6.169,5.07c0,0-12.515,2.056-15.6,4.219l-11.416,11.522-43.394,43.607s-1.465,1.56-3.12.709l-6.714-2.5Z" transform="translate(1340.339 -3689.019)"/>
        <path id="路径_4022" data-name="路径 4022" class="cls-18" d="M-1598.39,3920.4l-6.806,15.279h31.576Z" transform="translate(1605.196 -3808.34)"/>
        <g id="组_9656" data-name="组 9656" transform="translate(183.737 29.281)">
          <g id="组_9655" data-name="组 9655" class="cls-34">
            <g id="组_9654" data-name="组 9654" transform="translate(-5.151 3.159)">
              <path id="路径_4023" data-name="路径 4023" class="cls-12" d="M-971.544,3730.254s-9.218,3.687-10.352,11.344c0,0-.107.851,2.2-.106a15.169,15.169,0,0,0,6.275-5.85Z" transform="translate(1058.604 -3728.516)"/>
              <path id="路径_4024" data-name="路径 4024" class="cls-12" d="M-969.94,3726.012s-9.537,10.281-12.444,11.947c0,0-7.977,3.439-10.317,4.4,0,0-6.559,3.25-7.764,3.912l-.992,1.193,1.17,2.2,8.19,1.205s3.581-.886,4.75-1.205,14.667-15.666,14.667-15.666l3.166-7.981Z" transform="translate(1070.152 -3726.012)"/>
              <path id="路径_4025" data-name="路径 4025" class="cls-12" d="M-1162.107,3824.833l57.076-40.019,3.073.768-3.782,17.195-14.749,23.257-20.893,12.45-19.1,5.135s-8.7-3.5-8.7-3.782S-1162.107,3824.833-1162.107,3824.833Z" transform="translate(1169.177 -3760.729)"/>
            </g>
          </g>
        </g>
        <g id="组_9660" data-name="组 9660" transform="translate(5.672 48.201)">
          <g id="组_9659" data-name="组 9659" class="cls-35">
            <g id="组_9658" data-name="组 9658" transform="translate(0 -1.58)">
              <g id="组_9657" data-name="组 9657">
                <path id="路径_4027" data-name="路径 4027" class="cls-36" d="M-1579.85,3836.142s27.642-25.621,34.261-29.592l.473,4.916,4.822,32.9h58.615s-28.091-29.853-20.238-76.756l-14.175-.744-48.783,6.689-26.471,55.495Z" transform="translate(1591.347 -3764.315)"/>
                <path id="路径_4028" data-name="路径 4028" class="cls-37" d="M-1547.812,3782.332l54.526-7.374,2.907-14.323h-54.03l-6.949,9.785Z" transform="translate(1567.737 -3760.635)"/>
              </g>
              <path id="路径_4029" data-name="路径 4029" d="M-1288.646,3855.2s7.88,8.394,8.059,8.556l-1.524,10.686-7-18.427a.7.7,0,0,1,.053-.709C-1288.806,3854.945-1288.646,3855.2-1288.646,3855.2Z" transform="translate(1412.943 -3816.417)"/>
            </g>
          </g>
        </g>
        <g id="组_9662" data-name="组 9662" transform="translate(0 112.056)">
          <g id="组_9661" data-name="组 9661" class="cls-38">
            <path id="路径_4031" data-name="路径 4031" class="cls-12" d="M-1587.612,3926.221l-10.021,10.589-7.563-1.134,6.806-15.279Z" transform="translate(1605.196 -3920.396)"/>
          </g>
        </g>
        <path id="路径_4033" data-name="路径 4033" class="cls-1" d="M-1378.076,3694.811l4.444-.307s1.252-.118,1.016-1.725l-1.146-3.167s-.106.142-.142-4.29l3.013-1.1s.461-.106,0-1.17l-1.808-3.262s-.177-2.872-.035-7.551c0,0-.142-6.783-3.5-8.721l-17.821,5.625-4.633,26.849-4.695,9.878,24.539,1.425S-1380.251,3704.124-1378.076,3694.811Z" transform="translate(1486.042 -3656.676)"/>
        <g id="组_9665" data-name="组 9665" transform="translate(82.66 6.843)">
          <g id="组_9664" data-name="组 9664" class="cls-39">
            <g id="组_9663" data-name="组 9663" transform="translate(-13.997 2.978)">
              <path id="路径_4034" data-name="路径 4034" class="cls-40" d="M-1397.4,3670.789s-1.793,20.956-7.751,25.179c0,0-4.552,8.689-5.964,14.917l-12.107-.814-14.331-3.073s28.618-33.184,28.618-33.373S-1397.4,3670.789-1397.4,3670.789Z" transform="translate(1437.554 -3670.789)"/>
              <path id="路径_4035" data-name="路径 4035" class="cls-41" d="M-1336.905,3723.156h-5.07a4.257,4.257,0,0,0,3.51,2.269s3.707-.036,4.034-.142S-1336.905,3723.156-1336.905,3723.156Z" transform="translate(1381.123 -3701.708)"/>
            </g>
          </g>
        </g>
        <g id="组_9668" data-name="组 9668" transform="translate(82.66 6.843)">
          <g id="组_9667" data-name="组 9667" class="cls-39">
            <g id="组_9666" data-name="组 9666" transform="translate(-13.997 2.978)">
              <path id="路径_4037" data-name="路径 4037" class="cls-40" d="M-1397.4,3670.789s-1.793,20.956-7.751,25.179c0,0-4.552,8.689-5.964,14.917l-12.107-.814-14.331-3.073s28.618-33.184,28.618-33.373S-1397.4,3670.789-1397.4,3670.789Z" transform="translate(1437.554 -3670.789)"/>
              <path id="路径_4038" data-name="路径 4038" class="cls-25" d="M-1336.905,3723.156h-5.07a4.257,4.257,0,0,0,3.51,2.269s3.707-.036,4.034-.142S-1336.905,3723.156-1336.905,3723.156Z" transform="translate(1381.123 -3701.708)"/>
            </g>
          </g>
        </g>
        <path id="路径_4040" data-name="路径 4040" class="cls-41" d="M-1405.036,3646.847s-8.58.071-13.472,5.885c0,0-8.225,14.465-18.01,16.1,0,0-.969.237.449,1.962,0,0,3.663,5.164,3.982,9.418,0,0-2.375,6.453-4.573,8.686,0,0-2.387,2.34.638,2.245,0,0,10.848,1.583,17.159-5.011,0,0,6.381-5.436,17.4-4.112,0,0,2.695.851,1.276-1.418,0,0-5.909-6.688-6.523-11.285,0,0-.615-2.659,1.8-2.99,0,0,.9-.331,2.553,3.64,0,0,.636.662,2.587-2.836a27.9,27.9,0,0,0,3.889-13.425S-1397.449,3646.232-1405.036,3646.847Z" transform="translate(1506.218 -3646.811)"/>
        <path id="路径_4041" data-name="路径 4041" class="cls-1" d="M-1405.036,3646.847s-8.58.071-13.472,5.885c0,0-8.225,14.465-18.01,16.1,0,0-.969.237.449,1.962,0,0,3.663,5.164,3.982,9.418,0,0-2.375,6.453-4.573,8.686,0,0-2.387,2.34.638,2.245,0,0,10.848,1.583,17.159-5.011,0,0,6.381-5.436,17.4-4.112,0,0,2.695.851,1.276-1.418,0,0-5.909-6.688-6.523-11.285,0,0-.615-2.659,1.8-2.99,0,0,.9-.331,2.553,3.64,0,0,.636.662,2.587-2.836a27.9,27.9,0,0,0,3.889-13.425S-1397.449,3646.232-1405.036,3646.847Z" transform="translate(1506.218 -3646.811)"/>
        <g id="组_9671" data-name="组 9671" transform="translate(68.664 0)">
          <g id="组_9670" data-name="组 9670" class="cls-42">
            <g id="组_9669" data-name="组 9669" transform="translate(-2.202 -6.062)">
              <path id="路径_4042" data-name="路径 4042" class="cls-43" d="M-1399.725,3640.047s-1.371,4.963-16.97,5.483a2.786,2.786,0,0,0-2.458,1.466s-6.288,13.109-19.972,12.983l-3.8-3.955s14.465-20.61,14.938-20.8,13.046-3.214,13.046-3.214l12.1,1.229Z" transform="translate(1442.93 -3632.011)"/>
              <path id="路径_4043" data-name="路径 4043" class="cls-30" d="M-1353.269,3658.324s-5.981,10.615-11.286,15.057c0,0-5.86,4.143-1.754,15.353l21.549,8.067,4.349-28.173Z" transform="translate(1398.554 -3647.547)"/>
            </g>
          </g>
        </g>
        <path id="路径_4045" data-name="路径 4045" class="cls-9" d="M-1344.115,3707.295s-1.409-3.171.765-12.484l4.443-.307s1.253-.118,1.016-1.725l-1.146-3.167s-.106.142-.142-4.29l3.013-1.1s.461-.106,0-1.17l-1.808-3.262s-.177-2.872-.035-7.551c0,0-.142-6.783-3.5-8.721" transform="translate(1451.315 -3656.676)"/>
        <path id="路径_4046" data-name="路径 4046" class="cls-9" d="M-1156.6,3796.461l6.714,2.5c1.654.851,3.12-.709,3.12-.709l43.394-43.607,11.416-11.522c3.084-2.163,15.6-4.219,15.6-4.219,2.942-.638,6.169-5.07,6.169-5.07a15.037,15.037,0,0,1,3.971-3.368c1.879-.922,9.962-5.5,9.962-5.5,2.978-1.312,1.738-2.411,1.738-2.411-2.163-2.8-8.793,1.24-8.793,1.24-6.594-.071-13.915,6.044-13.915,6.044-3.084,1.667-2.18-.939-2.18-.939l5.011-6.618c2.08-2.316.615-3.64.615-3.64-1.56-1.182-4.491,1.04-4.491,1.04l-8.863,7.942c-6.382,6.523-7.115,9.592-7.115,9.592a47.021,47.021,0,0,0-8.13,1.232c-36.682,9.643-43.749,31.576-43.749,31.576l-5.469-1.974" transform="translate(1340.339 -3689.019)"/>
        <path id="路径_4047" data-name="路径 4047" class="cls-44" d="M-1528.1,3910.149c18.956-10.187,20.256-32.986,20.256-32.986l4.892,32.324" transform="translate(1559.679 -3782.814)"/>
        <path id="路径_4048" data-name="路径 4048" class="cls-44" d="M-1519.118,3783.955l-45.758-.756-26.471,55.5" transform="translate(1597.02 -3727.336)"/>
        <path id="路径_4049" data-name="路径 4049" class="cls-44" d="M-1402.565,3766.694l23.756,1.517s2.6-.312,4.239,6.85" transform="translate(1485.56 -3717.592)"/>
        <path id="路径_4050" data-name="路径 4050" class="cls-45" d="M-1022.617,3763.392a2.635,2.635,0,0,1,3.408-.246,3.358,3.358,0,0,1,.992,1.544l4.191,8.721s.638,1.418-1.17,2.3c0,0-2.272,1.5-3.439-.142l-1.155-2.807-2.041-4.958c-.185-.45-.354-.908-.555-1.348a3.6,3.6,0,0,1-.491-2.614A1.609,1.609,0,0,1-1022.617,3763.392Z" transform="translate(1261.45 -3715.197)"/>
        <path id="路径_4051" data-name="路径 4051" class="cls-45" d="M-1017.091,3770.369c2.413.462,4.516,3.076,3.537,5.552a4.761,4.761,0,0,1-6.1,2.423,4.2,4.2,0,0,1-2.547-4.18,4.066,4.066,0,0,1,.745-2.128,4.472,4.472,0,0,1,3.992-1.72C-1017.339,3770.327-1017.214,3770.345-1017.091,3770.369Z" transform="translate(1260.993 -3719.718)"/>
        <path id="路径_4052" data-name="路径 4052" class="cls-46" d="M-1012.065,3775.466l-.5,2.316,2.647.638" transform="translate(1255.298 -3722.771)"/>
        <path id="路径_4053" data-name="路径 4053" class="cls-9" d="M-1276.229,3897.363c1.062-5.347,3.289-21.143,3.289-21.143s6.943,6.83,24.376,12.538" transform="translate(1410.969 -3782.257)"/>
      </g>
      <path id="路径_4137" data-name="路径 4137" d="M0,0H484.053V2.142H0Z" transform="translate(131.432 544.049)"/>
    </g>
    <path id="路径_4054" data-name="路径 4054" class="cls-47" d="M-931.913,3407.22h-68.63v-45.029h103.887v45.029h-10.46l-9.928,10.459" transform="translate(1369.829 -3061.05)"/>
    <rect id="矩形_4323" data-name="矩形 4323" class="cls-48" width="72.567" height="4.727" transform="translate(378.165 310.196)"/>
    <rect id="矩形_4324" data-name="矩形 4324" class="cls-48" width="72.567" height="4.727" transform="translate(378.165 320.502)"/>
    <rect id="矩形_4325" data-name="矩形 4325" class="cls-48" width="72.567" height="4.727" transform="translate(378.165 330.807)"/>
    <rect id="矩形_4326" data-name="矩形 4326" class="cls-48" width="72.567" height="4.727" transform="translate(479.336 327.343)"/>
    <rect id="矩形_4327" data-name="矩形 4327" class="cls-48" width="72.567" height="4.727" transform="translate(479.336 337.648)"/>
    <rect id="矩形_4328" data-name="矩形 4328" class="cls-48" width="72.567" height="4.727" transform="translate(479.336 347.954)"/>
    <path id="路径_4055" data-name="路径 4055" class="cls-47" d="M-761.982,3409.537H-673.7v44.074h-9.337l-11.582,11.7-7.154-11.866-.047-.078-.067-.112h-70.558v-18.083" transform="translate(1234.936 -3089.15)"/>
  </g>
</svg>
