<svg xmlns="http://www.w3.org/2000/svg" xmlns:xlink="http://www.w3.org/1999/xlink" width="42" height="42" viewBox="0 0 42 42">
  <defs>
    <style>
      .cls-1 {
        fill: url(#linear-gradient);
      }

      .cls-2 {
        fill: #fff;
      }
    </style>
    <linearGradient id="linear-gradient" y1="0.5" x2="1" y2="0.5" gradientUnits="objectBoundingBox">
      <stop offset="0" stop-color="#4285f4"/>
      <stop offset="1" stop-color="#63a1fc"/>
    </linearGradient>
  </defs>
  <g id="组_9984" data-name="组 9984" transform="translate(-312 -234)">
    <rect id="矩形_4492" data-name="矩形 4492" class="cls-1" width="42" height="42" rx="6" transform="translate(312 234)"/>
    <path id="路径_4138" data-name="路径 4138" class="cls-2" d="M452.283,742.795h-.628V736.47a1.318,1.318,0,0,0-.4-.947l-3.946-3.816a1.318,1.318,0,0,0-2.234.947v9.787a.368.368,0,0,1-.354.355h-.61a.352.352,0,0,1-.352-.352v-17.22a1.405,1.405,0,0,0-2.034-1.257l-7.552,4.217a1.4,1.4,0,0,0-.777,1.257v13.354h-.615a.791.791,0,0,0,0,1.581h19.5a.791.791,0,0,0,0-1.581Zm-12.653-2.46a.7.7,0,0,1-.7.7h-.7a.7.7,0,0,1-.7-.7v-.7a.7.7,0,0,1,.7-.7h.7a.7.7,0,0,1,.7.7Zm0-4.217a.7.7,0,0,1-.7.7h-.7a.7.7,0,0,1-.7-.7v-.7a.7.7,0,0,1,.7-.7h.7a.7.7,0,0,1,.7.7Zm0-4.217a.7.7,0,0,1-.7.7h-.7a.7.7,0,0,1-.7-.7v-.7a.7.7,0,0,1,.7-.7h.7a.7.7,0,0,1,.7.7Zm9.794,7.217a.7.7,0,0,1-.7.7h-.7a.7.7,0,0,1-.7-.7v-.7a.7.7,0,0,1,.7-.7h.7a.7.7,0,0,1,.7.7Z" transform="translate(-109.447 -479.011)"/>
  </g>
</svg>
