<svg xmlns="http://www.w3.org/2000/svg" width="11.745" height="14" viewBox="0 0 11.745 14">
  <g id="组_5062" data-name="组 5062" transform="translate(-56.274 -56.008)">
    <path id="路径_2512" data-name="路径 2512" d="M66.785,64.038H63.571V60.446a1.89,1.89,0,0,0-3.78,0v4.726l-.2-.177-.088-.074a1.995,1.995,0,0,0-2.738.251l-.076.092a1.99,1.99,0,0,0,.279,2.728L59.1,69.81l.006.005.071.061.007-.008a.57.57,0,0,0,.33.115A.584.584,0,0,0,60.1,69.4a.574.574,0,0,0-.259-.472l.006-.009L57.73,67.105a.82.82,0,0,1-.124-1.114l.049-.059a.826.826,0,0,1,1.113-.1l.06.051.188.167a1.169,1.169,0,0,0,1.944-.875V60.446a.722.722,0,0,1,1.443,0v3.592a1.168,1.168,0,0,0,1.168,1.169h3.214a.065.065,0,0,1,.065.066v4.191h.008a.581.581,0,0,0,1.16-.036h0V65.273A1.235,1.235,0,0,0,66.785,64.038Z" fill="#70707a"/>
    <path id="路径_2513" data-name="路径 2513" d="M61.681,56.008a4.379,4.379,0,0,0-3.058,7.516v-2.15a3.213,3.213,0,1,1,6.117,0v2.15a4.379,4.379,0,0,0-3.059-7.516Z" fill="#70707a"/>
  </g>
</svg>
