<svg xmlns="http://www.w3.org/2000/svg" width="14" height="12.011" viewBox="0 0 14 12.011">
  <g id="组_5055" data-name="组 5055" transform="translate(-395.057 -777.12)">
    <path id="路径_2507" data-name="路径 2507" d="M402.073,789.131a1.92,1.92,0,0,1-1.3-.5,53.087,53.087,0,0,1-4.578-4.669,3.974,3.974,0,0,1-1.124-3.134,4.022,4.022,0,0,1,4.812-3.63,4,4,0,0,1,2.178,1.172,4.17,4.17,0,0,1,4.81-.816h0a3.981,3.981,0,0,1,2.136,2.957,4.154,4.154,0,0,1-1.154,3.573,55.4,55.4,0,0,1-4.5,4.561A1.9,1.9,0,0,1,402.073,789.131Zm-2.985-10.739a2.72,2.72,0,0,0-1.581.49,2.8,2.8,0,0,0-1.167,2.047,2.735,2.735,0,0,0,.787,2.166,52.676,52.676,0,0,0,4.507,4.6.643.643,0,0,0,.861.01,54.668,54.668,0,0,0,4.429-4.488,2.9,2.9,0,0,0,.826-2.509,2.722,2.722,0,0,0-1.461-2.021h0a2.844,2.844,0,0,0-3.608.938.742.742,0,0,1-.623.34h0a.745.745,0,0,1-.624-.344,2.691,2.691,0,0,0-1.786-1.171A2.937,2.937,0,0,0,399.088,778.392Zm3.411.531,0,0Z" fill="#70707a"/>
    <path id="路径_2508" data-name="路径 2508" d="M406.182,782.993a.736.736,0,0,1-.392.137.525.525,0,0,1-.371-.9,1.151,1.151,0,0,0-.814-1.977.529.529,0,1,1,0-1.058,2.23,2.23,0,0,1,1.577,3.8Z" fill="#70707a"/>
  </g>
</svg>
