<svg xmlns="http://www.w3.org/2000/svg" width="14.003" height="14" viewBox="0 0 14.003 14">
  <g id="组_5053" data-name="组 5053" transform="translate(-1009 -3932)">
    <g id="路径_2502" data-name="路径 2502" transform="translate(724.084 3809.019)" fill="none" stroke-miterlimit="10">
      <path d="M291.922,122.981h-.005a7,7,0,1,0,.005,0Z" stroke="none"/>
      <path d="M 291.9169921875 124.1710052490234 C 288.7127990722656 124.1710052490234 286.1059875488281 126.7764587402344 286.1059875488281 129.97900390625 C 286.1059875488281 133.1837463378906 288.7127990722656 135.7910003662109 291.9169921875 135.7910003662109 C 295.1217651367188 135.7910003662109 297.72900390625 133.1850891113281 297.72900390625 129.9829254150391 C 297.7265014648438 126.7782287597656 295.1214904785156 124.1710052490234 291.9219970703125 124.1710052490234 L 291.9169921875 124.1710052490234 M 291.9169921875 122.9810028076172 L 291.9219970703125 122.9810028076172 C 295.7789916992188 122.9810028076172 298.9159851074219 126.1220092773438 298.9190063476563 129.9819946289063 C 298.9190063476563 133.8419952392578 295.7770080566406 136.9810028076172 291.9169921875 136.9810028076172 C 288.0580139160156 136.9810028076172 284.9159851074219 133.8390045166016 284.9159851074219 129.97900390625 C 284.9159851074219 126.1199951171875 288.0580139160156 122.9810028076172 291.9169921875 122.9810028076172 Z" stroke="none" fill="#70707a"/>
    </g>
    <rect id="矩形_1771" data-name="矩形 1771" width="13.205" height="1.19" transform="translate(1010.561 3943.248) rotate(-45)" fill="#70707a"/>
  </g>
</svg>
