<svg xmlns="http://www.w3.org/2000/svg" width="14" height="14" viewBox="0 0 14 14">
  <g id="组_5129" data-name="组 5129" transform="translate(-467.01 -92.352)">
    <path id="路径_2479" data-name="路径 2479" d="M472.965,102.494V97.209a.331.331,0,0,1,.537-.234l3.31,2.517a.445.445,0,0,1,0,.723l-3.31,2.513a.331.331,0,0,1-.537-.234" transform="translate(-0.543 -0.102)" fill="#70707a"/>
    <g id="组_5025" data-name="组 5025" transform="translate(467.01 92.352)">
      <path id="路径_2480" data-name="路径 2480" d="M474.01,93.518a5.834,5.834,0,1,1-5.833,5.833,5.84,5.84,0,0,1,5.833-5.833m0-1.166a7,7,0,1,0,7,7,7.008,7.008,0,0,0-7-7Z" transform="translate(-467.01 -92.352)" fill="#70707a"/>
    </g>
  </g>
</svg>
