<svg xmlns="http://www.w3.org/2000/svg" width="13.386" height="14" viewBox="0 0 13.386 14">
  <g id="组_5051" data-name="组 5051" transform="translate(-52.839 -106.947)">
    <path id="路径_2494" data-name="路径 2494" d="M60.2,120.947H58.865a1.651,1.651,0,0,1-1.625-1.357l-.136-.746-.633-.361-.744.267a1.654,1.654,0,0,1-1.983-.718l-.657-1.118a1.648,1.648,0,0,1,.363-2.1l.622-.523v-.631l-.63-.519a1.647,1.647,0,0,1-.381-2.1l.647-1.124a1.655,1.655,0,0,1,1.976-.736l.8.28.606-.345.146-.808a1.653,1.653,0,0,1,1.626-1.357H60.2a1.652,1.652,0,0,1,1.626,1.357l.139.76.615.352.759-.272a1.654,1.654,0,0,1,1.983.718l.657,1.118a1.65,1.65,0,0,1-.363,2.1l-.548.46v.754l.556.459a1.645,1.645,0,0,1,.381,2.1l-.647,1.124a1.658,1.658,0,0,1-1.976.736l-.7-.244-.733.418-.127.7A1.652,1.652,0,0,1,60.2,120.947ZM56.582,117.2l1.573.9.233,1.281a.485.485,0,0,0,.477.4H60.2a.485.485,0,0,0,.478-.4l.225-1.234,1.665-.95,1.2.418a.483.483,0,0,0,.58-.217l.648-1.124a.482.482,0,0,0-.112-.616l-.981-.809V113l.965-.809a.484.484,0,0,0,.107-.619l-.657-1.118a.486.486,0,0,0-.583-.211l-1.264.453-1.555-.887-.236-1.295a.486.486,0,0,0-.478-.4H58.865a.488.488,0,0,0-.478.4l-.244,1.343-1.539.877-1.3-.454a.487.487,0,0,0-.581.216l-.648,1.124a.486.486,0,0,0,.112.617l1.056.87v1.726l-1.04.872a.485.485,0,0,0-.107.618l.658,1.119a.484.484,0,0,0,.583.21Z" fill="#70707a"/>
    <path id="路径_2495" data-name="路径 2495" d="M59.532,112.314a1.633,1.633,0,0,1,.265,3.245,1.713,1.713,0,0,1-.266.021,1.634,1.634,0,0,1-.266-3.246,1.856,1.856,0,0,1,.267-.02m0-1.167h0a2.922,2.922,0,0,0-.443.034,2.8,2.8,0,0,0,.443,5.566,2.922,2.922,0,0,0,.443-.034,2.8,2.8,0,0,0-.442-5.566Z" fill="#70707a"/>
  </g>
</svg>
