<svg xmlns="http://www.w3.org/2000/svg" width="16" height="16" viewBox="0 0 16 16">
  <g id="组_1373" data-name="组 1373" transform="translate(-31.092 -380.006)">
    <rect id="矩形_1554" data-name="矩形 1554" width="16" height="16" rx="8" transform="translate(31.092 380.006)" fill="#e5e5e7"/>
    <g id="组_1372" data-name="组 1372">
      <path id="路径_2336" data-name="路径 2336" d="M38.781,388.4a.386.386,0,0,1-.028-.516l3.87-4.76a.173.173,0,0,1,.308.109l0,.984.984,0a.173.173,0,0,1,.111.307l-4.733,3.9a.385.385,0,0,1-.516-.024Z" fill="#70707a"/>
      <path id="路径_2337" data-name="路径 2337" d="M39.09,390.922A2.917,2.917,0,0,1,37.6,385.5a.417.417,0,1,1,.428.715,2.084,2.084,0,1,0,2.725,3.052.416.416,0,1,1,.662.505A2.893,2.893,0,0,1,39.09,390.922Z" fill="#70707a"/>
      <path id="路径_2338" data-name="路径 2338" d="M39.09,393.006a5,5,0,0,1,0-10,5.106,5.106,0,0,1,.676.045.417.417,0,0,1-.112.826,4.09,4.09,0,0,0-.564-.038,4.165,4.165,0,1,0,4.1,3.432.417.417,0,0,1,.821-.144,5.065,5.065,0,0,1,.077.879A5.006,5.006,0,0,1,39.09,393.006Z" fill="#70707a"/>
    </g>
  </g>
</svg>
