<svg xmlns="http://www.w3.org/2000/svg" width="16" height="16" viewBox="0 0 16 16">
  <g id="组_1357" data-name="组 1357" transform="translate(-58.692 -317.627)">
    <rect id="矩形_1544" data-name="矩形 1544" width="16" height="16" rx="8" transform="translate(58.692 317.627)" fill="#e5e5e7"/>
    <g id="组_1356" data-name="组 1356">
      <path id="路径_2324" data-name="路径 2324" d="M71.687,320.979l-.016-.066a.407.407,0,0,0-.1-.163l-.037-.033a.427.427,0,0,0-.116-.065l-.142-.025-.038,0-.053.008-.032.009-9.217,4.12a.415.415,0,0,0-.058.725l2.853,1.872.378,2.577a.417.417,0,0,0,.3.339.431.431,0,0,0,.429-.13l1.123-1.323L69.6,330.56a.414.414,0,0,0,.225.067.425.425,0,0,0,.168-.035.419.419,0,0,0,.242-.314l1.446-9.155.007-.044A.337.337,0,0,0,71.687,320.979Zm-.171.026Zm-2.16,1.35-4.3,4.234-2.095-1.375Zm1.316-.135-1.154,7.3-3.748-2.46Zm-4.411,6.147-.464.547-.139-.942Zm3.663,2.066Z" fill="#70707a"/>
    </g>
  </g>
</svg>
