<svg xmlns="http://www.w3.org/2000/svg" width="16" height="16" viewBox="0 0 16 16">
  <g id="组_1375" data-name="组 1375" transform="translate(-53.19 -380.006)">
    <rect id="矩形_1555" data-name="矩形 1555" width="16" height="16" rx="8" transform="translate(53.19 380.006)" fill="#e5e5e7"/>
    <g id="组_1374" data-name="组 1374">
      <path id="路径_2339" data-name="路径 2339" d="M64.267,393.006H58.114a1.139,1.139,0,0,1-1.154-1.12v-6.6a1.138,1.138,0,0,1,1.154-1.119h6.153a1.138,1.138,0,0,1,1.154,1.119v6.6A1.139,1.139,0,0,1,64.267,393.006Zm-6.153-8.073a.372.372,0,0,0-.385.348v6.6a.373.373,0,0,0,.385.349h6.153a.373.373,0,0,0,.385-.349v-6.6a.372.372,0,0,0-.385-.348Z" fill="#70707a"/>
      <path id="路径_2340" data-name="路径 2340" d="M61.19,391.089a2.505,2.505,0,1,1,2.5-2.5A2.506,2.506,0,0,1,61.19,391.089Zm0-4.24a1.735,1.735,0,1,0,1.731,1.735A1.734,1.734,0,0,0,61.19,386.849Z" fill="#70707a"/>
      <rect id="矩形_1556" data-name="矩形 1556" width="0.771" height="1.538" rx="0.385" transform="translate(62.344 388.198) rotate(90)" fill="#70707a"/>
      <rect id="矩形_1557" data-name="矩形 1557" width="0.769" height="1.542" rx="0.385" transform="translate(60.806 387.427)" fill="#70707a"/>
      <path id="矩形_1558" data-name="矩形 1558" d="M.385,0h0A.385.385,0,0,1,.769.385V1.542a0,0,0,0,1,0,0H0a0,0,0,0,1,0,0V.385A.385.385,0,0,1,.385,0Z" transform="translate(58.883 383.006)" fill="#70707a"/>
      <path id="矩形_1559" data-name="矩形 1559" d="M.385,0h0A.385.385,0,0,1,.769.385V1.542a0,0,0,0,1,0,0H0a0,0,0,0,1,0,0V.385A.385.385,0,0,1,.385,0Z" transform="translate(62.729 383.006)" fill="#70707a"/>
    </g>
  </g>
</svg>
