<svg xmlns="http://www.w3.org/2000/svg" width="16" height="16" viewBox="0 0 16 16">
  <g id="组_1371" data-name="组 1371" transform="translate(-8.993 -380.006)">
    <rect id="矩形_1550" data-name="矩形 1550" width="16" height="16" rx="8" transform="translate(8.993 380.006)" fill="#e5e5e7"/>
    <g id="组_1367" data-name="组 1367">
      <path id="路径_2329" data-name="路径 2329" d="M19.7,387.964" fill="#70707a"/>
      <path id="路径_2330" data-name="路径 2330" d="M20.839,392.429H13.147a1.155,1.155,0,0,1-1.154-1.154v-5a1.155,1.155,0,0,1,1.154-1.154h7.692a1.156,1.156,0,0,1,1.154,1.154v5A1.156,1.156,0,0,1,20.839,392.429Zm-7.692-6.539a.385.385,0,0,0-.385.385v5a.384.384,0,0,0,.385.384h7.692a.384.384,0,0,0,.384-.384v-5a.385.385,0,0,0-.384-.385Z" fill="#70707a"/>
      <path id="路径_2331" data-name="路径 2331" d="M19.3,385.89H14.685v-1.154a1.156,1.156,0,0,1,1.154-1.154h2.308a1.155,1.155,0,0,1,1.153,1.154Zm-3.846-.769h3.077v-.385a.384.384,0,0,0-.384-.384H15.839a.385.385,0,0,0-.385.384Z" fill="#70707a"/>
      <path id="路径_2332" data-name="路径 2332" d="M16.993,389.544a1.155,1.155,0,0,1-1.154-1.154v-.384a1.154,1.154,0,1,1,2.308,0v.384A1.156,1.156,0,0,1,16.993,389.544Zm0-1.923a.385.385,0,0,0-.385.385v.384a.385.385,0,1,0,.769,0v-.384A.384.384,0,0,0,16.993,387.621Z" fill="#70707a"/>
      <g id="组_1366" data-name="组 1366">
        <rect id="矩形_1551" data-name="矩形 1551" width="3.462" height="0.769" transform="translate(12.762 387.813)" fill="#70707a"/>
        <rect id="矩形_1552" data-name="矩形 1552" width="3.462" height="0.769" transform="translate(17.762 387.813)" fill="#70707a"/>
      </g>
    </g>
  </g>
</svg>
