<svg xmlns="http://www.w3.org/2000/svg" width="16" height="16" viewBox="0 0 16 16">
  <defs>
    <style>
      .cls-1 {
        fill: #e5e5e7;
      }

      .cls-2 {
        fill: #70707a;
      }
    </style>
  </defs>
  <g id="组_14109" data-name="组 14109" transform="translate(-386.842 -76.933)">
    <rect id="矩形_10342" data-name="矩形 10342" class="cls-1" width="16" height="16" rx="8" transform="translate(386.842 76.933)"/>
    <g id="组_14108" data-name="组 14108">
      <path id="路径_6288" data-name="路径 6288" class="cls-2" d="M392.481,85.048h3.611a.417.417,0,1,0,0-.833h-3.611a.417.417,0,1,0,0,.833Z"/>
      <path id="路径_6289" data-name="路径 6289" class="cls-2" d="M397.2,86.715h-4.722a.417.417,0,1,0,0,.833H397.2a.417.417,0,1,0,0-.833Z"/>
      <path id="路径_6290" data-name="路径 6290" class="cls-2" d="M397.064,80.766v-.417a.417.417,0,0,0-.833,0v.417h-2.778v-.417a.417.417,0,0,0-.833,0v.417a2.222,2.222,0,0,0-2.222,2.222v4.723a2.222,2.222,0,0,0,2.222,2.222h4.444a2.222,2.222,0,0,0,2.223-2.222V82.988A2.222,2.222,0,0,0,397.064,80.766Zm1.389,6.945a1.39,1.39,0,0,1-1.389,1.388H392.62a1.39,1.39,0,0,1-1.389-1.388V82.988A1.391,1.391,0,0,1,392.62,81.6v.417a.417.417,0,1,0,.833,0V81.6h2.778v.417a.417.417,0,1,0,.833,0V81.6a1.391,1.391,0,0,1,1.389,1.389Z"/>
    </g>
  </g>
</svg>
