<svg xmlns="http://www.w3.org/2000/svg" width="16" height="16" viewBox="0 0 16 16">
  <g id="组_1365" data-name="组 1365" transform="translate(-11.677 -312.175)">
    <rect id="矩形_1549" data-name="矩形 1549" width="16" height="16" rx="8" transform="translate(11.677 312.175)" fill="#e5e5e7"/>
    <g id="组_1364" data-name="组 1364">
      <path id="路径_2326" data-name="路径 2326" d="M19.678,316.009a.411.411,0,0,1,.225.065l.043.027.045.022,3.512,1.7-3.512,1.731-.045.022-.042.028a.423.423,0,0,1-.454,0l-.042-.028-.045-.022-3.511-1.726,3.513-1.707.045-.022.043-.027a.411.411,0,0,1,.225-.065m0-.834h0a1.245,1.245,0,0,0-.676.2l-4.049,1.968a.576.576,0,0,0,0,.975L19,320.3a1.254,1.254,0,0,0,1.362,0l4.046-1.995a.576.576,0,0,0,0-.975l-4.047-1.961a1.247,1.247,0,0,0-.676-.2Z" fill="#70707a"/>
      <path id="路径_2327" data-name="路径 2327" d="M19.672,322.839a1.883,1.883,0,0,1-.869-.246l-3.9-2.034a.417.417,0,0,1,.385-.739l3.9,2.032a.8.8,0,0,0,.984,0l3.9-2.043a.416.416,0,0,1,.386.738l-3.907,2.046A1.868,1.868,0,0,1,19.672,322.839Z" fill="#70707a"/>
      <path id="路径_2328" data-name="路径 2328" d="M19.672,325.175a1.883,1.883,0,0,1-.869-.246l-3.9-2.034a.417.417,0,0,1,.385-.739l3.9,2.032a.8.8,0,0,0,.984,0l3.9-2.043a.416.416,0,0,1,.386.738l-3.907,2.046A1.868,1.868,0,0,1,19.672,325.175Z" fill="#70707a"/>
    </g>
  </g>
</svg>
