<svg xmlns="http://www.w3.org/2000/svg" width="16" height="16" viewBox="0 0 16 16">
  <g id="组_1370" data-name="组 1370" transform="translate(-61.356 -343.593)">
    <rect id="矩形_1553" data-name="矩形 1553" width="16" height="16" rx="8" transform="translate(61.356 343.593)" fill="#e5e5e7"/>
    <g id="组_1369" data-name="组 1369">
      <g id="路径_2333" data-name="路径 2333" fill="none" stroke-miterlimit="10">
        <path d="M69.619,356.593a2.11,2.11,0,0,1-1.484-.615l-3.165-3.165a2.085,2.085,0,0,1-.615-1.484V348.69a2.1,2.1,0,0,1,2.1-2.1H69.1a2.111,2.111,0,0,1,1.483.614l3.164,3.164a2.1,2.1,0,0,1,0,2.968l-2.64,2.639A2.085,2.085,0,0,1,69.619,356.593Zm-.523-9.167H66.454a1.266,1.266,0,0,0-1.266,1.263v2.639a1.258,1.258,0,0,0,.371.895l3.165,3.165a1.3,1.3,0,0,0,1.79,0l2.639-2.639a1.266,1.266,0,0,0,0-1.789L69.989,347.8A1.271,1.271,0,0,0,69.1,347.426Z" stroke="none"/>
        <path d="M 69.61900329589844 356.5929870605469 C 69.06600189208984 356.5929870605469 68.52500152587891 356.3689880371094 68.13500213623047 355.9779968261719 L 64.97000122070313 352.81298828125 C 64.57399749755859 352.4169921875 64.35500335693359 351.8900146484375 64.35500335693359 351.3290100097656 L 64.35500335693359 348.6900024414063 C 64.35500335693359 347.5339965820313 65.2969970703125 346.5929870605469 66.45400238037109 346.5929870605469 L 69.09500122070313 346.5929870605469 C 69.64800262451172 346.5929870605469 70.18800354003906 346.8169860839844 70.5780029296875 347.2070007324219 L 73.74199676513672 350.3710021972656 C 74.55999755859375 351.18798828125 74.56099700927734 352.5190124511719 73.74300384521484 353.3389892578125 L 71.10299682617188 355.9779968261719 C 70.70600128173828 356.375 70.17900085449219 356.5929870605469 69.61900329589844 356.5929870605469 Z M 69.09600067138672 347.4259948730469 L 66.45400238037109 347.427001953125 C 65.75599670410156 347.427001953125 65.18800354003906 347.9939880371094 65.18800354003906 348.6900024414063 L 65.18800354003906 351.3290100097656 C 65.18800354003906 351.6669921875 65.31999969482422 351.9849853515625 65.55899810791016 352.2239990234375 L 68.7239990234375 355.3890075683594 C 68.96085357666016 355.6258544921875 69.2894287109375 355.7443542480469 69.61810302734375 355.744384765625 C 69.94717407226563 355.744384765625 70.27635192871094 355.6256408691406 70.51399993896484 355.3880004882813 L 73.15299987792969 352.7489929199219 C 73.39199829101563 352.510986328125 73.52300262451172 352.1929931640625 73.52300262451172 351.85400390625 C 73.52300262451172 351.5159912109375 73.39099884033203 351.197998046875 73.15299987792969 350.9599914550781 L 69.98899841308594 347.7959899902344 C 69.75399780273438 347.5610046386719 69.42900085449219 347.4259948730469 69.09600067138672 347.4259948730469 Z" stroke="none" fill="#70707a"/>
      </g>
      <path id="路径_2334" data-name="路径 2334" d="M68.053,349.367a.921.921,0,1,1-.92.921.922.922,0,0,1,.92-.921m0-.833a1.754,1.754,0,1,0,1.754,1.754,1.756,1.756,0,0,0-1.754-1.754Z" fill="#70707a"/>
    </g>
    <path id="路径_2335" data-name="路径 2335" d="M68.513,350.748"/>
  </g>
</svg>
