<svg xmlns="http://www.w3.org/2000/svg" width="16" height="16" viewBox="0 0 16 16">
  <g id="组_5109" data-name="组 5109" transform="translate(-54.748 -54.748)">
    <path id="路径_2672" data-name="路径 2672" d="M69.491,65.46" transform="translate(-0.508 -0.329)" fill="#70707a"/>
    <path id="路径_2673" data-name="路径 2673" d="M70.333,60.333a.666.666,0,0,1-.666-.666V57A.667.667,0,0,0,69,56.333H66.333a.667.667,0,0,1,0-1.333H69a2,2,0,0,1,2,2v2.667A.666.666,0,0,1,70.333,60.333Z" transform="translate(-0.508)" fill="#70707a"/>
    <path id="路径_2674" data-name="路径 2674" d="M59.667,71H57a2,2,0,0,1-2-2V66.333a.667.667,0,0,1,1.333,0V69a.667.667,0,0,0,.667.667h2.667a.667.667,0,0,1,0,1.333Z" transform="translate(0 -0.508)" fill="#70707a"/>
    <rect id="矩形_1829" data-name="矩形 1829" width="5.964" height="1.333" rx="0.583" transform="translate(55.691 54.748) rotate(45)" fill="#70707a"/>
    <path id="路径_2675" data-name="路径 2675" d="M58.333,60.333H55.667a.667.667,0,1,1,0-1.333h2.666A.667.667,0,0,0,59,58.333V55.667a.667.667,0,1,1,1.333,0v2.666A2,2,0,0,1,58.333,60.333Z" fill="#70707a"/>
    <rect id="矩形_1830" data-name="矩形 1830" width="5.97" height="1.333" rx="0.583" transform="translate(69.806 70.748) rotate(-135)" fill="#70707a"/>
    <path id="路径_2676" data-name="路径 2676" d="M66.333,71a.666.666,0,0,1-.666-.667V67.667a2,2,0,0,1,2-2h2.666a.667.667,0,1,1,0,1.333H67.667a.667.667,0,0,0-.667.667v2.666A.666.666,0,0,1,66.333,71Z" transform="translate(-0.508 -0.508)" fill="#70707a"/>
  </g>
</svg>
