<svg xmlns="http://www.w3.org/2000/svg" width="12" height="8.552" viewBox="0 0 12 8.552">
  <g id="组_5073" data-name="组 5073" transform="translate(-379.841 -165.395)">
    <circle id="椭圆_170" data-name="椭圆 170" cx="1.44" cy="1.44" r="1.44" transform="translate(384.401 168.231)" fill="#9a9aa2"/>
    <path id="路径_2170" data-name="路径 2170" d="M391.793,169.458a7.808,7.808,0,0,0-1.907-2.51,6.347,6.347,0,0,0-4.1-1.553,5.639,5.639,0,0,0-1.709.262,7.2,7.2,0,0,0-4.175,3.773l-.014.029a.486.486,0,0,0,0,.418,7.22,7.22,0,0,0,4.365,3.85,5.614,5.614,0,0,0,1.56.22,6.333,6.333,0,0,0,4.262-1.726,7.879,7.879,0,0,0,1.718-2.345A.479.479,0,0,0,391.793,169.458Zm-5.952,2.773a2.56,2.56,0,1,1,2.56-2.56A2.562,2.562,0,0,1,385.841,172.231Z" fill="#9a9aa2"/>
  </g>
</svg>
