<svg xmlns="http://www.w3.org/2000/svg" width="16" height="16" viewBox="0 0 16 16">
  <g id="组_1358" data-name="组 1358" transform="translate(-99.166 -322.434)">
    <rect id="矩形_1545" data-name="矩形 1545" width="16" height="16" rx="8" transform="translate(99.166 322.434)" fill="#e5e5e7"/>
    <path id="路径_2325" data-name="路径 2325" d="M110.5,332.426l-1.395-4.085a.348.348,0,0,0,.3-.293l.332-2.215a.341.341,0,0,0-.08-.278.35.35,0,0,0-.263-.121h-4.469a.347.347,0,0,0-.343.4l.332,2.216a.35.35,0,0,0,.3.293l-1.393,4.085a.346.346,0,0,0,.088.364l3.008,2.548a.346.346,0,0,0,.239.1.35.35,0,0,0,.242-.1l3.013-2.547A.352.352,0,0,0,110.5,332.426Zm-4.942-4.777-.228-1.52H109l-.228,1.52Zm.392.7h2.421l.464,1.358h-.714a.356.356,0,1,0,0,.706h.938l.016,0,.695,2.038-2.614,2.161-2.6-2.165Z" fill="#686868"/>
  </g>
</svg>
