<svg xmlns="http://www.w3.org/2000/svg" width="22" height="22" viewBox="0 0 22 22">
  <defs>
    <style>
      .cls-1 {
        fill: #fff;
        stroke: #707070;
        opacity: 0;
      }

      .cls-2 {
        fill: #4285f4;
      }

      .cls-3, .cls-5 {
        fill: none;
      }

      .cls-3 {
        stroke: #4285f4;
        stroke-miterlimit: 10;
        stroke-width: 2px;
      }

      .cls-4 {
        stroke: none;
      }
    </style>
  </defs>
  <g id="组_7722" data-name="组 7722" transform="translate(8986 15121)">
    <g id="矩形_3028" data-name="矩形 3028" class="cls-1" transform="translate(-8986 -15121)">
      <rect class="cls-4" width="22" height="22"/>
      <rect class="cls-5" x="0.5" y="0.5" width="21" height="21"/>
    </g>
    <g id="组_7686" data-name="组 7686" transform="translate(-9090.333 -15306.706)">
      <path id="路径_2257" data-name="路径 2257" class="cls-2" d="M121.065,193.608a.993.993,0,0,1-.707-.293L116.04,189a1,1,0,0,0-1.414,0l-4.3,4.3a1,1,0,0,1-1.414-1.414l4.3-4.3a3,3,0,0,1,4.242,0l4.318,4.317a1,1,0,0,1-.707,1.707Z"/>
      <path id="路径_2258" data-name="路径 2258" class="cls-2" d="M116.333,202.205h-6a1,1,0,1,1,0-2h6a1,1,0,0,1,0,2Z"/>
      <path id="路径_2259" data-name="路径 2259" class="cls-2" d="M120.333,198.205h-10a1,1,0,1,1,0-2h10a1,1,0,0,1,0,2Z"/>
      <g id="矩形_1635" data-name="矩形 1635" class="cls-3" transform="translate(105.333 191.705)">
        <rect class="cls-4" width="20" height="15" rx="3"/>
        <rect class="cls-5" x="1" y="1" width="18" height="13" rx="2"/>
      </g>
    </g>
  </g>
</svg>
