<svg xmlns="http://www.w3.org/2000/svg" width="30" height="10.731" viewBox="0 0 30 10.731">
  <defs>
    <style>
      .cls-1 {
        fill: #accaf7;
      }
    </style>
  </defs>
  <g id="组_9999" data-name="组 9999" transform="translate(224.98 -155.62)">
    <path id="路径_4156" data-name="路径 4156" class="cls-1" d="M-219.63,157.652A3.353,3.353,0,0,1-216.281,161a3.354,3.354,0,0,1-3.349,3.35,3.354,3.354,0,0,1-3.35-3.35,3.353,3.353,0,0,1,3.35-3.349m0-2A5.349,5.349,0,0,0-224.98,161a5.35,5.35,0,0,0,5.35,5.35,5.35,5.35,0,0,0,5.349-5.35,5.349,5.349,0,0,0-5.349-5.349Z"/>
    <path id="路径_4157" data-name="路径 4157" class="cls-1" d="M-211.254,155.645h-2v10.7h2v-10.7Z"/>
    <path id="路径_4158" data-name="路径 4158" class="cls-1" d="M-209.381,159.994h-3.351v2h3.351v-2Z"/>
    <g id="组_9998" data-name="组 9998">
      <path id="路径_4159" data-name="路径 4159" class="cls-1" d="M-206.167,155.7l-5.3,5.3,1.414,1.414,5.3-5.3-1.414-1.414Z"/>
      <path id="路径_4160" data-name="路径 4160" class="cls-1" d="M-210.049,159.58l-1.414,1.414,5.3,5.3,1.414-1.414-5.3-5.3Z"/>
    </g>
    <rect id="矩形_4508" data-name="矩形 4508" class="cls-1" width="2" height="10.699" transform="translate(-203.582 155.62)"/>
    <path id="路径_4161" data-name="路径 4161" class="cls-1" d="M-198.73,157.62a1.752,1.752,0,0,1,1.75,1.75v.524a1.752,1.752,0,0,1-1.75,1.75h-2.809V157.62h2.809m0-2h-4.809v8.024h4.809a3.75,3.75,0,0,0,3.75-3.75v-.524a3.75,3.75,0,0,0-3.75-3.75Z"/>
    <path id="路径_4162" data-name="路径 4162" class="cls-1" d="M-197.688,166.319l-3.687-3.687,2.7-.006,3.693,3.693Z"/>
  </g>
</svg>
