<svg xmlns="http://www.w3.org/2000/svg" width="30" height="10.725" viewBox="0 0 30 10.725">
  <defs>
    <style>
      .cls-1, .cls-4, .cls-6 {
        fill: none;
      }

      .cls-1, .cls-4 {
        stroke: #4285f4;
        stroke-width: 2px;
      }

      .cls-1 {
        stroke-miterlimit: 10;
      }

      .cls-2 {
        fill: #4285f4;
      }

      .cls-3 {
        fill: #fa0;
      }

      .cls-4 {
        stroke-linejoin: round;
      }

      .cls-5 {
        stroke: none;
      }
    </style>
  </defs>
  <g id="组_10005" data-name="组 10005" transform="translate(224.98 -155.619)">
    <g id="椭圆_857" data-name="椭圆 857" class="cls-1" transform="translate(-224.98 155.619)">
      <circle class="cls-5" cx="5.349" cy="5.349" r="5.349"/>
      <circle class="cls-6" cx="5.349" cy="5.349" r="4.349"/>
    </g>
    <rect id="矩形_4515" data-name="矩形 4515" class="cls-2" width="2" height="10.699" transform="translate(-213.254 155.645)"/>
    <rect id="矩形_4516" data-name="矩形 4516" class="cls-2" width="2" height="3.351" transform="translate(-209.381 159.994) rotate(90)"/>
    <g id="组_10003" data-name="组 10003">
      <rect id="矩形_4518" data-name="矩形 4518" class="cls-2" width="2" height="7.489" transform="translate(-204.753 164.876) rotate(135)"/>
      <path id="路径_4166" data-name="路径 4166" class="cls-2" d="M0,0H2V7.489H0Z" transform="translate(-206.167 155.699) rotate(45)"/>
    </g>
    <rect id="矩形_4519" data-name="矩形 4519" class="cls-2" width="2" height="10.699" transform="translate(-203.582 155.62)"/>
    <path id="路径_4165" data-name="路径 4165" class="cls-3" d="M-197.688,166.319l-3.687-3.687,2.7-.006,3.693,3.693Z"/>
    <g id="矩形_4520" data-name="矩形 4520" class="cls-4" transform="translate(-203.539 155.62)">
      <path class="cls-5" d="M0,0H4.809a3.75,3.75,0,0,1,3.75,3.75v.524a3.75,3.75,0,0,1-3.75,3.75H0a0,0,0,0,1,0,0V0A0,0,0,0,1,0,0Z"/>
      <path class="cls-6" d="M2,1H4.809a2.75,2.75,0,0,1,2.75,2.75v.524a2.75,2.75,0,0,1-2.75,2.75H2a1,1,0,0,1-1-1V2A1,1,0,0,1,2,1Z"/>
    </g>
    <circle id="椭圆_860" data-name="椭圆 860" class="cls-3" cx="1.5" cy="1.5" r="1.5" transform="translate(-220.48 158.619)"/>
  </g>
</svg>
