<svg xmlns="http://www.w3.org/2000/svg" width="22" height="22" viewBox="0 0 22 22">
  <defs>
    <style>
      .cls-1 {
        fill: #fff;
        stroke: #707070;
        opacity: 0;
      }

      .cls-2 {
        fill: #4285f4;
      }

      .cls-3 {
        stroke: none;
      }

      .cls-4 {
        fill: none;
      }
    </style>
  </defs>
  <g id="组_7726" data-name="组 7726" transform="translate(8987 15318)">
    <g id="矩形_3024" data-name="矩形 3024" class="cls-1" transform="translate(-8987 -15318)">
      <rect class="cls-3" width="22" height="22"/>
      <rect class="cls-4" x="0.5" y="0.5" width="21" height="21"/>
    </g>
    <g id="组_7684" data-name="组 7684" transform="translate(-10955 -16707.922)">
      <path id="路径_2175" data-name="路径 2175" d="M140,28.046" transform="translate(1842.184 1378.954)"/>
      <g id="组_843" data-name="组 843" transform="translate(1842.184 1378.954)">
        <rect id="矩形_1405" data-name="矩形 1405" class="cls-2" width="2" height="5" rx="1" transform="translate(132.316 11.967)"/>
        <rect id="矩形_1406" data-name="矩形 1406" class="cls-2" width="2" height="5" rx="1" transform="translate(139.316 11.967)"/>
      </g>
      <path id="路径_2176" data-name="路径 2176" class="cls-2" d="M141.816,31.967h-10a4,4,0,0,1-4-4v-10.5a4.005,4.005,0,0,1,4-4h10a4,4,0,0,1,4,4v10.5A4,4,0,0,1,141.816,31.967Zm-10-16.5a2,2,0,0,0-2,2v10.5a2,2,0,0,0,2,2h10a2,2,0,0,0,2-2v-10.5a2,2,0,0,0-2-2Z" transform="translate(1842.184 1378.954)"/>
      <rect id="矩形_1407" data-name="矩形 1407" class="cls-2" width="10" height="2" rx="1" transform="translate(1974 1398.921)"/>
      <rect id="矩形_1408" data-name="矩形 1408" class="cls-2" width="6" height="2" rx="1" transform="translate(1974 1403.921)"/>
    </g>
  </g>
</svg>
