<svg xmlns="http://www.w3.org/2000/svg" width="22" height="22" viewBox="0 0 22 22">
  <defs>
    <style>
      .cls-1 {
        fill: #fff;
        opacity: 0;
      }

      .cls-2 {
        fill: #accaf7;
      }

      .cls-3, .cls-5 {
        fill: none;
      }

      .cls-3 {
        stroke: #accaf7;
        stroke-miterlimit: 10;
        stroke-width: 2px;
      }

      .cls-4 {
        stroke: none;
      }
    </style>
  </defs>
  <g id="组_7688" data-name="组 7688" transform="translate(8996 15380)">
    <rect id="矩形_3023" data-name="矩形 3023" class="cls-1" width="22" height="22" transform="translate(-8996 -15380)"/>
    <g id="组_7682" data-name="组 7682" transform="translate(-10872 -16769.922)">
      <path id="路径_2169" data-name="路径 2169" class="cls-2" d="M50.82,29.969H38.812a1,1,0,0,0,0,2H50.82a1,1,0,0,0,0-2Z" transform="translate(1842.184 1378.954)"/>
      <g id="矩形_1394" data-name="矩形 1394" class="cls-3" transform="translate(1877 1390.922)">
        <rect class="cls-4" width="20" height="15.99" rx="4"/>
        <rect class="cls-5" x="1" y="1" width="18" height="13.99" rx="3"/>
      </g>
      <g id="矩形_1395" data-name="矩形 1395" class="cls-3" transform="translate(1881 1397.918)">
        <rect class="cls-4" width="2" height="4.997" rx="1"/>
        <rect class="cls-5" x="1" y="1" height="2.997"/>
      </g>
      <g id="矩形_1396" data-name="矩形 1396" class="cls-3" transform="translate(1886 1394.92)">
        <rect class="cls-4" width="2" height="7.995" rx="1"/>
        <rect class="cls-5" x="1" y="1" height="5.995"/>
      </g>
      <g id="矩形_1397" data-name="矩形 1397" class="cls-3" transform="translate(1891 1397.918)">
        <rect class="cls-4" width="2" height="4.997" rx="1"/>
        <rect class="cls-5" x="1" y="1" height="2.997"/>
      </g>
    </g>
  </g>
</svg>
