<?xml version="1.0" encoding="UTF-8"?>
<svg width="12px" height="12px" viewBox="0 0 12 12" version="1.1" xmlns="http://www.w3.org/2000/svg" xmlns:xlink="http://www.w3.org/1999/xlink">
    <!-- Generator: Sketch 60.1 (88133) - https://sketch.com -->
    <title>形状结合</title>
    <desc>Created with Sketch.</desc>
    <g id="----·OKR--V5.2.8(8.12)" stroke="none" stroke-width="1" fill="none" fill-rule="evenodd">
        <g id="创建目标-打分标准" transform="translate(-304.000000, -543.000000)" fill="#3949AB">
            <g id="编组-29" transform="translate(242.000000, 110.000000)">
                <g id="编组-26">
                    <g id="编组-19备份-2" transform="translate(62.000000, 433.000000)">
                        <path d="M6,-8.8817842e-16 C6.23669346,-9.31658304e-16 6.42857143,0.191877964 6.42857143,0.428571429 L6.428,5.571 L11.5714286,5.57142857 C11.808122,5.57142857 12,5.76330654 12,6 C12,6.23669346 11.808122,6.42857143 11.5714286,6.42857143 L6.428,6.428 L6.42857143,11.5714286 C6.42857143,11.808122 6.23669346,12 6,12 C5.76330654,12 5.57142857,11.808122 5.57142857,11.5714286 L5.571,6.428 L0.428571429,6.42857143 C0.191877964,6.42857143 2.89865893e-17,6.23669346 0,6 C-2.89865893e-17,5.76330654 0.191877964,5.57142857 0.428571429,5.57142857 L5.571,5.571 L5.57142857,0.428571429 C5.57142857,0.191877964 5.76330654,-8.44698536e-16 6,-8.8817842e-16 Z" id="形状结合"></path>
                    </g>
                </g>
            </g>
        </g>
    </g>
</svg>