<?xml version="1.0" encoding="UTF-8"?>
<svg width="14px" height="14px" viewBox="0 0 14 14" version="1.1" xmlns="http://www.w3.org/2000/svg" xmlns:xlink="http://www.w3.org/1999/xlink">
    <!-- Generator: Sketch 60.1 (88133) - https://sketch.com -->
    <title>编组 5</title>
    <desc>Created with Sketch.</desc>
    <g id="工作台" stroke="none" stroke-width="1" fill="none" fill-rule="evenodd">
        <g id="任务管理备份-6" transform="translate(-394.000000, -124.000000)" fill="#B1B1B1">
            <g id="编组-38" transform="translate(384.000000, 113.000000)">
                <g id="编组-11" transform="translate(10.000000, 11.000000)">
                    <g id="编组-5">
                        <path d="M11.049,9.60120872e-13 C10.543,9.60120872e-13 10.037,0.192 9.652,0.578 L2.326,7.888 C2.008,8.206 1.775,8.598 1.648,9.029 L0.918,11.497 C0.814,11.851 1.085,12.188 1.432,12.188 C1.472,12.188 1.512,12.183 1.553,12.174 L4.114,11.599 C4.612,11.488 5.069,11.237 5.43,10.877 L12.701,3.621 C13.473,2.85 13.473,1.601 12.701,0.831 L12.447,0.578 L12.446,0.578 C12.061,0.192 11.555,9.60120872e-13 11.049,9.60120872e-13 M11.049,1.167 C11.265,1.167 11.468,1.251 11.62,1.403 L11.874,1.657 C12.027,1.809 12.111,2.011 12.111,2.226 C12.111,2.44 12.027,2.643 11.874,2.795 L4.603,10.051 C4.399,10.255 4.141,10.397 3.859,10.46 L2.343,10.8 L2.769,9.359 C2.84,9.116 2.973,8.893 3.153,8.713 L10.478,1.403 C10.63,1.251 10.833,1.167 11.049,1.167" id="Fill-3"></path>
                        <path d="M13.462,12.8325 C13.759,12.8325 14,13.0561504 14,13.3320716 C14,13.6088496 13.759,13.8325 13.462,13.8325 L0.539,13.8325 C0.241,13.8325 0,13.6088496 0,13.3320716 C0,13.0561504 0.241,12.8325 0.539,12.8325 L13.462,12.8325 Z" id="Fill-1"></path>
                        <polygon id="Fill-5" points="9.0392 1.7719 8.2132 2.5969 10.2792 4.6609 11.1062 3.8349"></polygon>
                    </g>
                </g>
            </g>
        </g>
    </g>
</svg>