<svg xmlns="http://www.w3.org/2000/svg" width="12.834" height="14" viewBox="0 0 12.834 14">
  <g id="组_5131" data-name="组 5131" transform="translate(-56.583 -56)">
    <path id="路径_2681" data-name="路径 2681" d="M67.667,70H58.333a1.752,1.752,0,0,1-1.75-1.75V63a1.752,1.752,0,0,1,1.75-1.75h9.334A1.752,1.752,0,0,1,69.417,63v5.25A1.752,1.752,0,0,1,67.667,70Zm-9.334-7.583A.583.583,0,0,0,57.75,63v5.25a.583.583,0,0,0,.583.583h9.334a.583.583,0,0,0,.583-.583V63a.583.583,0,0,0-.583-.583Z" fill="#70707a"/>
    <path id="路径_2682" data-name="路径 2682" d="M59.5,62.417a.583.583,0,0,1-.583-.584v-1.75a4.084,4.084,0,0,1,7.392-2.393.583.583,0,0,1-.945.684,2.918,2.918,0,0,0-5.281,1.709v1.75A.583.583,0,0,1,59.5,62.417Z" fill="#70707a"/>
    <rect id="矩形_1851" data-name="矩形 1851" width="3.5" height="1.167" rx="0.583" transform="translate(61.25 65.042)" fill="#70707a"/>
  </g>
</svg>
