<svg xmlns="http://www.w3.org/2000/svg" width="14" height="14" viewBox="0 0 14 14">
  <g id="组_5130" data-name="组 5130" transform="translate(-494.495 -117.387)">
    <path id="路径_2483" data-name="路径 2483" d="M501.495,118.554a5.833,5.833,0,1,1-5.833,5.833,5.84,5.84,0,0,1,5.833-5.833m0-1.167a7,7,0,1,0,7,7,7,7,0,0,0-7-7Z" fill="#70707a"/>
    <path id="路径_2484" data-name="路径 2484" d="M505.531,123.34l-3.978,3.978a.628.628,0,0,1-.884,0l-2.209-2.21a.625.625,0,0,1,.884-.884l1.767,1.768,3.536-3.536a.625.625,0,0,1,.884.884Z" transform="translate(-0.5 -0.5)" fill="#70707a"/>
  </g>
</svg>
