<?xml version="1.0" encoding="UTF-8"?>
<svg width="16px" height="16px" viewBox="0 0 16 16" version="1.1" xmlns="http://www.w3.org/2000/svg" xmlns:xlink="http://www.w3.org/1999/xlink">
    <!-- Generator: Sketch 60.1 (88133) - https://sketch.com -->
    <title>添加</title>
    <desc>Created with Sketch.</desc>
    <g id="----·项目V5.2.9（8.12）" stroke="none" stroke-width="1" fill="none" fill-rule="evenodd">
        <g id="3工作台-个人中心" transform="translate(-56.000000, -314.000000)">
            <g id="个人名片" transform="translate(40.000000, 80.000000)">
                <g id="添加" transform="translate(16.000000, 234.000000)">
                    <circle id="椭圆形" stroke="#545454" transform="translate(8.000000, 8.000000) rotate(-360.000000) translate(-8.000000, -8.000000) " cx="8" cy="8" r="7.5"></circle>
                    <path d="M9.01324503,9.94109019 L9.01324503,9.75345222 C9.01324503,9.48855156 9.06843267,9.24572595 9.18984547,9.0249754 C9.28918322,8.8262999 9.44370861,8.62762441 9.65342163,8.45102396 C10.1721854,7.99848533 10.4812362,7.71150961 10.580574,7.59009681 C10.8565121,7.23689593 11,6.7843573 11,6.24351844 C11,5.58126679 10.7792494,5.05146546 10.3377483,4.665152 C9.89624724,4.26780101 9.28366446,4 8.57726269,4 C7.76048565,4 7.1589404,4.31195112 6.69536424,4.7865648 C6.23178808,5.25014096 6,5.87928003 6,6.68501955 C6.04793329,7.04835799 6.24034948,7.23002721 6.57724858,7.23002721 C6.91414768,7.23002721 7.10804495,7.04835799 7.1589404,6.68501955 C7.1589404,6.19936833 7.25827815,5.8240924 7.45695364,5.55919173 C7.67770419,5.23910343 8.00331126,5.00441501 8.5,5.00441501 C8.89735099,5.00441501 9.25607064,5.19495332 9.47682119,5.41570388 C9.68653422,5.63645443 9.79690949,5.93446767 9.79690949,6.32078114 C9.79690949,6.60775686 9.68653422,6.87265752 9.48785872,7.12652065 L9.30022075,7.33623368 C8.61589404,7.94329769 8.19646799,8.39583633 8.05298013,8.7048871 C7.89845475,8.99186282 7.83222958,9.3450637 7.83222958,9.75345222 L7.83222958,9.94109019 C7.91392818,10.2316591 8.1092109,10.3769435 8.41807775,10.3769435 C8.7269446,10.3769435 8.9253337,10.2316591 9.01324503,9.94109019 Z M8.41721854,12.8300221 C8.63796909,12.8300221 8.83664459,12.7527594 8.99116998,12.6092715 C9.14569536,12.4547461 9.23399558,12.2671082 9.23399558,12.0353201 C9.23399558,11.803532 9.15673289,11.615894 9.00220751,11.4724062 C8.84768212,11.3178808 8.64900662,11.2516556 8.41721854,11.2516556 C8.19646799,11.2516556 7.99779249,11.3178808 7.84326711,11.4724062 C7.68874172,11.615894 7.61147903,11.803532 7.61147903,12.0353201 C7.61147903,12.2560706 7.68874172,12.4437086 7.84326711,12.598234 C7.99779249,12.7527594 8.19646799,12.8300221 8.41721854,12.8300221 Z" id="？" fill="#545454" fill-rule="nonzero"></path>
                </g>
            </g>
        </g>
    </g>
</svg>