<?xml version="1.0" encoding="UTF-8"?>
<svg width="16px" height="16px" viewBox="0 0 16 16" version="1.1" xmlns="http://www.w3.org/2000/svg" xmlns:xlink="http://www.w3.org/1999/xlink">
    <!-- Generator: Sketch 60.1 (88133) - https://sketch.com -->
    <title>设置</title>
    <desc>Created with Sketch.</desc>
    <g id="----·项目V5.2.9（8.12）" stroke="none" stroke-width="1" fill="none" fill-rule="evenodd">
        <g id="3工作台-个人中心" transform="translate(-56.000000, -346.000000)" stroke="#545454">
            <g id="个人名片" transform="translate(40.000000, 80.000000)">
                <g id="设置" transform="translate(16.000000, 266.000000)">
                    <g transform="translate(0.000000, 1.000000)">
                        <circle id="椭圆形" cx="8" cy="7" r="2.5"></circle>
                        <path d="M8.75,0.0103629711 C8.28589838,-0.257586221 7.71410162,-0.257586221 7.25,0.0103629711 L2.32179677,2.85566243 C1.85769515,3.12361163 1.57179677,3.61880215 1.57179677,4.15470054 L1.57179677,9.84529946 C1.57179677,10.3811978 1.85769515,10.8763884 2.32179677,11.1443376 L7.25,13.989637 C7.71410162,14.2575862 8.28589838,14.2575862 8.75,13.989637 L13.6782032,11.1443376 C14.1423048,10.8763884 14.4282032,10.3811978 14.4282032,9.84529946 L14.4282032,4.15470054 C14.4282032,3.61880215 14.1423048,3.12361163 13.6782032,2.85566243 L8.75,0.0103629711 Z" id="多边形"></path>
                    </g>
                </g>
            </g>
        </g>
    </g>
</svg>