<?xml version="1.0" encoding="UTF-8"?>
<svg width="13px" height="15px" viewBox="0 0 13 15" version="1.1" xmlns="http://www.w3.org/2000/svg" xmlns:xlink="http://www.w3.org/1999/xlink">
    <!-- Generator: Sketch 60.1 (88133) - https://sketch.com -->
    <title>编组</title>
    <desc>Created with Sketch.</desc>
    <g id="OKR" stroke="none" stroke-width="1" fill="none" fill-rule="evenodd">
        <g id="宽详情" transform="translate(-902.000000, -157.000000)" fill="#545454">
            <g id="编组-15" transform="translate(902.000000, 157.000000)">
                <path d="M9.983,0 L2.018,0 C0.886,0 0,0.85 0,1.935 C0,2.637 0.425,3.153 0.795,3.525 C1.142,3.874 1.5,4.213 1.857,4.553 L3.503,6.113 L3.6,10.755 C3.6,11.023 3.703,11.258 3.94,11.481 L6.776,13.785 L6.902,13.864 C7.017,13.918 7.19,14 7.411,14 C7.688,14 7.92,13.906 8.123,13.715 C8.386,13.464 8.386,13.141 8.386,13.02 L8.289,6.235 L11.447,3.303 L11.524,3.227 C11.827,2.88 12,2.424 12,1.974 C12,0.867 11.114,0 9.983,0 M9.983,1 C10.563,1 11,1.419 11,1.974 C11,2.174 10.921,2.387 10.788,2.549 L10.766,2.57 L7.609,5.503 L7.283,5.806 L7.289,6.25 L7.385,12.985 C7.383,12.985 7.381,12.983 7.379,12.982 L7.358,12.97 L4.605,10.733 C4.603,10.731 4.601,10.729 4.6,10.728 L4.503,6.092 L4.494,5.675 L4.191,5.388 L2.544,3.825 C2.193,3.493 1.843,3.16 1.504,2.819 C1.151,2.465 1,2.2 1,1.935 C1,1.401 1.438,1 2.018,1 L9.983,1" id="Fill-1"></path>
            </g>
        </g>
    </g>
</svg>