<?xml version="1.0" encoding="UTF-8"?>
<svg width="16px" height="16px" viewBox="0 0 16 16" version="1.1" xmlns="http://www.w3.org/2000/svg" xmlns:xlink="http://www.w3.org/1999/xlink">
    <!-- Generator: Sketch 60.1 (88133) - https://sketch.com -->
    <title>编组 16</title>
    <desc>Created with Sketch.</desc>
    <g id="任务" stroke="none" stroke-width="1" fill="none" fill-rule="evenodd">
        <g id="任务管理---描述图片备份-4" transform="translate(-98.000000, -54.000000)">
            <g id="编组-22" transform="translate(98.000000, 54.000000)">
                <g id="编组-16">
                    <circle id="椭圆形" stroke="#3949AB" fill="#FFFFFF" cx="8" cy="8" r="7.5"></circle>
                    <path d="M10.8283077,6.76215385 L7.64646154,9.944 C7.54861538,10.0418462 7.42123077,10.0898462 7.29292308,10.0898462 C7.16369231,10.0898462 7.03630769,10.0418462 6.93846154,9.944 L5.17076923,8.17630769 C4.97692308,7.98246154 4.97692308,7.664 5.17076923,7.46923077 C5.26861538,7.37230769 5.396,7.32338462 5.52523077,7.32338462 C5.65353846,7.32338462 5.78092308,7.37230769 5.87876923,7.46923077 L7.29292308,8.88338462 L10.1203077,6.05507692 C10.2181538,5.95815385 10.3464615,5.90923077 10.4738462,5.90923077 C10.6030769,5.90923077 10.7313846,5.95815385 10.8283077,6.05507692 C11.0221538,6.24984615 11.0221538,6.56830769 10.8283077,6.76215385 M8,2 C4.68615385,2 2,4.68615385 2,8 C2,11.3138462 4.68615385,14 8,14 C11.3129231,14 14,11.3138462 14,8 C14,4.68615385 11.3129231,2 8,2" id="Fill-1" fill="#3949AB"></path>
                </g>
            </g>
        </g>
    </g>
</svg>