<?xml version="1.0" encoding="UTF-8"?>
<svg width="16px" height="16px" viewBox="0 0 16 16" version="1.1" xmlns="http://www.w3.org/2000/svg" xmlns:xlink="http://www.w3.org/1999/xlink">
    <!-- Generator: Sketch 60.1 (88133) - https://sketch.com -->
    <title>设置</title>
    <desc>Created with Sketch.</desc>
    <g id="OKR" stroke="none" stroke-width="1" fill="none" fill-rule="evenodd">
        <g id="我的企业-有设置按钮" transform="translate(-1302.000000, -20.000000)" stroke="#545454">
            <g id="设置" transform="translate(1302.000000, 20.000000)">
                <g transform="translate(1.000000, 1.000000)">
                    <circle id="椭圆形" cx="7" cy="7" r="2.5"></circle>
                    <path d="M8.25,0.144337567 L12.3121778,2.48963703 C13.0856805,2.93621902 13.5621778,3.76153656 13.5621778,4.65470054 L13.5621778,9.34529946 C13.5621778,10.2384634 13.0856805,11.063781 12.3121778,11.510363 L8.25,13.8556624 C7.47649731,14.3022444 6.52350269,14.3022444 5.75,13.8556624 L1.68782217,11.510363 C0.914319482,11.063781 0.437822174,10.2384634 0.437822174,9.34529946 L0.437822174,4.65470054 C0.437822174,3.76153656 0.914319482,2.93621902 1.68782217,2.48963703 L5.75,0.144337567 C6.52350269,-0.30224442 7.47649731,-0.30224442 8.25,0.144337567 Z" id="多边形" stroke-linejoin="round"></path>
                </g>
            </g>
        </g>
    </g>
</svg>