<?xml version="1.0" encoding="UTF-8"?>
<svg width="12px" height="12px" viewBox="0 0 12 12" version="1.1" xmlns="http://www.w3.org/2000/svg" xmlns:xlink="http://www.w3.org/1999/xlink">
    <!-- Generator: Sketch 60.1 (88133) - https://sketch.com -->
    <title>编组备份</title>
    <desc>Created with Sketch.</desc>
    <defs>
        <polygon id="path-1" points="0.5329 5.6522 12 5.6522 12 12 0.5329 12"></polygon>
    </defs>
    <g id="OKR" stroke="none" stroke-width="1" fill="none" fill-rule="evenodd">
        <g id="OKR界面备份-2" transform="translate(-945.000000, -633.000000)">
            <g id="编组-10" transform="translate(945.000000, 633.000000)">
                <g id="编组备份">
                    <path d="M0.0182,6.279 C-0.1848,3.723 1.3312,1.317 3.7572,0.382 C4.4132,0.129 5.1152,0 5.8472,0 C7.0432,0 8.2462,0.35 9.2352,0.984 C9.2702,1.006 9.3122,1.018 9.3532,1.018 C9.3692,1.018 9.3852,1.016 9.4012,1.013 C9.4582,1 9.5072,0.965 9.5382,0.916 L10.0532,0.09 L11.2822,3.617 L7.8452,3.631 L8.5602,2.483 C8.6192,2.387 8.5952,2.262 8.5032,2.196 C7.7642,1.662 6.8402,1.368 5.9012,1.368 C5.3402,1.368 4.7892,1.471 4.2662,1.673 C2.3852,2.399 1.2212,4.309 1.4242,6.279 L0.0182,6.279 Z" id="Fill-1" fill="#B1B1B1"></path>
                    <mask id="mask-2" fill="white">
                        <use xlink:href="#path-1"></use>
                    </mask>
                    <g id="Clip-4"></g>
                    <path d="M0.5329,8.3342 L4.2629,8.5502 L3.6209,9.5802 C3.5589,9.6812 3.5899,9.8132 3.6919,9.8752 C4.4199,10.3212 5.2569,10.5572 6.1159,10.5572 C6.6739,10.5572 7.2189,10.4562 7.7339,10.2572 C9.6149,9.5322 10.7779,7.6232 10.5749,5.6522 L11.9819,5.6522 C12.1849,8.2072 10.6689,10.6132 8.2429,11.5492 C7.5459,11.8182 6.8299,11.9552 6.1129,11.9552 C5.0169,11.9552 3.9349,11.6312 2.9829,11.0222 C2.9479,10.9992 2.9059,10.9872 2.8649,10.9872 C2.8489,10.9872 2.8329,10.9892 2.8169,10.9922 C2.7599,11.0052 2.7099,11.0412 2.6789,11.0892 L2.1119,12.0002 L0.5329,8.3342 Z" id="Fill-3" fill="#B1B1B1" mask="url(#mask-2)"></path>
                </g>
            </g>
        </g>
    </g>
</svg>