<?xml version="1.0" encoding="UTF-8"?>
<svg width="52px" height="48px" viewBox="0 0 52 48" version="1.1" xmlns="http://www.w3.org/2000/svg" xmlns:xlink="http://www.w3.org/1999/xlink">
    <!-- Generator: Sketch 60.1 (88133) - https://sketch.com -->
    <title>编组 39</title>
    <desc>Created with Sketch.</desc>
    <defs>
        <rect id="path-1" x="0" y="0" width="36" height="32" rx="4"></rect>
        <filter x="-75.0%" y="-65.6%" width="250.0%" height="268.8%" filterUnits="objectBoundingBox" id="filter-2">
            <feOffset dx="0" dy="6" in="SourceAlpha" result="shadowOffsetOuter1"></feOffset>
            <feGaussianBlur stdDeviation="8" in="shadowOffsetOuter1" result="shadowBlurOuter1"></feGaussianBlur>
            <feColorMatrix values="0 0 0 0 0.0539429919   0 0 0 0 0.441395259   0 0 0 0 0.495697464  0 0 0 0.223830857 0" type="matrix" in="shadowBlurOuter1"></feColorMatrix>
        </filter>
        <path d="M1293,48 L1303,56 L1309,56 C1313.41828,56 1317,59.581722 1317,64 L1317,585 C1317,589.418278 1313.41828,593 1309,593 L917,593 C912.581722,593 909,589.418278 909,585 L909,64 C909,59.581722 912.581722,56 917,56 L1283,56 L1293,48 Z" id="path-3"></path>
        <filter x="-3.9%" y="-2.6%" width="107.8%" height="105.9%" filterUnits="objectBoundingBox" id="filter-4">
            <feOffset dx="0" dy="2" in="SourceAlpha" result="shadowOffsetOuter1"></feOffset>
            <feGaussianBlur stdDeviation="5" in="shadowOffsetOuter1" result="shadowBlurOuter1"></feGaussianBlur>
            <feColorMatrix values="0 0 0 0 0.36633282   0 0 0 0 0.441466752   0 0 0 0 0.701596467  0 0 0 0.21 0" type="matrix" in="shadowBlurOuter1"></feColorMatrix>
        </filter>
    </defs>
    <g id="工作台" stroke="none" stroke-width="1" fill="none" fill-rule="evenodd">
        <g id="OKR界面备份" transform="translate(-1053.000000, -4.000000)">
            <rect fill="#F7F8FD" x="0" y="0" width="1334" height="840"></rect>
            <g id="编组-7">
                <rect id="顶部备份-5" fill="#FFFFFF" x="300" y="0" width="1034" height="56"></rect>
                <g id="编组-27" transform="translate(1053.000000, 4.000000)">
                    <g id="编组-39" transform="translate(8.000000, 8.000000)">
                        <g id="Rectangle">
                            <use fill="black" fill-opacity="1" filter="url(#filter-2)" xlink:href="#path-1"></use>
                            <use fill="#4EDEF2" fill-rule="evenodd" xlink:href="#path-1"></use>
                        </g>
                        <path d="M12,16 L24,16 M18,22 L18,10" id="形状结合" stroke="#FFFFFF" stroke-width="2" stroke-linecap="round"></path>
                    </g>
                </g>
            </g>
            <g id="形状结合">
                <use fill="black" fill-opacity="1" filter="url(#filter-4)" xlink:href="#path-3"></use>
                <use fill="#FFFFFF" fill-rule="evenodd" xlink:href="#path-3"></use>
            </g>
        </g>
    </g>
</svg>