<?xml version="1.0" encoding="UTF-8"?>
<svg width="120px" height="120px" viewBox="0 0 120 120" version="1.1" xmlns="http://www.w3.org/2000/svg" xmlns:xlink="http://www.w3.org/1999/xlink">
    <!-- Generator: Sketch 60.1 (88133) - https://sketch.com -->
    <title>其它缺省 2</title>
    <desc>Created with Sketch.</desc>
    <g id="4.数据中心/沟通全局" stroke="none" stroke-width="1" fill="none" fill-rule="evenodd">
        <g id="16缺省" transform="translate(-960.000000, -552.000000)">
            <g id="编组" transform="translate(960.000000, 376.000000)">
                <g id="其它缺省-3" transform="translate(0.000000, 176.000000)">
                    <g id="其它缺省-2" transform="translate(4.000000, 36.000000)">
                        <g id="其它缺省">
                            <path d="M111.496,37.2276684 C111.384,37.2711917 111.295692,37.3386528 111.237538,37.3234197 C111.179385,37.3081865 111.153538,37.2146114 111.142769,36.9295337 C111.401231,37.0492228 111.491692,36.6422798 111.756615,37.2211399 C111.857846,36.7053886 111.474462,37.1101554 111.575692,36.5987565 C111.687692,36.5987565 111.698462,36.7946114 111.838462,36.7445596 C111.862154,36.6466321 112.053846,36.12 111.838462,36.1112953 C111.685538,36.4660104 111.679077,36.2331606 111.704923,35.8719171 C111.721439,35.5234685 111.770478,35.1773734 111.851385,34.8382383 C111.584308,34.8621762 111.541231,34.4030052 111.515385,33.967772 C111.489538,33.5325389 111.44,33.0973057 111.209538,33.1995855 C111.274154,32.8100518 111.278462,32.7948187 111.390462,32.6838342 C111.280615,32.6838342 111.310769,32.5227979 111.340923,32.3748187 C111.108308,32.2094301 111.086769,32.8426943 110.998462,32.4531606 C111.315077,32.3639378 110.877846,31.8590674 111.039385,31.8003109 C111.102467,31.9542158 111.192995,32.0951031 111.306462,32.2159585 C111.267692,31.7306736 111.091077,31.6784456 111.024308,31.3193782 C111.112615,31.2562694 111.164308,31.0103627 111.024308,30.9907772 C111.041538,31.1909845 110.994154,31.3324352 110.847692,31.3672539 C110.860615,31.9047668 111.045846,31.998342 110.957538,32.2964767 C110.903692,31.8612435 110.610769,32.2333679 110.526769,31.9308808 C110.462154,31.3585492 110.830462,31.9700518 110.768,31.3911917 C110.589231,31.4695337 110.475077,31.3433161 110.401846,31.0168912 C110.104615,31.0364767 110.186462,31.4238342 110.309231,31.8873575 C110.376,32.1158549 110.468615,32.3617617 110.539692,32.5880829 C110.597241,32.7721296 110.639743,32.960638 110.666769,33.1517098 C110.684,33.3845596 110.472923,33.1691192 110.802462,33.4346114 C110.630154,34.124456 110.772308,33.8132642 110.985538,34.1788601 C110.806769,34.4073575 111.095385,34.8317098 110.815385,35.1233161 C110.860615,35.4366839 111.030769,34.8708808 111.095385,35.3996891 C110.98743,35.486447 110.904189,35.6005885 110.854154,35.7304663 C111.239692,36.106943 110.892923,35.5389637 111.192308,35.5433161 C111.099692,35.9981347 111.172923,36.054715 111.278462,36.0634197 C111.384,36.0721244 111.534769,36.028601 111.575692,36.2919171 C111.373231,36.5095337 111.412,36.2810363 111.144923,36.4725389 C111.239692,36.2549223 111.233231,36.0895337 111.052308,36.0198964 C111.026462,36.237513 110.931692,36.3180311 110.972615,36.6357513 C111.129846,36.4812435 111.138462,36.8751295 111.168615,37.1863212 C111.198769,37.497513 111.220308,37.7238342 111.496,37.2276684 Z" id="路径" fill="#EFEFEF" fill-rule="nonzero"></path>
                            <path d="M110.106769,30.9472539 C109.878462,30.0593782 110.106769,30.1464249 109.723385,29.6415544 L109.968923,29.5501554 C109.753538,29.2977202 109.594154,28.5186528 109.292615,28.6796891 C109.609231,28.5447668 109.219385,28.0943005 109.749231,28.1487047 C109.441231,27.7417617 109.344308,27.798342 109.156923,27.4131606 C109.068615,27.5089119 109.240923,27.7939896 109.318462,28.0094301 C109.144,28.100829 108.993231,27.9833161 108.857538,27.7678756 C108.709056,27.4943252 108.574622,27.2132273 108.454769,26.9256995 C108.762769,27.0976166 108.523692,26.8473575 108.620615,26.6689119 C108.461231,26.4230052 108.260923,26.8473575 108.127385,26.2554404 C108.245846,26.2989637 108.357846,26.5209326 108.487077,26.3968912 C108.5,26.2227979 108.515077,26.04 108.512923,25.8593782 C108.243692,25.3936788 108.418154,26.2946114 108.211385,25.8593782 C108.197418,25.4899235 108.068542,25.1343175 107.843077,24.8431088 C107.711692,24.9236269 107.716,25.0607254 107.774154,25.2478756 C107.632,25.3675648 107.470462,24.8126425 107.315385,24.6537824 C107.125846,24.2185492 107.550154,24.8169948 107.623385,24.9889119 C107.772,24.8365803 107.485538,24.4535751 107.750462,24.3578238 C107.950769,24.4361658 108.168308,24.8431088 108.364308,24.688601 C108.525846,24.5710881 107.627692,24.1293264 108.192,24.2533679 C108.08659,24.1605323 107.997713,24.0501248 107.929231,23.926943 C107.877538,23.8268394 107.830154,23.7093264 107.692308,23.4655959 C107.719279,23.8187733 107.607025,24.1684107 107.38,24.438342 C107.257231,24.1445596 107.324,24.0879793 107.517846,24.1597927 C107.283903,24.0149022 107.148714,23.7509415 107.166769,23.4743005 C107.044,23.4068394 106.436615,23.2915026 106.815692,23.7354404 C106.537846,23.7833161 106.613231,23.611399 106.408615,23.3002073 C106.514154,23.1348187 106.652,23.2370984 106.770462,23.2066321 C106.477538,23.0717098 106.537846,22.9063212 106.318154,22.5994819 C105.844308,22.771399 106.169538,22.1642487 105.751692,22.2948187 C105.618154,22.1120207 105.331692,21.2829016 105.178769,21.6049741 C105.118462,21.3068394 104.801846,20.973886 104.556308,20.697513 C104.310769,20.4211399 104.108308,20.2231088 104.295692,20.1491192 C103.920923,19.7378238 103.716308,19.9010363 103.470769,19.9532642 C103.324846,19.7291529 103.195963,19.4941779 103.085231,19.2503627 C103.115385,19.5724352 103.035692,19.4026943 102.904308,19.1894301 C102.772923,18.9761658 102.572615,18.7411399 102.408923,18.9087047 C102.305538,18.6606218 101.943692,18.3690155 101.861846,18.1361658 C101.562462,17.9773057 101.928615,18.3537824 101.592615,18.2645596 C101.295385,17.9011399 101.161846,17.9729534 100.627692,17.5790674 C100.644923,17.1851813 100.556615,17.1220725 100.311077,16.6346114 C99.8953846,16.471399 100.250769,16.9305699 100.095692,17.0197927 C99.8048237,16.745378 99.4797126,16.5105403 99.1286154,16.3212435 C98.8499797,16.1607436 98.5265802,16.0979952 98.2089231,16.1427979 C97.8858462,15.8707772 97.7243077,15.7075648 97.3086154,15.618342 C97.3603077,15.5639378 97.4766154,15.6009326 97.5089231,15.5182383 C97.2396923,15.4290155 97.0996923,15.54 96.7636923,15.3876684 C96.7744615,15.237513 96.9467692,15.2984456 96.9941538,15.1961658 C96.5310769,15.0460104 96.1627692,15.2201036 96.1627692,14.8588601 C95.8827692,14.7587565 95.9107692,15.0242487 95.5489231,14.8262176 C95.5015385,14.608601 95.1332308,14.4823834 94.7390769,14.3670466 C94.5462288,14.3098291 94.3582399,14.2370563 94.1769231,14.1494301 C94.0208604,14.0870186 93.8887411,13.9756512 93.8,13.8317098 C93.7526154,14.0972021 93.4166154,13.9840415 92.9901538,14.0863212 C93.0138462,13.7620725 92.0295385,14.0036269 92.4495385,13.7098446 C90.216,13.374715 88.6436923,13.2746114 87.5430769,13.0265285 C87.3664615,13.0417617 87.4246154,13.1875648 87.4095385,13.2920207 C87.8553846,13.4117098 87.0692308,13.3638342 87.248,13.1179275 C86.9691234,13.188477 86.684263,13.2321954 86.3972308,13.2484974 C86.2635377,13.258889 86.1309592,13.2807291 86.0009231,13.3137824 C85.8707934,13.3536321 85.7489154,13.417046 85.6412308,13.5009326 C85.361601,13.3917249 85.0644082,13.3356544 84.7646154,13.335544 C84.3870725,13.3400979 84.0104511,13.3742941 83.6381538,13.4378238 C83.2620846,13.5148559 82.890372,13.6121976 82.5246154,13.7294301 C82.2347155,13.8346473 81.9519552,13.9589554 81.6781538,14.1015544 C81.5448042,14.0608316 81.4440567,13.9498622 81.4153846,13.8121244 C81.0686154,14.0493264 80.5215385,14.2473575 80.5689231,14.5541969 C80.1489231,14.4040415 80.4461538,14.3648705 79.9787692,14.6782383 C79.9076923,14.5411399 79.6987692,14.5302591 79.4252308,14.5890155 C79.1035895,14.6757717 78.7917564,14.7961088 78.4947692,14.9480829 C78.1695385,15.0917098 77.868,15.2853886 77.6332308,15.4007254 C77.3984615,15.5160622 77.2476923,15.5835233 77.2326154,15.526943 C77.0904615,15.6248705 77.2024615,15.644456 77.2756923,15.605285 C76.2200899,16.0667001 75.2252958,16.658797 74.3141538,17.3679793 C73.416,18.0512953 72.5609231,18.7781347 71.5593846,19.5071503 C71.624,19.5637306 71.7338462,19.4179275 71.8350769,19.3548187 C71.5421538,19.6768912 71.2815385,19.9619689 71.0230769,20.225285 C70.7646154,20.488601 70.5427692,20.7323316 70.2993846,20.9630052 C69.8298462,21.4417617 69.3473846,21.9031088 68.7916923,22.5429016 C68.8110769,22.6712953 68.9812308,22.7801036 68.5892308,23.3132642 C68.5892278,23.2067349 68.5367391,23.1071966 68.4492308,23.047772 C68.3781538,23.2240415 68.3738462,23.3676684 68.5073846,23.4394819 C67.4455385,24.3752332 66.7843077,25.7462176 66.4461538,26.9605181 C66.5452308,26.0900518 65.7483077,27.9506736 66.0541538,27.4632124 C65.8876397,27.7466618 65.760793,28.0520516 65.6772308,28.3706736 C65.6276923,28.5404145 65.5738462,28.7145078 65.5329231,28.8929534 L65.4101538,29.4369948 C65.3670769,29.6176166 65.3196923,29.7982383 65.268,29.9723316 C65.2264717,30.1460164 65.1761491,30.3174335 65.1172308,30.4859067 C65.0055023,30.800732 64.8432292,31.0948212 64.6369231,31.3563731 C64.6369231,32.0658031 64.3935385,33.3606218 64.2427692,34.820829 C64.2147692,35.1864249 64.1738462,35.5607254 64.148,35.9393782 C64.1221538,36.3180311 64.1156923,36.6966839 64.1006154,37.0688083 C64.0855385,37.4409326 64.1006154,37.8108808 64.1113846,38.1568912 C64.1221538,38.5029016 64.1544615,38.8489119 64.1781538,39.1666321 C64.0273846,39.2123316 63.9756923,39.007772 63.8163077,39.0687047 C63.8701538,39.4647668 64.1652308,39.2623834 64.3009231,39.4560622 C64.3075896,39.9909387 64.401463,40.5210481 64.5787692,41.0250777 C64.6419478,41.2257307 64.6753363,41.4347383 64.6778462,41.645285 C64.6758718,41.8622474 64.6187646,42.0750595 64.512,42.2633161 C65.016,42.537513 65.2163077,43.9215544 65.1021538,44.1935751 C65.2076923,44.3872539 65.2464615,44.1500518 65.2098462,43.9759585 C65.7483077,44.2871503 65.3563077,45.0945078 65.8021538,45.0640415 C65.8787864,45.5053421 66.001524,45.9371872 66.1683077,46.3523316 C66.3500958,46.7968151 66.5594339,47.2292788 66.7950769,47.6471503 C67.2516923,48.5176166 67.8203077,49.3402073 68.236,50.2063212 C68.2532308,50.0605181 68.3781538,50.2193782 68.5483077,50.4935751 C68.7184615,50.767772 68.9187692,51.1681865 69.1126154,51.4815544 C69.188,51.3988601 69.3,51.4532642 69.4335385,51.5903627 C69.5984962,51.7804784 69.753084,51.9795296 69.8966154,52.1866321 C70.0732308,52.4281865 70.252,52.7089119 70.4307692,52.9569948 C70.6095385,53.2050777 70.7904615,53.4292228 70.9326154,53.5859067 C71.3956923,54.0798964 72.1344615,54.4433161 72.7741538,54.9655959 C73.7218462,55.7446632 74.6975385,56.7718135 75.6409231,57.3289119 C75.9876923,57.5182383 76.3387692,57.6836269 76.6833846,57.8294301 C77.028,57.9752332 77.3833846,58.0731606 77.7129231,58.1841451 C78.3230063,58.3425833 78.9211371,58.5447535 79.5027692,58.7891192 C79.3627692,58.7194819 79.7461538,59.3418653 79.7892308,58.8892228 C80.0843077,59.1307772 80.5323077,59.2287047 80.9566154,59.3505699 C81.3809231,59.4724352 81.8181538,59.5573057 82.0809231,59.8075648 C82.4527357,59.7482073 82.8332321,59.7803061 83.1901538,59.9011399 C83.5308937,59.9912296 83.8631445,60.1113803 84.1830769,60.2602073 C86.5645446,60.4823892 88.9644536,60.3924201 91.3230769,59.9925389 C93.6390821,59.6000662 95.8875381,58.8745699 98,57.8381347 C99.0580697,57.3110178 100.07667,56.7066158 101.047692,56.0297409 C102.027508,55.3337683 102.952808,54.5625753 103.815385,53.7230052 C104.685669,52.8621707 105.47853,51.9249104 106.184615,50.9222798 C106.919356,49.9040453 107.55415,48.8158988 108.08,47.6732642 C108.758381,46.1703974 109.299101,44.6079127 109.695385,43.0053886 C110.108923,41.4102591 110.414769,39.8455959 110.787385,38.4180311 C111.16,38.5660104 111.125538,39.0491192 110.981231,39.6279793 C110.836923,40.2068394 110.535385,40.8727461 110.401846,41.4298446 C110.143385,42.6484974 109.908615,44.0412435 109.512308,45.4274611 C109.151791,46.7873613 108.575721,48.0793121 107.806462,49.2531606 C107.771641,49.4345019 107.720453,49.6122393 107.653538,49.7841451 C107.580647,49.9560753 107.497203,50.1232398 107.403692,50.2846632 C107.310188,50.4524045 107.208101,50.6151119 107.097846,50.7721244 C106.978667,50.9259067 106.855897,51.0804145 106.729538,51.2356477 C106.602462,51.3879793 106.475385,51.542487 106.339692,51.6926425 L105.926154,52.1278756 C105.656923,52.434715 105.376923,52.7284974 105.127077,53.0440415 C104.888,53.2899482 104.851385,53.4618653 105.012923,53.5684974 C104.330862,54.2963559 103.567617,54.941905 102.738462,55.492228 C102.342154,55.7794819 101.926462,56.0232124 101.534462,56.2843523 C101.142462,56.5454922 100.746154,56.778342 100.384308,57.0460104 C100.026769,57.2788601 99.7381538,57.5356477 99.4086154,57.7815544 C99.0722394,58.0419406 98.7115624,58.2686065 98.3316923,58.458342 C98.3316923,58.458342 98.4329231,58.2233161 98.3855385,58.2407254 C98.1860682,58.3088994 97.9963387,58.4032839 97.8212308,58.5214508 L97.4012308,58.7564767 C97.2569231,58.8413472 97.0996923,58.9240415 96.9403077,59.0067358 C96.6247844,59.1823592 96.2938307,59.32806 95.9516923,59.4419689 C95.6649495,59.5471318 95.360396,59.593732 95.0556923,59.5790674 C94.8893565,59.7311803 94.6945507,59.8480912 94.4827692,59.9229016 C94.2475363,60.0128989 94.0045461,60.0806504 93.7569231,60.125285 C93.5027692,60.1796891 93.24,60.2362694 92.9901538,60.3167876 C92.738248,60.3833292 92.4978481,60.4882641 92.2772308,60.6279793 C92.1396179,60.5988642 92.0123575,60.5326949 91.9089231,60.4364767 C91.9089231,60.5605181 91.2929231,60.8151295 91.6224615,60.5822798 C90.7932308,60.6823834 89.8864615,60.834715 88.9150769,60.8912953 L88.1741538,60.9326425 C87.9243077,60.9326425 87.6723077,60.9326425 87.416,60.9217617 C86.8955115,60.9070664 86.3766427,60.8561688 85.8630769,60.7694301 C85.5098462,60.8717098 85.2449231,61.1241451 84.9283077,60.782487 C84.6375385,61.0653886 83.9009231,60.9435233 83.1470769,60.7629016 C82.7701538,60.6584456 82.3910769,60.545285 82.0486154,60.4582383 C81.7713381,60.361798 81.4803196,60.3118122 81.1870769,60.3102591 C81.2775385,60.2188601 81.4196923,60.1796891 81.6803077,60.2493264 C81.4153846,60.0687047 80.9523077,60.1318135 80.6593846,59.8010363 C80.7972308,59.9577202 79.8990769,59.942487 79.7633846,59.5311917 C79.548,59.8750259 78.9018462,59.0959585 78.8006154,59.4702591 C78.5198268,59.4678766 78.2578048,59.3273872 78.0984615,59.0937824 C77.9412308,58.9022798 77.8227692,58.695544 77.6095385,58.6084974 C77.3166154,58.4779275 76.7695385,58.8674611 76.6230769,58.1449741 C76.3581538,58.0296373 76.4076923,58.3756477 76.1923077,58.3234197 C75.9252725,58.1007909 75.6287664,57.9169419 75.3113846,57.7772021 C75.0467185,57.6634074 74.7892094,57.5333186 74.5403077,57.3876684 C74.7815385,57.1112953 74.032,57.1809326 74.5403077,57.0764767 C74.1477491,56.9435897 73.7858328,56.7318879 73.4763077,56.4540933 C73.1209231,56.1450777 72.7569231,55.8012435 72.4144615,55.4617617 C72.324,55.9796891 72.0612308,55.2441451 71.7855385,55.518342 C71.473134,55.3243895 71.2051494,55.0654969 70.9993846,54.7588601 C70.8658792,54.551858 70.7635326,54.3259756 70.6956923,54.088601 C70.4178462,53.8231088 70.4803077,54.2888083 70.6418462,54.3976166 C70.4006154,54.4672539 70.5190769,53.9406218 70.0172308,53.6642487 C70.6396923,53.9384456 69.9246154,53.5271503 70.1443077,53.2943005 C69.8018462,52.933057 69.3064615,53.0984456 69.6101538,52.7197927 C69.3947692,52.4891192 69.3021538,52.7437306 69.0630769,52.3759585 C69.2676923,52.4412435 69.2009231,52.3259067 69.2526154,52.1931606 C69.104,52.2366839 68.4384615,51.6425907 68.6301538,52.1300518 C68.0895385,51.7405181 67.2495385,50.2193782 67.3378462,50.1149223 C67.1590769,49.8537824 67.0298462,50.0909845 66.8381538,49.6796891 C66.8704615,49.1769948 66.6636923,49.0964767 66.3233846,48.4915026 C66.4655385,48.4240415 66.3858462,48.221658 66.5387692,48.1650777 C66.2630769,47.7820725 66.4526154,48.3957513 66.2415385,48.352228 L65.9356923,47.7951295 C66.1510769,47.8343005 66.0541538,47.7037306 65.9572308,47.5557513 C65.8603077,47.407772 65.7827692,47.2315026 66.0196923,47.1988601 C65.3153846,46.186943 65.4101538,46.7940933 65.296,45.6298446 C65.1481845,45.4229124 65.0272974,45.1976484 64.9363077,44.9595855 C64.6059519,44.1904862 64.3575778,43.3880364 64.1953846,42.5658031 C64.1223968,42.238569 64.0834164,41.904531 64.0790769,41.5691192 C63.6612308,41.4363731 63.812,40.7204145 63.4027692,40.4288083 C63.2912466,39.3620476 63.2617223,38.2881583 63.3144615,37.2167876 L63.5772308,37.1950259 C63.3833846,36.8881865 63.6073846,36.881658 63.6483077,36.5595855 C63.364,36.3811399 63.588,37.0753368 63.3036923,36.8990674 C63.4216532,36.5873011 63.5012246,36.2620629 63.5406154,35.9306736 C63.595041,35.5943963 63.6281342,35.2549476 63.6396923,34.9144041 C63.6396923,34.5749223 63.6633846,34.2441451 63.6612308,33.9351295 C63.6590769,33.626114 63.6418462,33.3410363 63.6483077,33.0994819 C63.8938462,32.8318135 64.1523077,32.1528497 63.8335385,31.8460104 C63.9776344,31.68848 64.0785951,31.4957168 64.1264615,31.2867358 C64.1609231,31.1692228 64.1910769,31.0451813 64.2169231,30.9189637 C64.2427692,30.7927461 64.2815385,30.6621762 64.3116923,30.5359585 C64.3624588,30.3012521 64.4345595,30.0717812 64.5270769,29.8504663 C64.5885385,29.6800983 64.7270957,29.5498158 64.8996923,29.5001036 C64.7295385,29.5719171 64.5249231,28.7797927 64.9513846,28.7079793 C64.9793846,28.2858031 65.0375385,28.2248705 64.7144615,28.3119171 C65.0073846,28.0377202 65.2184615,27.8570984 65.2701538,28.3119171 C65.2467495,28.0348096 65.2546983,27.7559093 65.2938462,27.4806218 C65.3490862,27.1555764 65.4319571,26.8359476 65.5415385,26.525285 C65.6455854,26.2168156 65.7904914,25.9240004 65.9723077,25.6548187 C66.1056825,25.4305516 66.2931667,25.2441195 66.5172308,25.1129534 C66.3643077,25.082487 66.7541538,24.242487 66.5,24.5819689 C66.2329231,24.5036269 66.9092308,24.2794819 66.6421538,24.1227979 C67.0190769,23.8855959 66.5947692,24.9366839 66.8273846,25.0890155 C66.8816257,24.9184631 66.8992483,24.7381852 66.8790769,24.5602073 C66.8802124,24.4618028 66.8991927,24.3644424 66.9350769,24.2729534 C67.0014606,24.1299668 67.087773,23.9973245 67.1913846,23.8790674 C67.1138462,23.8442487 67.0341538,24.0139896 66.9544615,24.1075648 C66.7261538,23.9204145 67.2926154,23.3372021 67.5036923,23.52 C67.6113846,23.2871503 67.7535385,23.0521244 67.8504615,22.8671503 L68.0184615,22.5603109 C68.2338462,22.2186528 68.3996923,22.299171 68.6107692,22.0184456 C68.7636923,21.8225907 68.5698462,21.6136788 68.8864615,21.2023834 C68.6969231,21.4809326 69.6015385,20.9673575 69.4873846,20.7323316 C69.6424615,20.7802073 69.5433846,20.9281865 69.4335385,21.0826943 C69.6252308,21.1740933 69.7846154,20.6278756 69.7523077,20.5451813 C70.0883077,20.2405181 69.7027692,20.8106736 69.86,20.8280829 C70.0344615,20.6104663 70.1529231,20.4059067 70.1292308,20.2535751 C70.4695385,19.9880829 70.1787692,20.6888083 70.6009231,20.2535751 C70.4329231,20.1578238 70.5621538,20.0903627 70.7129231,19.9924352 C70.8636923,19.8945078 71.0532308,19.7878756 70.9907692,19.5789637 C70.8227692,19.5289119 70.7172308,19.6638342 70.6289231,19.7769948 C70.5406154,19.8901554 70.4781538,19.9946114 70.3704615,19.8509845 C70.6741538,19.6464249 71.0596923,19.215544 71.3569231,19.0762694 C71.2334997,19.0586982 71.1085939,19.0960027 71.0144615,19.1785492 C71.1415385,18.9043523 71.5550769,18.5256995 71.9815385,18.2275648 C72.408,17.9294301 72.8710769,17.7292228 73.0778462,17.7640415 C73.0067692,17.7270466 73.0778462,17.6617617 73.1381538,17.5986528 C72.9726643,17.6244192 72.8134097,17.6812525 72.6686154,17.7662176 C72.6807655,17.5714789 72.7229134,17.3798479 72.7935385,17.1982383 C73.1467692,17.0197927 73.724,16.9240415 73.6227692,17.2221762 C73.7110769,17.1307772 73.6895385,17.0589637 73.8123077,16.9632124 C73.6098462,16.8478756 73.2178462,17.180829 73.108,16.8413472 C73.8941538,16.6454922 73.8424615,16.4365803 74.004,16.708601 C74.6824615,16.2994819 73.7886154,16.3560622 74.4089231,16.2124352 C74.4283077,16.288601 74.508,16.2429016 74.5898462,16.1928497 C74.6350769,16.2646632 74.4735385,16.3582383 74.3852308,16.4409326 C74.5015385,16.5584456 74.8483077,16.1863212 74.9969231,16.2233161 C74.732,16.2603109 74.8633846,15.9752332 75.0895385,15.7467358 C75.3156923,15.5182383 75.6129231,15.3115026 75.6344615,15.5095337 C75.7809231,15.4007254 75.6581538,15.3049741 75.6236923,15.2048705 C75.8778462,15.2701554 76.6273846,14.5367876 76.6230769,15.0394819 C76.7286154,14.6978238 77.0086154,14.582487 77.3123077,14.4758549 C77.6403829,14.3930364 77.9388759,14.2188704 78.1738462,13.9731606 C78.4301538,14.0645596 78.7424615,13.925285 79.0224615,13.8143005 C79.3024615,13.7033161 79.5523077,13.6402073 79.6492308,13.8382383 C79.8448435,13.6544631 80.0976654,13.5452079 80.3643077,13.5292228 C80.6636923,13.4965803 80.9609231,13.5422798 81.0750769,13.7141969 C81.2317738,13.5296174 81.4338379,13.3900093 81.6609231,13.3094301 C81.8760492,13.2382061 82.0964345,13.184358 82.32,13.1483938 C82.5847707,13.1094479 82.8466828,13.0527423 83.104,12.9786528 C83.2614091,12.929627 83.4153943,12.8700119 83.5649231,12.8002073 C83.7471387,12.7252733 83.9241544,12.6380294 84.0947692,12.5390674 C84.3252308,12.5390674 85.9470769,12.4607254 86.3972308,12.1778238 C86.1021538,12.5978238 86.9184615,12.6587565 87.2221538,12.7479793 C87.1876923,12.5303627 86.9723077,12.4150259 86.576,12.4302591 C87.1489231,12.284456 87.7692308,12.3497409 88.2667692,12.2126425 C88.508,12.271399 88.4649231,12.3410363 88.3464615,12.3649741 C88.2150455,12.4087567 88.0708126,12.386088 87.9587692,12.3040415 C88.0793846,12.5760622 88.0729231,12.4737824 87.9781538,12.7392746 C88.0018462,12.6369948 88.1676923,12.613057 88.3206154,12.5825907 C88.4735385,12.5521244 88.6113846,12.5260104 88.5812308,12.3910881 C89.5246154,12.6087047 89.4664615,12.4803109 89.9553846,12.8263212 C90.1406154,12.586943 90.3861538,12.652228 90.6209231,12.7131606 C90.8556923,12.7740933 91.0624615,12.8546114 91.2003077,12.6043523 C91.3316923,12.678342 91.4630769,12.7501554 91.5083077,12.6478756 C91.6363538,12.7361735 91.7694014,12.8168294 91.9067692,12.8894301 C92.0446486,12.9674487 92.1887398,13.0336896 92.3375385,13.0874611 C92.624,13.1788601 92.8867692,13.1658031 93.0310769,12.9177202 C93.2852308,13.0482902 93.5264615,13.2049741 93.4015385,13.4552332 C93.7289231,13.5226943 93.7655385,13.3159585 93.7870769,13.0961658 L94.3169231,13.3464249 C94.4784615,13.4334715 94.6335385,13.5118135 94.8015385,13.5836269 C94.9841655,13.6632875 95.1719921,13.7301806 95.3636923,13.7838342 C95.5790769,13.8512953 95.816,13.9231088 96.1110769,13.9883938 C95.3550769,14.1929534 96.8606154,14.2255959 96.292,14.4236269 C96.6,14.5541969 96.7658462,14.5389637 96.8046154,14.3431088 C96.9984615,14.7565803 97.5476923,14.6129534 97.8707692,14.9959585 C98.0043077,14.713057 98.5578462,15.1678756 98.3898462,14.9502591 C98.4824615,14.8588601 98.7732308,15.0460104 98.98,15.1482902 C98.8033846,15.312228 98.9024615,15.4645596 99.2772308,15.605285 C99.1695385,15.6705699 99.0252308,15.6770984 98.7947692,15.5487047 C98.7624615,15.7053886 99.5378462,15.9839378 99.5486154,15.7510881 C99.9147692,15.894715 100.259385,16.6454922 100.474769,16.301658 C100.634154,16.4822798 100.817231,16.6846632 100.690154,16.8565803 C100.595385,16.773886 100.608308,16.695544 100.474769,16.6128497 C100.464,16.6890155 100.556615,16.7717098 100.513538,16.8478756 C100.744,16.9784456 100.877538,16.9109845 100.944308,16.7151295 C101.159692,17.0720207 101.637846,16.9545078 101.484923,17.2939896 C101.657231,17.3723316 101.799385,17.3853886 101.876923,17.2548187 C102.073148,17.4582102 102.289687,17.6405292 102.523077,17.7988601 C102.763094,17.9763682 103.020799,18.1280715 103.292,18.2515026 C103.425538,18.3777202 103.292,18.4691192 103.251077,18.558342 C103.447077,18.7324352 103.589231,18.7759585 103.705538,18.7280829 C103.920923,18.9304663 103.602154,19.0240415 103.882154,19.241658 C103.905846,18.965285 105.320923,19.9750259 105.079692,20.4298446 C105.370462,20.3123316 105.094769,20.4603109 105.596615,20.9956477 C105.654769,20.9064249 105.460923,20.7366839 105.348923,20.593057 C105.547115,20.6232076 105.712732,20.7612572 105.779692,20.9521244 C105.84015,21.1279467 105.912104,21.2995163 105.995077,21.4656995 C106.236308,21.800829 106.264308,21.0304663 106.552923,21.5875648 C106.386889,21.5404766 106.210244,21.6118666 106.122154,21.761658 C106.147504,21.8611487 106.196272,21.9529773 106.264308,22.0293264 C106.335385,22.1294301 106.425846,22.246943 106.509846,22.351399 C106.68,22.5690155 106.828615,22.8149223 106.759692,23.0173057 C107.263692,23.0673575 107.190462,23.533057 107.502769,23.7941969 C107.431752,23.4838531 107.334471,23.1802492 107.212,22.8867358 C107.394707,22.988649 107.517445,23.173448 107.541538,23.3829016 C107.756923,23.2827979 107.255077,22.8432124 107.556615,22.784456 C107.888308,23.4634197 108.788615,24.3969948 108.820923,24.9606218 C108.822099,24.9765582 108.822099,24.992561 108.820923,25.0084974 C108.329846,24.4426943 108.797231,25.265285 108.820923,25.0084974 L108.898462,25.0977202 C109.228,25.4785492 109.449846,26.2554404 109.434769,26.9387565 C109.490769,26.88 109.531692,26.958342 109.574769,27.0432124 C109.625349,26.8197578 109.586651,26.5851643 109.467077,26.3903627 C109.820308,26.5100518 109.826769,27.2194819 109.557538,27.2194819 C109.708308,27.4784456 109.910769,27.182487 110.042154,27.6786528 C109.869846,27.8832124 109.76,27.4610363 109.600615,27.5415544 C109.727692,28.0072539 109.960308,27.5850777 110.050769,28.1944041 C110.128308,28.1574093 110.050769,27.9767876 110.022769,27.8658031 C110.317846,28.126943 110.18,28.4011399 110.488,28.8581347 C110.242462,28.9517098 110.272615,29.2933679 110.141231,29.4935751 C110.322154,29.8134715 110.214462,29.0104663 110.587077,29.1584456 C110.477231,29.386943 110.32,29.6698446 110.729231,29.6067358 C110.89506,29.8756982 110.940446,30.2030185 110.854154,30.5076684 C110.800308,30.738342 110.731385,30.9059067 110.864923,31.0430052 C110.742154,31.6653886 110.397538,30.6230052 110.106769,30.9472539 Z M78.2298462,14.4562694 C78.1113846,14.4867358 77.952,14.5781347 77.9089231,14.5063212 C77.9864615,14.4693264 78.0338462,14.3648705 77.8701538,14.4279793 C77.9326154,14.5846632 77.3209231,14.6238342 77.1313846,14.6978238 C77.1830769,14.8588601 77.3833846,14.7892228 77.4393846,14.9372021 C77.364,14.9763731 77.3187692,15.0786528 77.4824615,15.015544 C77.4824615,14.9393782 77.5492308,14.8675648 77.7150769,14.7979275 C77.7366154,14.8414508 77.8723077,14.8327461 77.8529231,14.7282902 C77.6935385,14.7848705 77.4523077,14.7674611 77.6375385,14.6412435 C77.6375385,14.7979275 78.2772308,14.6521244 78.2276923,14.4562694 L78.2298462,14.4562694 Z M98.5987692,15.6531606 C97.9181538,15.0699482 97.6769231,16.038342 98.3187692,15.9034197 C98.224,15.8337824 98.0538462,15.7750259 98.0861538,15.6858031 C98.1227692,15.487772 98.5147692,15.7924352 98.5966154,15.6531606 L98.5987692,15.6531606 Z M102.475692,18.046943 C102.393846,17.955544 102.380923,17.8750259 102.458462,17.8053886 C102.243077,17.6160622 102.128923,17.6856995 101.915692,17.5116062 C101.577538,17.5943005 102.419692,18.1666321 102.475692,18.0447668 L102.475692,18.046943 Z M105.006462,20.4951295 C104.870769,20.3449741 105.019385,20.277513 104.920308,20.1425907 C104.562769,20.0751295 104.883692,20.238342 104.842769,20.4450777 C104.701725,20.3325427 104.520664,20.284443 104.343077,20.3123316 C104.504615,20.5103627 104.623077,20.5843523 104.726462,20.5952332 C104.828276,20.5925763 104.926505,20.5566948 105.006462,20.4929534 L105.006462,20.4951295 Z" id="形状" fill="#EFEFEF" fill-rule="nonzero"></path>
                            <path d="M106.378462,21.9401036 C106.731956,22.1593585 107.014801,22.4776432 107.192615,22.8562694 C107.416615,22.4340933 106.331077,21.5266321 106.378462,21.9401036 Z" id="路径" fill="#EFEFEF" fill-rule="nonzero"></path>
                            <polygon id="路径" fill="#EFEFEF" fill-rule="nonzero" points="107.186154 22.8715026 107.205538 22.8867358 107.192615 22.8562694"></polygon>
                            <path d="M111.625231,38.4789637 C111.644615,38.2939896 111.625231,38.0437306 111.730769,38.0089119 C111.922462,38.2417617 111.541231,38.5050777 111.885846,38.4854922 C111.876661,38.2679469 111.914896,38.0510193 111.997846,37.8500518 C111.868615,37.8239378 111.672615,37.9066321 111.653231,37.6933679 C111.653231,37.5366839 111.730769,37.5062176 111.752308,37.3778238 C111.321538,37.3778238 111.646769,38.1634197 111.455077,38.3179275 C111.338769,37.9545078 111.511077,37.6476684 111.396923,37.5410363 C111.321538,38.0045596 111.216,37.393057 111.048,37.5410363 C111.138462,38.0067358 111.200923,38.5464249 111.625231,38.4789637 Z" id="路径" fill="#EFEFEF" fill-rule="nonzero"></path>
                            <path d="M49.8313846,12.4890155 C49.7193846,12.5325389 49.6612308,12.6239378 49.6590769,12.3388601 C49.7861538,12.3997927 49.8378462,12.1952332 49.9627692,12.4846632 C50.0209231,12.2278756 49.8227692,12.4302591 49.8787692,12.1756477 C49.9347692,12.1756477 49.9390769,12.271399 50.0101538,12.2474611 C50.0230769,12.1974093 50.1221538,11.9340933 50.0101538,11.9319171 C49.9283077,12.1081865 49.9326154,11.9928497 49.9433846,11.812228 C49.9476829,11.6386771 49.968601,11.4659543 50.0058462,11.2964767 C49.868,11.2964767 49.8550769,11.0788601 49.8464615,10.8612435 C49.8378462,10.6436269 49.8055385,10.4260104 49.6935385,10.4782383 C49.7193846,10.2845596 49.7215385,10.2758549 49.7775385,10.2214508 C49.7236923,10.2214508 49.7344615,10.1409326 49.7495385,10.066943 C49.6310769,9.9842487 49.6246154,10.2997927 49.5772308,10.106114 C49.7344615,10.0625907 49.5255385,9.80797927 49.6052308,9.77968912 C49.6342939,9.85983502 49.6781466,9.9336803 49.7344615,9.9973057 C49.7193846,9.75357513 49.6375385,9.72746114 49.6030769,9.54683938 C49.6504615,9.51419689 49.672,9.39233161 49.6030769,9.38145078 C49.6181538,9.4815544 49.5901538,9.55336788 49.5169231,9.56860104 C49.5169231,9.84062176 49.6095385,9.88632124 49.5621538,10.0364767 C49.5406154,9.8188601 49.3898462,10.0038342 49.3467692,9.85367876 C49.3230769,9.5642487 49.4975385,9.87326425 49.4738462,9.58165803 C49.3833846,9.62082902 49.3295385,9.55772021 49.2864615,9.39668394 C49.0129231,9.39668394 49.3898462,10.184456 49.4178462,10.460829 C49.4286154,10.5761658 49.3209231,10.460829 49.4889231,10.6022798 C49.4049231,10.946114 49.4716923,10.7916062 49.5772308,10.9744041 C49.4867692,11.0875648 49.6181538,11.3051813 49.4867692,11.4466321 C49.5147692,11.6033161 49.5944615,11.3204145 49.6310769,11.5837306 C49.5780587,11.6270677 49.5378285,11.6842747 49.5147692,11.7491192 C49.7107692,11.9384456 49.5298462,11.6533679 49.6806154,11.655544 C49.6418462,11.8731606 49.6806154,11.9101554 49.7301538,11.9145078 C49.7796923,11.9188601 49.8572308,11.8992746 49.8744615,12.0298446 C49.7710769,12.1364767 49.7926154,12.0298446 49.6590769,12.1190674 C49.7107692,12.0059067 49.7086154,11.9297409 49.6181538,11.9014508 C49.5824149,12.0003093 49.5663132,12.1053159 49.5707692,12.2104663 C49.7344615,12.0341969 49.5707692,12.980829 49.8313846,12.4890155 Z" id="路径" fill="#EFEFEF" fill-rule="nonzero"></path>
                            <path d="M49.1464615,9.35751295 C49.0193846,8.92227979 49.1464615,8.95927461 48.9547692,8.70466321 L49.0796923,8.65896373 C48.9806154,8.53056995 48.888,8.1453886 48.7393846,8.22373057 C48.8966154,8.15626943 48.6963077,7.93430052 48.9547692,7.96041451 C48.7975385,7.75803109 48.7544615,7.78414508 48.664,7.59046632 C48.6187692,7.63834197 48.7027692,7.78196891 48.7372308,7.8907772 C48.6510769,7.93647668 48.5778462,7.87772021 48.5218462,7.76891192 C48.4658462,7.66010363 48.4076923,7.49471503 48.3258462,7.34673575 C48.4830769,7.43160622 48.3603077,7.30756477 48.4055385,7.21834197 C48.3236923,7.09865285 48.2267692,7.30756477 48.1535385,7.01595855 C48.2138462,7.03772021 48.272,7.1465285 48.3366154,7.08341969 C48.3366154,6.99637306 48.3366154,6.90932642 48.3366154,6.81792746 C48.2095385,6.58072539 48.2870769,7.03554404 48.188,6.81792746 C48.1906558,6.63626506 48.1355436,6.45853605 48.0307692,6.31088083 C47.964,6.35222798 47.9704615,6.41751295 47.9963077,6.51326425 C47.9273846,6.57202073 47.8412308,6.29564767 47.7615385,6.21948187 C47.6624615,6.00186528 47.8821538,6.29782383 47.9209231,6.3826943 C47.9941538,6.30870466 47.8455385,6.11937824 47.9790769,6.07150259 C48.0803077,6.11067358 48.1944615,6.30870466 48.2913846,6.23253886 C48.3883077,6.15637306 47.9144615,5.95834197 48.2009231,6.01492228 C48.0436923,5.86694301 48.0781538,5.86476684 47.9467692,5.62321244 C47.9587683,5.79910446 47.9032289,5.97290466 47.7916923,6.10849741 C47.7270769,5.96487047 47.7615385,5.93658031 47.8584615,5.97139896 C47.7399269,5.89935052 47.6735414,5.76435466 47.6883077,5.6253886 C47.628,5.59056995 47.3286154,5.53181347 47.5116923,5.75813472 C47.3738462,5.77989637 47.4126154,5.69284974 47.3135385,5.54051813 C47.3673846,5.45782383 47.4363077,5.51005181 47.4944615,5.49481865 C47.348,5.42518135 47.376,5.34683938 47.264,5.19450777 C47.0249231,5.2815544 47.1821538,4.97689119 46.9775385,5.04435233 C46.9129231,4.95295337 46.7772308,4.5307772 46.6975385,4.69398964 C46.6307692,4.39803109 46.0664615,4.0411399 46.2516923,3.96932642 C46.0686154,3.75170984 45.9673846,3.84093264 45.8446154,3.86704663 C45.7694805,3.75803114 45.7032124,3.64304346 45.6464615,3.52321244 C45.6830769,3.84310881 45.4763077,3.18590674 45.3083077,3.35129534 C45.2587692,3.22507772 45.0929231,3.07274611 45.0390769,2.96176166 C44.8861538,2.88559585 45.0735385,3.07056995 44.9033846,3.02704663 C44.7526154,2.84860104 44.6750769,2.89212435 44.4187692,2.6853886 C44.4187692,2.48953368 44.3886154,2.45253886 44.2658462,2.20880829 C44.0504615,2.13264249 44.2356923,2.35678756 44.156,2.40031088 C43.8630769,2.15222798 43.4603077,1.90414508 43.2147692,1.96507772 C43.0916734,1.83617863 42.9322179,1.74878524 42.7581538,1.71481865 C42.784,1.6865285 42.8443077,1.70393782 42.8593846,1.66259067 C42.7236923,1.62341969 42.6547692,1.67564767 42.4889231,1.59512953 C42.4889231,1.51896373 42.5793846,1.55160622 42.6030769,1.5015544 C42.3747692,1.42103627 42.1916923,1.5015544 42.1916923,1.32310881 C42.0495385,1.27958549 42.0646154,1.40797927 41.8815385,1.32310881 C41.8578462,1.21865285 41.6661538,1.15989637 41.4766154,1.0946114 C41.3808836,1.06522861 41.287907,1.02736131 41.1987692,0.981450777 C41.1214649,0.950696946 41.0553248,0.896780938 41.0092308,0.826943005 C40.9855385,0.959689119 40.8153846,0.90746114 40.6021538,0.961865285 C40.6021538,0.803005181 40.124,0.909637306 40.3329231,0.768186528 C40.0757076,0.720279272 39.8161663,0.686138407 39.5553846,0.665906736 C39.3170256,0.639792746 39.0973333,0.609326425 38.8963077,0.574507772 C38.5544379,0.554730567 38.214965,0.504483519 37.8818462,0.424352332 C37.7935385,0.424352332 37.8215385,0.502694301 37.8150769,0.55492228 C38.0304615,0.62238342 37.6449231,0.587564767 37.7332308,0.465699482 C37.4424615,0.557098446 37.1581538,0.500518135 36.932,0.665906736 C36.7951169,0.609191235 36.6491311,0.578216531 36.5012308,0.574507772 C36.3125753,0.581686926 36.1246908,0.602779313 35.9390769,0.63761658 C35.7509507,0.671940255 35.5647441,0.716250322 35.3812308,0.770362694 C35.2333192,0.82632147 35.0893902,0.892487818 34.9504615,0.968393782 C34.8850359,0.946720662 34.8363885,0.890904546 34.8233846,0.822590674 C34.6489231,0.935751295 34.3732308,1.02497409 34.3926154,1.17948187 C34.1772308,1.10331606 34.3301538,1.08373057 34.0996923,1.24694301 C34.0286154,1.10984456 33.684,1.23388601 33.3566154,1.37751295 C33.2088347,1.44694107 33.0650196,1.52467945 32.9258462,1.61036269 C32.8116923,1.67129534 32.7341538,1.70611399 32.7276923,1.67782383 C32.6566154,1.72569948 32.7126154,1.73440415 32.7492308,1.71481865 C32.2194169,1.94032972 31.7200484,2.23281863 31.2630769,2.58528497 C31.0476923,2.76373057 30.8323077,2.94217617 30.5953846,3.11409326 L30.4209231,3.24248705 L30.2507692,3.38393782 C30.1366154,3.47751295 30.0181538,3.56891192 29.8910769,3.66031088 C29.9233846,3.68860104 29.9815385,3.61896373 30.0310769,3.58632124 C29.8824615,3.74518135 29.7489231,3.88227979 29.6175385,4.00632124 C29.4861538,4.13036269 29.3827692,4.26528497 29.2643077,4.38279793 C29.1458462,4.50031088 29.0252308,4.61782383 28.896,4.74186528 C28.7587021,4.8800461 28.6285791,5.02531837 28.5061538,5.17709845 C28.5169231,5.24020725 28.6073846,5.29678756 28.4027692,5.56010363 C28.404862,5.50660415 28.3786015,5.45602626 28.3338462,5.42735751 C28.2972308,5.51440415 28.2929231,5.58404145 28.3596923,5.62103627 C27.8603387,6.09886037 27.5055516,6.7101353 27.3366154,7.38373057 C27.3947692,6.94849741 26.9726154,7.87119171 27.1212308,7.63181347 C27.0356716,7.77211679 26.973802,7.92581972 26.9381538,8.08663212 C26.8950769,8.25854922 26.8498462,8.43917098 26.8024615,8.61979275 C26.7787692,8.70901554 26.7529231,8.79823834 26.7270769,8.88528497 C26.7079538,8.97210527 26.6842273,9.05782469 26.656,9.14207254 C26.6074132,9.30158499 26.5275741,9.44959675 26.4212308,9.5773057 C26.3953846,9.92766839 26.3178462,10.5805181 26.2058462,11.3073575 C26.18,11.6751295 26.1563077,12.0603109 26.1304615,12.4324352 C26.1433846,12.8045596 26.1563077,13.1658031 26.1735385,13.4835233 C26.0981538,13.5074611 26.0744615,13.4051813 25.9947692,13.4356477 C26.0163077,13.6336788 26.1649231,13.5335751 26.2316923,13.6293264 C26.2456412,13.8960917 26.2956433,14.1596751 26.3803077,14.4127461 C26.4082754,14.5140347 26.4220505,14.6187847 26.4212308,14.7239378 C26.4203582,14.8317446 26.3937598,14.9377478 26.3436923,15.0329534 C26.6107692,15.1635233 26.6883077,15.8620725 26.6323077,15.999171 C26.6883077,16.0927461 26.7055385,15.9752332 26.6861538,15.8925389 C26.9596923,16.0470466 26.7723077,16.4474611 26.9941538,16.4278756 C27.0259552,16.6518215 27.0845373,16.8710405 27.1686154,17.0807254 C27.2612308,17.298342 27.384,17.5159585 27.4852308,17.7335751 C27.5433846,17.8423834 27.5950769,17.9511917 27.6596923,18.06 L27.8556923,18.3733679 C27.9838536,18.5835528 28.0989477,18.8015906 28.2003077,19.0262176 C28.2110769,18.8847668 28.4630769,19.3352332 28.644,19.6573057 C28.6827692,19.6181347 28.7366154,19.6442487 28.8012308,19.713886 C28.8658462,19.7835233 28.9390769,19.8988601 29.0316923,20.0141969 C29.2104615,20.251399 29.4107692,20.553886 29.5486154,20.7127461 C29.7769231,20.9630052 30.1624615,21.1262176 30.4704615,21.4047668 C30.9550769,21.7768912 31.4246154,22.3187565 31.9092308,22.575544 C32.0747518,22.6729225 32.2459343,22.7601274 32.4218462,22.8366839 C32.6006154,22.8976166 32.7772308,22.9520207 32.9430769,23.0020725 C33.1089231,23.0521244 33.2683077,23.1021762 33.4169231,23.1565803 C33.5655385,23.2109845 33.7098462,23.2479793 33.8347692,23.3089119 C33.7636923,23.2762694 33.9575385,23.5809326 33.9790769,23.3567876 C34.1585145,23.468955 34.3549794,23.5505609 34.5606154,23.598342 C34.7629711,23.6253035 34.9562485,23.699838 35.1249231,23.8159585 C35.3106889,23.7886376 35.5002703,23.8088397 35.6763077,23.874715 C35.846346,23.9178771 36.0127168,23.9746364 36.1738462,24.044456 C37.3633688,24.1616048 38.5630927,24.1162221 39.7406154,23.9095337 C40.8983411,23.7178236 42.0208822,23.3510145 43.0704615,22.8214508 L43.4646154,22.6212435 L43.6627692,22.5233161 L43.848,22.4036269 L44.5996923,21.9270466 C45.0850782,21.5748136 45.5436923,21.1863712 45.9716923,20.7649741 L46.2990769,20.4472539 C46.4003077,20.3340933 46.4972308,20.2144041 46.5963077,20.0968912 L46.8892308,19.7443523 L47.0378462,19.5659067 L47.1670769,19.372228 C47.3393846,19.1132642 47.5138462,18.8564767 47.6818462,18.5909845 L48.1126154,17.7488083 C48.2026368,17.5661596 48.281052,17.3779028 48.3473846,17.1851813 C48.4206154,16.9936788 48.496,16.8021762 48.5627692,16.6084974 C48.6898462,16.2124352 48.7932308,15.8076684 48.9181538,15.4181347 C48.9978462,15.0133679 49.0990769,14.621658 49.1981538,14.2386528 C49.2630388,13.8617673 49.352255,13.4895738 49.4652308,13.124456 C49.6483077,13.1962694 49.6246154,13.4378238 49.5470769,13.7272539 C49.4695385,14.0166839 49.3446154,14.3518135 49.2649231,14.6281865 C49.1852308,14.9045596 49.1464615,15.2614508 49.0710769,15.5965803 C48.9956923,15.9317098 48.9095385,16.2777202 48.8255385,16.6280829 C48.7415385,16.9784456 48.5929231,17.3092228 48.4658462,17.64 C48.3298121,17.9363535 48.1736442,18.2228408 47.9984615,18.4974093 C47.9836848,18.5890411 47.9591314,18.678787 47.9252308,18.7650777 C47.8876896,18.8498963 47.8445142,18.9320527 47.796,19.0109845 C47.6941911,19.1769334 47.5819611,19.3361197 47.46,19.4875648 C47.3975385,19.5637306 47.3372308,19.6442487 47.2704615,19.7182383 L47.0550769,19.9358549 C46.9137392,20.0819104 46.7807055,20.2359396 46.6566154,20.3972021 C46.5424615,20.5212435 46.5230769,20.6148187 46.6049231,20.6605181 C46.4283077,20.8389637 46.2409231,21.0087047 46.0513846,21.1697409 L45.7649231,21.4091192 C45.6658462,21.4831088 45.5495385,21.5462176 45.4569231,21.6158549 C45.2523077,21.7507772 45.052,21.8813472 44.8581538,22.0162694 C44.6643077,22.1511917 44.4596923,22.2556477 44.2766154,22.3862176 C44.0935385,22.5167876 43.9556923,22.640829 43.7963077,22.7648705 C43.6238126,22.8903608 43.4407515,23.0003162 43.2492308,23.0934715 C43.2492308,23.0934715 43.2987692,22.9737824 43.2750769,22.9803109 C43.1766824,23.0167321 43.0833079,23.0657314 42.9972308,23.126114 L42.7969231,23.2545078 C42.7258462,23.2936788 42.6461538,23.3328497 42.5643077,23.3741969 C42.2412308,23.5308808 41.8815385,23.6919171 41.6252308,23.6636269 C41.4344035,23.8038687 41.2126167,23.8949966 40.9790769,23.9291192 C40.8510139,23.9572858 40.7244846,23.9921514 40.6,24.0335751 C40.4736185,24.063913 40.3523982,24.1130502 40.2403077,24.1793782 C40.1710741,24.163875 40.107154,24.1300818 40.0550769,24.0814508 C40.0550769,24.1380311 39.7492308,24.2751295 39.9129231,24.1532642 L39.5963077,24.2033161 C39.4865995,24.2243304 39.3758868,24.239584 39.2646154,24.2490155 L38.5603077,24.3121244 L38.192,24.3425907 L37.8129231,24.3273575 C37.5566154,24.3121244 37.296,24.2925389 37.0353846,24.2577202 C36.8587692,24.3121244 36.7273846,24.4296373 36.568,24.2577202 C36.4236923,24.3882902 36.0553846,24.3382383 35.6763077,24.2577202 C35.2972308,24.1772021 34.9203077,24.0074611 34.7027692,24.0270466 C34.748,23.9813472 34.8190769,23.9595855 34.9504615,23.992228 C34.8169231,23.9030052 34.5821538,23.9487047 34.4378462,23.7746114 C34.5067692,23.8551295 34.0609231,23.8377202 33.9941538,23.6288083 C33.8843077,23.8007254 33.5633846,23.4111917 33.5095385,23.6092228 C33.367657,23.6108324 33.2349694,23.5384551 33.1584615,23.4177202 C33.0830769,23.3197927 33.0249231,23.2153368 32.9193846,23.1696373 C32.7707692,23.1065285 32.4886154,23.3045596 32.4196923,22.9520207 C32.2861538,22.8976166 32.3163077,23.0695337 32.2043077,23.0412435 C31.8015385,22.7126425 31.724,22.771399 31.3793846,22.5733679 C31.5,22.4340933 31.1209231,22.4754404 31.3793846,22.4188601 C31.1843591,22.3511189 31.005913,22.2420514 30.856,22.0989637 C30.6772308,21.944456 30.4855385,21.7790674 30.3175385,21.6115026 C30.2701538,21.8726425 30.1430769,21.498342 30.0073846,21.6354404 C29.74336,21.4762008 29.5475425,21.2232673 29.4581538,20.9260104 C29.3224615,20.7889119 29.3461538,21.0282902 29.4301538,21.0805181 C29.3073846,21.117513 29.372,20.8498446 29.1243077,20.7062176 C29.4301538,20.8498446 29.0812308,20.6365803 29.1910769,20.5212435 C29.0187692,20.3406218 28.7603077,20.4276684 28.9175385,20.238342 C28.812,20.1251813 28.7603077,20.2535751 28.6418462,20.068601 C28.7409231,20.1034197 28.7107692,20.0446632 28.7366154,19.9772021 C28.6633846,19.9989637 28.3381538,19.6964767 28.4286154,19.9423834 C28.2595587,19.7755186 28.1112837,19.5884369 27.9870769,19.385285 L27.888,19.2307772 C27.8621538,19.1807254 27.8406154,19.1306736 27.8233846,19.0893264 C27.7889231,19.0066321 27.7716923,18.9478756 27.7803077,18.9348187 C27.6941538,18.8042487 27.6273846,18.9217617 27.5347692,18.7172021 C27.5476923,18.4691192 27.44,18.4321244 27.2676923,18.1296373 C27.3387692,18.0969948 27.3021538,17.994715 27.3796923,17.9664249 C27.2461538,17.7727461 27.3344615,18.0817617 27.2310769,18.06 L27.0846154,17.7770984 C27.3,17.8184456 26.8864615,17.5137824 27.1255385,17.4789637 C26.7636923,16.9806218 26.8089231,17.2831088 26.7636923,16.6977202 C26.6939846,16.5910657 26.6341423,16.478154 26.5849231,16.3604145 C26.4954244,16.1784349 26.4233031,15.9882479 26.3695385,15.7924352 C26.3092308,15.5748187 26.2532308,15.3572021 26.2123077,15.1635233 C26.169209,15.0010413 26.1481956,14.833389 26.1498462,14.6651813 C25.9344615,14.5998964 26.0335385,14.2299482 25.8181538,14.0950259 C25.8181538,14.0319171 25.8052308,13.9448705 25.7923077,13.8382383 C25.7923077,13.7860104 25.7793846,13.7272539 25.7729231,13.6663212 C25.7664615,13.6053886 25.7729231,13.5357513 25.7729231,13.466114 C25.7729231,13.1853886 25.7729231,12.8459067 25.7729231,12.4890155 L25.9021538,12.4890155 C25.8030769,12.3366839 25.9193846,12.3345078 25.9430769,12.1734715 C25.8030769,12.0842487 25.9086154,12.4302591 25.7664615,12.3432124 C25.8848169,12.0254781 25.9432592,11.6881665 25.9387692,11.3487047 C25.9387692,11.1789637 25.9387692,11.0157513 25.9516923,10.8612435 C25.9646154,10.7067358 25.9516923,10.565285 25.9516923,10.4434197 C26.0701538,10.3106736 26.1843077,9.96683938 26.0335385,9.81668394 C26.1713846,9.69046632 26.2230769,9.4184456 26.2790769,9.1638342 C26.3013754,9.0453898 26.3352862,8.92948176 26.3803077,8.81782383 C26.412273,8.7324909 26.4827332,8.66777238 26.5698462,8.64373057 C26.4836923,8.67854922 26.3889231,8.28683938 26.6043077,8.25202073 C26.6172308,8.03440415 26.6430769,8.00829016 26.4836923,8.05181347 C26.6258462,7.91471503 26.7292308,7.82331606 26.7593846,8.05181347 C26.7433557,7.91228182 26.7433557,7.77134512 26.7593846,7.63181347 C26.7896799,7.47088499 26.8336372,7.31289183 26.8907692,7.15958549 C27.0135385,6.84621762 27.1643077,6.55243523 27.3710769,6.45450777 C27.2935385,6.43927461 27.4981538,6.01927461 27.3710769,6.19336788 C27.2353846,6.15202073 27.5864615,6.04321244 27.4464615,5.96487047 C27.6381538,5.84735751 27.4163077,6.36963731 27.5304615,6.44362694 C27.6209231,6.22601036 27.4615385,6.16290155 27.7156923,5.84082902 C27.6769231,5.82341969 27.6403077,5.90829016 27.6015385,5.9561658 C27.4852308,5.86259067 27.7609231,5.56663212 27.8686154,5.65803109 C27.9204706,5.54590461 27.9787224,5.43691309 28.0430769,5.33160622 L28.1313846,5.18145078 C28.2390769,5.01388601 28.3230769,5.05088083 28.4264615,4.90725389 C28.4996923,4.80932642 28.3984615,4.7026943 28.5578462,4.49595855 C28.4609231,4.63305699 28.9218462,4.38497409 28.8658462,4.27834197 C28.9433846,4.30445596 28.8916923,4.37626943 28.8356923,4.45243523 C28.9304615,4.49813472 29.0166154,4.23481865 28.9993846,4.18694301 C29.1630769,4.03025907 28.9756923,4.32186528 29.0532308,4.32839378 C29.1302927,4.25052698 29.1762937,4.14672695 29.1824615,4.03678756 C29.3504615,3.90186528 29.2104615,4.25440415 29.4172308,4.03678756 C29.3332308,3.98891192 29.3956923,3.95409326 29.4710769,3.90404145 C29.5464615,3.85398964 29.6433846,3.80393782 29.6132308,3.70165803 C29.5270769,3.67554404 29.4732308,3.74300518 29.428,3.79740933 C29.3827692,3.85181347 29.3547692,3.90404145 29.3009231,3.83440415 C29.4584853,3.69649411 29.6254622,3.56996365 29.8006154,3.4557513 C29.7383265,3.44508565 29.6745438,3.46258887 29.6261538,3.50362694 C29.7562486,3.31536901 29.91897,3.15243586 30.1064615,3.0226943 C30.2650188,2.89539209 30.4579829,2.81953069 30.66,2.80507772 C30.6233846,2.78549223 30.66,2.75502591 30.6901538,2.72455959 C30.6064362,2.73588622 30.5254385,2.76242795 30.4510769,2.80290155 C30.4589076,2.70711617 30.4814331,2.61314368 30.5178462,2.52435233 C30.6944615,2.43295337 30.9766154,2.37854922 30.9292308,2.52435233 C30.9723077,2.47865285 30.9615385,2.44165803 31.0218462,2.39160622 C30.9206154,2.33502591 30.7289231,2.50911917 30.6729231,2.33502591 C31.0606154,2.23056995 31.0347692,2.11740933 31.1166154,2.26321244 C31.4590769,2.06518135 31.0046154,2.08694301 31.332,2.01948187 C31.332,2.05865285 31.3815385,2.03689119 31.4246154,2.01948187 C31.4461538,2.05430052 31.3643077,2.1 31.3190769,2.14134715 C31.3772308,2.20010363 31.5538462,2.0173057 31.6292308,2.04124352 C31.3556923,2.07606218 31.9178462,1.48414508 31.9436923,1.67564767 C32.0147692,1.61906736 31.9544615,1.57336788 31.9436923,1.52331606 C32.0686154,1.55160622 32.4498462,1.19906736 32.4455385,1.44715026 C32.5089608,1.30254624 32.6370808,1.19737001 32.7901538,1.1642487 C32.9519948,1.11578923 33.0998025,1.0284257 33.2209231,0.909637306 C33.4750769,1.0053886 33.8670769,0.648497409 33.9596923,0.844352332 C34.0542108,0.748194227 34.1810759,0.691484395 34.3150769,0.685492228 C34.4432657,0.658487088 34.5764665,0.69578067 34.6726154,0.785595855 C34.8410283,0.620655441 35.0595732,0.517917653 35.2929231,0.493989637 C35.6069383,0.462320773 35.9100514,0.360483822 36.1803077,0.195854922 C36.2384615,0.195854922 36.4689231,0.165388601 36.7144615,0.156683938 C36.9279485,0.155002379 37.1386478,0.107530267 37.3326154,0.0174093264 C37.1861538,0.235025907 37.5910769,0.248082902 37.744,0.293782383 C37.7267692,0.178445596 37.6190769,0.128393782 37.4230769,0.141450777 C37.7095385,0.0522279793 38.0196923,0.104455959 38.2673846,0.0348186528 C38.5086154,0.0935751295 38.1855385,0.167564767 38.1144615,0.0783419689 C38.1747692,0.215440415 38.1704615,0.163212435 38.1144615,0.295958549 C38.1381538,0.195854922 38.4483077,0.258963731 38.416,0.124041451 C38.8876923,0.224145078 38.8596923,0.152331606 39.1030769,0.341658031 C39.2904615,0.104455959 39.5898462,0.483108808 39.7255385,0.235025907 C39.7923077,0.26984456 39.8569231,0.302487047 39.8784615,0.252435233 C39.9429252,0.294831579 40.0098109,0.333344226 40.0787692,0.367772021 C40.1477846,0.407546065 40.2198038,0.441745847 40.2941538,0.470051813 C40.4341538,0.520103627 40.5655385,0.515751295 40.6387692,0.39388601 C40.7636923,0.463523316 40.8864615,0.533160622 40.824,0.661554404 C40.9876923,0.68984456 41.0070769,0.587564767 41.0178462,0.476580311 L41.2827692,0.59626943 C41.3646154,0.639792746 41.44,0.681139896 41.524,0.720310881 C41.7303022,0.813946723 41.9473643,0.881202234 42.1701538,0.920518135 C41.7889231,1.03150259 42.5470769,1.03150259 42.2627692,1.13813472 C42.4156923,1.20124352 42.4975385,1.19906736 42.5169231,1.1011399 C42.6138462,1.31875648 42.8809231,1.24911917 43.0467692,1.4319171 C43.1156923,1.29046632 43.3956923,1.51025907 43.3095385,1.40362694 C43.3569231,1.35792746 43.5033846,1.44715026 43.6046154,1.5015544 C43.5163077,1.5842487 43.5658462,1.66259067 43.7510769,1.73658031 C43.6972308,1.7692228 43.6261538,1.7692228 43.512,1.70393782 C43.4947692,1.78227979 43.8781538,1.93243523 43.8846154,1.81274611 C44.0676923,1.88455959 44.2464615,2.24797927 44.3541538,2.07823834 C44.436,2.16310881 44.5221538,2.2719171 44.4575385,2.35678756 C44.4101538,2.31544041 44.4166154,2.27409326 44.3541538,2.23056995 C44.3541538,2.26974093 44.3950769,2.31326425 44.3735385,2.35243523 C44.4876923,2.41772021 44.5523077,2.38507772 44.5889231,2.28715026 C44.6901538,2.46777202 44.9313846,2.41554404 44.856,2.58310881 C44.9421538,2.62010363 45.0153846,2.62663212 45.0541538,2.56134715 C45.1516086,2.65600117 45.2576082,2.74124253 45.3707692,2.81595855 C45.4876037,2.90787791 45.6139882,2.98668341 45.7476923,3.05098446 C45.8123077,3.11626943 45.7476923,3.15544041 45.7261538,3.20549223 C45.8252308,3.29253886 45.8963077,3.30994819 45.9566154,3.28601036 C46.0643077,3.38611399 45.9049231,3.43398964 46.0470769,3.5384456 C46.0686154,3.39264249 46.7535385,3.91927461 46.6415385,4.13906736 C46.788,4.07813472 46.6415385,4.15430052 46.9064615,4.41544041 C46.9344615,4.36974093 46.8353846,4.2892228 46.7772308,4.21740933 C46.874479,4.23279567 46.9564111,4.29902062 46.9926154,4.39150259 C47.0216109,4.48065793 47.056141,4.56787757 47.096,4.65264249 C47.2144615,4.82455959 47.2338462,4.43502591 47.3716923,4.71792746 C47.2890905,4.691923 47.1996743,4.72715671 47.1563077,4.80279793 C47.1756923,4.96165803 47.5483077,5.22279793 47.4815385,5.42518135 C47.7335385,5.45129534 47.6969231,5.68849741 47.8433846,5.81906736 C47.8111999,5.66237991 47.7658035,5.50876252 47.7076923,5.35989637 C47.7973113,5.41351572 47.8558494,5.50749901 47.8649231,5.61233161 C47.9704615,5.56227979 47.7292308,5.33813472 47.8778462,5.30984456 C47.9823234,5.51084543 48.1048918,5.70170248 48.244,5.88 C48.3103679,5.96887256 48.3721923,6.06111747 48.4292308,6.15637306 C48.4721588,6.23040325 48.499303,6.31267957 48.5089231,6.39792746 C48.5100769,6.40659309 48.5100769,6.41537582 48.5089231,6.42404145 C48.272,6.13678756 48.496,6.55243523 48.5089231,6.42404145 L48.5476923,6.46756477 C48.7288053,6.73851666 48.8235078,7.0589814 48.8190769,7.38590674 C48.8470769,7.35761658 48.8686154,7.38590674 48.888,7.43813472 C48.9167422,7.32794962 48.8971221,7.21059512 48.8341538,7.11606218 C49.0172308,7.17264249 49.0107692,7.52953368 48.8772308,7.52953368 C48.9504615,7.66010363 49.0538462,7.51212435 49.112,7.76238342 C49.0258462,7.86683938 48.9741538,7.6557513 48.8966154,7.69274611 C48.9547692,7.92777202 49.0689231,7.71668394 49.112,8.01699482 C49.1507692,7.99740933 49.112,7.91471503 49.0926154,7.85378238 C49.2455385,7.98217617 49.1787692,8.11927461 49.3381538,8.34559585 C49.2175385,8.39129534 49.2283077,8.56321244 49.1615385,8.66331606 C49.2476923,8.82435233 49.2024615,8.42176166 49.3769231,8.4957513 C49.3209231,8.61108808 49.2390769,8.75253886 49.4436923,8.71336788 C49.6461538,9.09202073 49.3790769,9.29440415 49.5169231,9.42932642 C49.476,9.70569948 49.2907692,9.18994819 49.1464615,9.35751295 Z M33.208,1.11202073 C33.1476923,1.12507772 33.068,1.1707772 33.0464615,1.13595855 C33.0852308,1.11637306 33.1089231,1.06196891 33.0270769,1.09678756 C33.0593846,1.17512953 32.7556923,1.20124352 32.6630769,1.24041451 C32.6867692,1.32093264 32.7858462,1.28393782 32.816,1.35792746 C32.7772308,1.37751295 32.7556923,1.42974093 32.8353846,1.39709845 C32.8353846,1.35792746 32.8698462,1.32093264 32.9516923,1.28611399 C32.9635452,1.30059055 32.9839018,1.30452541 33.0002064,1.29549154 C33.016511,1.28645768 33.0241709,1.26699966 33.0184615,1.24911917 C32.9409231,1.27958549 32.8224615,1.27305699 32.9107692,1.20777202 C32.9215385,1.27740933 33.2381538,1.19906736 33.2144615,1.10549223 L33.208,1.11202073 Z M43.3892308,1.71046632 C43.0489231,1.42103627 42.9261538,1.90849741 43.2513846,1.83450777 C43.204,1.79968912 43.1178462,1.77357513 43.1329231,1.73222798 C43.1587692,1.62124352 43.3569231,1.7692228 43.3956923,1.70393782 L43.3892308,1.71046632 Z M45.3276923,2.90518135 C45.2867692,2.85948187 45.2803077,2.81813472 45.3276923,2.78331606 C45.2156923,2.6919171 45.1618462,2.72673575 45.052,2.64404145 C44.8818462,2.68103627 45.3126154,2.95523316 45.3363077,2.89865285 L45.3276923,2.90518135 Z M46.5941538,4.13471503 C46.5252308,4.06290155 46.5941538,4.03025907 46.5489231,3.96062176 C46.3744615,3.92362694 46.5295385,4.01067358 46.5123077,4.1107772 C46.441931,4.05585783 46.3527769,4.03157593 46.2646154,4.04331606 C46.4175385,4.24134715 46.5058462,4.18259067 46.5941538,4.13471503 Z" id="形状" fill="#EFEFEF" fill-rule="nonzero"></path>
                            <path d="M47.2769231,4.85284974 C47.4563301,4.95909481 47.6014548,5.11554902 47.6947692,5.30331606 C47.8153846,5.09222798 47.2510769,4.65046632 47.2769231,4.85284974 Z" id="路径" fill="#EFEFEF" fill-rule="nonzero"></path>
                            <polygon id="路径" fill="#EFEFEF" fill-rule="nonzero" points="47.6904615 5.31202073 47.7012308 5.31854922 47.6947692 5.30331606"></polygon>
                            <path d="M49.9110769,13.1135751 C49.9110769,13.0221762 49.9110769,12.8959585 49.9584615,12.8785492 C50.0575385,12.9960622 49.8701538,13.1266321 50.0424615,13.1179275 C50.0346,13.0097753 50.0507904,12.9012164 50.0898462,12.8002073 C50.0252308,12.7871503 49.9283077,12.8284974 49.9153846,12.7218653 C49.9024615,12.6152332 49.952,12.6282902 49.9627692,12.5630052 C49.7473846,12.5630052 49.9175385,12.9568912 49.8249231,13.0352332 C49.7624615,12.8524352 49.8443077,12.6979275 49.7861538,12.6456995 C49.7538462,12.8785492 49.6935385,12.5717098 49.6116923,12.6456995 C49.6655385,12.8785492 49.7,13.1483938 49.9110769,13.1135751 Z" id="路径" fill="#EFEFEF" fill-rule="nonzero"></path>
                            <rect id="矩形" fill="#EFEFEF" fill-rule="nonzero" x="23.9249231" y="53.3030052" width="58.0483077" height="29.4609326"></rect>
                            <path d="M87.2307692,83.16 C86.9292308,83.173057 87.2846154,83.5081865 87.4913846,83.4102591 C87.3853334,83.3499432 87.2957783,83.2639469 87.2307692,83.16 L87.2307692,83.16 Z" id="路径"></path>
                            <path d="M56.2606154,82.4157513 C56.5363077,82.713886 57.5033846,82.0827979 57.1587692,82.2568912 C56.812,82.1372021 56.4975385,82.1437306 56.2606154,82.4157513 Z" id="路径"></path>
                            <path d="M105.779692,83.1665285 C104.763077,83.2970984 104.702769,83.5255959 104.101846,83.094715 C103.089538,83.3471503 101.922154,83.3797927 101.260923,82.9336788 C100.756923,83.1687047 100.222769,83.1839378 99.9686154,82.9793782 C99.6713846,83.5517098 99.1264615,83.0076684 99.0812308,83.3972021 C98.1270769,82.4222798 96.1584615,84.1196891 95.7255385,83.2557513 C94.7269477,83.704386 93.5769318,83.6478639 92.6261538,83.1034197 C92.6046154,83.3623834 92.1501538,83.6126425 91.7258462,83.133886 C91.4932308,83.697513 90.2504615,83.6518135 89.1412308,83.2231088 C89.1627692,83.462487 88.0643077,83.7736788 87.4698462,83.4102591 L87.4698462,83.4102591 C87.3637949,83.3499432 87.2742398,83.2639469 87.2092308,83.16 C86.9076923,83.173057 87.2630769,83.5081865 87.4698462,83.4102591 L87.4698462,83.4102591 C86.7396923,83.6278756 85.7941538,83.7279793 85.4043077,83.2231088 C85.148,83.6039378 83.9935385,83.6104663 83.6015385,83.2840415 C83.6015385,83.527772 83.4443077,83.5778238 83.0867692,83.3036269 C82.936,83.3275648 82.9855385,83.5430052 82.9704615,83.6953368 C81.8095385,83.7540933 81.6781538,83.2492228 80.5172308,83.5212435 C81.4110769,82.8292228 78.9341538,83.6126425 79.4683077,83.0381347 C78.6433846,83.2035233 78.6972308,83.7997927 78.0489231,82.9576166 C78.12,83.7279793 76.8578462,82.7856995 76.0027692,83.4189637 C76.2806154,83.2209326 75.8283077,83.107772 76.1169231,83.0250777 C75.9941538,82.8858031 75.8756923,82.9924352 75.4707692,82.9184456 C75.5903523,83.0884167 75.7909182,83.1806032 75.9963077,83.16 C75.7378462,83.16 74.6781538,83.4864249 74.5747692,83.0794819 C74.4110769,83.7519171 73.5409231,83.2688083 73.0433846,83.514715 C69.9095385,83.0794819 68.3307692,82.5833161 65.3024615,83.264456 C63.168737,82.9232018 60.9998012,82.8675933 58.8516923,83.0990674 C58.9335385,82.7421762 58.5867692,82.8466321 58.576,82.5898446 C58.6858462,82.8531606 58.1064615,83.3645596 58.0612308,82.6072539 C57.7683077,83.0185492 57.6606154,82.5397927 57.0273846,82.5136788 C57.4926154,83.2470466 55.3043077,82.8466321 54.8433846,82.7182383 C54.6926154,82.7443523 54.7421538,82.9576166 54.7270769,83.1121244 C51.6276923,82.8945078 51.1624615,83.0533679 48.2956923,83.462487 C48.7264615,82.9445596 47.9058462,83.462487 47.3932308,83.4951295 C47.4952591,83.3418977 47.5353367,83.1550073 47.5052308,82.9728497 C46.4283077,83.5734715 44.6535385,83.6039378 43.2535385,82.9902591 C43.1243077,83.0794819 43.1307692,83.2905699 42.8744615,83.2622798 C42.9132308,82.792228 42.4975385,83.1034197 41.7113846,83.173057 C40.1261538,83.3145078 38.2652308,83.6082902 36.4387692,83.4842487 C34.7350769,83.3602073 33.2273846,82.831399 32.3141538,83.4973057 C32.3916923,83.0229016 31.2372308,83.4842487 31.3901538,82.8814508 C30.1818462,83.7519171 28.5104615,83.0446632 26.5116923,83.4385492 C26.3243077,83.3884974 26.5116923,83.3253886 26.5116923,83.1795855 C24.3578462,83.3079793 21.4566154,83.501658 20.5864615,83.2557513 C20.0049231,83.8063212 19.1950769,83.0794819 18.5403077,83.7149223 C18.3873846,83.6996891 18.4218462,83.4842487 18.3981538,83.3319171 C17.7369231,83.5843523 16.8387692,83.684456 16.8538462,83.3841451 C16.5695385,83.8193782 16.2938462,83.4711917 15.9643077,83.8041451 C16.2335385,83.3232124 15.5615385,83.8237306 15.3181538,83.4385492 C15.4301538,83.5125389 13.8901538,83.7736788 13.2676923,83.7671503 C12.3178462,83.7671503 11.2172308,83.1969948 10.6830769,83.8585492 C8.42369231,83.2339896 5.824,83.9281865 3.59692308,83.973886 C3.62707692,83.7562694 3.46769231,83.7562694 3.45476923,83.5887047 C3.00892308,84.0087047 1.08553846,83.6409326 0.236923077,83.6996891 C0.107692308,83.7105699 0.157230769,83.9586528 0.116307692,83.9630052 L0.198153846,82.5354404 C0.445846154,83.2339896 2.76123077,82.1654922 4.33353846,82.9119171 C4.58123077,82.5876684 4.53384615,82.7748187 4.96892308,82.6290155 C4.9183871,82.7112722 4.87857096,82.7997754 4.85046154,82.8923316 C6.19446154,82.9597927 7.62030769,82.1611399 8.95569231,82.3613472 C9.45107692,82.437513 11.8289231,82.2329534 12.964,82.7421762 C17.5107692,81.6910881 22.1716923,82.648601 26.2144615,82.0240415 C26.3953846,82.0980311 26.2510769,82.5223834 26.4901538,82.5332642 C26.8046154,82.5071503 26.5030769,82.0980311 26.348,82.1480829 C27.7587692,82.1284974 29.5163077,82.0066321 31.2393846,81.9805181 C32.4390769,81.9609326 34.1686154,81.8717098 34.9913846,82.3678756 C35.3661538,81.8630052 36.7812308,82.2003109 36.54,82.4440415 C36.8996923,82.1393782 38.3492308,82.0458031 38.9910769,82.4897409 C39.5230769,82.1785492 40.5676923,82.293886 40.6603077,82.3025907 C40.6969231,82.3025907 40.9618462,82.0849741 41.1707692,82.1546114 C41.2181538,82.1698446 41.4141538,82.5376166 41.4421538,82.5332642 C41.8061538,82.4962694 41.2375385,82.2873575 41.5563077,82.1415544 C42.5556923,81.6802073 43.9255385,82.7508808 45.0326154,82.0218653 C45.7153846,82.648601 46.2732308,82.0871503 47.3501538,81.9413472 L47.376,82.7182383 C47.4535385,82.1741969 47.8067692,82.661658 47.8735385,82.1829016 C47.8110769,81.991399 47.7098462,82.2373057 47.488,82.1959585 C47.6667692,81.6410363 48.4938462,82.1197927 48.5304615,82.5484974 C48.7587692,82.5115026 48.804,82.3308808 48.6812308,82.2220725 C49.0495385,82.3374093 49.7883077,82.4396891 49.9283077,81.9805181 C50.1243077,82.5202073 50.5507692,81.5692228 50.7144615,82.3417617 C51.0849231,81.7150259 52.6744615,81.8260104 53.0276923,82.1241451 C53.3895385,81.7237306 53.704,81.9544041 54.3006154,81.6889119 C53.9344615,81.9065285 54.1584615,82.0240415 54.572,82.0697409 C54.572,81.9435233 54.4104615,81.9739896 54.3092308,81.9478756 C54.4126154,81.5126425 54.5956923,81.8260104 54.8261538,81.9304663 C55.2763077,81.1165803 57.8070769,81.8281865 58.94,81.6584456 C59.3190769,81.7585492 59.0907692,81.847772 59.0864615,82.1720207 C59.1934165,82.0812861 59.3280516,82.0305629 59.4676923,82.0283938 C59.3778874,81.9211814 59.32765,81.7858268 59.3255385,81.6453886 C60.4412308,81.4887047 61.6323077,81.8847668 63.0775385,82.0327461 C64.9384615,82.2264249 68.8929231,81.0926425 70.2993846,82.1720207 C71.9384615,81.821658 74.0384615,82.3265285 76.4787692,81.9544041 C76.048,82.7508808 77.4006154,81.6715026 77.6461538,82.1720207 C78.0769231,81.4212435 80.4763077,82.3896373 82.1692308,82.4026943 C83.4938462,82.4179275 84.5729231,81.3907772 85.1350769,82.4309845 C85.4495385,82.0827979 85.7166154,82.3374093 86.2852308,82.1328497 C85.9406154,82.5006218 87.1467692,82.3744041 87.444,82.0915026 C87.6335385,82.1437306 87.444,82.2068394 87.444,82.3504663 C88.4390769,82.2111917 88.1289231,82.0262176 88.9883077,82.2960622 C88.9387692,82.4919171 88.8224615,82.2503627 88.6027692,82.3112953 C88.8181538,82.7704663 89.2209231,82.2699482 89.5116923,82.5289119 C89.32,82.1306736 90.6553846,82.0588601 90.9289231,82.4810363 C91.0775385,82.4549223 91.028,82.241658 91.0430769,82.0871503 C92.2858462,82.5550259 94.7843077,81.5822798 96.3307692,82.1633161 C96.3889231,82.1850777 96.5590769,82.5441451 96.6021538,82.5441451 C96.8692308,82.5441451 96.4858462,82.2481865 96.4643077,82.2895337 C96.7572308,81.7520207 98.6504615,82.2177202 99.5529231,82.1829016 C100.834462,82.1306736 102.434769,81.8434197 103.544,82.0436269 C103.358769,82.5572021 103.888615,82.3004145 103.948923,82.5484974 C104.211692,82.5789637 103.908,82.1741969 103.806769,82.1654922 C103.765846,81.9739896 104.595077,82.1654922 104.200923,82.411399 C104.745846,82.1154404 104.991385,82.1654922 105.740923,82.2264249 C105.667692,82.346114 105.594462,82.4636269 105.740923,82.4853886 C105.751692,82.6790674 104.980615,82.7030052 105.620308,82.7508808 C105.596615,82.9162694 105.241231,82.9315026 105.234769,82.7639378 C105.012923,83.0903627 105.600923,83.1121244 105.779692,83.1665285 Z M57.1587692,82.2590674 C56.812,82.1393782 56.4975385,82.1459067 56.2606154,82.4179275 C56.5363077,82.713886 57.5076923,82.0827979 57.1587692,82.2590674 Z" id="形状" fill="#393939" fill-rule="nonzero"></path>
                            <path d="M48.6769231,82.228601 C48.6295562,82.1919976 48.572691,82.1700742 48.5132308,82.1654922 C48.5659772,82.1910577 48.6207284,82.2121661 48.6769231,82.228601 L48.6769231,82.228601 Z" id="路径" fill="#393939" fill-rule="nonzero"></path>
                            <rect id="矩形" fill="#FDFDFF" fill-rule="nonzero" x="34.4356923" y="64.5189637" width="37.0246154" height="7.03119171"></rect>
                            <polygon id="路径" fill="#415CE5" fill-rule="nonzero" points="26.1089231 35.4649741 29.8070769 31.9417617 35.4867692 39.3733679 34.3624615 40.7465285"></polygon>
                            <polygon id="路径" fill="#415CE5" fill-rule="nonzero" points="74.4584615 29.6154404 78.3978462 32.8622798 70.9670769 40.7465285 69.4723077 39.7977202"></polygon>
                            <polygon id="路径" fill="#415CE5" fill-rule="nonzero" points="50.8609231 26.2837306 55.5972308 26.2837306 54.5138462 37.8544041 52.0347692 37.8544041"></polygon>
                            <path d="M55.3538462,28.507772 C55.3671813,28.5884569 55.3671813,28.6708177 55.3538462,28.7515026 C55.3538462,28.573057 55.3538462,28.5099482 55.3538462,28.3162694 C55.3409231,28.2488083 55.3538462,28.5143005 55.3366154,28.4446632 C55.3193846,28.3750259 55.3366154,28.3597927 55.3366154,28.2618653 C55.3366154,28.2466321 55.3193846,28.1204145 55.3193846,28.2618653 C55.3387692,28.4794819 55.2935385,28.3097409 55.2849231,28.2161658 C55.2849231,28.599171 55.2332308,28.1965803 55.2353846,28.5382383 C55.2266376,28.4806311 55.222317,28.4224261 55.2224615,28.3641451 C55.2224615,28.4359585 55.2224615,28.4033161 55.2224615,28.3641451 C55.2224615,28.5055959 55.2332308,28.5817617 55.2224615,28.6056995 C55.2224615,28.3880829 55.2052308,28.6056995 55.2052308,28.4925389 C55.2121035,28.4507749 55.2164194,28.4086223 55.2181538,28.3663212 C55.2052308,28.3293264 55.2030769,28.4359585 55.1923077,28.4381347 C55.1923077,28.3728497 55.1923077,28.2966839 55.1923077,28.3815544 C55.197002,28.4409417 55.197002,28.5006127 55.1923077,28.56 C55.2073846,28.6231088 55.2116923,28.507772 55.2181538,28.6078756 C55.2073846,28.5882902 55.2181538,28.8254922 55.2052308,28.8559585 C55.1901538,28.8211399 55.2052308,28.6535751 55.1923077,28.6187565 C55.1923077,28.7515026 55.1923077,28.8124352 55.1793846,28.8059067 C55.1793846,29.2106736 55.2246154,28.8733679 55.2418462,28.8994819 C55.2590769,28.9255959 55.2418462,29.0344041 55.2418462,28.8363731 C55.2612308,29.0148187 55.2526154,28.8842487 55.2633846,28.7667358 C55.2633846,28.901658 55.2827692,28.7406218 55.2892308,28.9364767 C55.2892308,28.914715 55.2892308,28.7754404 55.2892308,28.7515026 C55.2892308,28.8211399 55.2892308,28.8864249 55.3,28.927772 C55.3061618,28.8481007 55.3061618,28.7680651 55.3,28.6883938 C55.3258462,28.8450777 55.3,28.494715 55.3215385,28.4381347 C55.3215385,28.5774093 55.3215385,28.5512953 55.3215385,28.7384456 C55.3215385,28.6731606 55.3107692,28.677513 55.3086154,28.8037306 C55.3086154,28.8211399 55.3086154,28.8864249 55.3258462,28.8559585 C55.3172308,28.6666321 55.3710769,28.8559585 55.3538462,28.507772 Z" id="路径" fill="#FFFFFF" fill-rule="nonzero"></path>
                            <path d="M55.1578462,29.0148187 C55.132,29.0148187 55.1363077,28.875544 55.1190769,29.032228 L55.1190769,28.8516062 C55.0924654,28.9336281 55.0822165,29.0201676 55.0889231,29.1062176 C55.0889231,28.8690155 55.0716923,29.019171 55.0889231,28.6883938 C55.0850497,28.7527902 55.0764101,28.8168033 55.0630769,28.8798964 C55.0630769,28.9604145 55.0630769,28.9255959 55.0803077,28.9321244 C55.0803077,29.2041451 55.0609231,29.1932642 55.0415385,29.1910881 C55.047426,29.1317549 55.047426,29.0719756 55.0415385,29.0126425 C55.0415385,29.0409326 55.0415385,29.2890155 55.0243077,29.1997927 C55.0070769,29.1105699 55.0243077,29.1345078 55.0243077,29.0148187 C55.0243077,28.9560622 55.0135385,28.8973057 55.0092308,28.8407254 C54.9941538,28.8537824 55.02,29.0365803 55.0092308,29.0235233 C54.9984615,29.0104663 55.0092308,28.8603109 54.9790769,28.9168912 C54.9744333,28.975554 54.9744333,29.0344978 54.9790769,29.0931606 C54.9790769,29.2237306 54.964,29.1279793 54.9575385,29.1627979 C54.9446154,29.1192746 54.9575385,29.0801036 54.9704615,29.097513 C54.9704615,28.9560622 54.9553846,28.9908808 54.9575385,28.8015544 C54.9682855,28.7185635 54.9740396,28.6349903 54.9747692,28.5512953 C54.9747692,28.4141969 54.9489231,28.7928497 54.9618462,28.4968912 C54.9489231,28.573057 54.9489231,28.5317098 54.9338462,28.507772 C54.9338462,28.6405181 54.9489231,28.8211399 54.9532308,29.045285 C54.9456375,28.9853221 54.9456375,28.9246261 54.9532308,28.8646632 C54.9532308,28.9647668 54.9338462,28.9168912 54.9295385,28.8146114 C54.9295385,28.8603109 54.9144615,29.1649741 54.9295385,29.1149223 C54.9295385,29.2933679 54.9295385,29.1867358 54.9123077,29.1845596 C54.9123077,29.058342 54.9123077,29.0235233 54.9123077,28.940829 C54.9123077,29.058342 54.9015385,28.940829 54.8907692,28.940829 C54.8907692,29.2737824 54.8778462,28.8516062 54.8735385,29.1301554 C54.8735385,29.1301554 54.8433846,28.9125389 54.8476923,29.1301554 C54.8326154,28.9321244 54.7938462,29.1627979 54.7981538,28.9125389 C54.7786918,29.0150271 54.7714607,29.1195031 54.7766154,29.2237306 C54.7766154,29.1932642 54.7636923,29.1018653 54.7550769,29.0518135 C54.768,29.3455959 54.7335385,28.8603109 54.7335385,29.1823834 C54.7335385,29.097513 54.712,29.1105699 54.7055385,29.0126425 C54.7055385,29.0518135 54.7055385,29.1040415 54.7055385,29.1954404 C54.6904615,29.1192746 54.6883077,29.2302591 54.6689231,29.2106736 C54.6689231,28.98 54.6689231,28.993057 54.6473846,28.7972021 C54.6419063,28.8979551 54.6419063,28.9989361 54.6473846,29.0996891 C54.6236923,29.0082902 54.5978462,28.9974093 54.5849231,29.2476684 C54.5849231,29.1802073 54.5676923,29.1236269 54.5547692,29.1997927 C54.5547692,29.1497409 54.5547692,29.1366839 54.5547692,29.0779275 C54.5547692,29.1062176 54.5547692,29.2128497 54.5332308,29.2063212 C54.5332308,29.1105699 54.5332308,29.1018653 54.5332308,29.0235233 C54.5181538,29.0539896 54.5095385,29.2716062 54.5052308,29.0365803 C54.5052308,29.0365803 54.5052308,29.2019689 54.488,29.1649741 C54.488,28.9103627 54.4427692,29.2041451 54.4298462,28.8864249 C54.4312638,28.9905035 54.4247832,29.0945388 54.4104615,29.1976166 C54.4104615,28.98 54.3803077,29.282487 54.3910769,29.0256995 C54.3243077,29.1170984 54.2790769,29.0822798 54.2467692,28.9060104 C54.2426526,28.966872 54.2426526,29.0279466 54.2467692,29.0888083 C54.2596923,29.1693264 54.236,29.1410363 54.2467692,28.9712953 C54.2295385,29.084456 54.2123077,28.9712953 54.1972308,29.1736788 C54.1735385,28.8450777 54.1067692,28.940829 54.0787692,29.1040415 C54.0787692,29.0518135 54.0787692,28.9691192 54.0787692,28.8646632 C54.0550044,28.9673053 54.0448641,29.0726861 54.0486154,29.1780311 C54.0378462,28.993057 54.0486154,29.0300518 54.0292308,29.1258031 C54.0292308,28.7036269 53.9452308,29.0801036 53.9452308,28.9212435 C53.941897,28.9414148 53.941897,28.9620049 53.9452308,28.9821762 C53.8763077,28.8429016 53.8138462,29.1127461 53.7427692,28.888601 C53.7427692,28.9473575 53.7427692,28.9321244 53.7427692,28.9430052 C53.6932308,29.0278756 53.6652308,28.9212435 53.6156923,28.8189637 C53.6156923,28.8820725 53.6156923,29.0365803 53.5941538,29.0082902 C53.5726154,28.98 53.5941538,28.9081865 53.5941538,28.8254922 C53.5886478,28.8870248 53.5886478,28.9489338 53.5941538,29.0104663 C53.5532308,28.7667358 53.5101538,28.8211399 53.4735385,28.940829 C53.4993846,28.7667358 53.4412308,28.7667358 53.4563077,28.8276684 C53.4218462,28.6970984 53.3701538,29.1192746 53.3378462,28.6992746 C53.2969231,28.9168912 53.1849231,28.6992746 53.1116923,28.6753368 C53.1116923,28.5665285 53.1116923,28.5447668 53.1116923,28.4316062 C53.1009231,28.442487 53.1116923,28.6601036 53.0987692,28.7384456 C53.0643077,28.5969948 53.0406154,28.9995855 53.0190769,28.5317098 C53.0190769,28.8363731 52.9695385,28.6949223 52.9630769,28.5556477 C52.9576215,28.5953537 52.9576215,28.6356308 52.9630769,28.6753368 C52.9501538,28.9560622 52.9307692,28.5121244 52.9286154,28.8102591 C52.8790769,28.5534715 52.8187692,28.8211399 52.7649231,28.6405181 C52.7649231,28.7710881 52.7412308,28.6709845 52.7196923,28.599171 C52.7196923,28.8973057 52.6658462,28.599171 52.64,28.573057 C52.6141538,28.546943 52.5990769,28.7188601 52.5753846,28.7210363 C52.5516923,28.7232124 52.5,28.5230052 52.4698462,28.5273575 C52.4396923,28.5317098 52.3836923,28.8254922 52.3513846,28.7580311 C52.3513846,28.7689119 52.3384615,28.4620725 52.3513846,28.7580311 C52.3298462,28.5926425 52.2975385,28.8407254 52.2803077,28.6078756 C52.2630769,28.8037306 52.2307692,28.6796891 52.2178462,28.573057 C51.9378462,28.9604145 51.6815385,28.5382383 51.3864615,28.9321244 C51.2916923,29.058342 51.1883077,29.2890155 51.1043077,28.9321244 C51.1043077,28.3989637 51.1581538,28.888601 51.1926154,28.8929534 C51.2636923,28.9038342 51.3541538,28.4577202 51.4295385,28.5491192 C51.4683077,28.1965803 51.5156923,28.5164767 51.5609231,28.4316062 C51.5609231,28.4316062 51.5738462,28.3772021 51.5738462,28.2466321 C51.6298462,28.2009326 51.6858462,28.4642487 51.7375385,28.4163731 C51.7892308,28.3684974 51.7806154,28.2488083 51.8064615,28.2662176 C51.8323077,28.2836269 51.8064615,28.3815544 51.8064615,28.3880829 C51.8215385,28.4642487 51.8818462,28.1117098 51.9076923,28.4054922 C51.9313846,28.1334715 51.9658462,28.4577202 51.9916923,28.1878756 C51.9916923,28.2292228 51.9916923,28.2945078 51.9916923,28.3641451 C51.9916923,28.2879793 52.0110769,28.1748187 51.9916923,28.3010363 C52.0390769,28.3423834 52.0950769,28.2118135 52.1553846,28.3510881 C52.1661538,28.2662176 52.1726154,28.0681865 52.1812308,28.2792746 C52.1963077,27.8679793 52.2652308,28.3075648 52.2867692,28.113886 C52.2867692,28.1878756 52.2867692,28.2401036 52.2738462,28.2401036 C52.2738462,28.3097409 52.2953846,28.1987565 52.3061538,28.3467358 C52.3061538,28.2749223 52.3255385,28.0964767 52.332,28.3358549 C52.332,28.0638342 52.36,28.4120207 52.3578462,28.1421762 C52.3772308,27.9767876 52.3858462,28.3772021 52.3987692,28.3597927 C52.4116923,28.3423834 52.416,27.9463212 52.4289231,28.3467358 C52.4289231,28.3358549 52.4289231,28.1421762 52.4289231,28.1030052 C52.4569231,28.2118135 52.4590769,28.0855959 52.4806154,28.0790674 C52.4806154,28.3293264 52.4956923,28.0159585 52.4806154,28.257513 C52.4978462,28.100829 52.528,28.2422798 52.5538462,28.2858031 C52.5538462,27.9746114 52.5667692,28.2422798 52.5667692,27.9789637 C52.5926154,27.9071503 52.6055385,28.0507772 52.6163077,28.1965803 C52.6243914,28.1373788 52.6243914,28.0773362 52.6163077,28.0181347 C52.6163077,27.8745078 52.6270769,28.179171 52.6421538,28.0681865 C52.6249231,28.2422798 52.6421538,28.087772 52.6421538,28.3075648 C52.6572308,28.3075648 52.6636923,27.9659067 52.6658462,28.3075648 C52.6658462,28.3075648 52.6658462,28.1421762 52.6830769,28.179171 C52.6787705,28.2392996 52.6787705,28.2996641 52.6830769,28.3597927 C52.6951372,28.2579968 52.6994575,28.1554165 52.696,28.0529534 C52.7132308,27.9550259 52.7606154,28.0681865 52.7606154,28.1465285 C52.7713846,28.1465285 52.7606154,27.9789637 52.7778462,28.0181347 C52.7907692,28.2118135 52.7950769,28.1225907 52.8144615,28.1225907 C52.8144615,28.231399 52.8144615,28.2488083 52.8144615,28.3619689 C52.8189783,28.2815154 52.8189783,28.200868 52.8144615,28.1204145 L52.8316923,28.1204145 C52.8316923,28.3641451 52.8510769,28.0377202 52.8467692,28.3554404 C52.8790769,28.2096373 52.864,28.1030052 52.8941538,28.3336788 C52.9092308,28.2248705 52.9867692,28.2009326 53.0126154,28.3336788 C53.0126154,28.0660104 53.0384615,28.2770984 53.0470769,28.0181347 C53.0818327,28.0624546 53.1114609,28.110643 53.1353846,28.1617617 C53.1353846,28.2205181 53.1353846,28.2814508 53.1353846,28.3423834 C53.1353846,28.2161658 53.1353846,28.3641451 53.1526154,28.3946114 C53.1526154,28.1965803 53.1375385,28.3554404 53.1526154,28.1574093 C53.1849231,28.4794819 53.2301538,28.3315026 53.2581538,28.231399 C53.2581538,28.3663212 53.2861538,28.481658 53.2926154,28.2161658 C53.3098462,28.5099482 53.3550769,28.1508808 53.3636923,28.5491192 C53.3636923,28.4511917 53.3809231,28.1508808 53.3852308,28.4185492 C53.3983001,28.3371121 53.3983001,28.2540796 53.3852308,28.1726425 C53.3962452,28.2927999 53.3962452,28.4137286 53.3852308,28.533886 C53.4067692,28.2509845 53.4606154,28.0986528 53.48,28.4316062 C53.48,28.3293264 53.5058462,28.2879793 53.4929231,28.244456 C53.4929231,28.0573057 53.5058462,28.3924352 53.5058462,28.179171 C53.5187692,28.3249741 53.4864615,28.4229016 53.4864615,28.6144041 C53.4993846,28.5708808 53.4972308,28.3380311 53.5209231,28.4185492 C53.5209231,28.3597927 53.5209231,28.3750259 53.5209231,28.3619689 C53.5209231,28.1595855 53.5424615,28.2836269 53.5424615,28.4729534 C53.5575385,28.4403109 53.5726154,28.3989637 53.5726154,28.3989637 C53.5726154,28.3989637 53.5855385,28.5099482 53.5963077,28.5099482 C53.5997068,28.4457376 53.6068991,28.3817895 53.6178462,28.3184456 C53.6178462,28.3423834 53.6372308,28.5948187 53.6393846,28.4316062 C53.6393846,28.533886 53.6393846,28.546943 53.6393846,28.5556477 C53.6393846,28.6970984 53.6566154,28.5425907 53.6566154,28.4881865 C53.6615903,28.5490155 53.6615903,28.6101555 53.6566154,28.6709845 C53.6714702,28.6299464 53.6773486,28.5861437 53.6738462,28.5425907 C53.6867692,28.5926425 53.6738462,28.7602073 53.6738462,28.7797927 C53.6738462,28.5230052 53.6889231,28.9125389 53.6953846,28.6492228 C53.6953846,28.4316062 53.676,28.7101554 53.676,28.4773057 C53.676,28.5360622 53.704,28.5034197 53.7126154,28.5817617 C53.7153735,28.5426402 53.7153735,28.5033701 53.7126154,28.4642487 C53.7276923,28.3358549 53.7750769,28.4642487 53.7836923,28.6818653 C53.7836923,28.6318135 53.7836923,28.625285 53.7836923,28.6209326 C53.7816442,28.5821493 53.7766032,28.5435866 53.7686154,28.5055959 C53.7686154,28.4229016 53.7686154,28.3206218 53.7815385,28.257513 C53.798766,28.3748991 53.805255,28.4936391 53.8009231,28.612228 C53.7991227,28.591231 53.7991227,28.5701161 53.8009231,28.5491192 C53.8009231,28.4011399 53.7836923,28.4272539 53.7858462,28.192228 C53.8186056,28.2945319 53.8388585,28.4004999 53.8461538,28.507772 C53.8676923,28.533886 53.8461538,28.2226943 53.8633846,28.3793782 C53.8633846,28.4316062 53.8633846,28.4359585 53.8633846,28.4381347 C53.8633846,28.4968912 53.8633846,28.4881865 53.8633846,28.5034197 C53.8633846,28.6144041 53.8784615,28.533886 53.8806154,28.6165803 C53.8676923,28.455544 53.9107692,28.1813472 53.9064615,28.4229016 C53.9106883,28.3620437 53.9106883,28.3009614 53.9064615,28.2401036 C53.9064615,28.3706736 53.9409231,28.166114 53.9344615,28.4707772 C53.9473846,28.1334715 53.9667692,28.5164767 53.9861538,28.2662176 C53.9861538,28.5186528 54.0249231,28.2509845 54.0270769,28.5512953 C54.0270769,28.4163731 54.0636923,28.5055959 54.0658462,28.7689119 C54.0938462,28.3728497 54.1132308,28.862487 54.1584615,28.4272539 C54.1584615,28.4598964 54.2123077,28.5382383 54.2252308,28.3380311 C54.2145515,28.4762144 54.2217923,28.6152153 54.2467692,28.7515026 C54.2551842,28.6727532 54.2493455,28.5931139 54.2295385,28.5164767 C54.2467692,28.4446632 54.264,28.4751295 54.2769231,28.3750259 C54.292,28.4468394 54.2769231,28.56 54.2769231,28.4403109 C54.2769231,28.625285 54.2769231,28.5556477 54.2769231,28.7427979 C54.2769231,28.6013472 54.2963077,28.6753368 54.2941538,28.4925389 C54.3204305,28.5620601 54.3342864,28.6357416 54.3350769,28.7101554 C54.3350769,28.3554404 54.3630769,28.8167876 54.3695385,28.4533679 C54.3695385,28.4881865 54.3695385,28.5230052 54.3695385,28.4533679 C54.3846154,28.6231088 54.4083077,28.8080829 54.4147692,28.4359585 C54.4273917,28.5340612 54.4317151,28.6330725 54.4276923,28.7319171 C54.435909,28.6298058 54.435909,28.5271891 54.4276923,28.4250777 C54.4513846,28.5251813 54.4643077,28.6318135 54.4987692,28.5164767 C54.4793846,28.8298446 54.5203077,28.4881865 54.4987692,28.7536788 C54.4987692,28.7536788 54.5138462,28.6992746 54.5116923,28.5665285 C54.5224615,28.7710881 54.5332308,28.5425907 54.5483077,28.6731606 C54.5483077,28.455544 54.5676923,28.5687047 54.5590769,28.4860104 C54.5504615,28.4033161 54.572,28.4316062 54.5784615,28.4185492 C54.5784615,28.5752332 54.5784615,28.6361658 54.5913846,28.5926425 C54.5945736,28.6351572 54.5901967,28.6779053 54.5784615,28.7188601 C54.5784615,28.8254922 54.6021538,28.7340933 54.6,28.5904663 C54.6,28.5447668 54.6301538,28.8537824 54.6301538,28.5752332 C54.6423068,28.6536729 54.6473533,28.7330692 54.6452308,28.8124352 C54.6452308,28.8124352 54.6452308,28.7536788 54.6452308,28.7558549 C54.6452308,28.8037306 54.6452308,28.8124352 54.6452308,28.8733679 C54.6513164,28.7922407 54.6513164,28.7107645 54.6452308,28.6296373 C54.656,28.7471503 54.6646154,28.494715 54.6667692,28.7406218 C54.6710122,28.6790382 54.6710122,28.6172312 54.6667692,28.5556477 C54.6818462,28.6078756 54.6969231,28.5926425 54.7141538,28.4729534 C54.7184231,28.5330834 54.7184231,28.5934451 54.7141538,28.6535751 C54.7141538,28.6535751 54.7270769,28.6035233 54.7270769,28.5273575 C54.7270769,28.5273575 54.7270769,28.7253886 54.7421538,28.7014508 C54.7421538,28.5643523 54.7852308,28.3641451 54.7895385,28.6818653 C54.7895385,28.4773057 54.7895385,28.6818653 54.8110769,28.6818653 C54.8110769,28.612228 54.8110769,28.6339896 54.7981538,28.6274611 C54.7981538,28.4272539 54.8218462,28.6622798 54.8304615,28.6753368 C54.8390769,28.6883938 54.8304615,28.3380311 54.8433846,28.4272539 C54.8563077,28.5164767 54.8433846,28.5926425 54.8433846,28.7319171 C54.8433846,28.8711917 54.8756923,28.651399 54.8821538,28.8951295 C54.8929231,28.625285 54.9015385,28.8385492 54.9144615,28.7623834 C54.9080883,28.7031858 54.8987429,28.6443535 54.8864615,28.586114 C54.8864615,28.520829 54.8972308,28.5186528 54.9036923,28.586114 C54.9036923,28.4272539 54.8864615,28.546943 54.8907692,28.3510881 C54.9123077,28.4250777 54.9467692,28.2292228 54.9618462,28.3815544 L54.9618462,28.3967876 C54.9424615,28.5143005 54.9618462,28.494715 54.9618462,28.3967876 L54.9618462,28.3793782 C54.9747692,28.3075648 54.9963077,28.3967876 55.0135385,28.5969948 C55.0100842,28.5761033 55.0100842,28.5547775 55.0135385,28.533886 C55.0135385,28.455544 55.0135385,28.4272539 54.9963077,28.4207254 C54.9963077,28.2422798 55.0221538,28.4207254 55.02,28.5926425 C55.02,28.5643523 55.02,28.3576166 55.0372308,28.4054922 C55.0372308,28.5687047 55.0372308,28.5295337 55.0372308,28.6492228 C55.0501538,28.6883938 55.0372308,28.4316062 55.0587692,28.520829 C55.0587692,28.4620725 55.0587692,28.4751295 55.0587692,28.4642487 C55.0587692,28.3315026 55.0738462,28.4838342 55.0889231,28.3902591 C55.0889231,28.573057 55.0889231,28.6209326 55.1018462,28.7449741 C55.1126154,28.6905699 55.1018462,28.6035233 55.1018462,28.3859067 C55.1018462,28.5034197 55.1126154,28.6622798 55.1147692,28.3859067 C55.1384615,28.2553368 55.1449231,28.6818653 55.1556923,28.5512953 C55.1815385,28.7079793 55.1513846,28.7667358 55.1578462,29.0148187 Z M53.9753846,28.56 C53.9753846,28.546943 53.9753846,28.56 53.9753846,28.5034197 C53.9786407,28.483242 53.9786407,28.4626647 53.9753846,28.442487 C53.9753846,28.5578238 53.9581538,28.4011399 53.9538462,28.3924352 C53.9538462,28.5055959 53.9538462,28.5230052 53.9538462,28.6318135 C53.9505926,28.651261 53.9505926,28.6711224 53.9538462,28.6905699 C53.9538462,28.6448705 53.9538462,28.6187565 53.9538462,28.6274611 C53.9538462,28.6361658 53.9538462,28.6949223 53.9538462,28.6274611 C53.9483908,28.5877551 53.9483908,28.547478 53.9538462,28.507772 C53.956,28.6035233 53.9753846,28.7014508 53.9753846,28.56 L53.9753846,28.56 Z M54.5849231,28.8407254 C54.5590769,28.6992746 54.5655385,29.360829 54.5849231,29.0822798 C54.5849231,29.0822798 54.5849231,29.0822798 54.5849231,29.0256995 C54.5698462,28.888601 54.5849231,28.953886 54.5849231,28.8407254 L54.5849231,28.8407254 Z M54.7076923,28.7253886 C54.7052331,28.6855309 54.7052331,28.6455572 54.7076923,28.6056995 C54.7076923,28.6056995 54.7076923,28.677513 54.6904615,28.6731606 C54.6883077,28.8559585 54.7184615,28.8211399 54.7076923,28.7253886 Z M54.8089231,28.7406218 C54.8089231,28.7406218 54.8089231,28.638342 54.8089231,28.625285 C54.8031207,28.6846224 54.8031207,28.7443932 54.8089231,28.8037306 C54.8005085,28.865755 54.7961912,28.9282767 54.796,28.9908808 C54.8153846,29.0235233 54.8175385,28.8798964 54.8175385,28.7384456 L54.8089231,28.7406218 Z" id="形状" fill="#FFFFFF" fill-rule="nonzero"></path>
                            <path d="M54.8756923,28.6535751 C54.8864615,28.5404145 54.8972308,28.5230052 54.9101538,28.5687047 C54.9036923,28.2770984 54.8649231,28.507772 54.8756923,28.6535751 Z" id="路径" fill="#FFFFFF" fill-rule="nonzero"></path>
                            <path d="M55.3775385,28.3772021 C55.3775385,28.3772021 55.3646154,28.3924352 55.3646154,28.3227979 C55.3646154,28.179171 55.3775385,28.4337824 55.3775385,28.1965803 C55.3775385,28.1965803 55.3624615,28.1965803 55.3581538,28.1443523 C55.3581538,28.2335751 55.3581538,28.3619689 55.3581538,28.3859067 C55.3581538,28.4098446 55.3581538,28.3402073 55.3473846,28.3293264 C55.3473846,28.6274611 55.3710769,28.3750259 55.3753846,28.4990674 C55.3796923,28.6231088 55.356,28.4881865 55.3538462,28.5687047 C55.3583955,28.6491572 55.3583955,28.7298065 55.3538462,28.8102591 C55.3773436,28.6672109 55.3852883,28.5219954 55.3775385,28.3772021 Z" id="路径" fill="#FFFFFF" fill-rule="nonzero"></path>
                        </g>
                    </g>
                </g>
            </g>
        </g>
    </g>
</svg>