<?xml version="1.0" encoding="UTF-8"?>
<svg width="120px" height="120px" viewBox="0 0 120 120" version="1.1" xmlns="http://www.w3.org/2000/svg" xmlns:xlink="http://www.w3.org/1999/xlink">
    <!-- Generator: Sketch 60.1 (88133) - https://sketch.com -->
    <title>任务缺省</title>
    <desc>Created with Sketch.</desc>
    <g id="4.数据中心/沟通全局" stroke="none" stroke-width="1" fill="none" fill-rule="evenodd">
        <g id="16缺省" transform="translate(-960.000000, -376.000000)">
            <g id="编组" transform="translate(960.000000, 376.000000)">
                <g id="任务缺省-2">
                    <g id="任务缺省" transform="translate(4.000000, 40.000000)">
                        <path d="M47.2563686,15.812354 C47.4224128,15.8285299 47.5744251,15.812354 47.3171735,15.904788 C47.2259661,15.8516385 46.9874238,15.904788 47.1020177,15.7823129 C46.8096863,15.8447059 47.2142729,15.8331517 46.9196029,15.8978555 C46.858798,15.8816795 46.9406507,15.8516385 46.8377501,15.8400842 C46.7792838,15.8516385 46.4378408,15.9024772 46.5547733,15.9325183 C47.0435514,15.8724361 46.1665573,16.0781019 45.9350309,16.1058321 C46.2484101,16.1913336 45.06973,16.3692691 45.4064958,16.4316621 C45.2871997,16.4603144 45.1639936,16.4696791 45.0416662,16.4593923 C45.0884393,16.4825008 44.9925546,16.4940551 44.8990085,16.5056094 C44.9153791,16.572624 45.270854,16.5056094 45.1001325,16.5656915 C44.9060245,16.5125419 44.8171558,16.6581255 44.7142551,16.6303953 C44.77506,16.5957326 44.8241717,16.5610698 44.828849,16.5310287 C44.5762747,16.5911109 44.6207091,16.6327062 44.4523262,16.6881666 C44.379828,16.6881666 44.2184611,16.6881666 44.2605568,16.7182077 C44.355493,16.6926661 44.4556134,16.6926661 44.5505496,16.7182077 C44.8498969,16.6558147 44.8194944,16.604976 45.0182797,16.5888 C44.8007852,16.651193 45.1375509,16.6673689 45.0042478,16.7228294 C44.7025619,16.8037092 44.8919926,16.6535038 44.5903066,16.7228294 C44.7119165,16.7528704 44.6908686,16.7921549 44.527163,16.8429936 C44.7914306,16.9724013 45.3456909,16.6119085 45.626329,16.5287179 C45.7479388,16.4940551 45.7292296,16.5633806 45.7175363,16.4663249 C46.1852665,16.4039319 45.9373695,16.417797 46.0262383,16.3299847 C46.2343782,16.3299847 46.3209083,16.2190638 46.6062237,16.2213747 C46.7395268,16.1659142 46.3723586,16.2213747 46.6062237,16.1358732 C46.7046643,16.1390596 46.8032049,16.134423 46.9008937,16.1220081 C46.8821845,16.0064655 46.7839611,16.1451166 46.6249329,16.0988995 C47.1791931,15.9902895 46.5804985,16.0226415 46.7769452,15.9325183 C46.9897624,15.9325183 46.8634753,15.9579376 47.1043563,15.9648702 C46.945328,15.9879787 46.8704912,16.0110872 46.9406507,16.0480608 C47.0555073,16.0307122 47.1683227,16.0020695 47.2774165,15.9625593 C46.9546826,15.9810461 48.0047369,15.7222308 47.2563686,15.812354 Z" id="路径" fill="#EFEFEF" fill-rule="nonzero"></path>
                        <path d="M44.7694011,16.5152641 C44.3642163,16.6579726 44.3360484,16.5931051 44.1735411,16.7314891 L44.037035,16.6709461 C43.9741989,16.7444626 43.5668474,16.8396016 43.753189,16.9023069 C43.5755144,16.8331149 43.4346748,16.9628498 43.3068358,16.8266281 C43.1638294,16.9282538 43.2179985,16.9477141 43.0424906,17.0190683 C43.1498268,17.0149264 43.2552179,16.9891852 43.3523378,16.9433896 C43.5690142,17.0190683 43.2396661,17.1250186 42.9319857,17.2309688 C42.9623204,17.1379921 42.8669828,17.2158331 42.7326435,17.1963728 C42.6221385,17.2504291 42.9298189,17.2871873 42.5983041,17.3498926 C42.5983041,17.3152966 42.7066423,17.2742138 42.5983041,17.2439423 L42.2667893,17.2439423 C42.0371124,17.3282701 42.5528021,17.2590781 42.3317923,17.3261078 C42.3317923,17.3261078 42.2711229,17.3261078 42.169285,17.3412436 C42.0347587,17.3584411 41.9034091,17.3948511 41.7792676,17.4493561 C41.8618015,17.4861193 41.9547803,17.4922538 42.041446,17.4666541 C42.1476174,17.5077368 41.8247696,17.5596308 41.7510997,17.6072003 C41.5040886,17.6634188 41.8139358,17.535846 41.9092734,17.5142235 C41.7857679,17.4709786 41.5972595,17.5553063 41.4954216,17.4774653 C41.5084222,17.4190846 41.7120979,17.3563793 41.5864256,17.3001608 C41.4867545,17.2525913 41.3697493,17.5163858 41.3459149,17.3477303 C41.2159091,17.4342203 41.2029085,17.4147601 40.9493972,17.4817898 C41.170132,17.4848302 41.3891934,17.5205357 41.5994262,17.58774 C41.436919,17.6244983 41.3827499,17.6028758 41.4044175,17.5466573 C41.3719161,17.6158493 41.1639068,17.656932 41.0295674,17.639634 C41.0057331,17.67423 41.0100666,17.855859 41.2462438,17.752071 C41.3112467,17.838561 41.1942415,17.812614 41.0295674,17.8709948 C40.914729,17.8320743 40.9645645,17.7931538 40.9277296,17.7563955 C40.8800608,17.8428855 40.7652223,17.8169385 40.5962148,17.873157 C40.7457214,18.0310013 40.3405367,17.9034285 40.4532084,18.0396503 C40.3448702,18.072084 39.8421811,18.1110045 40.0523572,18.1823587 C39.6818406,18.1823587 39.2419876,18.478587 39.1553171,18.3423652 C38.899639,18.4202062 38.9971434,18.5088585 39.018811,18.5953485 C38.8686814,18.6165304 38.7175056,18.6295232 38.5659575,18.634269 C38.9624752,18.6991365 38.1326048,18.651567 38.3081126,18.8094112 C38.1477721,18.8094112 37.9419296,18.8850899 37.7902562,18.8677919 C37.6602504,18.9391462 37.9310958,18.8850899 37.8357582,18.9802289 C37.5822469,19.0126627 37.6190819,19.0796924 37.2984009,19.1726692 C37.1084698,19.1062841 36.9080585,19.0747833 36.7068745,19.0796924 C36.5422005,19.1748314 36.8628814,19.1640202 36.8888826,19.2332122 C36.4858646,19.3045664 36.0590122,19.4386259 36.0221772,19.6353906 C35.8438529,19.6335664 35.6684567,19.6806901 35.5151546,19.7716124 C35.4999873,19.7413409 35.5476561,19.7153939 35.5151546,19.6807979 C35.4024829,19.7413409 35.419817,19.8148574 35.2464759,19.8689136 C35.172806,19.8213441 35.2464759,19.7889104 35.2139745,19.7435031 C35.0102987,19.8343176 34.9972982,20.0029731 34.8087897,19.8883739 C34.6766172,19.9359433 34.8087897,20.0116221 34.605114,20.0527048 C34.3711035,19.9381056 33.9095829,20.3164993 33.5737346,20.1867643 C33.6690722,20.2948768 33.5022314,20.3381218 33.3873929,20.4873171 C33.2660542,20.3619066 32.9822082,20.686244 33.0277102,20.4721813 C32.0374994,20.8743598 31.2942995,21.0970715 30.722274,21.1424787 C30.648604,21.1770747 30.7114402,21.2354555 30.722274,21.2851872 C30.9584512,21.2722137 30.5836011,21.3716772 30.603102,21.2289687 C30.3864256,21.3932997 30.0787452,21.3976242 29.9314053,21.6138492 C29.4265495,21.5187102 28.4428389,21.9165642 28.0549882,22.1760342 C27.9854447,22.1541028 27.9306533,22.1002296 27.9076483,22.0311634 C27.7559749,22.1500872 27.4959633,22.2473884 27.5327982,22.4073949 C27.3161219,22.3295539 27.4656286,22.3100937 27.2402852,22.4614511 C27.1276135,22.2452262 26.4689174,22.5587524 26.1114015,22.6949741 L25.6780488,22.8571429 L25.7538855,22.3857724 C25.7755531,22.2473884 25.7972208,22.1565739 25.8297222,22.1695474 C25.8297222,22.0895442 25.7907205,22.1241402 25.7820534,22.1695474 C26.1200685,21.0884225 26.1179018,20.0829763 26.5230865,18.9910402 C26.4797512,18.9910402 26.4732509,19.0710434 26.4515833,19.1229374 C26.554707,18.4416307 26.7282513,17.7728117 26.9694398,17.1271808 C26.930438,17.0774491 26.8199331,17.0601511 26.8979366,16.7574361 C26.9231646,16.806155 26.9695637,16.8404826 27.0236089,16.8504129 C27.0236089,16.7617606 26.9911074,16.6968931 26.9109372,16.6882441 C27.1935381,16.1066571 27.3458506,15.4706387 27.3572904,14.8243848 C27.4092927,15.23305 27.6021347,14.3140938 27.5024636,14.5605903 C27.7191399,14.0481371 27.5674665,13.1572902 27.9943189,12.7053799 C27.9683177,12.056705 28.497008,10.3117694 28.7548528,9.17226374 C28.8393566,9.17226374 28.8371898,9.27172723 28.9260271,9.26956498 C28.954195,9.0922605 28.7765204,9.13118099 28.7353519,9.02523075 C28.9628621,8.47818155 28.7353519,8.05221833 29.155704,7.80139735 C28.9628621,7.58517237 29.2012061,6.97109342 29.3268783,6.89757693 C29.3268783,6.79811344 29.2467081,6.87811668 29.2207069,6.95379542 C29.0538662,6.6964877 29.4373833,6.48458721 29.2337075,6.38079922 C29.5868899,5.66509453 29.5868899,4.66397286 29.9032374,3.83799343 C29.7840654,3.91583443 29.9574065,3.46392421 30.080912,3.14823574 C29.8490683,3.13309999 30.2694204,2.28333581 30.3625912,1.90277984 C30.438428,1.60438937 30.3907592,1.22167115 30.4687627,0.84543968 C30.5338263,0.565490489 30.6177997,0.290255983 30.7201072,0.0216224982 L30.7201072,0 L30.7331078,0.0151357487 C30.9107295,0.231562331 31.1017798,0.436657971 31.3051333,0.629214698 C31.8446574,1.10490966 32.5033535,1.39032663 32.8565359,1.7752071 C32.8088671,1.72331311 32.8305348,2.05629958 32.9648741,1.86818385 C33.1165475,2.17522332 33.643071,2.39361055 33.7275748,2.70497453 C34.046089,2.78930227 34.3472691,3.18499399 34.449107,3.38392097 C36.2496874,4.7958701 37.8682597,6.26403773 39.4976657,7.73436761 C41.1270718,9.20469749 42.782479,10.6858386 44.6978979,12.2967147 C45.9156189,13.3108099 47.3370157,14.5022095 48.0780488,15.3692717 C47.5948605,15.2114275 47.389018,14.7724908 46.9946671,14.4070706 C46.1279617,13.6135249 44.7108985,12.61889 43.8853616,11.8296688 C43.1464953,11.4231658 42.8236475,10.9128748 42.2126203,10.4285309 C42.1411579,10.3400328 42.0287201,10.2949875 41.9157737,10.3096071 C41.2094088,9.72796194 40.7348876,9.09442275 40.0891921,8.56034704 C39.7815117,8.30736381 39.4391631,8.12789708 39.137983,7.8511291 C39.137983,7.8511291 39.2896564,7.8814006 39.2788226,7.86626485 C39.1683177,7.69977161 38.1846071,7.15056016 38.0784357,6.78513994 C37.6277489,6.6359447 37.4457408,6.17106099 36.9322179,5.97429626 C36.9163912,5.92193425 36.9210366,5.8655325 36.9452184,5.81645202 C36.8845491,5.83591227 36.5898692,5.68239253 36.7978785,5.74726002 C36.262688,5.23264457 35.4978205,4.68991986 34.8867932,4.00016217 C34.7156189,3.93313242 34.5119432,3.95259267 34.5292773,3.75366569 C34.0959246,3.78609944 33.5694011,2.87146776 33.1772169,2.72011027 C33.2611744,2.70265345 33.348057,2.73155398 33.4047271,2.79578902 C33.3462244,2.67037853 33.1360484,2.59902428 33.0992134,2.4130708 C33.1143808,2.49956079 32.7265301,2.33522981 32.7785324,2.13846507 C32.590024,2.24873981 32.4968532,1.8098031 32.3581803,1.96116059 C32.0461664,1.8530481 32.1675052,1.55249537 32.0071647,1.41843588 C31.8923262,1.32113464 31.573812,1.44870738 31.6323146,1.09842291 C31.52831,1.01841967 31.4936417,1.1849129 31.4026377,1.14383016 C31.1231252,0.782734435 31.0277876,0.828141681 30.7656092,0.5989432 C30.9151159,0.475694961 30.5489329,0.475694961 30.8024442,0.447585713 C30.6923758,0.403370397 30.5916629,0.338813654 30.5055976,0.257307729 L31.0364547,0.0864899928 C30.9844523,0.341635472 30.8652804,0.633539198 30.7829433,0.908144925 C31.0407882,0.84543968 30.7829433,1.09626066 30.9736185,1.15247915 C30.9713775,1.43281996 30.8529401,1.69972739 30.6464373,1.88980634 C30.6182693,2.06062408 30.7959439,1.92872684 30.7959439,1.84223685 C30.8934483,1.91791559 30.6377702,1.99359433 30.6724384,2.25090206 C30.5987685,1.94818709 30.6421037,2.31793181 30.4752629,2.29198481 C30.4319277,2.50820979 30.6659381,2.65740503 30.41026,2.64010703 C30.3842589,2.77849102 30.5185982,2.74821952 30.4492618,2.93201076 C30.4037597,2.83903401 30.3820921,2.89309026 30.3105889,2.91038826 C30.3799254,2.95579551 30.3755918,3.35581172 30.5012641,3.15688474 C30.5164314,3.44878846 30.2845878,4.1753044 30.2130846,4.1839534 C30.1870834,4.32233739 30.3214227,4.29422814 30.2520863,4.47801938 C30.0679114,4.62505237 30.1199137,4.71802911 30.0549108,5.01858183 C29.9747406,4.99695934 29.9422391,5.08993608 29.8577354,5.05966458 C29.8577354,5.27588956 29.9682403,5.00777059 30.0419103,5.08993608 L29.9899079,5.36670406 C29.8295674,5.20885982 29.9899079,5.66293228 29.7732316,5.54617079 C29.7732316,6.10619349 29.9075709,5.85753476 29.6280585,6.31160723 C29.5915474,6.9519074 29.4563426,7.58276443 29.2272072,8.18195332 C29.4113821,8.31817506 29.1903722,8.58196954 29.3528795,8.77657202 C29.2813763,8.99279701 29.1535373,9.54200846 28.9520283,10.1452762 L28.8155222,10.1236537 C28.8805251,10.2793356 28.7678534,10.2577132 28.7158511,10.3939349 C28.8480236,10.5042096 28.7938545,10.1777099 28.9325274,10.2836601 C28.579345,10.7615174 28.5403432,11.503169 28.5251759,11.9399435 C28.3973368,12.048056 28.2434966,12.350771 28.4211712,12.4956417 C28.1438255,12.7118667 28.2629975,13.4881144 27.9358162,13.5767666 C28.02032,13.5400084 28.1806605,13.8902928 27.9618174,13.9378623 C27.9813183,14.1303026 27.9618174,14.1540873 28.1178244,14.1065178 C27.9921521,14.2427396 27.901148,14.3378786 27.8296448,14.1324648 C27.9661509,14.5476168 27.9119818,15.397381 27.5869673,15.6698245 C27.6693043,15.6698245 27.6151353,16.0763274 27.6866384,15.9011852 C27.8339784,15.9011852 27.5306315,16.0828142 27.6866384,16.1174102 C27.5392985,16.2687677 27.5696332,15.7584767 27.4287936,15.7173939 C27.4287936,15.9336189 27.5978012,15.9487547 27.4634618,16.2968769 C27.5067971,16.2968769 27.5132974,16.2168737 27.534965,16.1649797 C27.6844717,16.2147114 27.5176309,16.5433734 27.3767913,16.4979661 C27.3551236,16.7271646 27.3312893,16.9844723 27.3312893,16.9909591 C27.3031213,17.1704258 27.2077837,17.1682636 27.1731155,17.3261078 C27.1492811,17.4363826 27.2857872,17.4861143 27.242452,17.7153128 C27.2576193,17.561793 26.9759401,17.9553225 27.0886118,18.028839 C27.0062747,18.0418125 27.012775,17.959647 27.0236089,17.8753193 C26.9109372,17.8753193 26.9781068,18.1347892 27.0236089,18.1607362 C26.9586059,18.357501 26.9716065,18.0418125 26.8979366,18.0677595 C26.8702899,18.1669933 26.8843741,18.2731857 26.9369383,18.3618255 C26.8611016,18.5456167 26.7939319,18.1996567 26.720262,18.4721002 C26.9239377,18.4721002 26.5685885,18.6883252 26.7484299,18.8331959 C26.921771,18.7899509 26.765764,18.5196697 26.9369383,18.5780505 C26.8589348,18.7294079 26.8286001,18.9932024 26.7419296,19.1186129 C26.79778,19.0975684 26.8408939,19.0521541 26.8589348,18.9953647 C26.9044369,19.2678082 26.6595926,19.9856751 26.4645839,20.0764896 C26.5057524,20.0764896 26.5035856,20.1110856 26.4970853,20.1543306 C26.5541959,20.0993171 26.5992078,20.0330444 26.6292579,19.9597281 C26.6893138,20.0313069 26.7382511,20.1114844 26.7744311,20.1975756 C26.6985943,20.3597443 26.5144195,20.565158 26.445083,20.4310986 C26.445083,20.4894793 26.4775845,20.5089396 26.4645839,20.5781315 C26.5859226,20.556509 26.6140906,20.3251483 26.7809313,20.4138006 C26.5490877,20.7100288 26.646592,20.7684095 26.4840848,20.7251645 C26.3909139,21.0732868 26.7007611,20.7748963 26.5252533,21.0170683 C26.4884183,20.997608 26.4754177,21.0386908 26.4645839,21.0797735 C26.4212486,21.0797735 26.445083,20.988959 26.445083,20.9327405 C26.3584125,20.9327405 26.3735798,21.1641012 26.3020766,21.196535 C26.4689174,21.0019325 26.518753,21.7414219 26.3605793,21.628985 C26.3605793,21.7133127 26.4320824,21.7025015 26.4840848,21.7219617 C26.3692463,21.7846669 26.4299157,22.2603619 26.2219064,22.1090044 C26.3028421,22.2278641 26.3119919,22.3814275 26.2457408,22.5090206 L25.9445607,22.2387394 C26.1009991,22.2272219 26.2479874,22.1596407 26.3584125,22.0484614 C26.5924229,22.1738719 26.9412718,21.8452099 27.0452765,22.0484614 C27.1492811,21.9057529 27.5869673,21.8322364 27.7234734,22.0073787 C28.02032,21.5922267 28.4580062,21.8430477 29.0235315,21.308972 C29.1318696,21.308972 29.8685692,21.1208563 29.9942415,20.9219293 C29.9574065,21.15329 30.3387568,21.0884225 30.4990973,21.0862603 C30.4275941,20.9867968 30.3040886,20.9651743 30.1329143,21.0192305 C30.3495907,20.8873333 30.6377702,20.8203035 30.813278,20.686244 C31.0494552,20.6646215 30.813278,20.8289525 30.7049399,20.7705718 C30.8306121,20.876522 30.8002775,20.8311148 30.8327789,20.9694988 C30.7981107,20.8700353 31.1014576,20.8289525 30.9952862,20.7186778 C31.4589735,20.660297 31.3939706,20.6127275 31.701651,20.6646215 C31.701651,20.3900158 32.1891728,20.5867805 32.1220031,20.3251483 C32.2000066,20.3251483 32.2758433,20.3251483 32.2563425,20.2797411 C32.5510223,20.3143371 33.0125429,20.3056881 32.9063715,20.0505426 C33.0493779,20.0505426 33.1923842,20.0375691 33.2552204,20.1629796 C33.39606,20.1067611 33.32239,20.0224333 33.2357195,19.9467546 C33.6264011,19.9268579 34.0086467,19.8259726 34.3581029,19.6505264 C34.2367642,19.9251321 34.687451,19.5229536 34.6202813,19.7413409 C34.7719548,19.6980959 34.8044562,19.6397151 34.7221192,19.5705231 C34.9756305,19.6375529 35.053634,19.4429504 35.3201459,19.4515994 C35.2074742,19.3326756 35.5671569,19.2959174 35.4154835,19.2851062 C35.3894823,19.2332122 35.5519896,19.2007784 35.6451604,19.1596957 C35.694996,19.2591592 35.7968338,19.2678082 35.9485073,19.1878049 C35.9636746,19.2375367 35.9355067,19.2829439 35.8185015,19.3218644 C35.896505,19.3737584 36.2106857,19.2029407 36.0806799,19.1423977 C36.2236862,19.0645567 36.7003742,19.1272619 36.5443672,18.9823912 C36.6722063,18.9823912 36.8087124,18.9542819 36.8888826,19.0342852 C36.8282132,19.0472587 36.7870447,19.0342852 36.7198751,19.0515832 C36.7610436,19.0710434 36.8238797,19.0515832 36.8585479,19.0883414 C36.9690528,19.0407719 36.9473852,18.9823912 36.8455473,18.9196859 C37.0795578,18.9196859 37.077391,18.7510304 37.2528988,18.8656297 C37.3179018,18.8223847 37.3417361,18.7791397 37.2723997,18.7294079 C37.5206983,18.6912051 37.7566339,18.5956947 37.9614305,18.4504777 C38.0459343,18.4288552 38.0871028,18.4829115 38.1434386,18.513183 C38.2582771,18.4742625 38.286445,18.4310175 38.2647774,18.3877725 C38.3926164,18.348852 38.4402852,18.4634512 38.5811248,18.400746 C38.4272846,18.3596632 39.0361451,18.0331635 39.3091573,18.1477627 C39.2289871,18.0418125 39.3264914,18.1477627 39.6406721,18.0331635 C39.5821695,18.0072165 39.4846651,18.0526238 39.4023281,18.0764085 C39.4023281,17.9466735 39.7728447,17.976945 39.9050172,17.942349 C40.0935257,17.8882928 39.614671,17.8255875 39.9396855,17.7758558 C39.9396855,17.8234253 39.9635199,17.8709948 40.0805251,17.9207265 C40.273367,17.9207265 40.5290451,17.7239618 40.8020573,17.7823425 C40.7695558,17.6266605 41.0620689,17.6612565 41.1812409,17.5661175 C40.9818987,17.5834155 40.8107243,17.6028758 40.6633844,17.6288228 C40.7336221,17.5657751 40.8272212,17.5351637 40.9212293,17.544495 C40.8302252,17.4796276 40.6330497,17.613687 40.5550463,17.5207103 C40.9277296,17.4471938 41.3329143,17.2028596 41.638428,17.1898861 L41.6687627,17.1898861 C41.4347522,17.3325946 41.8269364,17.1898861 41.6687627,17.1898861 L41.7055976,17.1661013 C42.0135554,17.0451913 42.3410567,16.9814396 42.6719741,16.9779856 C42.6221385,16.9650121 42.65464,16.9498763 42.6936417,16.9369028 C42.5738034,16.930628 42.4538788,16.9475146 42.3404593,16.9866346 C42.325292,16.8936579 42.7261432,16.8633864 42.8041467,16.9325783 C42.9124848,16.8806844 42.6828079,16.8439261 42.9341525,16.7877076 C43.10316,16.8201414 42.892984,16.8698731 42.9796545,16.9044691 C43.2158317,16.8482506 42.9059846,16.8158169 43.2201652,16.7574361 C43.1746632,16.7401381 43.1053268,16.7704096 43.0446574,16.7833831 C43.0988265,16.6968931 43.2981687,16.7120289 43.460676,16.6125654 C43.6147816,16.6423228 43.7719487,16.6532144 43.9286969,16.6449991 C44.0457021,16.5779694 43.6361838,16.6666216 43.5906818,16.5671581 C43.753189,16.5671581 43.9676986,16.5887806 43.7878573,16.5022906 C44.0522024,16.3530954 44.4703877,16.4309364 44.5180565,16.3487709 C44.9210745,16.3120126 44.4833883,16.4849926 44.7694011,16.5152641 Z M26.3779134,22.2927957 C26.3215775,22.2927957 26.2457408,22.3382029 26.2262399,22.2927957 C26.2630749,22.2798222 26.2890761,22.2300904 26.2089058,22.2495507 C26.2284067,22.3100937 26.0832335,22.3100937 25.9683951,22.3144182 L26.1699041,22.4938849 C26.188416,22.4631158 26.2036656,22.4305061 26.2154061,22.3965836 C26.1330691,22.3684744 26.1005676,22.4592889 26.0182306,22.4376664 C26.0182306,22.3987459 25.996563,22.3533386 25.9727286,22.4376664 C25.98356,22.4451176 25.9918709,22.455673 25.996563,22.4679379 L26.0117303,22.5068584 L26.0117303,22.4895604 C26.0392692,22.4603152 26.0759355,22.4412579 26.115735,22.4355041 C26.115735,22.4592889 26.1894049,22.4657756 26.1829047,22.4117194 C26.1070679,22.4268551 25.9943962,22.3965836 26.0832335,22.3490141 C26.0919006,22.4160439 26.399581,22.3922591 26.3779134,22.2927957 Z M35.8293353,19.4105166 C35.3656479,19.4602484 35.8120012,19.7975594 35.9008385,19.5640364 C35.8401691,19.5640364 35.7664992,19.6094436 35.7318309,19.5791721 C35.6321598,19.5013311 35.8878379,19.4645729 35.8293353,19.4018676 L35.8293353,19.4105166 Z M37.7794224,18.6796762 C37.7289822,18.6944239 37.674489,18.6812409 37.636416,18.6450802 C37.5042434,18.6818385 37.5345781,18.7272457 37.4197396,18.7661662 C37.4305734,18.8829277 37.8639261,18.71211 37.7902562,18.6710272 L37.7794224,18.6796762 Z M39.3459923,18.1737097 C39.257155,18.2039812 39.2138197,18.149925 39.129316,18.1737097 C39.0881474,18.27966 39.1899853,18.1974945 39.3156576,18.2299282 C39.2419876,18.2774977 39.2159865,18.3272295 39.2354874,18.3769612 C39.5019993,18.3012825 39.4283293,18.2320905 39.3568261,18.1650607 L39.3459923,18.1737097 Z" id="形状" fill="#EFEFEF" fill-rule="nonzero"></path>
                        <path d="M40.5001889,18.0734415 C40.6335719,17.9558725 40.7991347,17.8807794 40.9756098,17.8578081 C40.6903572,17.7823364 40.2581564,18.0626599 40.5001889,18.0734415 Z" id="路径" fill="#EFEFEF" fill-rule="nonzero"></path>
                        <polygon id="路径" fill="#EFEFEF" fill-rule="nonzero" points="40.9788501 17.9624182 40.9831705 17.9559492 40.9680491 17.9602618"></polygon>
                        <path d="M47.9660736,15.6959937 C47.8998829,15.7290925 47.8291423,15.748081 47.7572081,15.7520584 C47.7461179,15.7003064 48.0141311,15.7024627 47.8440814,15.6701177 C47.7584477,15.7063355 47.6698905,15.7323441 47.5797649,15.7477458 C47.6296708,15.7649964 47.7498146,15.7736218 47.6851218,15.8059668 C47.6204289,15.8383118 47.58531,15.8232175 47.5317073,15.8404681 C47.7276342,15.8900638 47.8496265,15.7391204 47.9919507,15.7369641 C47.9198644,15.8016541 47.7350277,15.8275301 47.7498146,15.8555625 C47.9457415,15.7951851 47.7830852,15.8986892 47.9124709,15.8943765 C48.0252213,15.8124358 48.1915744,15.7283387 47.9660736,15.6959937 Z" id="路径" fill="#EFEFEF" fill-rule="nonzero"></path>
                        <path d="M100.111035,61.7125542 C100.32514,61.9340153 100.577785,62.1001111 100.078919,61.9162984 C100.014687,61.7324857 99.6014628,61.5110246 99.9290447,61.4733762 C99.4173318,61.2054082 100.02111,61.6815496 99.5008331,61.4157963 C99.4323192,61.3183534 99.5928986,61.3759333 99.4580119,61.2364128 C99.3573822,61.1810475 98.7900019,60.8355682 98.9184653,61.0149517 C99.7170799,61.5243122 98.1562487,60.7491984 97.7815636,60.5078057 C98.1262739,61.0083078 96.1607827,59.8301348 96.5718658,60.3262076 C96.3629817,60.223189 96.1708477,60.0872128 96.0023444,59.9231484 C96.0387424,60.0117329 95.8845862,59.9231484 95.7304301,59.8168471 C95.6661983,59.9320069 96.2849641,60.2597693 95.9445359,60.1446095 C95.7304301,59.834564 95.4092714,59.9342215 95.3022185,59.7703403 C95.399707,59.8025583 95.5044781,59.8025583 95.6019666,59.7703403 C95.1502034,59.5488791 95.1630497,59.6618243 94.841891,59.5355915 C94.7519666,59.4337194 94.4950396,59.2499066 94.5185913,59.3473495 C94.6896107,59.4233562 94.837572,59.5457917 94.9468029,59.7016873 C95.4670799,59.9740845 95.4884905,59.8677831 95.8160724,60.0981027 C95.4178356,59.9187192 95.8867273,60.3549976 95.6190951,60.2708424 C95.0709842,60.0205913 95.544158,60.0360936 94.9981883,59.7836279 C95.137357,59.9740845 95.0517147,60.005089 94.7434024,59.8788562 C94.9575082,60.3860021 96.2571303,60.5432395 96.7709842,60.7647006 C96.98509,60.8621435 96.8758961,60.9374403 96.98509,60.7868467 C97.7408835,61.2563443 97.3683394,60.9839471 97.6145611,60.9662302 C97.9250145,61.2186959 98.1947878,61.1721891 98.6080119,61.5176684 C98.8756442,61.6018236 98.2483142,61.2253397 98.7086417,61.3825771 C98.8476432,61.5098712 98.9974037,61.6240119 99.1561228,61.7236272 C99.2824452,61.5375999 98.9548633,61.6151113 98.7857197,61.3560018 C99.7363495,61.8764354 98.8221177,61.1943352 99.2310598,61.3072803 C99.5457953,61.5575314 99.3231253,61.4445862 99.6592714,61.7502026 C99.3959213,61.588536 99.2631757,61.5398145 99.3081379,61.6726912 C99.5017924,61.7872755 99.7053617,61.8829184 99.9161983,61.958376 C99.4473066,61.5841067 101.325014,62.4943119 100.111035,61.7125542 Z" id="路径" fill="#EFEFEF" fill-rule="nonzero"></path>
                        <path d="M95.2345915,60.0309537 C94.3849389,59.725668 94.4152064,59.5773249 93.9806513,59.5816247 L93.8314757,59.3343863 C93.6260889,59.3644849 92.8391334,58.9839527 93.051006,59.3171871 C92.862915,58.9882525 92.4564655,58.999002 92.4413317,58.6335191 C92.0673116,58.6034205 92.1278467,58.700166 91.7495027,58.5819215 C91.853277,58.7130654 92.1364945,58.7775624 92.3505291,58.8657083 C92.5840214,59.2505402 91.918136,58.9925523 91.2695463,58.7560634 C91.4446655,58.6593179 91.1830676,58.6485684 90.9971386,58.4507777 C90.7441886,58.3884306 91.1852296,58.8377596 90.5647454,58.508825 C90.6144706,58.4529276 90.843639,58.5346238 90.716083,58.3518823 L90.1691057,57.9434015 C89.6805014,57.7757093 90.6014988,58.3346831 90.1582959,58.1583914 C90.1582959,58.1583914 90.0566835,58.0831449 89.8772403,57.9735 C89.6345312,57.8246871 89.3717322,57.7110329 89.0967707,57.6359659 C89.1857143,57.7977457 89.3276013,57.924428 89.4988963,57.994999 C89.6113185,58.1906399 89.0189399,57.8595554 88.8373348,57.8337566 C88.3573784,57.6037174 89.0340737,57.8079578 89.2178408,57.8961037 C89.079475,57.6811137 88.6578916,57.5607194 88.6016805,57.3113311 C88.7054549,57.2403844 89.1292002,57.418826 88.9929963,57.1651379 C88.8978698,56.9673472 88.3660263,57.2102858 88.5411455,56.9264991 C88.2146886,56.8899508 88.2168506,56.842653 87.7152746,56.6212134 C88.0650274,56.9035646 88.369722,57.2370029 88.6189762,57.6101671 C88.3054912,57.4575242 88.2622519,57.3672285 88.3617023,57.2984317 C88.2146886,57.3607788 87.8190489,57.1586882 87.626634,56.9587476 C87.5423173,56.9823965 87.2915293,57.2661832 87.814725,57.3994769 C87.8017532,57.6144669 87.6460917,57.4231258 87.2893673,57.2876822 C87.1531635,57.0834417 87.2893673,57.0877415 87.2893673,56.9845464 C87.0904665,57.0554931 86.9412908,56.8684518 86.5910524,56.7351581 C86.6191579,57.1651379 86.1392015,56.4535213 86.1327156,56.8018049 C85.9165191,56.7115092 85.0517328,56.1288865 85.287387,56.5029689 C84.6950084,56.0278412 83.5751101,55.9095967 83.6205114,55.5935615 C83.1016396,55.3785716 83.1383931,55.6387094 83.0562384,55.8085515 C82.7854277,55.6477238 82.5234561,55.4726155 82.2714448,55.283976 C82.8227461,55.8902476 81.5428623,54.750801 81.6228551,55.2173292 C81.3677431,55.0023392 80.931026,54.8625958 80.7061816,54.6411562 C80.3991824,54.580959 80.9115683,54.8453966 80.6305128,54.8690455 C80.172176,54.5917085 80.1332607,54.7336018 79.4954808,54.4691642 C79.2446927,54.0391844 79.1387564,54.0155355 78.6652859,53.5683564 C78.2696462,53.4995596 78.8036517,53.897291 78.7517645,54.0327347 C78.0037244,53.6242538 77.1302902,53.2759701 76.7951855,53.5189087 C76.386574,53.2695204 76.1747014,53.1061281 75.7855475,53.0738796 C75.8050052,53.0072327 75.9195894,53.0308816 75.9066176,52.936286 C75.6428578,52.8803886 75.5736749,53.0115325 75.2169505,52.871789 C75.1629014,52.7062468 75.3358587,52.7578444 75.3315347,52.6417498 C74.8796839,52.5149058 74.62241,52.744945 74.4840441,52.338614 C74.2029886,52.2397187 74.3240587,52.532105 73.9305809,52.3257146 C73.7014125,51.8527368 72.4474724,51.8312378 72.0734523,51.2013173 C72.0864241,51.4915537 71.7556434,51.3410608 71.3708135,51.4163072 C71.338384,51.0680235 70.4476541,51.2013173 70.8022165,50.93043 C68.6575464,50.2639612 67.1398465,49.6404904 66.158314,48.9804713 C65.9918427,48.9353235 66.0177863,49.1051655 65.9831948,49.2062108 C66.3874824,49.4899975 65.6459281,49.158913 65.8642867,48.9697218 C65.278394,48.9288738 64.7833038,48.5504915 64.264432,48.688085 C63.5596312,47.8904724 61.4322569,47.2304533 60.4593723,47.1251083 C60.372615,47.0060551 60.3530443,46.8511738 60.4074851,46.7144775 C60.0010356,46.6972783 59.4497343,46.512387 59.2983967,46.8047733 C59.0497706,46.4070419 59.3178544,46.5682843 58.7535813,46.5102371 C58.8422219,46.041559 57.3591134,45.6631767 56.5916156,45.4094886 L55.7268293,45.1257019 L56.440278,44.4957814 C56.6564745,44.3022905 56.81646,44.1861959 56.8467275,44.2442432 C56.9656356,44.1238489 56.8467275,44.121699 56.7861925,44.1754464 C58.7816869,42.8446588 60.1221056,41.238684 62.2256983,39.9917424 C62.1608394,39.9272455 62.0376073,40.0540895 61.9359949,40.1142867 C63.192097,38.9382918 64.0417496,38.4674638 65.4318935,37.5537566 C65.4318935,37.4226128 65.2870418,37.2570705 65.8167234,36.8679388 C65.7901675,36.9745141 65.8167094,37.0872875 65.8880683,37.1710746 C66.0026525,37.0227315 66.0437298,36.8872879 65.9313076,36.7733432 C67.2284871,36.2165193 68.2943362,35.2490646 69.1375028,34.3332075 C68.6683563,35.0555737 70.2184857,33.8172317 69.7190716,34.0902689 C70.7395195,33.5269953 71.714566,31.9167207 72.9879638,31.7253797 C73.8332925,30.6375306 76.9984103,28.5005308 78.9376936,26.9956013 C79.0630876,27.107396 78.9268838,27.257889 79.0717355,27.3675338 C79.357115,27.1159956 79.0241722,26.9569031 79.104165,26.7376133 C80.1851478,26.1420912 80.4013444,25.1746366 81.4066585,25.2950309 C81.4066585,24.6973589 82.5979016,24.0050914 82.891929,24.0523891 C83.0302948,23.8954465 82.7924785,23.9233952 82.6541127,24.0115411 C82.7405914,23.3902202 83.6399691,23.5385632 83.4432302,23.1107333 C84.9566063,22.3991166 86.3099968,20.7866921 87.9163374,19.8536358 C87.62231,19.8299869 88.5000681,19.3226107 89.1205523,18.9678773 C88.7811237,18.653992 90.5842031,17.8047818 91.2371168,17.3189046 C91.7581505,16.9319227 92.1991915,16.2590042 92.8283236,15.7494781 C93.3102843,15.3739543 93.8157621,15.0292755 94.3416996,14.7175264 L94.380615,14.6938776 L94.380615,14.7325757 C94.3861372,15.3184969 94.4265647,15.903578 94.5016851,16.4847437 C94.7459872,17.972474 95.4140346,19.3075614 95.4810555,20.3997103 C95.4810555,20.2513672 95.0897397,20.8167907 95.5329427,20.6942465 C95.388091,21.3929637 95.9329064,22.4421146 95.6734705,23.0591357 C96.0647863,23.6138097 96.0345188,24.6565108 95.9458782,25.1122895 C96.9792978,29.7883204 97.662479,34.3074087 98.358632,38.847996 C99.0547849,43.3885833 99.7725576,47.9829181 100.751928,53.1319269 C101.058927,54.7594006 101.400518,56.5158683 101.66644,58.1712908 C101.921029,59.6313533 102.087797,61.1052193 102.165854,62.585034 C101.614552,61.7250743 101.841559,60.7103218 101.685897,59.5923742 C101.508616,58.3884306 101.188645,56.9050001 100.86435,55.4387688 C100.540055,53.9725375 100.215761,52.5149058 100.075233,51.3195618 C99.8007595,50.5944237 99.6212832,49.8371712 99.5412272,49.0664673 C99.4504247,48.348401 99.4006995,47.6281847 99.2255802,46.8370218 C99.1823409,46.5231365 99.0807285,46.3317954 98.9142572,46.2629986 C98.5423991,44.3818368 98.5964482,42.7135149 98.2656674,40.9935955 C98.10352,40.1787837 97.7921969,39.4413682 97.6732888,38.5878582 C97.6732888,38.5878582 97.8678657,38.8350966 97.8700277,38.8028481 C97.8894854,38.5986077 97.6905845,37.9428884 97.5197893,37.2527707 C97.348994,36.5626531 97.2084662,35.8359871 97.3533179,35.4619046 C96.83877,34.6320435 97.1371213,33.6280406 96.58582,32.6347871 C96.6232231,32.5288429 96.7008173,32.4416509 96.8020166,32.3918485 C96.6852705,32.3445507 96.4171867,31.7081805 96.6593269,32.0865628 C96.4712359,30.5407852 95.9718218,28.6596233 95.8702094,26.7118146 C95.6907662,26.3742804 95.3491756,26.1356415 95.6215833,25.8368055 C95.2670209,25.5745178 95.1697325,24.9037493 95.1091974,24.1964324 C95.0486624,23.4891155 95.0227188,22.7452504 94.8108462,22.369018 C94.9707526,22.454091 95.0717153,22.6186798 95.074606,22.7989979 C95.135141,22.517361 94.9016487,22.1239295 95.074606,21.7734959 C94.9881274,21.9347383 94.5903257,21.1543249 94.9167825,20.9006368 C94.4843893,20.83184 94.8930009,19.999829 94.4843893,20.0600262 C94.1341509,19.4688039 94.7005859,19.1441691 94.6184312,18.7120393 C94.5578962,18.4046037 93.8898488,18.1767144 94.4368261,17.6972869 C94.3741291,17.4306993 94.1103693,17.6564388 94.0174047,17.4629478 C94.0368624,16.5105424 93.8336376,16.456795 93.7082436,15.7430284 C94.0973975,15.7430284 93.5331244,15.261451 93.9568697,15.5452377 C93.8424384,15.3266759 93.7691676,15.0891461 93.7406731,14.8443705 L94.7632829,15.2378021 C94.3308898,15.581786 93.7601308,15.9021209 93.2628787,16.241805 C93.7514829,16.456795 93.0012808,16.5384911 93.2304492,16.8738754 C92.8493799,17.3214969 92.3048795,17.5999627 91.7170732,17.6478392 C91.4446655,17.8886279 91.8986783,17.8950776 92.0175864,17.7596339 C92.0673116,18.0025725 91.5657356,17.8047818 91.2695463,18.2627104 C91.5635736,17.6843875 91.1333424,18.333657 90.908498,18.0821188 C90.5409638,18.3852546 90.7139211,18.9076801 90.337739,18.5593965 C90.1215424,18.7507375 90.3615206,18.868982 90.0047963,19.0796721 C90.0610074,18.8646822 89.9507471,18.9334789 89.8188672,18.8646822 C89.8642685,19.0194749 89.3172912,19.6601449 89.7864378,19.4946027 C89.4145796,19.9847797 88.0568651,20.8511891 87.9487669,20.7845422 C87.7217605,20.9737334 87.9725485,21.0941277 87.6158241,21.3048179 C87.1315438,21.3048179 87.0861425,21.5198078 86.5780806,21.9282886 C86.4807921,21.792845 86.3078349,21.90034 86.2170323,21.749847 C85.9143571,22.0809315 86.4570105,21.8057444 86.4634964,22.0250341 L86.0073216,22.4055663 C85.9705682,21.9562373 85.6138438,22.8828439 85.417105,22.4184657 C84.660417,23.3128238 85.2009084,23.0827846 84.1610029,23.4676165 C83.8734614,23.9147956 81.8628333,25.5766677 81.0153427,25.976549 C81.1169551,26.4215781 80.4208021,26.5677713 80.4121542,27.0837471 C80.0143525,27.3352853 79.0695735,28.0662511 77.9410274,28.7864674 L77.7550983,28.5714774 C77.647,28.9025619 77.5043103,28.7262702 77.2362266,28.8832128 C77.2967616,29.2250468 77.6534859,28.6273748 77.714021,28.9670589 C76.516292,29.2938436 75.4569287,30.4397399 74.8472544,31.1169582 C74.5013399,31.1320075 73.8527501,31.4243938 73.9349048,31.8801724 C73.2084844,31.8801724 72.3523459,33.277607 71.7361857,32.9938203 C71.9156288,33.041118 71.6972703,33.8043323 71.2886588,33.6086915 C71.0594904,33.9419258 70.9881455,33.9655747 71.3081165,34.0752196 C70.9276105,34.1354168 70.6595267,34.174115 70.8216742,33.7570345 C70.4757596,34.5911954 69.2456011,35.8918845 68.372167,35.9262829 C68.5040469,36.0208785 67.866267,36.6121008 68.2143435,36.4186098 C68.4435118,36.6035012 67.7279012,36.5196551 67.9354499,36.7733432 C67.5030567,36.8356903 68.2338012,36.0552768 68.0716537,35.8144881 C67.7624926,36.1477225 68.0240905,36.3949609 67.3452332,36.7840927 C67.4079302,36.8485897 67.5311623,36.7217456 67.6349366,36.6636983 C67.799246,36.928136 67.0966072,37.2484709 66.9387837,37.0012325 C66.5971931,37.3452164 66.2123632,37.7278985 66.2015533,37.738648 C65.9183358,37.9901862 65.7691602,37.8676419 65.5075623,38.0783321 C65.3194713,38.2266751 65.466485,38.4760634 65.088141,38.7920986 C65.3194713,38.5620594 64.3487487,38.8436962 64.4265795,39.1016841 C64.2795658,39.019988 64.4006359,38.8974437 64.5303538,38.7727495 C64.3552346,38.6373059 64.1109325,39.1360825 64.1368761,39.2242284 C63.7715038,39.4628672 64.2147068,38.9705403 64.0655312,38.9232425 C63.8601444,39.1102837 63.7239406,39.2865755 63.7325885,39.4413682 C63.3628923,39.6413088 63.7325885,39.0113884 63.256956,39.3575221 C63.574765,39.6069105 62.7099787,39.5338139 62.8094291,39.9723933 C63.1423718,40.1185865 63.259118,39.4908159 63.4580188,39.7961016 C63.131562,39.9422947 62.7294363,40.3292766 62.4202752,40.4217223 C62.5395705,40.4580626 62.6689763,40.4391153 62.7726757,40.3701247 C62.4764864,40.8624516 61.1295817,41.7138118 60.6971885,41.6213661 C60.7706954,41.6622142 60.7123223,41.7224114 60.6453014,41.7847584 C60.8092616,41.7663455 60.9679553,41.7159346 61.112286,41.6364154 C61.1095081,41.8271834 61.0774289,42.016409 61.0171595,42.1975391 C60.6820548,42.3673811 60.1177817,42.4684264 60.1891266,42.1674405 C60.1091339,42.2577363 60.1372394,42.3308329 60.0226552,42.4275783 C60.2388518,42.541523 60.5955761,42.2125884 60.7361039,42.5544224 C59.975092,42.7414636 60.0485988,42.9564535 59.8561839,42.6855662 C59.2378617,43.1305954 60.1242676,43.0338499 59.5232411,43.2058419 C59.4908116,43.1305954 59.4194668,43.1778932 59.3459599,43.2337906 C59.2897488,43.1628439 59.4389245,43.0617986 59.5124313,42.9736527 C59.3805514,42.8597081 59.0800382,43.2531396 58.9330245,43.2165914 C59.4562202,43.1112463 58.5525185,44.3710873 58.4336104,43.9970048 C58.3103783,44.1195491 58.4487442,44.2119947 58.5049553,44.2979907 C58.2390335,44.2571426 57.6920561,45.0977532 57.5709861,44.5968267 C57.5472044,44.9386607 57.32236,45.1042029 57.071572,45.2654454 L56.946178,44.4699826 C57.2185856,44.611876 57.5061271,44.781718 57.8714993,44.7150712 C58.0876959,45.209548 59.0951719,45.1579504 58.9935595,45.6094293 C59.3502839,45.5277331 60.1588591,45.9835117 60.1588591,46.4242411 C60.6777308,46.2995469 61.0236454,46.4715389 61.4560385,46.6671797 C61.9928178,46.9415406 62.5940063,47.0670484 63.1964209,47.0305127 C63.38235,47.1552068 64.8222192,47.834575 65.2913658,47.6926817 C64.9259936,47.9979674 65.6372803,48.389249 65.9010401,48.5913396 C65.9118499,48.3505509 65.7432166,48.1613597 65.3908162,48.0194664 C65.9313076,48.1097621 66.4717991,48.36775 66.9409456,48.389249 C67.3560431,48.6601363 66.7550166,48.604239 66.6534042,48.389249 C66.7182632,48.709584 66.731235,48.604239 66.601517,48.8536273 C66.6771858,48.6579864 67.2241631,48.9847711 67.1982196,48.6837852 C68.0327383,49.1911615 67.9873371,49.0385186 68.4218922,49.5093466 C68.7742926,49.0793667 69.3212699,50.0210226 69.5569242,49.5394452 C69.6779943,49.6426403 69.8012263,49.7436856 69.8336558,49.6404904 C70.266049,50.0704703 71.0357088,50.653093 71.2173139,50.1435669 C71.4594541,50.3177087 71.6994323,50.4940004 71.6367353,50.7648877 C71.9415724,50.8616332 71.9329246,50.6358938 71.9091429,50.397255 C72.6593451,50.8422841 73.0571468,51.1540195 74.1294818,51.3905084 C73.5652087,51.6506463 74.8386065,51.6205477 74.4364809,51.8677861 C74.74348,51.9946301 74.8688741,51.9516322 74.8299587,51.7387921 C75.1520916,52.168772 75.5390834,51.9731311 75.9606668,52.3278645 C75.9390471,52.0010798 76.574665,52.4095607 76.3433347,52.1988706 C76.3714403,52.0870758 76.6784394,52.2483183 76.8838261,52.3085154 C76.8341009,52.5235054 76.9854385,52.6632488 77.3378389,52.7384953 C77.2945996,52.830941 77.1886633,52.8674892 76.9486851,52.7750436 C77.0048962,52.9491854 77.7421265,53.0996784 77.6145706,52.8395406 C77.9518372,52.9061874 78.6436663,53.6135043 78.5852932,53.1942739 C78.8014898,53.3490667 79.0522778,53.4931099 79.0738974,53.7166995 C78.9571513,53.6586522 78.9160739,53.5726562 78.7755462,53.5232085 C78.8166235,53.6070546 78.9333697,53.6672518 78.9506654,53.7596975 C79.1928056,53.8263443 79.2382068,53.7145496 79.166862,53.4888101 C79.5343961,53.7983956 79.7700504,53.5318081 79.8997684,53.91879 C80.0619158,53.940289 80.1592043,53.9058906 80.1159649,53.7424983 C80.5748706,54.0033973 81.085377,54.1618568 81.6120452,54.2068765 C81.7763546,54.282123 81.7720307,54.4218664 81.8282418,54.5336612 C82.066058,54.623957 82.1676704,54.5960083 82.1914521,54.5014127 C82.4552119,54.6067578 82.3730572,54.8389469 82.6865422,54.9313926 C82.4941273,54.6712547 83.9275106,54.9614912 84.1999182,55.4860666 C84.215052,55.2259288 84.2323477,55.5075656 84.8939093,55.7397547 C84.8333742,55.62581 84.6150157,55.5720625 84.4463823,55.4968161 C84.6301494,55.3076249 85.1836127,55.8257507 85.4473725,55.9418452 C85.8235545,56.1052376 85.1360494,55.391471 85.728428,55.7268553 C85.6527592,55.7892024 85.6354635,55.8988472 85.7586956,56.1224368 C86.0656947,56.3804247 86.7531998,56.4040736 87.1142481,56.842653 C87.2742335,56.5696158 87.7001408,56.9952959 88.0136258,57.0189448 C87.6655493,56.7889055 87.3650361,56.5889649 87.0904665,56.4513714 C87.2880569,56.4437123 87.480205,56.5167249 87.62231,56.6534619 C87.563937,56.438472 87.0601989,56.3868744 87.0623609,56.1503855 C87.7671617,56.5137184 88.7573421,56.6685112 89.2891856,57.0554931 L89.3367489,57.0920413 C88.761666,57.0060454 89.5853749,57.3070313 89.3367489,57.0920413 L89.4253895,57.1070906 C89.8145433,57.1737375 90.5539356,57.569319 91.2457646,58.059496 C91.1830676,57.9799497 91.2565745,58.0014487 91.3387292,58.0272475 C91.1509951,57.8647274 90.9348065,57.7379244 90.7009493,57.6531651 C90.8047236,57.4919226 91.4922287,57.9606007 91.5203343,58.1626912 C91.7689603,58.2250383 91.4533133,57.8767546 91.9311078,58.1132435 C92.1473044,58.379831 91.7538266,58.1820403 91.8424672,58.3475825 C92.3029659,58.5625725 91.8424672,58.1218431 92.4370078,58.4357284 C92.3872826,58.3518823 92.231621,58.3067344 92.1148749,58.2486872 C92.3310714,58.18849 92.6229368,58.4636771 93.0250625,58.5238743 C93.1677522,58.7754125 93.5050188,58.9538541 93.7320253,59.1688441 C94.0152428,59.2182917 93.2304492,58.8248602 93.2996321,58.6227696 C93.5482582,58.8377596 93.872553,59.1344457 93.7082436,58.7775624 C94.3416996,58.891507 94.9038107,59.5450764 95.0940637,59.4827293 C95.7642731,59.9213088 94.819494,59.6203229 95.2345915,60.0309537 Z M57.5990916,45.1106526 C57.4974792,45.0526053 57.324522,45.0096074 57.3461416,44.9214615 C57.4239724,44.9494102 57.5277467,44.9085621 57.3742472,44.8333156 C57.3266839,44.9515601 57.0867057,44.7645188 56.8942908,44.6183257 L56.9786074,45.1493508 C57.04897,45.1220023 57.1169423,45.0889248 57.1818322,45.0504554 C57.0888677,44.8999625 56.9159104,45.0053076 56.818622,44.8698639 C56.8834809,44.8182663 56.8986147,44.7064716 56.7580869,44.8010671 C56.7656071,44.8255919 56.7656071,44.8517889 56.7580869,44.8763136 L56.7299814,44.9558599 L56.7688968,44.9451104 C56.8538493,44.9344866 56.9399221,44.9526656 57.0131989,44.996708 C56.9959032,45.0440058 57.0931916,45.1364514 57.1537267,45.0461557 C57.006713,44.9687593 56.8640233,44.7795681 57.06941,44.8182663 C56.9613117,44.9300611 57.4953173,45.295544 57.5990916,45.1106526 Z M76.8405868,52.9104872 C76.0190398,52.3880617 76.2936095,53.4737608 76.7519462,53.2329721 C76.639524,53.1727749 76.4730526,53.1319269 76.4579189,53.0394812 C76.384412,52.7965426 76.8470727,53.06528 76.8362629,52.8997377 L76.8405868,52.9104872 Z M81.0110188,54.3272709 C80.911145,54.2886309 80.8405985,54.1986703 80.8272517,54.0929318 C80.5613299,53.9768373 80.5461961,54.0929318 80.2932461,53.983287 C80.1375846,54.1724781 81.0693918,54.4756139 81.0066948,54.3165214 L81.0110188,54.3272709 Z M84.2345097,55.5763623 C84.0507426,55.5097155 84.0550665,55.3721219 83.899405,55.2968754 C83.6832084,55.4043704 83.964264,55.4086702 84.1264114,55.6172104 C83.9426443,55.5957114 83.8302221,55.6365595 83.7934687,55.7376048 C84.2820729,55.9590444 84.2518054,55.7591038 84.2301858,55.5656128 L84.2345097,55.5763623 Z" id="形状" fill="#EFEFEF" fill-rule="nonzero"></path>
                        <path d="M85.8506251,56.258214 C86.2100845,56.258646 86.5623862,56.3764963 86.8682927,56.5986395 C86.5373946,56.0377946 85.4885102,55.8859501 85.8506251,56.258214 Z" id="路径" fill="#EFEFEF" fill-rule="nonzero"></path>
                        <polygon id="路径" fill="#EFEFEF" fill-rule="nonzero" points="86.8650524 56.6072648 86.8844942 56.6072648 86.8520912 56.5900141"></polygon>
                        <path d="M101.48362,61.8544611 C101.325347,61.8186751 101.175839,61.7643581 101.040774,61.6935733 C101.091559,61.6274139 101.560813,61.9100952 101.306888,61.6935733 C101.108771,61.6423355 100.918196,61.5763388 100.738095,61.4965986 C100.8031,61.567269 100.998115,61.7010915 100.841697,61.6680117 C100.685279,61.634932 100.638556,61.5823052 100.526829,61.543211 C100.799037,61.7973234 101.221569,61.7702582 101.471432,61.914606 C101.258134,61.914606 100.898576,61.7431929 100.886388,61.786798 C101.310951,61.9281386 100.886388,61.8649864 101.117967,61.9958017 C101.434866,62.0379032 101.833021,62.1175952 101.48362,61.8544611 Z" id="路径" fill="#EFEFEF" fill-rule="nonzero"></path>
                        <rect id="矩形" fill="#EFEFEF" fill-rule="nonzero" x="33.3268293" y="29.3877551" width="45.3463415" height="48.9795918"></rect>
                        <path d="M91.9529056,78.9115646 C91.5183114,78.9358216 92.0321897,79.6150156 92.3317073,79.4209602 C92.1775119,79.2955929 92.0475668,79.1208486 91.9529056,78.9115646 Z" id="路径"></path>
                        <path d="M59.004878,78.2283142 C59.3139789,78.7403574 60.4038457,77.6509769 60.0146076,77.9499552 C59.6322384,77.7437633 59.2773448,77.7575094 59.004878,78.2283142 Z" id="路径"></path>
                        <path d="M112,79.09252 C110.922123,79.2393182 110.853139,79.4928788 110.219348,79.0124482 C109.141471,79.2949236 107.910536,79.3327353 107.201293,78.8322867 C106.666667,79.0969684 106.099704,79.1125379 105.836702,78.8834437 C105.519806,79.5217936 104.942064,78.9168069 104.894638,79.3527532 C103.885745,78.2606633 101.79682,80.1579193 101.337645,79.1926097 C100.281997,79.6931841 99.0557647,79.6292193 98.0544328,79.0213451 C98.0328752,79.3104931 97.5499865,79.5907443 97.0994341,79.0569325 C96.8536783,79.6863856 95.5343573,79.6352286 94.3702506,79.1570222 C94.3918081,79.4239281 93.2363244,79.7709058 92.5960658,79.3660985 L92.5960658,79.3660985 C92.4828652,79.2971259 92.3874678,79.2009879 92.3179736,79.0858473 C91.9989221,79.0991926 92.3761789,79.4728609 92.5960658,79.3660985 L92.5960658,79.3660985 C91.8243061,79.6040896 90.8218809,79.7197488 90.4079763,79.154798 C90.1363514,79.5818474 88.9118836,79.5885201 88.497979,79.2259729 C88.497979,79.4973272 88.331986,79.5529326 87.9525734,79.2459909 C87.7930477,79.2749057 87.8447858,79.5128967 87.8296955,79.690834 C86.5987604,79.7553363 86.4478577,79.1926097 85.2277014,79.495103 C86.1762328,78.7233002 83.5505255,79.5996412 84.1174885,78.9568428 C83.2422528,79.1414527 83.3004581,79.8064932 82.6084613,78.8678742 C82.6839127,79.7264215 81.3473457,78.6743674 80.4397736,79.381668 C80.7372676,79.1592464 80.2565346,79.0346904 80.5626516,78.9368249 C80.4333064,78.7811298 80.3082727,78.9012374 79.8771221,78.8189414 C79.9997665,79.0069582 80.2125549,79.1103244 80.4311506,79.0880715 C80.15737,79.0880715 79.0342226,79.4506187 78.9221234,78.9968787 C78.7475074,79.7486636 77.8270008,79.2193003 77.2988413,79.4906546 C73.9746699,79.0124482 72.3039612,78.4519458 69.091889,79.2104034 C66.8318131,78.8304297 64.5322428,78.7683276 62.2559957,79.0257935 C62.3422258,78.6276589 61.9757478,78.7455423 61.964969,78.4586185 C62.0792239,78.752215 61.46699,79.3238384 61.4195635,78.4786364 C61.1069793,78.9368249 60.9884128,78.4030131 60.3222851,78.3718741 C60.8159526,79.1926097 58.4942064,78.7455423 58.0070062,78.5942956 C57.8474805,78.6254347 57.9013743,78.8634257 57.8841283,79.0391388 C54.6009162,78.8055961 54.1072487,78.9746365 51.0676368,79.432825 C51.5225007,78.8523047 50.6537321,79.432825 50.1126381,79.4661882 C50.2203283,79.2936348 50.2618321,79.0858691 50.2290488,78.8834437 C49.0972784,79.5507084 47.2109943,79.5885201 45.7213689,78.9034616 C45.5877122,79.0013271 45.5920237,79.2393182 45.3225546,79.205955 C45.3613581,78.6832643 44.9215845,79.0302419 44.0894638,79.1058653 C42.4079763,79.2637846 40.4246834,79.6040896 38.4995958,79.4550671 C36.6952304,79.3171658 35.0956615,78.7210759 34.1298841,79.4706366 C34.2118027,78.9390491 32.9787119,79.4550671 33.1511722,78.7811298 C31.8684991,79.7597847 30.09647,78.9657397 27.9773646,79.4039102 C27.7768795,79.3483048 27.9881434,79.2771299 27.9773646,79.1147621 C25.6836432,79.2571119 22.6181622,79.4750851 21.6954999,79.1992823 C21.0789545,79.8153901 20.2209647,79.0035513 19.5268122,79.7130762 C19.3651307,79.6952824 19.4017785,79.4550671 19.3759095,79.2838025 C18.6752897,79.5685021 17.7246025,79.6774887 17.7375371,79.3438564 C17.4378874,79.8220627 17.1468607,79.4417218 16.7976287,79.8131659 C17.0821881,79.2771299 16.366478,79.8331838 16.1013204,79.4039102 C16.2177311,79.4862062 14.5922932,79.7775784 13.9261655,79.77313 C12.9215845,79.77313 11.7531663,79.1325559 11.1991377,79.8732197 C8.80409593,79.174816 6.04688763,79.9510673 3.68849367,80 C3.72082996,79.7664573 3.55268122,79.7575605 3.53759095,79.5729506 C3.065481,80.0422601 1.021827,79.628556 0.127189437,79.6975067 C-0.0107787658,79.6975067 0.0409593102,79.9866547 0,79.9911031 L0.0840743735,78.3941162 C0.357855026,79.1681433 2.81110213,77.9826363 4.47749933,78.814493 C4.74050121,78.45417 4.69307464,78.6610221 5.15225007,78.5008786 C5.09784183,78.5927201 5.05509543,78.6913933 5.02506063,78.7944751 C6.45001347,78.8700984 7.96119644,77.9781879 9.37752627,78.2006095 C9.90137429,78.2851296 12.4214497,78.0582596 13.62436,78.6254347 C18.4446241,77.4510487 23.3834546,78.5208965 27.6690919,77.824717 C27.8609539,77.9047888 27.7078954,78.3807709 27.9622743,78.391892 C28.2942603,78.3652014 27.9752088,77.9136856 27.8113716,77.9626184 C29.3053085,77.9403762 31.1678793,77.804699 32.995958,77.7757842 C34.2678523,77.7535421 36.1002425,77.6556766 36.9711668,78.2095063 C37.3678254,77.6445555 38.8682296,78.020448 38.6138507,78.2940265 C38.995419,77.9537215 40.5303153,77.8491834 41.2007545,78.3429593 C41.7655618,77.9982058 42.873619,78.1205377 42.9706279,78.133883 C43.0094314,78.133883 43.2896793,77.8936677 43.5117219,77.969291 C43.5613042,77.9870847 43.7682565,78.3963404 43.7984371,78.3941162 C44.1864726,78.3518561 43.5828618,78.1205377 43.9191593,77.9492731 C44.9776341,77.4354792 46.4392347,78.6298831 47.6033414,77.8135959 C48.3276745,78.5164481 48.9205066,77.886995 50.0609,77.7246273 C50.0609,78.0137753 50.0781461,78.3029234 50.0889248,78.5920714 C50.1686877,77.9870847 50.5351657,78.5297934 50.6149286,77.9937574 C50.5481002,77.7824569 50.4424683,78.0560354 50.2053355,78.0093269 C50.3950418,77.3909949 51.2724333,77.9248067 51.3112369,78.4030131 C51.5526812,78.3629772 51.6022635,78.1516767 51.4707626,78.0382417 C51.8609539,78.1672462 52.6434923,78.2717844 52.794395,77.7691116 C53.0099704,78.3696498 53.4518998,77.3109231 53.6265158,78.1739189 C54.0188628,77.4732909 55.7046618,77.5956228 56.0776071,77.938152 C56.4613312,77.4933088 56.7954729,77.7490937 57.4292643,77.4554972 C57.0412288,77.7023851 57.2783616,77.8313896 57.7159795,77.8803224 C57.7159795,77.7379726 57.545675,77.77356 57.4378874,77.7446452 C57.545675,77.257542 57.7396928,77.6067438 57.9832929,77.7246273 C58.4618701,76.814923 61.1457828,77.6111923 62.3443816,77.4221339 C62.7453517,77.5333447 62.5060631,77.6334344 62.4995958,77.9937574 C62.6130759,77.8946103 62.7562046,77.8388397 62.9048774,77.8358381 C62.8087798,77.7145844 62.7555588,77.5631862 62.7539747,77.4065644 C63.9353274,77.2308514 65.1985988,77.6734703 66.7291835,77.8402865 C68.7038534,78.0627081 72.9032606,76.7904567 74.3864188,77.9959816 C76.1218001,77.6045196 78.3465373,78.1672462 80.9355969,77.7557663 C80.4872002,78.6454526 81.9121531,77.4399277 82.1729992,78.0026542 C82.6343304,77.1641249 85.1716518,78.2406453 86.9630827,78.2606633 C88.3643223,78.2762328 89.5090272,77.1307617 90.1040151,78.2918023 C90.4381568,77.9025645 90.7205605,78.1872642 91.3241714,77.9581699 C90.9598491,78.3696498 92.2295877,78.2273 92.5507949,77.9136856 C92.7534357,77.969291 92.5507949,78.0404659 92.5615737,78.2028337 C93.615737,78.0471386 93.2859068,77.8380623 94.1999461,78.1427798 C94.1460523,78.3652014 94.0231743,78.0916229 93.7881973,78.1561251 C94.0274859,78.6721432 94.4349232,78.1116408 94.7539747,78.4119099 C94.5491781,77.9670668 95.9655079,77.8847708 96.2630019,78.3563046 C96.4225276,78.3273897 96.3707895,78.0893987 96.3858798,77.9114614 C97.7008892,78.4319279 100.35031,77.3465106 101.990838,77.9959816 C102.053355,78.020448 102.234438,78.4208068 102.277553,78.4208068 C102.562113,78.4208068 102.156831,78.0893987 102.133118,78.1361072 C102.443546,77.5355689 104.448397,78.0560354 105.407707,78.0159995 C106.765831,77.9603941 108.460253,77.6378829 109.637295,77.8625287 C109.441121,78.4363763 110.001617,78.1494525 110.068445,78.4252552 C110.346537,78.4608427 110.02533,78.0093269 109.917542,77.9982058 C109.874427,77.7757842 110.753975,77.9982058 110.335759,78.2717844 C110.9135,77.9426004 111.172191,77.9982058 111.967664,78.0671565 C111.890057,78.1983852 111.810294,78.3318382 111.967664,78.3563046 C111.978442,78.5787261 111.163568,78.5965199 111.840474,78.649901 C111.814605,78.8345109 111.439504,78.8545289 111.430881,78.6654705 C111.187281,79.0079998 111.808138,79.0324661 112,79.09252 Z M60.4645648,78.0760534 C60.0980868,77.9426004 59.763945,77.9514973 59.5138777,78.2562148 C59.8049043,78.587623 60.8310428,77.8825466 60.4645648,78.0760534 L60.4645648,78.0760534 Z" id="形状" fill="#393939" fill-rule="nonzero"></path>
                        <path d="M51.4425055,77.8565524 C51.3928409,77.8176122 51.3326723,77.7943386 51.2696896,77.7897061 C51.3250145,77.8174678 51.3828863,77.8398531 51.4425055,77.8565524 Z" id="路径" fill="#393939" fill-rule="nonzero"></path>
                        <rect id="矩形" fill="#FFFFFF" fill-rule="nonzero" x="38.2439024" y="39.7278912" width="35.5121951" height="4.3537415"></rect>
                        <rect id="矩形" fill="#FFFFFF" fill-rule="nonzero" x="37.697561" y="51.1564626" width="27.8634146" height="4.3537415"></rect>
                        <rect id="矩形" fill="#FFFFFF" fill-rule="nonzero" x="37.697561" y="62.585034" width="22.4" height="4.3537415"></rect>
                        <polygon id="路径" fill="#415CE5" fill-rule="nonzero" points="89.0536585 44.6125411 81.5253634 40.8163265 67.7463415 67.588042 67.7463415 67.588042 67.7463415 67.588042 67.7463415 67.588042 67.7463415 67.588042 68.9020294 74.5578231 75.2746366 71.3842567 75.2746366 71.3842567"></polygon>
                        <path d="M87.326458,48.1355345 C87.2677216,48.2516574 87.2428032,48.3088522 87.212545,48.3088522 C87.2669061,48.2012934 87.3299958,48.0981307 87.4012135,48.0003466 C87.4101129,47.9379523 87.3157787,48.1442004 87.3228983,48.081806 C87.3300178,48.0194116 87.3673955,48.0228779 87.4047733,47.9500845 C87.4047733,47.9344859 87.4403711,47.8304953 87.376295,47.9500845 C87.3193385,48.1234022 87.3211184,47.9656831 87.3460368,47.8911565 C87.1876265,48.1736644 87.2801809,47.837428 87.1431293,48.0939382 C87.1549357,48.0449336 87.1734962,47.9977095 87.1983059,47.9535508 C87.1662678,48.0072793 87.1751673,47.9778153 87.1840668,47.9535508 C87.1164309,48.0540751 87.1075314,48.1268686 87.0843929,48.1268686 C87.1769472,47.9535508 87.0576945,48.1164695 87.1057515,48.0298107 C87.1316747,48.0039299 87.1554792,47.9761142 87.1769472,47.9466181 C87.1769472,47.9084882 87.1253303,47.984748 87.1093113,47.9795485 C87.1342298,47.9292864 87.1573684,47.8686252 87.1199907,47.9310195 C87.1077644,47.9796147 87.0873125,48.025888 87.0594744,48.0679406 C87.0594744,48.1268686 87.1075314,48.0454092 87.0772733,48.1251354 C87.0683738,48.1008709 86.9775994,48.2897873 86.9562407,48.2984531 C86.9473412,48.2603232 87.0434554,48.1511331 87.0345559,48.1130032 C86.9811592,48.2117943 86.9491211,48.2533905 86.9384418,48.2412583 C86.7604527,48.5393648 86.9758195,48.326184 86.9882787,48.3573812 C87.000738,48.3885784 86.9313222,48.4561723 87.0274363,48.3175181 C86.9793793,48.4648382 87.0274363,48.3608475 87.0861727,48.2828545 C87.0398956,48.3868452 87.1253303,48.2828545 87.0541347,48.4284414 C87.0772733,48.4180424 87.1110912,48.3036527 87.1431293,48.29672 C87.1204324,48.3418541 87.1002314,48.3881383 87.082613,48.4353741 C87.2036456,48.2620564 87.082613,48.4076433 87.1751673,48.2620564 C87.146689,48.3955111 87.2641619,48.1234022 87.3086591,48.0887387 C87.2606021,48.1961957 87.262382,48.1719312 87.1929662,48.3140517 C87.2089852,48.2620564 87.2018657,48.2620564 87.146689,48.3539148 C87.146689,48.3695134 87.1235505,48.4197756 87.146689,48.4059101 C87.2267841,48.229126 87.2250043,48.4111097 87.326458,48.1355345 Z" id="路径" fill="#FFFDFD" fill-rule="nonzero"></path>
                        <path d="M86.594428,48.9139909 C86.5434883,48.8957524 86.6241428,48.7544038 86.5180184,48.8911928 L86.6071629,48.7133671 C86.5413658,48.8045598 86.5434883,48.7133671 86.428874,48.9413487 C86.48343,48.7976735 86.5472599,48.6582657 86.6198979,48.5241424 C86.5456108,48.6107754 86.5137735,48.6768901 86.4819362,48.6860093 C86.4437314,48.7658029 86.4819362,48.7407249 86.4819362,48.7544038 C86.3503419,49.0188625 86.3206271,48.9823854 86.2887898,48.9664267 C86.3736893,48.8364772 86.3206271,48.900312 86.3694443,48.7886011 C86.341852,48.8068396 86.2336051,49.0576194 86.24634,48.9550276 C86.2879021,48.9019294 86.3235204,48.8437765 86.3524644,48.7817616 C86.3736893,48.7202066 86.3970367,48.6586515 86.416139,48.5993763 C86.3843017,48.5993763 86.3354845,48.8000001 86.3185046,48.7726423 C86.3185046,48.7908809 86.3864242,48.6039359 86.3185046,48.6381332 C86.2832984,48.6922731 86.2587431,48.7535573 86.24634,48.8182387 C86.1826654,48.9481882 86.2017678,48.8364772 86.1741755,48.8661148 C86.1741755,48.8091194 86.2272376,48.7931607 86.2293601,48.813679 C86.2643458,48.710636 86.3054655,48.6101166 86.3524644,48.5127433 C86.4113873,48.4438282 86.4620159,48.3672346 86.503161,48.2847617 C86.5710806,48.1502525 86.3439745,48.4945048 86.503161,48.218647 C86.4479764,48.280202 86.4692012,48.2414452 86.4543438,48.2026883 C86.4034041,48.3417571 86.3248721,48.5241424 86.2208702,48.7430047 C86.2360494,48.6744075 86.2691921,48.6119108 86.3163821,48.5628992 C86.2569525,48.6540919 86.259075,48.5970965 86.3036472,48.4922249 C86.2760549,48.5332616 86.0913984,48.8182387 86.1550731,48.7863212 C86.0616836,48.9550276 86.1105008,48.8501561 86.0913984,48.8364772 C86.1508281,48.7110873 86.1762979,48.6814497 86.2187477,48.6084956 C86.1487056,48.7133671 86.1954003,48.6084956 86.1762979,48.5948167 C86.0043764,48.9139909 86.1996453,48.4945048 86.0553161,48.7612433 C86.0553161,48.7475644 86.1062558,48.5332616 86.0043764,48.7452845 C86.076541,48.5378213 85.8982521,48.7247662 86.0298463,48.4831057 C86.0086214,48.4557479 85.9173544,48.6312937 85.8409449,48.7658029 C85.853515,48.6969792 85.8705361,48.6291803 85.8918846,48.5628992 C85.7709028,48.863835 85.9513142,48.355436 85.7900052,48.6700506 C85.81972,48.5811378 85.7900052,48.578858 85.8303325,48.4762662 C85.7942502,48.5059038 85.7942502,48.5720185 85.732698,48.6518121 C85.7475554,48.5628992 85.6881258,48.6700506 85.6647784,48.6312937 C85.7287114,48.4940719 85.7840197,48.3524066 85.8303325,48.2072479 C85.7720448,48.2998721 85.7222856,48.3983682 85.6817583,48.5013442 C85.6817583,48.3896332 85.6477985,48.3531562 85.5055918,48.5834176 C85.5183268,48.5059038 85.5353067,48.4443488 85.475877,48.5081837 C85.5013469,48.4603075 85.5140818,48.4511883 85.5437966,48.391913 C85.5162043,48.4124314 85.4588971,48.5127433 85.4440397,48.4967846 C85.4886119,48.4010323 85.5013469,48.3987525 85.5395516,48.3235185 C85.5013469,48.3371974 85.3803651,48.5515002 85.4907344,48.3075598 C85.4737545,48.3075598 85.397345,48.4648671 85.397345,48.4147112 C85.5098368,48.1616516 85.2997105,48.4147112 85.4355498,48.0886975 C85.3845152,48.1914992 85.3209924,48.2865632 85.2466484,48.3713947 C85.3506502,48.1593718 85.1575039,48.4238305 85.301833,48.1844498 C85.1426465,48.2072479 85.0895843,48.1274543 85.1129316,47.9245507 C85.076174,47.9790089 85.0441997,48.0370128 85.0174197,48.0978167 C84.9983173,48.1890094 84.9749699,48.1365736 85.0683594,47.9769865 C84.9813374,48.0704589 85.0131747,47.9382296 84.8858255,48.1274543 C85.0046848,47.7832021 84.8476207,47.8105599 84.7181489,47.9405094 C84.7393738,47.8857938 84.7775786,47.8060003 84.8285183,47.7125278 C84.7405325,47.7874655 84.6682156,47.8814552 84.6162695,47.9883856 C84.6905566,47.796881 84.6863116,47.8424773 84.6162695,47.9199911 C84.8285183,47.5073443 84.4952877,47.7900416 84.5759423,47.6372939 C84.5602623,47.6520847 84.5497748,47.6722006 84.5462274,47.6942893 C84.4952877,47.4891058 84.2596916,47.6942893 84.2490792,47.4024728 C84.2214868,47.4594682 84.2363442,47.4526288 84.2363442,47.4663076 C84.108995,47.4982251 84.11324,47.3659957 84.0814026,47.2178077 C84.0453204,47.2770829 83.9752783,47.4184315 83.9519309,47.3819544 C83.9795232,47.3340783 84.0071156,47.288482 84.0474428,47.2064086 C84.0043242,47.2577788 83.9692055,47.3162862 83.943441,47.3796746 C83.9965031,47.1015371 83.8967462,47.1129361 83.7757644,47.1927297 C83.9031137,47.0468215 83.8033568,46.9898261 83.8012343,47.06506 C83.8012343,46.9054729 83.5104535,47.263404 83.6632726,46.8211197 C83.4934736,46.9852664 83.4064516,46.668372 83.2960822,46.5748995 C83.3470219,46.4677481 83.3682468,46.4540693 83.4234315,46.3469179 C83.3979616,46.3469179 83.2982047,46.5612206 83.2493875,46.6318949 C83.2493875,46.4586289 83.0201588,46.8279591 83.2175502,46.3514775 C83.0477512,46.6387344 83.0498737,46.4609087 83.1071808,46.3195601 C83.0804125,46.3541961 83.0628171,46.3959328 83.0562411,46.4403904 C82.8949321,46.6980096 83.0838335,46.2511656 82.9310143,46.5361426 C82.9777091,46.2374867 82.7399905,46.4381105 82.737868,46.2078491 C82.6848058,46.3423583 82.6826833,46.2078491 82.6848058,46.1234959 C82.5404766,46.4175922 82.5935388,46.0619409 82.563824,46.0209042 C82.5341092,45.9798675 82.4194948,46.1212161 82.3791676,46.1006977 C82.3388403,46.0801794 82.3494527,45.8316794 82.2963905,45.8043216 C82.2433284,45.7769638 82.0013648,46.0117849 81.9801399,45.9137528 C81.9801399,45.9274317 82.1074891,45.6128171 81.96316,45.9137528 C82.0098547,45.7336473 81.8336882,45.9433904 81.9185877,45.6971703 C81.793361,45.8727161 81.8018509,45.7199684 81.8294433,45.6036978 C81.1651046,45.7017299 80.940121,45.0383034 80.2460675,45.1272162 C80.0338187,45.1568538 79.734548,45.2776841 79.7685078,44.8490786 C80.0444312,44.33612 79.8809996,44.8627575 79.9361843,44.8992346 C80.0529211,44.981308 80.4264789,44.6347759 80.5071335,44.7989227 C80.7469746,44.4934273 80.670565,44.8513585 80.7894243,44.8171612 C80.8021593,44.8331199 80.8382415,44.7761245 80.9019162,44.6484548 C81.0207755,44.6484548 80.9846932,44.9744685 81.0950625,44.9767483 C81.1460023,44.9767483 81.2521266,44.8559181 81.2882089,44.8992346 C81.2882089,44.8992346 81.2224118,45.0041061 81.2202893,45.0132254 C81.2054319,45.1021382 81.4834778,44.8171612 81.3837209,45.129496 C81.5535199,44.8878355 81.4516405,45.2389272 81.6320519,45.0018263 C81.6171945,45.0474227 81.5896022,45.1135373 81.5598873,45.1842116 C81.5980921,45.1089777 81.6851141,45.017785 81.6065821,45.129496 C81.6660117,45.216129 81.8188308,45.1454547 81.8570356,45.3415189 C81.9143428,45.2685648 82.0247121,45.0816199 81.9376901,45.2959226 C82.1647963,44.9106337 82.0607944,45.4076336 82.1966336,45.2389272 C82.1563064,45.3096015 82.1265915,45.3574777 82.1117341,45.3506382 C82.0926317,45.4258721 82.1669188,45.3301199 82.1117341,45.4851474 C82.1393265,45.4099134 82.2687982,45.2571657 82.1626738,45.5011061 C82.3006355,45.2366474 82.1626738,45.601418 82.302758,45.3392391 C82.4152499,45.1956107 82.2327159,45.5922987 82.2581858,45.5968584 C82.2836556,45.601418 82.4937819,45.2115694 82.3176154,45.6150969 C82.3367178,45.6150969 82.4237398,45.4167529 82.4534546,45.3871153 C82.4534546,45.5193446 82.5128843,45.4007942 82.5532116,45.4167529 C82.4279848,45.6584134 82.6105187,45.3688767 82.472557,45.5945785 C82.5829264,45.4600694 82.563824,45.626496 82.5850489,45.6971703 C82.7272555,45.3871153 82.6274986,45.6652528 82.7590929,45.4099134 C82.8397474,45.3665969 82.7866852,45.5193446 82.733623,45.6743721 C82.7569704,45.6743721 82.8333799,45.4783079 82.812155,45.4942666 C82.8906871,45.3574777 82.7527254,45.662973 82.8333799,45.5695006 C82.7187656,45.7199684 82.8333799,45.5922987 82.7230106,45.7974822 C82.7484804,45.8088813 82.9352593,45.4851474 82.7654603,45.8088813 C82.7824402,45.8088813 82.8567273,45.6515739 82.8588498,45.7017299 C82.8228959,45.7571445 82.7929851,45.8168106 82.7697053,45.8795556 C82.820645,45.7838033 82.9140344,45.7108492 82.9437493,45.5922987 C83.0222813,45.514785 83.0456287,45.6720923 83.0095464,45.7473262 C83.0265263,45.7473262 83.1008134,45.5900189 83.1029358,45.6401749 C83.0244038,45.8385189 83.077466,45.7587253 83.1029358,45.7769638 C83.0498737,45.8841152 83.0519961,45.9046335 82.9925665,46.0163445 C83.0371387,45.9844271 83.0477512,45.8886748 83.1114258,45.7883629 L83.1453856,45.799762 C83.0116689,46.0277436 83.2154277,45.738207 83.0519961,46.0414225 C83.1814679,45.9342712 83.2069377,45.8134409 83.1432631,46.0710601 C83.2239176,45.9775877 83.3555119,46.0300234 83.3406545,46.19645 C83.4849836,45.9411106 83.412819,46.1645326 83.5529032,45.9228721 C83.586571,45.9956421 83.612898,46.0720704 83.6314353,46.1508537 L83.5422908,46.3286794 C83.6187003,46.2146885 83.5422908,46.3605968 83.5422908,46.3970738 C83.6484152,46.2101289 83.5422908,46.3446381 83.6441702,46.1690922 C83.5401683,46.5156243 83.6908649,46.4153124 83.7863769,46.3469179 C83.7333147,46.4859867 83.7099673,46.618216 83.852174,46.3674362 C83.7354372,46.668372 83.9901357,46.3674362 83.8097242,46.7595646 C83.852174,46.6615325 84.021973,46.3902344 83.9094811,46.6546931 C83.9667883,46.593138 83.9625433,46.6113766 84.0453204,46.4267115 C84.0080998,46.5548317 83.9506648,46.6751317 83.8755213,46.7823628 C84.0559328,46.531583 84.2236093,46.4289913 84.0877701,46.7823628 C84.1365873,46.6797711 84.200262,46.6660922 84.2023844,46.6113766 C84.2915289,46.4267115 84.1514447,46.7686839 84.2575691,46.5612206 C84.2023844,46.7162481 84.1026275,46.7892022 84.0071156,46.9601885 C84.0516878,46.9328307 84.1641797,46.7025692 84.1641797,46.8028811 C84.191772,46.7481655 84.1769146,46.755005 84.1769146,46.7390463 C84.278794,46.5452619 84.2533241,46.6866105 84.1578122,46.8712756 L84.2469567,46.8302389 C84.2724265,46.8302389 84.2129969,46.9487894 84.2299768,46.9601885 C84.2469567,46.9715875 84.3361012,46.7869224 84.3636935,46.7960417 C84.3361012,46.8074408 84.2575691,47.0832985 84.3424686,46.9259912 C84.2957739,47.0263031 84.2809165,47.0354224 84.2681816,47.0377022 C84.200262,47.1790508 84.3021414,47.0377022 84.3297337,46.9898261 C84.3297337,47.0308628 84.2724265,47.0787389 84.2342218,47.1630921 C84.2533241,47.1630921 84.2809165,47.1334545 84.3254887,47.0559407 C84.3254887,47.1174958 84.200262,47.2679636 84.2236093,47.2976012 C84.3467136,47.0422618 84.1854045,47.4412297 84.3254887,47.1927297 C84.4210007,46.9807068 84.2618141,47.2314866 84.3806734,47.0057848 C84.3679385,47.0718994 84.4125107,47.0582205 84.3806734,47.1425737 C84.3998064,47.1037229 84.4140797,47.0623284 84.4231232,47.0194637 C84.5143901,46.9100325 84.535615,47.0696196 84.4379806,47.2953214 C84.4613279,47.2451655 84.4698179,47.2406058 84.4761853,47.238326 C84.4922192,47.1989627 84.5036269,47.1576078 84.5101451,47.115216 C84.5589624,47.0377022 84.614147,46.9419499 84.6544743,46.8872343 C84.6267093,47.0162848 84.5778419,47.1390182 84.5101451,47.2497251 C84.5228801,47.2497251 84.5483499,47.1927297 84.5568399,47.1950095 C84.5989612,47.0708444 84.6500566,46.9504071 84.709659,46.8347986 C84.6374944,47.0627802 84.709659,46.9328307 84.6035346,47.1425737 C84.626882,47.1881701 84.7457413,46.8644362 84.6948016,47.0331426 C84.6693317,47.0832985 84.6714542,47.090138 84.6735767,47.0946976 C84.6459844,47.151693 84.6417394,47.1380141 84.626882,47.1494132 C84.5738198,47.2588444 84.6374944,47.1950095 84.6014121,47.2770829 C84.6565968,47.1083765 84.8667231,46.8872343 84.7414963,47.115216 C84.7791913,47.0609953 84.8118899,47.0029671 84.8391307,46.9419499 C84.7839461,47.0741793 84.9325202,46.903193 84.7712111,47.1927297 C84.9601125,46.8781151 84.8051709,47.2702435 84.9601125,47.0468215 C84.8539881,47.3021609 85.0322771,47.0696196 84.8879479,47.3637159 C84.9686025,47.2406058 84.970725,47.3637159 84.8433757,47.6213352 C85.0853393,47.263404 84.875213,47.7581241 85.1681163,47.3796746 C85.1681163,47.4161517 85.2020761,47.5392618 85.3230579,47.3591563 C85.2390343,47.4854218 85.1824598,47.6303302 85.1575039,47.7832021 C85.2317909,47.6327342 85.2615058,47.5552205 85.2424034,47.536982 C85.3082005,47.4822664 85.3230579,47.536982 85.3952225,47.4480691 C85.3824876,47.5301425 85.2954656,47.6213352 85.3485278,47.5005049 C85.3053163,47.6020677 85.2556752,47.70033 85.1999536,47.7946012 C85.2721182,47.660092 85.2657507,47.7512847 85.3527727,47.5666196 C85.3400378,47.7056884 85.3782426,47.6213352 85.310323,47.8242388 C85.4992244,47.4891058 85.310323,47.9564681 85.4949794,47.6076563 C85.4949794,47.6464131 85.4737545,47.68517 85.5119593,47.6076563 C85.4525297,47.7854819 85.4037124,47.9929452 85.5947363,47.635014 C85.5706589,47.7423803 85.5289734,47.844283 85.471632,47.9359498 C85.5399736,47.8488636 85.5957781,47.7512674 85.6371861,47.6464131 C85.6371861,47.7672434 85.5968588,47.8743948 85.7114731,47.8037204 C85.5268167,48.0932571 85.7645353,47.8037204 85.6095937,48.045381 C85.6244512,48.0613397 85.6605334,48.0043443 85.7242081,47.8766746 C85.6393086,48.0841378 85.7751478,47.8766746 85.7242081,48.0134635 C85.8303325,47.8060003 85.8091076,47.9313902 85.8388224,47.8447571 C85.8685372,47.7581241 85.8833946,47.8014406 85.9003745,47.796881 C85.81972,47.9488687 85.7984951,48.0104238 85.8366999,47.9815461 C85.7963727,48.0522204 85.7666578,48.0978167 85.7518004,48.0909773 C85.7029832,48.193569 85.7878827,48.1297342 85.8536798,47.9861057 C85.8940071,47.9541883 85.7751478,48.2733626 85.9131095,48.0020645 C85.8955114,48.0886221 85.8639017,48.171189 85.81972,48.2460048 C85.81972,48.2323259 85.8409449,48.1844498 85.8324549,48.1821699 C85.8091076,48.2300461 85.8112301,48.243725 85.7815152,48.3030002 C85.8377786,48.2352365 85.8836329,48.1582783 85.9173544,48.0750186 C85.8770272,48.2004085 86.0171114,47.9633076 85.9003745,48.2049681 C85.9431331,48.1541487 85.9782249,48.0964555 86.0043764,48.0339819 C86.0043764,48.1000966 86.0383362,48.1000966 86.1274807,48.0020645 C86.105745,48.0646065 86.0787485,48.1248909 86.0468262,48.1821699 C86.0595611,48.1821699 86.0892759,48.1434131 86.1317257,48.0704589 C86.1444606,48.081858 86.0383362,48.2665231 86.0680511,48.2551241 C86.1274807,48.1160553 86.3078922,47.9678672 86.159318,48.2824819 C86.2654424,48.0864177 86.159318,48.2824819 86.2017678,48.2961607 C86.2336051,48.2254864 86.2017678,48.2414452 86.2017678,48.2277663 C86.3163821,48.0408213 86.2229927,48.2847617 86.2314826,48.30528 C86.2399726,48.3257984 86.3885467,47.9724268 86.3736893,48.0772984 C86.333362,48.1434131 86.2845448,48.2323259 86.2166252,48.3691149 C86.1487056,48.5059038 86.3121371,48.3235185 86.2038903,48.5674589 C86.3545869,48.3166791 86.2654424,48.5332616 86.3227496,48.4694268 C86.3422802,48.4047751 86.3564847,48.3384052 86.3651993,48.2710828 C86.4076491,48.2140874 86.416139,48.2163672 86.3949142,48.2870415 C86.4755687,48.132014 86.3843017,48.2300461 86.4883036,48.0431012 C86.4883036,48.1365736 86.6432452,47.9815461 86.5923055,48.1434131 L86.5923055,48.1593718 C86.4989161,48.2551241 86.5541007,48.2596837 86.5923055,48.1593718 L86.6071629,48.1456929 C86.6665926,48.0886975 86.6581026,48.1981287 86.590183,48.4101516 C86.6135304,48.3599956 86.6198979,48.355436 86.6262653,48.355436 C86.6623476,48.2733626 86.6644701,48.2391653 86.6538577,48.2277663 C86.7536146,48.0590599 86.6963074,48.2505644 86.6050404,48.416991 C86.6347553,48.3964727 86.7281447,48.1890094 86.7281447,48.2505644 C86.6867189,48.3291295 86.6413731,48.4052342 86.5923055,48.478546 C86.5923055,48.528702 86.7047974,48.2779222 86.6941849,48.3736745 C86.7238997,48.3143993 86.7069198,48.3235185 86.7069198,48.3098396 C86.7896969,48.1890094 86.7238997,48.3440369 86.7960643,48.2665231 C86.7392768,48.3844095 86.6882675,48.505405 86.6432452,48.6290139 C86.6878175,48.5834176 86.6920624,48.4762662 86.8130442,48.2710828 C86.7621045,48.391913 86.6941849,48.55378 86.8363916,48.2710828 C86.942516,48.1662112 86.7430021,48.590257 86.8236567,48.4694268 C86.7854519,48.6381332 86.7047974,48.6632112 86.594428,48.9139909 Z M84.8200283,47.2953214 C84.8200283,47.2816425 84.8051709,47.2953214 84.8327633,47.2314866 C84.8327633,47.2314866 84.8667231,47.1881701 84.8624781,47.1744912 C84.8051709,47.2862022 84.8624781,47.1174958 84.8497432,47.1015371 C84.792436,47.213248 84.7945585,47.2360462 84.7414963,47.3295187 C84.7414963,47.3295187 84.7075365,47.3728352 84.7117815,47.3865141 C84.7351288,47.3431976 84.7521087,47.3203994 84.7563537,47.3340783 C84.7605987,47.3477572 84.7308839,47.4024728 84.7563537,47.3340783 C84.7637644,47.2898947 84.7812674,47.2483772 84.8072934,47.213248 C84.7648437,47.3203994 84.7478638,47.4343902 84.8306408,47.2953214 L84.8200283,47.2953214 Z M85.7114731,48.1730507 C85.736943,48.0111837 85.4206923,48.6632112 85.5841239,48.4010323 C85.5841239,48.3850736 85.567144,48.4010323 85.5968588,48.3371974 C85.6626559,48.2072479 85.654166,48.2847617 85.7114731,48.1730507 L85.7114731,48.1730507 Z M85.9916415,48.1912892 C86.0018242,48.1480895 86.0190722,48.1071768 86.0425812,48.0704589 C86.0425812,48.0522204 85.9916415,48.132014 85.9789066,48.1183351 C85.8770272,48.2938809 85.9449468,48.2870415 85.9916415,48.1912892 L85.9916415,48.1912892 Z M86.1550731,48.3075598 C86.1444606,48.3075598 86.1996453,48.2026883 86.1975228,48.1844498 C86.1126233,48.3143993 86.167808,48.2505644 86.1168683,48.3645552 C86.0727747,48.4158905 86.0343178,48.4724971 86.002254,48.5332616 C86.0107439,48.5811378 86.0829085,48.4443488 86.1550731,48.3075598 L86.1550731,48.3075598 Z" id="形状" fill="#FFFDFD" fill-rule="nonzero"></path>
                        <path d="M86.2455192,47.9853014 C86.3254466,47.8925791 86.351369,47.8882664 86.3492088,47.9400184 C86.4853013,47.666164 86.3016844,47.8451397 86.2455192,47.9853014 Z" id="路径" fill="#FFFDFD" fill-rule="nonzero"></path>
                        <path d="M87.279735,48.1041112 C87.279735,48.0922804 87.2325203,48.1041112 87.279735,48.0449571 C87.4078892,47.9305925 87.2291478,48.1514345 87.4146341,47.9503106 C87.3876543,47.9503106 87.3809094,47.9325643 87.4146341,47.8911565 C87.3559334,47.9598201 87.2882842,48.0257414 87.2122855,48.0883368 C87.2122855,48.0883368 87.2358928,48.0449571 87.2325203,48.0331263 C86.9998193,48.2835453 87.2561277,48.0883368 87.1718157,48.1987578 C87.0706414,48.2697427 87.131346,48.1711525 87.0571515,48.2381938 C87.0571515,48.2796017 86.9424872,48.3446712 86.8682927,48.4353741 C87.0402911,48.3412913 87.1799446,48.2288526 87.279735,48.1041112 L87.279735,48.1041112 Z" id="路径" fill="#FFFDFD" fill-rule="nonzero"></path>
                    </g>
                </g>
            </g>
        </g>
    </g>
</svg>