<?xml version="1.0" encoding="UTF-8"?>
<svg width="120px" height="120px" viewBox="0 0 120 120" version="1.1" xmlns="http://www.w3.org/2000/svg" xmlns:xlink="http://www.w3.org/1999/xlink">
    <!-- Generator: Sketch 60.1 (88133) - https://sketch.com -->
    <title>okr缺省</title>
    <desc>Created with Sketch.</desc>
    <g id="4.数据中心/沟通全局" stroke="none" stroke-width="1" fill="none" fill-rule="evenodd">
        <g id="16缺省" transform="translate(-1156.000000, -376.000000)">
            <g id="编组" transform="translate(960.000000, 376.000000)">
                <g id="okr缺省-2" transform="translate(196.000000, 0.000000)">
                    <g id="okr缺省" transform="translate(10.000000, 49.000000)">
                        <path d="M50.8201161,38.3033424 C50.7040619,38.3477174 50.6131528,38.4171739 50.5531915,38.4017391 C50.4932302,38.3863043 50.4680851,38.289837 50.4545455,38.0004348 C50.7234043,38.1219837 50.8162476,37.7052446 51.0909091,38.2975543 C51.1953578,37.7727717 50.7969052,38.1837228 50.8974855,37.6627989 C51.0135397,37.6627989 51.0251451,37.8557337 51.1702128,37.8094293 C51.1953578,37.7110326 51.3868472,37.1727446 51.1702128,37.1650272 C51.0116054,37.5258152 51.0038685,37.2904348 51.0309478,36.9219293 C51.0479185,36.566079 51.099088,36.2126745 51.1837524,35.8665761 C50.9052224,35.8916576 50.8626692,35.4266848 50.8355899,34.973288 C50.8085106,34.5198913 50.7582205,34.085788 50.5203095,34.1899728 C50.5860735,33.7925272 50.589942,33.7770924 50.7137331,33.6632609 C50.6015474,33.6632609 50.6324952,33.5011957 50.6615087,33.3468478 C50.4216634,33.1809239 50.4003868,33.8253261 50.3094778,33.4278804 C50.6344294,33.3372011 50.1837524,32.8239946 50.3500967,32.7661141 C50.4155304,32.9232635 50.5092768,33.0671242 50.6266925,33.1905707 C50.5860735,32.6966576 50.4139265,32.6426359 50.3346228,32.2760598 C50.4255319,32.2123913 50.4796905,31.9615761 50.344294,31.9422826 C50.3636364,32.1467935 50.3133462,32.2895652 50.1508704,32.3281522 C50.1644101,32.8780163 50.3578337,32.9744837 50.2669246,33.2773913 C50.2108317,32.843288 49.9071567,33.2137228 49.8162476,32.9050272 C49.7504836,32.3262228 50.131528,32.9436141 50.065764,32.3532337 C49.8820116,32.432337 49.7640232,32.3030707 49.6789168,31.9673641 C49.3713733,31.988587 49.4526112,32.3821739 49.5841393,32.8510054 C49.6518375,33.0844565 49.7485493,33.3352717 49.8201161,33.5648641 C49.881835,33.7533194 49.9258669,33.9470869 49.9516441,34.1436685 C49.9709865,34.3809783 49.7582205,34.1610326 50.0928433,34.4330707 C50.0135397,34.784212 49.9903288,34.8806793 50.0367505,34.9347011 C50.0831721,34.9887228 50.1740812,35.0041576 50.2823985,35.1913043 C50.098646,35.4247554 50.3945841,35.8665761 50.106383,36.1559783 C50.1547389,36.47625 50.3346228,35.8974457 50.3965184,36.437663 C50.2839763,36.5245458 50.1976384,36.6407072 50.1470019,36.7733696 C50.5454545,37.1592391 50.1856867,36.5804348 50.4951644,36.5804348 C50.4003868,37.0434783 50.4758221,37.1013587 50.5860735,37.1090761 C50.696325,37.1167935 50.8510638,37.0743478 50.8916828,37.3425272 C50.6827853,37.5605435 50.7234043,37.3328804 50.44294,37.535462 C50.5396518,37.3039402 50.5357834,37.1495924 50.3462282,37.0724185 C50.3210832,37.2846467 50.2224371,37.3772554 50.2649903,37.7013859 C50.4274662,37.5431793 50.4352031,37.946413 50.4680851,38.2628261 C50.5009671,38.5792391 50.5357834,38.8088315 50.8201161,38.3033424 Z" id="路径" fill="#EFEFEF" fill-rule="nonzero"></path>
                        <path d="M49.384913,31.8959783 C49.1470019,30.9911141 49.384913,31.0798641 48.9883946,30.5666576 L49.2437137,30.4740489 C49.0193424,30.2174457 48.8568665,29.4225543 48.5435203,29.5865489 C48.8704062,29.4495652 48.4680851,28.9903804 49.0135397,29.0463315 C48.696325,28.6295924 48.5957447,28.6894022 48.4023211,28.2958152 C48.311412,28.394212 48.4893617,28.6816848 48.5705996,28.9035598 C48.3907157,28.9980978 48.2340426,28.8784783 48.0928433,28.6566033 C47.9395803,28.3777061 47.8007773,28.0911421 47.6769826,27.7980435 C47.9961315,27.9755435 47.7485493,27.7189402 47.8471954,27.5356522 C47.6847195,27.2867663 47.4777563,27.7189402 47.3384913,27.1150543 C47.4622824,27.1594293 47.5764023,27.385163 47.7117988,27.2578261 C47.7234043,27.0803261 47.7388781,26.8931793 47.7369439,26.7118207 C47.4603482,26.2352717 47.6382979,27.1478533 47.4255319,26.7118207 C47.4113957,26.3334204 47.2757868,25.9695543 47.0386847,25.6738315 C46.9032882,25.7548641 46.9090909,25.8957065 46.9690522,26.086712 C46.8220503,26.2082609 46.6537718,25.642962 46.4932302,25.4808967 C46.2998066,25.0255707 46.7369439,25.6468207 46.8123791,25.8223913 C46.967118,25.6661141 46.6692456,25.2744565 46.9419729,25.1779891 C47.1508704,25.2590217 47.3752418,25.6738315 47.5783366,25.515625 C47.7446809,25.3960054 46.8162476,24.9368207 47.4003868,25.0602989 C47.2914877,24.9649557 47.1993115,24.8521458 47.1276596,24.7265217 C47.073501,24.6242663 47.0270793,24.4988587 46.8839458,24.2576902 C46.9107008,24.6177 46.7947098,24.9738002 46.5609284,25.249375 C46.4352031,24.9503261 46.5048356,24.8905163 46.7040619,24.9638315 C46.4617312,24.8169073 46.3215406,24.547648 46.3404255,24.2654076 C46.2147002,24.1959511 45.5880077,24.0724728 45.9787234,24.533587 C45.6905222,24.5818207 45.7678917,24.40625 45.55706,24.0859783 C45.6673114,23.9161957 45.8085106,24.0223098 45.9303675,23.9895109 C45.6266925,23.8525272 45.6905222,23.6846739 45.4642166,23.3701902 C44.9748549,23.5476902 45.3094778,22.9264402 44.8839458,23.0595652 C44.7466151,22.8666304 44.450677,22.0292935 44.2920696,22.3572826 C44.2301741,22.0524457 43.9052224,21.7128804 43.6499033,21.4311957 C43.3945841,21.1495109 43.1856867,20.9469293 43.3791103,20.8697554 C42.9922631,20.4530163 42.7794971,20.6189402 42.5261122,20.6768207 C42.3326886,20.4260054 42.2804642,20.2041304 42.1276596,19.9610326 C42.1605416,20.2890217 42.0773694,20.1153804 41.934236,19.8992935 C41.7911025,19.6832065 41.589942,19.442038 41.4216634,19.6098913 C41.3152805,19.3590761 40.9419729,19.0619565 40.8568665,18.8227174 C40.5473888,18.6606522 40.926499,19.0484511 40.5783366,18.9558424 C40.270793,18.5854076 40.1237911,18.6567935 39.5802708,18.2554891 C39.5996132,17.8541848 39.5067698,17.788587 39.2533849,17.2908152 C38.8239845,17.1248913 39.1914894,17.5898641 39.0309478,17.6766848 C38.7296268,17.4007747 38.3934465,17.1653298 38.0309478,16.9763315 C37.7449598,16.8077788 37.4105349,16.7398399 37.0812379,16.7833967 C36.7485493,16.5055707 36.5802708,16.3338587 36.1508704,16.2489674 C36.205029,16.1930163 36.3230174,16.2296739 36.3578337,16.146712 C36.0793037,16.0560326 35.934236,16.1698641 35.5841393,16.0116576 C35.5957447,15.8592391 35.7775629,15.9229076 35.8220503,15.8187228 C35.344294,15.6663043 34.9632495,15.8438043 34.9632495,15.4752989 C34.6731141,15.3749728 34.7021277,15.6431522 34.3288201,15.4425 C34.2804642,15.2225543 33.8994197,15.0913587 33.4912959,14.9736685 C33.292298,14.9175145 33.0982295,14.8452454 32.9110251,14.7575815 C32.7505334,14.6937671 32.614896,14.5801196 32.5241779,14.4334511 C32.4738878,14.7054891 32.1257253,14.5897283 31.6866538,14.693913 C31.7117988,14.3639946 30.6943907,14.6109511 31.1295938,14.3080435 C28.8201161,13.9665489 27.1953578,13.8681522 26.0560928,13.6096196 C25.8762089,13.6269837 25.9361702,13.7755435 25.9187621,13.8816576 C26.3791103,14.0051359 25.5686654,13.9549728 25.7524178,13.7041576 C25.4639505,13.7762492 25.1692659,13.8208247 24.8723404,13.8372826 C24.7345832,13.84786 24.5980198,13.8704555 24.4642166,13.9048098 C24.329722,13.9461296 24.2038831,14.0115051 24.0928433,14.0977446 C23.8036546,13.9880307 23.4970182,13.9311718 23.1876209,13.9298913 C22.7986808,13.9351385 22.4107084,13.9699678 22.0270793,14.0340761 C21.634995,14.1123161 21.2475547,14.2121519 20.8665377,14.333125 C20.566816,14.4421666 20.2747396,14.5710774 19.9922631,14.7189946 C19.8547666,14.6749206 19.7533323,14.5581196 19.729207,14.416087 C19.3713733,14.6572554 18.8065764,14.8540489 18.8549323,15.1723913 C18.4216634,15.0199728 18.7272727,14.9794565 18.245648,15.2997283 C18.172147,15.1588859 17.9574468,15.1473098 17.6653772,15.2071196 C17.3311296,15.2955191 17.0070115,15.4183727 16.6982592,15.5736957 C16.3597679,15.7203261 16.0502901,15.9171196 15.8085106,16.0348098 C15.5667311,16.1525 15.410058,16.2277446 15.3945841,16.1640761 C15.2475822,16.2644022 15.3636364,16.2836957 15.4390716,16.2431793 C14.3477998,16.7135382 13.3198261,17.3182636 12.3791103,18.0432609 C11.450677,18.7397554 10.5667311,19.4825543 9.53191489,20.2253533 C9.59961315,20.2832337 9.71179884,20.1346739 9.81818182,20.0690761 C9.51257253,20.3970652 9.23791103,20.6903261 8.9787234,20.9488587 C8.71953578,21.2073913 8.48162476,21.4639946 8.23017408,21.7013043 L7.48355899,22.4441033 C7.21663443,22.6987772 6.96518375,22.992038 6.66537718,23.3123098 C6.68665377,23.4415761 6.85880077,23.5515489 6.45841393,24.0975543 C6.45847179,23.9889635 6.40401001,23.8875584 6.31334623,23.8274457 C6.23984526,24.006875 6.23597679,24.1535054 6.37330754,24.2248913 C5.27466151,25.1895652 4.60154739,26.580625 4.24564797,27.817337 C4.34816248,26.9221196 3.52417795,28.8283152 3.83945841,28.3305435 C3.66774037,28.6196823 3.53752316,28.9314138 3.45261122,29.2566304 C3.40232108,29.4302717 3.34622824,29.6077717 3.30367505,29.7910598 L3.17601547,30.3447826 C3.13152805,30.5377174 3.08317215,30.713288 3.03094778,30.890788 C2.98707649,31.0682967 2.93413832,31.2434527 2.87234043,31.4155707 C2.75903084,31.7390833 2.59160849,32.0411171 2.37717602,32.3088587 C2.37717602,33.0323641 2.12765957,34.3539674 1.97098646,35.8453533 C1.94197292,36.2177174 1.89941973,36.5997283 1.87234043,36.9855978 C1.84526112,37.3714674 1.83945841,37.757337 1.82205029,38.1432065 C1.80464217,38.5290761 1.82205029,38.9014402 1.83365571,39.2622283 C1.84526112,39.6230163 1.88007737,39.9683696 1.90522244,40.2925 C1.74661509,40.3388043 1.69439072,40.1304348 1.52998066,40.1921739 C1.5860735,40.597337 1.88974855,40.3851087 2.03094778,40.5876902 C2.03637905,41.1336461 2.13313073,41.6748687 2.3172147,42.1890489 C2.38313739,42.3936385 2.41769878,42.6069874 2.41972921,42.821875 C2.41808627,43.0432426 2.35947668,43.2604801 2.24951644,43.4527717 C2.52417795,43.5897554 2.67698259,44.02 2.79110251,44.4386685 C2.8878765,44.7573794 2.91037017,45.0939318 2.85686654,45.4226359 C2.96711799,45.6155707 3.00773694,45.3763315 2.97098646,45.2084783 C3.52611219,45.5248913 3.11992263,46.3487228 3.58220503,46.3101359 C3.66310146,46.7601477 3.7928128,47.2000517 3.96905222,47.6220924 C4.16468445,48.0747442 4.38952722,48.5142708 4.64216634,48.9379076 C5.11605416,49.8234783 5.70019342,50.6743207 6.13152805,51.5483152 C6.14893617,51.3997554 6.27852998,51.56375 6.45261122,51.8435054 C6.62669246,52.1232609 6.83945841,52.5303533 7.03288201,52.850625 C7.10831721,52.767663 7.22630561,52.8216848 7.36170213,52.9605978 C7.53319792,53.1544703 7.69335984,53.3580318 7.84139265,53.5702717 C8.02321083,53.8172283 8.20889749,54.1027717 8.39458414,54.3555163 C8.58027079,54.6082609 8.76595745,54.8378533 8.91295938,54.9960598 C9.39071567,55.5015489 10.1528046,55.8719837 10.8143133,56.406413 C11.0541586,56.6147826 11.3133462,56.8115761 11.5551257,57.0373098 L11.9226306,57.3730163 L12.2940039,57.6875 C12.7525859,58.1054239 13.2485264,58.480637 13.7756286,58.8084511 C14.1244749,58.9977705 14.4834954,59.1678099 14.8510638,59.3177989 C15.2166344,59.4528533 15.5744681,59.5686141 15.9148936,59.6805163 C16.2553191,59.7924185 16.5957447,59.8734511 16.9032882,59.9757065 C17.197057,60.0657686 17.485133,60.173363 17.7659574,60.2979076 C17.6208897,60.2284511 18.0174081,60.8612772 18.0618956,60.4020924 C18.3675048,60.6471196 18.8355899,60.7474457 19.2688588,60.8709239 C19.7021277,60.9944022 20.1470019,61.0812228 20.4294004,61.3358967 C20.8133446,61.2766262 21.2059289,61.3096999 21.5744681,61.4323641 C21.9277257,61.524595 22.2720809,61.6479138 22.6034816,61.8008696 C25.064031,62.0272125 27.5435797,61.9357775 29.9806576,61.5288315 C32.3712556,61.1281527 34.692029,60.3881357 36.8723404,59.3313043 C37.9648439,58.7964302 39.0166521,58.1825453 40.0193424,57.4945652 C41.0294905,56.7841569 41.9833082,55.9972302 42.8723404,55.1407609 C43.7751806,54.2625522 44.5990956,53.3070828 45.3346228,52.2853261 C45.72147,51.7740489 46.0522244,51.2299728 46.3887814,50.6839674 L46.860735,49.8408424 C47.0154739,49.5572283 47.1489362,49.262038 47.2920696,48.9687772 C47.9928494,47.4354457 48.5522181,45.8416572 48.9632495,44.2071467 C49.3887814,42.5807065 49.7040619,40.9851359 50.0909091,39.5284783 C50.4777563,39.677038 50.4390716,40.1709511 50.2843327,40.7613315 C50.106383,41.351712 49.8239845,42.0308424 49.6866538,42.6 C49.417795,43.8425 49.1760155,45.2644293 48.7678917,46.6786413 C48.3597679,48.0928533 47.7794971,49.4800543 47.0038685,50.581712 C46.9676038,50.7662268 46.914514,50.9470509 46.8452611,51.1219293 C46.7700235,51.2974194 46.6841125,51.4681629 46.5880077,51.6332065 C46.4912959,51.8010598 46.3945841,51.968913 46.270793,52.1309783 C46.1470019,52.2930435 46.0212766,52.445462 45.8839458,52.6036685 C45.7466151,52.761875 45.6189555,52.9162228 45.4796905,53.0686413 L45.0676983,53.5201087 L44.6499033,53.9831522 C44.5067698,54.1355707 44.3713733,54.2918478 44.2417795,54.453913 C43.9961315,54.7027989 43.9574468,54.8802989 44.1237911,54.9883424 C43.4161025,55.7308489 42.6241862,56.3886798 41.7640232,56.9485598 C41.3539652,57.2398913 40.9226306,57.4887772 40.5183752,57.7550272 C40.1141199,58.0212772 39.7040619,58.258587 39.3307544,58.5267663 C38.9613153,58.7660054 38.6518375,59.0283967 38.3230174,59.279212 C37.9724023,59.5446364 37.5966717,59.7753207 37.2011605,59.9679891 C37.2011605,59.9679891 37.3056093,59.72875 37.2553191,59.7403261 C37.0507131,59.8109942 36.8557754,59.9069204 36.6750484,60.0258696 L36.2591876,60.2747554 C36.1083172,60.3596467 35.9477756,60.4426087 35.7814313,60.5294293 C35.4561422,60.7093225 35.1141123,60.8572901 34.7601547,60.97125 C34.4641354,61.0805481 34.148877,61.1284723 33.8336557,61.1120924 C33.6620245,61.2676234 33.4607233,61.3870491 33.2417795,61.4632337 C33.1276596,61.5076087 33.0058027,61.5461957 32.8820116,61.5828533 C32.7582205,61.6195109 32.6247582,61.6407337 32.4951644,61.6696739 C32.2277173,61.7205641 31.9630314,61.7849585 31.7021277,61.8626087 C31.4417573,61.9290971 31.1931988,62.035167 30.9651838,62.1770924 C30.8206384,62.1502661 30.6865792,62.0834059 30.5783366,61.9841576 C30.5783366,62.1095652 29.9419729,62.3700272 30.2823985,62.130788 C29.4255319,62.2349728 28.4893617,62.3893207 27.483559,62.4491304 L26.7098646,62.4896467 C26.4526112,62.4896467 26.1895551,62.4896467 25.9361702,62.4780707 C25.3987576,62.4634043 24.8629958,62.411833 24.3326886,62.3237228 C23.9651838,62.4259783 23.6924565,62.6864402 23.3655706,62.3372283 C23.152488,62.4881599 22.8888759,62.5504366 22.6305609,62.5108696 C22.2591115,62.4760713 21.8910666,62.411552 21.5299807,62.3179348 C21.1431335,62.2118207 20.7562863,62.0922011 20.3965184,62.0073098 C20.1121895,61.9112975 19.8146451,61.8598795 19.5145068,61.8548913 C19.6054159,61.764212 19.7524178,61.7236957 20.0232108,61.7931522 C19.860434,61.7109705 19.6864252,61.6531142 19.5067698,61.6214402 C19.2996984,61.5908581 19.1071617,61.4971915 18.9555126,61.3532609 C19.1005803,61.5133967 18.1818182,61.4960326 18.0309478,61.0773641 C17.8027079,61.4285054 17.1373308,60.6239674 17.0348162,61.0136957 C16.7442213,61.011527 16.4731718,60.8673326 16.3094778,60.6278261 C16.1470019,60.4348913 16.0251451,60.2207337 15.8046422,60.1319837 C15.5009671,59.9988587 14.9361702,60.3963043 14.7852998,59.6573641 C14.5125725,59.5416033 14.5725338,59.8946739 14.3481625,59.8406522 C14.0711909,59.6145142 13.7647158,59.42694 13.4371373,59.2830707 C13.1630304,59.1668555 12.8962587,59.0341289 12.6382979,58.885625 C12.8897485,58.6039402 12.1141199,58.6753261 12.6382979,58.5672826 C12.2318107,58.43386 11.8571862,58.2184535 11.5377176,57.9344565 C11.344294,57.782038 11.1702128,57.6064674 10.9845261,57.4347554 C10.7988395,57.2630435 10.6112186,57.0913315 10.4448743,56.9157609 C10.3520309,57.4424728 10.0793037,56.6938859 9.79690522,56.9697826 C9.47416291,56.7724101 9.19670544,56.5094588 8.98259188,56.1980435 C8.84562793,55.9862319 8.74069722,55.7554477 8.67117988,55.513125 C8.38104449,55.241087 8.44487427,55.7176359 8.6131528,55.8276087 C8.3655706,55.8989946 8.48742747,55.3626359 7.96905222,55.0790217 C8.61121857,55.3587772 7.87427466,54.9401087 8.10058027,54.7027989 C7.74468085,54.3342935 7.23210832,54.5098641 7.54738878,54.1239946 C7.33075435,53.8905435 7.22823985,54.1490761 6.98259188,53.7728533 C7.1934236,53.8403804 7.12572534,53.7226902 7.17601547,53.5799185 C7.0212766,53.6242935 6.33268859,53.0184783 6.52998066,53.5143207 C5.9729207,53.116875 5.10444874,51.56375 5.18568665,51.4576359 C5.00193424,51.1933152 4.86847195,51.4344837 4.67117988,51.0273913 C4.7040619,50.5122554 4.49129594,50.4312228 4.13733075,49.8138315 C4.28433269,49.744375 4.20309478,49.5398641 4.3655706,49.4800543 C4.08123791,49.0941848 4.27659574,49.7173641 4.05802708,49.6729891 L3.74274662,49.1038315 C3.96905222,49.1443478 3.86460348,49.0131522 3.76402321,48.8607337 C3.66344294,48.7083152 3.58413926,48.5308152 3.827853,48.496087 C3.10058027,47.4658152 3.19922631,48.0851359 3.08123791,46.8966576 C2.92783586,46.6852864 2.80236771,46.4550862 2.70793037,46.2117391 C2.53887411,45.8350459 2.39289331,45.4484657 2.27079304,45.0541304 C2.20502901,44.8380435 2.14119923,44.6200272 2.07736944,44.4039402 C2.01353965,44.1878533 1.9787234,43.9717663 1.93810445,43.7691848 C1.86320357,43.4352307 1.82237662,43.0945731 1.81624758,42.7524185 C1.59961315,42.6868207 1.53384913,42.4688043 1.46615087,42.2314946 C1.43830392,42.1072246 1.40079526,41.985307 1.35396518,41.8668478 C1.30815132,41.7505941 1.22954633,41.6500731 1.12765957,41.5774457 C1.12765957,41.4481793 1.10638298,41.2706793 1.08510638,41.052663 C1.0754352,40.9446196 1.06382979,40.8269293 1.05222437,40.6995924 C1.04061896,40.5722554 1.03868472,40.4372011 1.03094778,40.2925 C1.01934236,40.0050272 1.00193424,39.6905435 0.997639254,39.354837 C0.994197292,39.0191304 1.01740812,38.6622011 1.03675048,38.2994837 L1.30560928,38.2782609 C1.11218569,37.9657065 1.3384913,37.9599185 1.38104449,37.63 C1.08510638,37.4486413 1.31914894,38.1547826 1.02321083,37.9772826 C1.14437025,37.6588566 1.2274712,37.3272928 1.27079304,36.9894565 C1.32441223,36.645691 1.35799539,36.2991126 1.37137331,35.9514674 C1.37137331,35.6041848 1.39458414,35.2684783 1.3926499,34.9539946 C1.39071567,34.6395109 1.37330754,34.34625 1.38104449,34.1012228 C1.63249516,33.8272554 1.90135397,33.1365489 1.57446809,32.8220652 C1.72440262,32.6590082 1.82849425,32.4593379 1.8762089,32.2432609 C1.91295938,32.1236413 1.94197292,31.9963043 1.97098646,31.867038 C2,31.7377717 2.03675048,31.6065761 2.06769826,31.4811685 C2.12130973,31.2418785 2.19706981,31.0080679 2.29400387,30.7827446 C2.35772124,30.6081162 2.50162439,30.4746245 2.68085106,30.4238859 C2.50483559,30.4972011 2.29400387,29.6888043 2.73307544,29.6154891 C2.76208897,29.1852446 2.82205029,29.1235054 2.4893617,29.2122554 C2.79110251,28.9325 3.00967118,28.7472826 3.0696325,29.2122554 C3.04620988,28.9292356 3.05464416,28.6444892 3.09477756,28.3633424 C3.15336953,28.0353778 3.23876069,27.7127438 3.35009671,27.3986685 C3.37911025,27.3176359 3.40812379,27.2366033 3.43907157,27.1575 C3.47001934,27.0783967 3.5106383,27.0050815 3.54932302,26.9317663 C3.6215985,26.7907009 3.70233826,26.6541123 3.79110251,26.5227446 C3.92933337,26.2934506 4.12367153,26.1029228 4.35589942,25.9690217 C4.19729207,25.9381522 4.59961315,25.0892391 4.33655706,25.426875 C4.05996132,25.3477717 4.76015474,25.1181793 4.48355899,24.9599728 C4.87040619,24.716875 4.43520309,25.7895924 4.67698259,25.9439402 C4.73408715,25.7699065 4.75192065,25.5854339 4.72920696,25.4037228 C4.73052083,25.3038894 4.75018886,25.2051438 4.78723404,25.1123913 C4.84944916,24.9690236 4.93077622,24.8346864 5.02901354,24.7130163 C4.94970986,24.6763587 4.86847195,24.8480707 4.78529981,24.9464674 C4.54932302,24.7535326 5.13539652,24.1612228 5.35396518,24.3464402 C5.46421663,24.1091304 5.60928433,23.867962 5.71179884,23.6769565 L5.88394584,23.3624728 C6.10058027,23.0132609 6.27079304,23.0962228 6.49709865,22.80875 C6.655706,22.6158152 6.45454545,22.3977989 6.78143133,21.9752717 C6.58800774,22.2608152 7.52030948,21.737962 7.40425532,21.4987228 C7.56286267,21.5469565 7.46034816,21.6916576 7.34622824,21.8537228 C7.53965184,21.9482609 7.7098646,21.3906793 7.67698259,21.3077174 C8.02321083,20.995163 7.62669246,21.5778261 7.78916828,21.5951902 C7.96711799,21.3636685 8.09090909,21.1649457 8.06576402,21.0163859 C8.41779497,20.7462772 8.11798839,21.4562772 8.55319149,21.0163859 C8.38104449,20.9179891 8.51257253,20.8485326 8.67117988,20.7501359 C8.82978723,20.6517391 9.0212766,20.539837 8.95744681,20.3276087 C8.78336557,20.2774457 8.67504836,20.4163587 8.58413926,20.5205435 C8.49323017,20.6247283 8.42553191,20.7347011 8.31528046,20.595788 C8.63056093,20.3874185 9.02901354,19.9455978 9.33462282,19.8047554 C9.20711521,19.7872418 9.0782067,19.8251842 8.98065764,19.9089402 C9.11218569,19.6291848 9.53965184,19.2471739 9.98065764,18.9442663 C10.4216634,18.6413587 10.8994197,18.4368478 11.1121857,18.4735054 C11.040619,18.4329891 11.1121857,18.3693207 11.1740812,18.3037228 C11.0037094,18.3309258 10.8398005,18.3891299 10.6905222,18.4754348 C10.7018862,18.2769477 10.744983,18.0815482 10.8181818,17.8966304 C11.1837524,17.7036957 11.7852998,17.616875 11.6769826,17.9178533 C11.7678917,17.8271739 11.7446809,17.7538587 11.8704062,17.655462 C11.6615087,17.5377717 11.2572534,17.8811957 11.1431335,17.5300543 C11.9555126,17.3371196 11.901354,17.1171739 12.0676983,17.395 C12.7698259,16.9763315 11.8375242,17.0361413 12.4874275,16.8895109 C12.5087041,16.9666848 12.5880077,16.9223098 12.6808511,16.8702174 C12.729207,16.9435326 12.5609284,17.0380707 12.4700193,17.122962 C12.589942,17.2425815 12.9477756,16.8625 13.1005803,16.9088043 C12.827853,16.9473913 12.9632495,16.6560598 13.1972921,16.4226087 C13.4313346,16.1891576 13.7388781,15.9865761 13.7601547,16.1814402 C13.9129594,16.069538 13.787234,15.9711413 13.7504836,15.8708152 C14.0116054,15.936413 14.787234,15.1897554 14.7814313,15.702962 C14.8916828,15.35375 15.1818182,15.2360598 15.4932302,15.1241576 C15.8329694,15.0402377 16.1420524,14.8623455 16.384913,14.6109511 C16.6499033,14.7054891 16.9651838,14.5627174 17.2611219,14.4508152 C17.55706,14.338913 17.8104449,14.2713859 17.9090909,14.4739674 C18.1111043,14.2864359 18.3724556,14.1751987 18.6479691,14.1594837 C18.959381,14.1266848 19.2649903,14.1729891 19.384913,14.3524185 C19.5463164,14.164853 19.7544859,14.0230965 19.9883946,13.9414674 C20.211014,13.867476 20.4393877,13.8119789 20.6711799,13.7755435 C20.9447954,13.7360085 21.2155226,13.6786485 21.4816248,13.6038315 C21.6442532,13.5498654 21.8031953,13.4854181 21.9574468,13.4108967 C22.1446778,13.3336333 22.3268551,13.244708 22.5029014,13.1446467 C22.7427466,13.1446467 24.417795,13.0655435 24.8839458,12.7761413 C24.5802708,13.2044565 25.4216634,13.268125 25.7350097,13.3549457 C25.6982592,13.1234239 25.4777563,13.0173098 25.0715667,13.0327446 C25.6653772,12.8822554 26.3056093,12.9497826 26.8123791,12.8012228 C27.0618956,12.8610326 27.0174081,12.9324185 26.8955513,12.9555707 C26.7736944,12.9787228 26.5686654,12.9845109 26.4951644,12.8957609 C26.6170213,13.1716576 26.6112186,13.0674728 26.5125725,13.3452989 C26.5377176,13.2411141 26.7059961,13.217962 26.868472,13.185163 C27.0309478,13.1523641 27.1682785,13.129212 27.1373308,12.9922283 C28.1044487,13.2218207 28.0522244,13.0829076 28.55706,13.4282609 C28.7504836,13.1813043 29.0058027,13.2488315 29.2437137,13.3125 C29.4816248,13.3761685 29.7001934,13.4552717 29.8433269,13.2005978 C29.9806576,13.2758424 30.1160542,13.3491576 30.1605416,13.2449728 C30.2935471,13.3353101 30.4317609,13.4177711 30.5744681,13.4919293 C30.7172103,13.5696645 30.8667666,13.6342439 31.0212766,13.6848641 C31.3172147,13.7794022 31.5880077,13.7639674 31.7388781,13.5131522 C32.0019342,13.6443478 32.2475822,13.8044837 32.1257253,14.061087 C32.4622824,14.1286141 32.5009671,13.9183152 32.5125725,13.6945109 L33.0618956,13.9511141 C33.2282398,14.0379348 33.3868472,14.1189674 33.5609284,14.1922826 C33.7494076,14.2736806 33.9432914,14.3420131 34.1411992,14.3967935 C34.3597679,14.4643207 34.6092843,14.5376359 34.9148936,14.6032337 C34.1411992,14.8135326 35.688588,14.8482609 35.1083172,15.0508424 C35.4255319,15.1858967 35.5976789,15.1685326 35.6382979,14.9698098 C35.8317215,15.3904076 36.4119923,15.2437772 36.7388781,15.6354348 C36.8781431,15.3460326 37.4487427,15.8090761 37.2765957,15.5872011 C37.3694391,15.4965217 37.6634429,15.6855978 37.8858801,15.7897826 C37.7027724,15.9569928 37.8046422,16.1126268 38.1914894,16.2566848 C38.0812379,16.324212 37.9323017,16.3280707 37.6943907,16.1988043 C37.6595745,16.3570109 38.4680851,16.646413 38.4680851,16.4052446 C38.8549323,16.551875 39.2030948,17.3178261 39.4352031,16.9686141 C39.5976789,17.1499728 39.7891683,17.3544837 39.6518375,17.533913 C39.5551257,17.4490217 39.5667311,17.3699185 39.4352031,17.2830978 C39.4235977,17.3622011 39.5222437,17.4470924 39.4758221,17.5261957 C39.7156673,17.6573913 39.8529981,17.5879348 39.9226306,17.389212 C40.1373308,17.7519293 40.6402321,17.6342391 40.483559,17.9795924 C40.6595745,18.060625 40.8065764,18.0741304 40.8858801,17.9390761 C41.3049256,18.3516284 41.7916356,18.6896373 42.3249516,18.9384783 C42.4622824,19.0658152 42.3249516,19.1507065 42.2823985,19.2510326 C42.4854932,19.4285326 42.6324952,19.4690489 42.7524178,19.4246739 C42.9709865,19.6311141 42.6460348,19.7275815 42.934236,19.9475272 C42.9439072,19.8163315 43.3210832,19.9880435 43.655706,20.2755163 C43.819765,20.4090178 43.9648714,20.5641423 44.0870406,20.7366304 C44.1884217,20.8532672 44.2207556,21.014528 44.172147,21.161087 C44.4719536,21.0414674 44.1876209,21.1919565 44.7079304,21.7398913 C44.7659574,21.649212 44.5667311,21.4755707 44.450677,21.3308696 C44.6525987,21.363785 44.8207116,21.5034019 44.8897485,21.6955163 C44.9538562,21.8753859 45.0301109,22.0507151 45.1179884,22.2202989 C45.3675048,22.5598641 45.3965184,21.7669022 45.6982592,22.3457065 C45.5283038,22.2967717 45.3467219,22.3690621 45.2572534,22.5212772 C45.2834071,22.6225077 45.3338585,22.7158718 45.4042553,22.7933152 C45.4777563,22.8975 45.5705996,23.0094022 45.6595745,23.1232337 C45.8336557,23.3528261 45.9883946,23.5959239 45.9168279,23.8042935 C46.4371373,23.8544565 46.3675048,24.3290761 46.6905222,24.5953261 C46.6170319,24.2787262 46.5167365,23.9689189 46.3907157,23.6692391 C46.5782239,23.7748462 46.7039706,23.9633478 46.729207,24.1766576 C46.9477756,24.0744022 46.4352031,23.6248641 46.7446809,23.5650543 C46.9090909,23.9200543 47.2475822,24.3136413 47.5183752,24.722663 C47.655706,24.9155978 47.787234,25.1181793 47.8858801,25.3014674 C47.9749346,25.4518059 48.0328164,25.6184516 48.0560928,25.7915217 C48.0571836,25.8082251 48.0571836,25.8249815 48.0560928,25.8416848 C47.549323,25.2628804 48.032882,26.1040761 48.0560928,25.8416848 L48.1353965,25.9323641 C48.4777563,26.3182337 48.7059961,27.1150543 48.6905222,27.8115489 C48.7485493,27.7498098 48.7911025,27.8308424 48.8355899,27.9157337 C48.8684756,27.824855 48.8751763,27.7266034 48.8549323,27.6321196 C48.8253572,27.5024472 48.7819103,27.3763168 48.7253385,27.2558967 C49.0909091,27.3774457 49.0967118,28.1009511 48.8181818,28.1028804 C48.9729207,28.3652717 49.1837524,28.0642935 49.3172147,28.571712 C49.1411992,28.7800815 49.0251451,28.355625 48.8626692,28.4308696 C48.9922631,28.9054891 49.2340426,28.4733152 49.3288201,29.0907065 C49.4081238,29.0521196 49.3288201,28.8804076 49.2978723,28.755 C49.6034816,29.02125 49.4622824,29.3010054 49.7794971,29.7679076 C49.5261122,29.8624457 49.55706,30.2155163 49.4216634,30.4142391 C49.615087,30.7422283 49.4970986,29.9222554 49.8800774,30.0727446 C49.7698259,30.3061957 49.6073501,30.5955978 50.0290135,30.53 C50.2001416,30.80495 50.2465252,31.1393297 50.1566731,31.4502989 C50.1025145,31.6856793 50.0309478,31.855462 50.1682785,31.9963043 C50.0425532,32.6291304 49.6866538,31.5660598 49.384913,31.8959783 Z M16.4410058,15.0720652 C16.3172147,15.1029348 16.1528046,15.1974728 16.1083172,15.1241576 C16.1895551,15.0855707 16.2398453,14.9775272 16.0676983,15.043125 C16.1334623,15.2032609 15.5009671,15.2360598 15.3056093,15.3190217 C15.3578337,15.4830163 15.5647969,15.4135598 15.6247582,15.5640489 C15.5454545,15.6026359 15.4990329,15.7068207 15.6673114,15.6431522 C15.6673114,15.5659783 15.7369439,15.492663 15.9090909,15.4232065 C15.9323017,15.4675815 16.0715667,15.4579348 16.0502901,15.35375 C15.8858801,15.4097011 15.6382979,15.3904076 15.8239845,15.265 C15.8317215,15.4193478 16.4932302,15.2727174 16.4410058,15.0720652 Z M37.4893617,16.2933424 C36.7852998,15.6971739 36.5357834,16.679212 37.2011605,16.5499457 C37.1025145,16.4766304 36.9284333,16.41875 36.959381,16.335788 C37,16.1235598 37.4061896,16.4341848 37.4893617,16.2933424 Z M41.4990329,18.7339674 C41.4158607,18.6413587 41.4003868,18.5583967 41.4816248,18.4889402 C41.2514507,18.2960054 41.1411992,18.365462 40.9187621,18.187962 C40.5705996,18.2728533 41.4410058,18.8574457 41.4990329,18.7339674 L41.4990329,18.7339674 Z M44.1141199,21.2228261 C43.9729207,21.0704076 44.1276596,21.0028804 44.0232108,20.8639674 C43.655706,20.7945109 43.9864603,20.9604348 43.9439072,21.172663 C43.7994667,21.0567041 43.6123538,21.0075883 43.4294004,21.0376087 C43.5957447,21.2305435 43.7176015,21.3135054 43.8162476,21.3250815 C43.9241482,21.3248223 44.0289128,21.2888581 44.1141199,21.2228261 L44.1141199,21.2228261 Z" id="形状" fill="#EFEFEF" fill-rule="nonzero"></path>
                        <path d="M45.5299807,22.7064946 C45.8957288,22.9301242 46.1881357,23.2553173 46.3713733,23.6422283 C46.615087,23.2119837 45.483559,22.2858967 45.5299807,22.7064946 Z" id="路径" fill="#EFEFEF" fill-rule="nonzero"></path>
                        <polygon id="路径" fill="#EFEFEF" fill-rule="nonzero" points="46.3655706 23.657663 46.3868472 23.6730978 46.3713733 23.6422283"></polygon>
                        <path d="M50.9535783,39.5805707 C50.9748549,39.3876359 50.9535783,39.1252446 51.0618956,39.100163 C51.2553191,39.3394022 50.868472,39.6075815 51.2243714,39.5863587 C51.2146252,39.3645603 51.2535731,39.1433156 51.3384913,38.9380978 C51.205029,38.911087 51.0038685,38.9959783 50.9825919,38.7798913 C50.9825919,38.6197554 51.0638298,38.5869565 51.0851064,38.4576902 C50.6402321,38.4576902 50.9748549,39.2602989 50.7775629,39.4223641 C50.6576402,39.05 50.8355899,38.7374457 50.7176015,38.6294022 C50.6402321,39.1020924 50.5241779,38.478913 50.3558994,38.6294022 C50.4564797,39.0982337 50.5145068,39.6480978 50.9535783,39.5805707 Z" id="路径" fill="#EFEFEF" fill-rule="nonzero"></path>
                        <path d="M91.9729207,12.8282337 C91.8529981,12.8706793 91.8007737,12.9652174 91.7911025,12.6758152 C91.9245648,12.7375543 91.9709865,12.5291848 92.1083172,12.824375 C92.1605416,12.5619837 91.9613153,12.7684239 92.0135397,12.507962 C92.0715667,12.507962 92.0773694,12.6063587 92.1508704,12.5812772 C92.1624758,12.5311141 92.2591876,12.2629348 92.1508704,12.2571467 C92.0715667,12.4385054 92.0676983,12.3208152 92.0812379,12.1355978 C92.0905845,11.9580126 92.116486,11.781681 92.1586074,11.6088859 C91.8800774,11.6378261 92.0812379,10.6673641 91.8259188,10.7715489 C91.8588008,10.5786141 91.860735,10.5651087 91.9206963,10.5072283 C91.8626692,10.5072283 91.8781431,10.4261957 91.893617,10.3490217 C91.7736944,10.2660598 91.762089,10.5882609 91.7176015,10.389538 C91.8800774,10.3432337 91.6537718,10.0866304 91.7369439,10.0596196 C91.7704384,10.1380097 91.8175883,10.2098623 91.8762089,10.2718478 C91.8549323,10.022962 91.7698259,9.99595109 91.7311412,9.81266304 C91.7756286,9.78179348 91.8027079,9.65638587 91.7311412,9.64673913 C91.7408124,9.74899457 91.7156673,9.82038043 91.6402321,9.83967391 C91.6402321,10.1136413 91.7427466,10.161875 91.696325,10.3142935 C91.6692456,10.0962772 91.5183752,10.2814946 91.4719536,10.1213587 C91.4390716,9.83002717 91.6286267,10.1406522 91.5957447,9.84546196 C91.5048356,9.88597826 91.4448743,9.82230978 91.4023211,9.65252717 C91.1025145,9.66796196 91.5338491,10.4532065 91.5396518,10.73875 C91.549323,10.8564402 91.4410058,10.73875 91.6092843,10.8834511 C91.5203095,11.2345924 91.5957447,11.0763859 91.7040619,11.2693207 C91.6131528,11.3870109 91.762089,11.6088859 91.6170213,11.7516576 C91.6402321,11.9117935 91.7311412,11.6223913 91.762089,11.8925 C91.7065949,11.9369173 91.6633316,11.9946772 91.6363636,12.0603533 C91.8297872,12.253288 91.655706,11.9638859 91.8123791,11.9658152 C91.7137331,12.430788 91.9651838,12.0815761 92.0058027,12.3516848 C91.901354,12.4597283 91.9206963,12.3516848 91.7814313,12.4442935 C91.8297872,12.3285326 91.827853,12.2513587 91.7330754,12.2127717 C91.6987045,12.3138623 91.6848955,12.4207763 91.6924565,12.5272554 C91.7736944,12.4481522 91.7775629,12.6488043 91.7930368,12.8089402 C91.8085106,12.9690761 91.8297872,13.0809783 91.9729207,12.8282337 Z" id="路径" fill="#EFEFEF" fill-rule="nonzero"></path>
                        <path d="M91.2553191,9.62358696 C91.1373308,9.17211957 91.2553191,9.21649457 91.0618956,8.95796196 L91.1876209,8.91165761 C91.0773694,8.78432065 90.9941973,8.386875 90.8375242,8.46790761 C91.0019342,8.40038043 90.8007737,8.17078804 91.073501,8.19779891 C90.9148936,7.98942935 90.8646035,8.02029891 90.7678917,7.82350543 C90.72147,7.87173913 90.8123791,8.01644022 90.8510638,8.12641304 C90.6692456,8.22095109 90.549323,7.88717391 90.4061896,7.57461957 C90.5647969,7.66336957 90.4410058,7.53410326 90.4912959,7.44342391 C90.4081238,7.3180163 90.2978723,7.53410326 90.2359768,7.233125 C90.2978723,7.25434783 90.3539652,7.36817935 90.4294004,7.30451087 C90.4294004,7.21576087 90.4448743,7.12315217 90.44294,7.03054348 C90.303675,6.7932337 90.3926499,7.24855978 90.2882012,7.03054348 C90.2797957,6.84219756 90.2121179,6.66127957 90.0947776,6.51347826 C90.0270793,6.55206522 90.0290135,6.62345109 90.0599613,6.71798913 C89.9864603,6.77972826 89.901354,6.49611413 89.8220503,6.41701087 C89.7253385,6.18741848 89.9439072,6.49804348 89.9806576,6.58679348 C90.0580271,6.50961957 89.9090909,6.31282609 90.0464217,6.26459239 C90.1508704,6.3051087 90.2630561,6.51154891 90.3636364,6.43244565 C90.4642166,6.35334239 89.9767892,6.14883152 90.2746615,6.20671196 C90.1160542,6.05429348 90.1586074,6.04657609 90.0174081,5.80347826 C90.0305316,5.98387815 89.97298,6.16232126 89.8568665,6.30125 C89.7930368,6.15076087 89.827853,6.12182065 89.926499,6.15847826 C89.8058399,6.08362162 89.7360349,5.94880879 89.7446809,5.80733696 C89.6827853,5.77453804 89.3694391,5.71472826 89.5647969,5.9423913 C89.4216634,5.96554348 89.4584139,5.87872283 89.3539652,5.71858696 C89.4081238,5.63369565 89.4796905,5.68771739 89.5473888,5.67035326 C89.3945841,5.60089674 89.4255319,5.51793478 89.3133462,5.36165761 C89.0676983,5.44847826 89.2359768,5.13785326 89.0212766,5.20538043 C88.9516441,5.11277174 88.8027079,4.69024457 88.7234043,4.85423913 C88.6526464,4.67777133 88.5428952,4.51949592 88.4023211,4.39119565 C88.2727273,4.25228261 88.172147,4.14809783 88.2669246,4.11144022 C88.073501,3.9011413 87.967118,3.98410326 87.8413926,4.01111413 C87.7685792,3.89615651 87.7039458,3.77624221 87.6479691,3.65225543 C87.6634429,3.81625 87.622824,3.72942935 87.5551257,3.62138587 C87.4874275,3.51334239 87.3829787,3.39372283 87.2978723,3.47861413 C87.245648,3.35320652 87.0580271,3.20271739 87.0154739,3.09274457 C86.860735,3.00978261 87.0502901,3.20464674 86.8762089,3.15834239 C86.7234043,2.96540761 86.6499033,3.00785326 86.377176,2.80720109 C86.3868472,2.6142663 86.3423598,2.57375 86.2147002,2.32679348 C86,2.24383152 86.1837524,2.47728261 86.1025145,2.51972826 C85.9522847,2.38194723 85.7844936,2.26453087 85.6034816,2.1705163 C85.4598681,2.08708752 85.2919923,2.05509475 85.1276596,2.07983696 C85.0040285,1.94522915 84.8420192,1.85163587 84.6634429,1.81165761 C84.6905222,1.78271739 84.7504836,1.81165761 84.7659574,1.75956522 C84.6266925,1.71519022 84.5551257,1.7711413 84.3791103,1.69396739 C84.3791103,1.61679348 84.4719536,1.64766304 84.4970986,1.59557065 C84.2572534,1.51839674 84.0676983,1.60907609 84.0676983,1.4238587 C83.9226306,1.37369565 83.9361702,1.50682065 83.7504836,1.40649457 C83.7253385,1.29652174 83.5357834,1.23092391 83.3326886,1.17304348 C83.1295938,1.11516304 82.9187621,1.03991848 82.8471954,0.902934783 C82.8220503,1.03798913 82.6537718,0.982038043 82.4274662,1.03220109 C82.4410058,0.868206522 81.9323017,0.991684783 82.1489362,0.839266304 C80.9883946,0.667554348 80.1818182,0.619320652 79.6131528,0.490054348 C79.5222437,0.490054348 79.5531915,0.573016304 79.5435203,0.627038043 C79.7756286,0.686847826 79.3694391,0.663695652 79.4603482,0.536358696 C79.3165655,0.573177322 79.1694999,0.595795336 79.0212766,0.60388587 C78.8824444,0.60668157 78.7476616,0.651047474 78.6344294,0.731222826 C78.4897402,0.676816623 78.3364462,0.648718396 78.1818182,0.64826087 C77.9873708,0.65131696 77.7934171,0.66872868 77.6015474,0.700353261 C77.4056236,0.739591752 77.2119272,0.789181516 77.0212766,0.848913043 C76.8716288,0.903959672 76.7256244,0.968400118 76.5841393,1.04184783 C76.515662,1.01996979 76.4650032,0.962007991 76.4526112,0.891358696 C76.2727273,1.01097826 75.9903288,1.109375 76.0135397,1.27722826 C75.7969052,1.20005435 75.9516441,1.18076087 75.7098646,1.34089674 C75.6363636,1.198125 75.2746615,1.31581522 74.9361702,1.47788043 C74.5976789,1.63994565 74.2998066,1.83480978 74.2843327,1.77307065 C74.2108317,1.8232337 74.2688588,1.83288043 74.3056093,1.81358696 C73.757199,2.04402409 73.2399418,2.34218612 72.7659574,2.70108696 C72.3017408,3.05029891 71.860735,3.4207337 71.3423598,3.79116848 C71.377176,3.8201087 71.4332689,3.74679348 71.4854932,3.71399457 C71.3326886,3.87798913 71.1992263,4.02461957 71.065764,4.15388587 C70.9323017,4.28315217 70.8181818,4.41048913 70.6924565,4.53975543 C70.450677,4.78285326 70.1992263,5.0182337 69.9187621,5.34429348 C69.9284333,5.4098913 70.0174081,5.46584239 69.8143133,5.73016304 C69.8143133,5.6761413 69.7969052,5.62404891 69.7408124,5.5951087 C69.7059961,5.68578804 69.7021277,5.75717391 69.7717602,5.78804348 C69.2555826,6.27597743 68.8864355,6.89813232 68.7059961,7.5842663 C68.7582205,7.13665761 68.3462282,8.08975543 68.5029014,7.84086957 C68.4172571,7.98554631 68.3521614,8.14138128 68.3094778,8.30391304 C68.2533849,8.475625 68.212766,8.66277174 68.1702128,8.84798913 C68.1489362,8.94059783 68.1237911,9.04092391 68.098646,9.12002717 C68.0768461,9.2088185 68.0503749,9.29640347 68.0193424,9.38241848 C67.961739,9.54857534 67.8753191,9.70334617 67.7640232,9.83967391 C67.7640232,10.2023913 67.6382979,10.8622283 67.5705996,11.6069565 C67.4839267,12.3441394 67.4729089,13.0882213 67.5377176,13.8276359 C67.4584139,13.850788 67.4313346,13.7466033 67.344294,13.7774728 C67.3713733,13.9819837 67.5241779,13.8777989 67.5938104,13.9704076 C67.5968008,14.2435277 67.6458412,14.5141992 67.7388781,14.771087 C67.8180674,14.9767053 67.8053984,15.2062774 67.7040619,15.4019837 C67.9651838,15.5428261 68.065764,16.2489674 68.0077369,16.3878804 C68.0618956,16.4843478 68.0831721,16.3647283 68.0638298,16.279837 C68.3423598,16.4380435 68.139265,16.8586413 68.3694391,16.8316304 C68.463185,17.292137 68.6352355,17.7332482 68.8781431,18.1358696 C69.1160542,18.5796196 69.4081238,19.0002174 69.6247582,19.442038 C69.6421663,19.2934783 69.8820116,19.7680978 70.0773694,20.0922283 C70.1566731,20.007337 70.3017408,20.2060598 70.4816248,20.4530163 L70.7582205,20.8388859 C70.8529981,20.9623641 70.9516441,21.078125 71.0174081,21.1591576 C71.2553191,21.4099728 71.6382979,21.5951902 71.9690522,21.8633696 C72.4584139,22.2492391 72.9632495,22.7836685 73.450677,23.0672826 C74.1605416,23.4782337 74.926499,23.5708424 75.4448743,23.8120109 C75.3733075,23.7772826 75.5705996,24.095625 75.5938104,23.8641033 C75.7781131,23.9801713 75.9829427,24.0600625 76.1972921,24.0994837 C76.4067259,24.1296092 76.6057814,24.2096921 76.7775629,24.3329348 C76.9720186,24.3011377 77.1713364,24.3177055 77.3578337,24.3811685 C77.5351652,24.4288011 77.707468,24.4934129 77.8723404,24.5741033 C80.3148086,24.8185127 82.7778442,24.3935904 84.9961315,23.3451087 C85.5435647,23.0766824 86.0704546,22.7684408 86.5725338,22.4228804 C87.0777335,22.0674448 87.5549466,21.6739972 88,21.2459783 C88.4510223,20.8074693 88.8626546,20.330382 89.2301741,19.8201902 C89.6094883,19.3000134 89.9372675,18.7443262 90.2088975,18.1609511 C90.5597378,17.3944661 90.8394369,16.5975301 91.0444874,15.7801359 C91.2572534,14.9678804 91.4158607,14.1691304 91.6073501,13.4417663 C91.8007737,13.5170109 91.7814313,13.762038 91.7079304,14.0591576 C91.6344294,14.3562772 91.4777563,14.6919837 91.410058,14.9775272 C91.2746615,15.5987772 91.1528046,16.3107065 90.9497099,17.0168478 C90.7630252,17.7102065 90.465178,18.3688962 90.0676983,18.9674185 C90.0302026,19.1537346 89.9601478,19.3320209 89.860735,19.4941304 C89.8104449,19.5770924 89.7582205,19.6619837 89.7001934,19.7430163 C89.6421663,19.8240489 89.5764023,19.9012228 89.5067698,19.9783967 C89.3791103,20.1366033 89.2340426,20.2870924 89.0909091,20.4395109 C88.9477756,20.5919293 88.8085106,20.7443478 88.6789168,20.906413 C88.55706,21.0318207 88.5357834,21.1205707 88.6208897,21.172663 C87.9148936,21.9444022 86.9787234,22.4286685 86.2224371,22.9457337 C86.0290135,23.0634239 85.8839458,23.1946196 85.7195358,23.3316033 C85.5437474,23.463337 85.355947,23.5783163 85.1586074,23.6750272 C85.1586074,23.6750272 85.2108317,23.5554076 85.1856867,23.5611957 C85.0826255,23.5961698 84.9844724,23.6441498 84.893617,23.7039674 C84.7678917,23.7811413 84.615087,23.8718207 84.4468085,23.9547826 C84.155772,24.1351299 83.822155,24.2356276 83.4796905,24.2461141 C83.1586074,24.5586685 82.4932302,24.500788 82.0444874,24.7824728 C81.9719179,24.7687646 81.9047993,24.7346207 81.8510638,24.6840761 C81.8510638,24.7477446 81.5319149,24.8770109 81.7021277,24.7593207 C80.8510638,24.8712228 79.8104449,25.0371467 78.7272727,24.8538587 C78.5435203,24.9059511 78.4061896,25.0352174 78.2437137,24.8538587 C78.0928433,24.9985598 77.7117988,24.9348913 77.3230174,24.8538587 C77.1295938,24.799837 76.9361702,24.7400272 76.7562863,24.6975815 C76.6144137,24.6485547 76.4654238,24.623134 76.3152805,24.622337 C76.3617021,24.5760326 76.4352031,24.5548098 76.5686654,24.5914674 C76.4332689,24.4988587 76.1934236,24.5297283 76.0425532,24.361875 C76.1141199,24.4429076 75.655706,24.4332609 75.5783366,24.2248913 C75.4661509,24.400462 75.131528,23.9991576 75.0812379,24.1940217 C74.7137331,24.1940217 74.6943907,23.8390217 74.4661509,23.7541304 C74.3133462,23.6866033 74.0309478,23.8853261 73.9574468,23.5168207 C73.8201161,23.4589402 73.8491296,23.6345109 73.7369439,23.6075 C73.5990106,23.4944086 73.446043,23.4009121 73.2823985,23.3296739 C73.1455474,23.2740035 73.0124517,23.2095573 72.8839458,23.1367391 C73.0077369,22.9958967 72.6208897,23.0325543 72.8839458,22.9785326 C72.6816057,22.9104595 72.4948711,22.8028993 72.3346228,22.6621196 C72.1508704,22.503913 71.9613153,22.3225543 71.7833656,22.1547011 C71.7369439,22.4190217 71.6015474,22.0447283 71.4603482,22.1836413 C71.2990403,22.0852188 71.1605772,21.9536824 71.0541586,21.7977717 C70.9844856,21.6927391 70.9316284,21.5775283 70.8974855,21.4562772 C70.7524178,21.3212228 70.7833656,21.5585326 70.868472,21.6144837 C70.7446809,21.649212 70.8046422,21.3810326 70.5473888,21.2382609 C70.8665377,21.3791033 70.4990329,21.1688043 70.6112186,21.0453261 C70.4332689,20.8523913 70.1779497,20.945 70.3346228,20.7520652 C70.2282398,20.634375 70.1760155,20.7636413 70.0522244,20.5764946 C70.1586074,20.6092935 70.1237911,20.551413 70.1508704,20.4838859 C70.0754352,20.5051087 69.7311412,20.2022011 69.8297872,20.451087 C69.549323,20.2581522 69.1160542,19.486413 69.1566731,19.4227446 C69.065764,19.2896196 68.9980658,19.4111685 68.8994197,19.2066576 C68.9168279,18.9500543 68.8085106,18.909538 68.6324952,18.6008424 C68.7059961,18.5661141 68.6653772,18.4638587 68.7466151,18.4349185 C68.6034816,18.2419837 68.7021277,18.5526087 68.5918762,18.5294565 L68.4352031,18.2458424 C68.549323,18.2651359 68.4951644,18.199538 68.4468085,18.1242935 C68.3984526,18.0490489 68.3558994,17.9583696 68.4777563,17.9410054 C68.1141199,17.4258696 68.1644101,17.7345652 68.1044487,17.1403261 C67.9243491,16.8503639 67.7875184,16.5357986 67.6982592,16.2065217 C67.6292339,15.9962375 67.5743093,15.7816061 67.5338491,15.5640489 C67.4961191,15.3974678 67.4760219,15.2273966 67.4738878,15.0566304 C67.2572534,14.9891033 67.3346228,14.6244565 67.1237911,14.4778261 C67.0667493,13.9337745 67.051876,13.3861439 67.0793037,12.8398098 L67.2147002,12.8282337 C67.1141199,12.6719565 67.2301741,12.6700272 67.2514507,12.5060326 C67.1044487,12.4134239 67.2205029,12.7684239 67.073501,12.6777446 C67.2959381,12.0603533 67.2553191,11.2403804 67.2514507,10.7483967 C67.377176,10.611413 67.5106383,10.2641304 67.3462282,10.1078533 C67.4893617,9.9805163 67.5222437,9.69690217 67.5938104,9.44029891 C67.6653772,9.18369565 67.7311412,8.94252717 67.8994197,8.91165761 C67.8123791,8.94831522 67.7059961,8.54508152 67.926499,8.50649457 C67.9400387,8.29233696 67.9709865,8.26146739 67.8046422,8.31355978 C67.9555126,8.17271739 68.0638298,8.0801087 68.0909091,8.31355978 C68.0785871,8.17268075 68.0831324,8.03083917 68.1044487,7.89103261 C68.1322278,7.72502515 68.1742918,7.56171312 68.2301741,7.40290761 C68.2830393,7.24107271 68.3578808,7.08722408 68.4526112,6.94565217 C68.521349,6.83162201 68.6178128,6.7367292 68.7330754,6.66975543 C68.6537718,6.65432065 68.8549323,6.22793478 68.7234043,6.39771739 C68.5860735,6.35720109 68.9361702,6.24336957 68.7969052,6.1642663 C68.9903288,6.04271739 68.7736944,6.57907609 68.893617,6.65625 C68.9845261,6.434375 68.8085106,6.36105978 69.0870406,6.0388587 C69.0464217,6.02149457 69.0058027,6.10831522 68.9651838,6.15654891 C68.8471954,6.06008152 69.139265,5.77067935 69.2495164,5.85557065 C69.303675,5.73788043 69.377176,5.61633152 69.4294004,5.52179348 L69.5145068,5.36358696 C69.622824,5.18994565 69.7079304,5.23046196 69.8220503,5.08769022 C69.8994197,4.98736413 69.7988395,4.88125 69.9632495,4.67095109 C69.8646035,4.81372283 70.3326886,4.55133152 70.2746615,4.43171196 C70.3539652,4.45679348 70.3017408,4.53203804 70.245648,4.6111413 C70.344294,4.65744565 70.4274662,4.37769022 70.4119923,4.33717391 C70.5841393,4.18089674 70.384913,4.47222826 70.4661509,4.481875 C70.5551257,4.36418478 70.6170213,4.26578804 70.6054159,4.18668478 C70.7814313,4.05163043 70.6305609,4.40663043 70.8491296,4.18668478 C70.762089,4.13845109 70.8297872,4.10372283 70.9071567,4.05548913 C70.9845261,4.00725543 71.0831721,3.949375 71.0502901,3.84326087 C70.8742747,3.79309783 70.8375242,4.11915761 70.729207,3.98217391 C70.8924249,3.84158725 71.0628682,3.7095699 71.2398453,3.58665761 C71.1757544,3.57735266 71.1107805,3.5963729 71.0618956,3.63875 C71.1927123,3.43937921 71.3648588,3.27029926 71.5667311,3.14290761 C71.7287595,3.01128614 71.9256648,2.92950545 72.1334623,2.90752717 C72.0967118,2.8882337 72.1334623,2.85543478 72.1644101,2.82263587 C72.0784808,2.8362636 71.9958394,2.86570379 71.9206963,2.90945652 C71.9265023,2.8100366 71.9487224,2.71225464 71.9864603,2.62005435 C72.1682785,2.52744565 72.4661509,2.47921196 72.4139265,2.63163043 C72.4603482,2.58532609 72.4487427,2.54866848 72.5125725,2.50043478 C72.4081238,2.440625 72.205029,2.61233696 72.1489362,2.4367663 C72.5551257,2.33836957 72.5357834,2.23032609 72.6112186,2.36923913 C72.9613153,2.16086957 72.4951644,2.18980978 72.8201161,2.11649457 C72.8317215,2.15508152 72.8723404,2.13192935 72.9129594,2.11649457 C72.9381044,2.15315217 72.8529981,2.19945652 72.8085106,2.24383152 C72.868472,2.3036413 73.0483559,2.11263587 73.1237911,2.13578804 C72.8413926,2.16858696 73.4294004,1.57627717 73.4545455,1.7711413 C73.5299807,1.71519022 73.4661509,1.66695652 73.4545455,1.61679348 C73.5841393,1.64959239 73.9729207,1.27529891 73.9709865,1.53190217 C74.0251451,1.35826087 74.1644101,1.29845109 74.3268859,1.24442935 C74.4967915,1.20325069 74.6512281,1.11417174 74.7717602,0.987826087 C74.9230726,1.00991679 75.0774602,0.981423874 75.2108317,0.906793478 C75.3558994,0.856630435 75.483559,0.818043478 75.5338491,0.918369565 C75.655706,0.760163043 76.1528046,0.681059783 76.270793,0.856630435 C76.4429427,0.685064159 76.6720023,0.582144951 76.9148936,0.567228261 C77.0514805,0.54756104 77.1865506,0.518552458 77.3191489,0.480407609 C77.4004477,0.455671167 77.4799399,0.425372871 77.55706,0.389728261 C77.6509453,0.351696017 77.7420731,0.307214282 77.8297872,0.256603261 C77.9497099,0.256603261 78.7969052,0.216086957 79.0212766,0.0636684783 C78.868472,0.277826087 79.2901354,0.310625 79.4468085,0.355 C79.4294004,0.23923913 79.3172147,0.185217391 79.1141199,0.192934783 C79.4119923,0.117690217 79.7311412,0.152418478 79.9883946,0.077173913 C80.237911,0.138913043 79.9052224,0.210298913 79.8297872,0.125407609 C79.8916828,0.262391304 79.8897485,0.210298913 79.8394584,0.349211957 C79.8510638,0.297119565 79.9381044,0.285543478 80.0174081,0.270108696 C80.0967118,0.254673913 80.1682785,0.241168478 80.1508704,0.171711957 C80.6382979,0.287472826 80.6092843,0.218016304 80.860735,0.389728261 C81.0541586,0.142771739 81.3655706,0.522853261 81.5048356,0.275896739 C81.5725338,0.314483696 81.6402321,0.351141304 81.6634429,0.299048913 C81.9110251,0.455326087 82.3017408,0.684918478 82.4526112,0.436032609 C82.5841393,0.503559783 82.7079304,0.582663043 82.6460348,0.711929348 C82.8143133,0.744728261 82.8394584,0.640543478 82.8394584,0.518994565 L83.1121857,0.64826087 C83.1953578,0.690706522 83.2765957,0.731222826 83.3617021,0.769809783 C83.456832,0.809383503 83.5543848,0.84289293 83.6537718,0.87013587 C83.7808715,0.911367226 83.9099865,0.946140179 84.040619,0.974320652 C83.6537718,1.07850543 84.4274662,1.09586957 84.1334623,1.198125 C84.2920696,1.26565217 84.377176,1.25600543 84.3984526,1.1576087 C84.4970986,1.36790761 84.7852998,1.29459239 84.9477756,1.48945652 C85.0174081,1.34668478 85.303675,1.57627717 85.2166344,1.46630435 C85.2649903,1.42 85.410058,1.51646739 85.5222437,1.56855978 C85.4313346,1.65152174 85.4816248,1.72869565 85.6750484,1.80201087 C85.6208897,1.83480978 85.5454545,1.83673913 85.4255319,1.7711413 C85.4081238,1.85217391 85.8123791,1.99494565 85.8123791,1.87532609 C86.0058027,1.9486413 86.1798839,2.33065217 86.2901354,2.15701087 C86.3733075,2.24769022 86.4680851,2.34994565 86.3984526,2.43869565 C86.3500967,2.39625 86.3578337,2.35766304 86.2920696,2.31521739 C86.2920696,2.35380435 86.3346228,2.39625 86.311412,2.43483696 C86.4313346,2.50043478 86.5048356,2.46570652 86.5338491,2.36730978 C86.6421663,2.54866848 86.893617,2.4888587 86.8143133,2.6625 C86.9032882,2.7030163 86.9767892,2.70880435 87.0077369,2.64320652 C87.1063434,2.74217761 87.2138189,2.83194468 87.3288201,2.91138587 C87.4533155,3.00146268 87.5868486,3.0784058 87.7272727,3.14097826 C87.794971,3.20657609 87.7272727,3.24902174 87.7040619,3.29725543 C87.8065764,3.38793478 87.8800774,3.40722826 87.9400387,3.38407609 C88.0483559,3.48826087 87.8858801,3.53649457 88.0309478,3.64646739 C88.0425532,3.505625 88.7736944,4.02076087 88.6499033,4.25228261 C88.8007737,4.19247283 88.6499033,4.26771739 88.9168279,4.54168478 C88.9477756,4.49538043 88.8471954,4.41048913 88.7891683,4.33717391 C88.8901753,4.35332774 88.9745267,4.42270488 89.0096712,4.51853261 C89.0416239,4.60821332 89.0790902,4.69584337 89.1218569,4.78092391 C89.2475822,4.95263587 89.2630561,4.55519022 89.410058,4.84459239 C89.3248534,4.82029864 89.2339959,4.85686779 89.1895551,4.93334239 C89.2185687,5.08769022 89.5880077,5.3655163 89.5203095,5.57388587 C89.7814313,5.59896739 89.7446809,5.83627717 89.9071567,5.95975543 C89.8711559,5.80136734 89.8213202,5.64642779 89.7582205,5.49671196 C89.8511378,5.55011958 89.9139991,5.64346069 89.9284333,5.74945652 C90.0367505,5.69929348 89.7814313,5.47548913 89.9284333,5.44461957 C90.098646,5.78997283 90.5647969,6.26652174 90.5802708,6.55399457 C90.581247,6.56232672 90.581247,6.57074393 90.5802708,6.57907609 C90.3268859,6.29160326 90.5686654,6.71027174 90.5802708,6.57907609 L90.6208897,6.62345109 C90.8210679,6.90081424 90.922514,7.23698146 90.9090909,7.57847826 C90.9381044,7.54953804 90.959381,7.57847826 90.9806576,7.6325 C91.0068356,7.5197032 90.9873758,7.40115976 90.926499,7.30258152 C91.1083172,7.3623913 91.1199226,7.72317935 90.9729207,7.7251087 C91.0502901,7.85630435 91.1547389,7.70581522 91.2224371,7.95855978 C91.1334623,8.06274457 91.0773694,7.85244565 90.9961315,7.88910326 C91.0599613,8.12641304 91.1798839,7.91032609 91.2282398,8.21902174 C91.2669246,8.19972826 91.2282398,8.11290761 91.212766,8.05116848 C91.3655706,8.18429348 91.2940039,8.32320652 91.4526112,8.55665761 C91.3268859,8.6048913 91.3423598,8.7823913 91.2746615,8.88078804 C91.3675048,9.04478261 91.311412,8.63576087 91.5048356,8.70907609 C91.4487427,8.8267663 91.3675048,8.97146739 91.5783366,8.93866848 C91.6628181,9.07617571 91.6859531,9.24260587 91.6421663,9.39785326 C91.615087,9.51554348 91.5783366,9.60043478 91.6421663,9.67182065 C91.5841393,9.99016304 91.4061896,9.45380435 91.2553191,9.62358696 Z M74.7833656,1.21163043 C74.72147,1.22706522 74.6382979,1.27336957 74.6170213,1.23671196 C74.6576402,1.21741848 74.6827853,1.16532609 74.5957447,1.19619565 C74.6286267,1.27722826 74.3133462,1.29652174 74.2088975,1.3351087 C74.2340426,1.4161413 74.3365571,1.38141304 74.3675048,1.45665761 C74.3268859,1.47595109 74.303675,1.52804348 74.3887814,1.49717391 C74.3887814,1.45858696 74.4235977,1.42192935 74.5087041,1.38720109 C74.5203095,1.41035326 74.589942,1.40456522 74.5802708,1.35247283 C74.4990329,1.38141304 74.3733075,1.3717663 74.4661509,1.30809783 C74.4777563,1.38527174 74.8085106,1.31195652 74.7833656,1.21163043 L74.7833656,1.21163043 Z M85.2998066,1.8232337 C84.9477756,1.52418478 84.8239845,2.01616848 85.1547389,1.95057065 C85.106383,1.91391304 85.0193424,1.88497283 85.0348162,1.84252717 C85.0638298,1.73641304 85.2649903,1.89269022 85.2998066,1.8232337 Z M87.303675,3.04258152 C87.2630561,2.99627717 87.2553191,2.95383152 87.303675,2.91910326 C87.1876209,2.82263587 87.1334623,2.85736413 87.0232108,2.76861413 C86.8471954,2.81105978 87.2843327,3.10432065 87.311412,3.04258152 L87.303675,3.04258152 Z M88.6112186,4.29086957 C88.5415861,4.21369565 88.6112186,4.18089674 88.5667311,4.11144022 C88.3829787,4.07671196 88.549323,4.15967391 88.5261122,4.26578804 C88.4541813,4.20723933 88.3603646,4.18261312 88.2688588,4.19826087 C88.44294,4.40084239 88.5261122,4.34875 88.6189555,4.29086957 L88.6112186,4.29086957 Z" id="形状" fill="#EFEFEF" fill-rule="nonzero"></path>
                        <path d="M89.3288201,5.02980978 C89.5113402,5.14133723 89.6572243,5.30361712 89.7485493,5.49671196 C89.8646035,5.280625 89.303675,4.82336957 89.3288201,5.02980978 Z" id="路径" fill="#EFEFEF" fill-rule="nonzero"></path>
                        <polygon id="路径" fill="#EFEFEF" fill-rule="nonzero" points="89.7485493 5.50442935 89.7601547 5.50442935 89.7601547 5.48899457"></polygon>
                        <path d="M92.0386847,13.4649185 C92.0502901,13.3723098 92.0386847,13.2391848 92.0928433,13.2256793 C92.1934236,13.3452989 91.9961315,13.4784239 92.1740812,13.4687772 C92.1690676,13.3577771 92.1888894,13.2470557 92.2321083,13.1446467 C92.1644101,13.1311413 92.0638298,13.173587 92.0541586,13.0655435 C92.0444874,12.9575 92.0947776,12.9690761 92.106383,12.9034783 C91.8820116,12.9034783 92.0502901,13.3047826 91.9516441,13.3838859 C91.8916828,13.1909511 91.9806576,13.0423913 91.9226306,12.9864402 C91.8839458,13.22375 91.827853,12.913125 91.7408124,12.9864402 C91.7911025,13.22375 91.8201161,13.5054348 92.0386847,13.4649185 Z" id="路径" fill="#EFEFEF" fill-rule="nonzero"></path>
                        <path d="M82.3210832,70.0797011 C82.0367505,70.0912772 82.3733075,70.4366304 82.5686654,70.3382337 C82.4669873,70.2725753 82.3821843,70.1840216 82.3210832,70.0797011 Z" id="路径"></path>
                        <path d="M53.0618956,69.31375 C53.3210832,69.6205163 54.2359768,68.9683967 53.9090909,69.1478261 C53.5783366,69.0243478 53.2843327,69.0320652 53.0618956,69.31375 Z" id="路径"></path>
                        <path d="M99.8626692,70.0854891 C98.8955513,70.2205435 98.8394584,70.4539946 98.2765957,70.0121739 C97.3210832,70.2707065 96.2166344,70.3054348 95.5918762,69.84625 C95.1160542,70.0874185 94.6112186,70.1028533 94.3752418,69.8925543 C94.0928433,70.4810054 93.5783366,69.9214946 93.5357834,70.3247283 C92.6344294,69.3176087 90.7736944,71.0675272 90.3636364,70.1761685 C89.4272146,70.6382553 88.3168518,70.5790003 87.4352031,70.0198913 C87.4158607,70.2861413 86.9864603,70.5446739 86.5841393,70.0526902 C86.3655706,70.6314946 85.1895551,70.5851902 84.1508704,70.1433696 C84.1702128,70.3903261 83.139265,70.7105978 82.5686654,70.3363043 L82.5686654,70.3363043 C82.4669873,70.270646 82.3821843,70.1820923 82.3210832,70.0777717 C82.0367505,70.0893478 82.3733075,70.4347011 82.5686654,70.3363043 L82.5686654,70.3363043 C81.8800774,70.55625 80.9864603,70.6604348 80.6170213,70.1433696 C80.3752418,70.5292391 79.2843327,70.5427446 78.9148936,70.207038 C78.9148936,70.4578533 78.7659574,70.5099457 78.4274662,70.2263315 C78.2862669,70.251413 78.3326886,70.473288 78.3191489,70.6295652 C77.2205029,70.6913043 77.0851064,70.1723098 75.9980658,70.4501359 C76.8452611,69.7382065 74.5029014,70.5466033 75.0077369,69.9542935 C74.2340426,70.1240761 74.2804642,70.7376087 73.6653772,69.8713315 C73.7330754,70.6623641 72.5396518,69.6919022 71.7311412,70.3440217 C71.9941973,70.151087 71.5686654,70.0256793 71.8413926,69.940788 C71.7253385,69.796087 71.6131528,69.9060598 71.2282398,69.8308152 C71.3317181,70.0015168 71.5244101,70.0976193 71.7234043,70.0777717 C71.4796905,70.0777717 70.4777563,70.4134783 70.3810445,69.9948098 C70.2263056,70.689375 69.4042553,70.1877446 68.9323017,70.4501359 C65.9709865,70.0083152 64.483559,69.485462 61.615087,70.1916033 C59.6024518,69.8409569 57.5494274,69.7837657 55.5203095,70.0218207 C55.5976789,69.6533152 55.2688588,69.7613587 55.2611219,69.497038 C55.3617021,69.7690761 54.8162476,70.295788 54.7736944,69.5163315 C54.4951644,69.9388587 54.3868472,69.446875 53.794971,69.4179348 C54.2359768,70.1761685 52.1644101,69.763288 51.7311412,69.630163 C51.589942,69.6571739 51.6363636,69.8771196 51.622824,70.0353261 C48.6924565,69.8192391 48.2533849,69.9774457 45.5435203,70.3980435 C45.9477756,69.8616848 45.1740812,70.3980435 44.6905222,70.428913 C44.7875137,70.267937 44.8251383,70.0782424 44.7969052,69.8925543 C43.7852998,70.511875 42.1005803,70.5427446 40.7775629,69.9099185 C40.655706,70.0005978 40.6615087,70.2205435 40.4197292,70.1896739 C40.4545455,69.707337 40.0618956,70.0256793 39.3210832,70.0989946 C37.8220503,70.2436957 36.0541586,70.55625 34.3365571,70.4192663 C32.7272727,70.2919293 31.3017408,69.7420652 30.4390716,70.4327717 C30.5125725,69.9446467 29.4139265,70.4192663 29.5667311,69.7980163 C28.4235977,70.6990217 26.8433269,69.9677989 24.9555126,70.3768207 C24.7775629,70.3247283 24.9555126,70.2591304 24.9458414,70.1105707 C22.901354,70.2417663 20.1682785,70.4404891 19.3462282,70.1877446 C18.7969052,70.7549728 18.0309478,70.0083152 17.4119923,70.6604348 C17.2688588,70.645 17.3017408,70.423125 17.2765957,70.2745652 C16.6518375,70.5350272 15.8046422,70.6372826 15.8181818,70.328587 C15.549323,70.7704076 15.2901354,70.417337 14.9787234,70.7607609 C15.2321083,70.2668478 14.5918762,70.7800543 14.3578337,70.3748913 C14.4622824,70.4520652 13.0038685,70.7202446 12.4235977,70.7163859 C11.5261122,70.7163859 10.4893617,70.1260054 9.99032882,70.8070652 C7.86266925,70.1645924 5.39651838,70.8803804 3.29400387,70.9266848 C3.32108317,70.7105978 3.17021277,70.7009511 3.15860735,70.5311685 C2.73694391,70.9633424 0.914893617,70.5832609 0.117988395,70.6469293 C-0.00580270793,70.6565761 0.0406189555,70.9131793 0.00386847195,70.917038 L0.079303675,69.4449457 C0.315280464,70.1645924 2.50290135,69.0590761 3.99032882,69.8308152 C4.22243714,69.4989674 4.18375242,69.6899728 4.58994197,69.541413 C4.54168226,69.6268051 4.50339247,69.7174326 4.47582205,69.8115217 C5.74661509,69.8809783 7.0967118,69.0590761 8.35783366,69.2655163 C8.82591876,69.3426902 11.065764,69.1323913 12.1450677,69.6513859 C16.44294,68.5670924 20.8491296,69.5549185 24.6692456,68.9105163 C24.8413926,68.9857609 24.7040619,69.4237228 24.9303675,69.4352989 C25.2282398,69.4102174 24.9419729,68.9934783 24.794971,69.0397826 C26.1276596,69.0185598 27.7891683,68.8931522 29.4197292,68.8661413 C30.5531915,68.8468478 32.1876209,68.7561685 32.9632495,69.2655163 C33.3191489,68.7465217 34.655706,69.0938043 34.4294004,69.3446196 C34.7678917,69.0301359 36.1373308,68.9336685 36.7504836,69.3909239 C37.2533849,69.0706522 38.2417795,69.1979891 38.3288201,69.1979891 C38.3636364,69.1979891 38.615087,68.9741848 38.8104449,69.0455707 C38.8549323,69.0629348 39.040619,69.4314402 39.065764,69.4314402 C39.4119923,69.3928533 38.8723404,69.1786957 39.1760155,69.0262772 C40.1199226,68.5516576 41.4235977,69.6552446 42.4642166,68.9027989 C43.1102515,69.5491304 43.6382979,68.9703261 44.6537718,68.819837 C44.6634429,69.086087 44.6711799,69.3542663 44.6789168,69.6205163 C44.7524178,69.0610054 45.0773694,69.5626359 45.1489362,69.0687228 C45.0909091,68.875788 44.9961315,69.1266033 44.7852998,69.0822283 C44.9535783,68.5034239 45.7350097,69.0050543 45.7698259,69.4449457 C45.9864603,69.408288 46.0290135,69.2134239 45.9110251,69.1092391 C46.2611219,69.2288587 46.959381,69.3253261 47.0928433,68.8622826 C47.2765957,69.4160054 47.6731141,68.4378261 47.8336557,69.2346467 C48.1837524,68.5883152 49.688588,68.7021467 50.0212766,69.0185598 C50.3617021,68.6056793 50.6615087,68.8429891 51.2243714,68.5728804 C50.8781431,68.7986141 51.0909091,68.9182337 51.4816248,68.95875 C51.4816248,68.8294837 51.3288201,68.8622826 51.2321083,68.8352717 C51.3288201,68.3838043 51.5029014,68.7079348 51.7195358,68.8159783 C52.1470019,67.9786413 54.5377176,68.7117935 55.6092843,68.5362228 C55.967118,68.6384783 55.7524178,68.7291576 55.7466151,69.0648641 C55.8451134,68.9734559 55.9738165,68.9212809 56.1083172,68.9182337 C56.0244135,68.8067268 55.9777303,68.6717552 55.9748549,68.5323641 C57.0270793,68.3702989 58.1528046,68.7773913 59.5183752,68.9317391 C61.27853,69.1246739 65.0251451,67.9670652 66.3462282,69.0764402 C67.893617,68.7137228 69.8781431,69.2346467 72.1856867,68.8545652 C71.787234,69.6764674 73.0560928,68.5632337 73.2882012,69.0802989 C73.7001934,68.3085598 75.9632495,69.3021739 77.5609284,69.319538 C78.8123791,69.3349728 79.8317215,68.2776902 80.3617021,69.3484783 C80.6595745,68.9896196 80.9129594,69.2520109 81.4487427,69.0397826 C81.1237911,69.4256522 82.2572534,69.2886685 82.5435203,68.9992663 C82.7234043,69.0513587 82.5435203,69.1169565 82.5531915,69.2655163 C83.4951644,69.1227446 83.1992263,68.9317391 84.0135397,69.2095652 C83.9651838,69.4025 83.8549323,69.1632609 83.6479691,69.225 C83.860735,69.6996196 84.2282398,69.1825543 84.5087041,69.4584511 C84.3268859,69.0494293 85.5880077,68.9741848 85.8471954,69.408288 C85.9883946,69.3812772 85.9419729,69.1613315 85.9555126,69.003125 C87.1295938,69.485462 89.4912959,68.4841304 90.9535783,69.0822283 C91.0077369,69.1053804 91.1682785,69.4680978 91.2088975,69.4680978 C91.4622824,69.4680978 91.098646,69.1632609 91.0793037,69.2057065 C91.3558994,68.6519837 93.1450677,69.1323913 93.9980658,69.0957337 C95.2108317,69.0436413 96.72147,68.7465217 97.7698259,68.952962 C97.5938104,69.4816033 98.0947776,69.2172826 98.1566731,69.4719565 C98.4042553,69.5047554 98.1179884,69.086087 98.0212766,69.086087 C97.9825919,68.8931522 98.7678917,69.086087 98.3945841,69.3388315 C98.9110251,69.0339946 99.1411992,69.086087 99.8510638,69.1458967 C99.7794971,69.2674457 99.7098646,69.3889946 99.8510638,69.4121467 C99.8626692,69.6050815 99.1353965,69.6320924 99.7388781,69.6841848 C99.7156673,69.8539674 99.3810445,69.8771196 99.3733075,69.6976902 C99.1373308,70.0083152 99.6924565,70.0353261 99.8626692,70.0854891 Z M53.9090909,69.1478261 C53.582205,69.0243478 53.2843327,69.0320652 53.0618956,69.31375 C53.3210832,69.6205163 54.2359768,68.9683967 53.9090909,69.1478261 Z" id="形状" fill="#393939" fill-rule="nonzero"></path>
                        <path d="M45.8974855,69.1188859 C45.8549009,69.0815668 45.8012252,69.059202 45.7446809,69.0552174 C45.7938461,69.0804407 45.8449416,69.1017304 45.8974855,69.1188859 L45.8974855,69.1188859 Z" id="路径" fill="#393939" fill-rule="nonzero"></path>
                        <rect id="矩形" fill="#EFEFEF" fill-rule="nonzero" x="51.8955513" y="6.27038043" width="32.7891683" height="10.167663"></rect>
                        <rect id="矩形" fill="#EFEFEF" fill-rule="nonzero" x="51.8955513" y="29.7080978" width="32.7891683" height="10.167663"></rect>
                        <rect id="矩形" fill="#EFEFEF" fill-rule="nonzero" x="51.8955513" y="53.1458152" width="32.7891683" height="10.167663"></rect>
                        <polygon id="路径" fill="#EFEFEF" fill-rule="nonzero" points="51.8955513 58.9550815 46.1121857 58.9550815 46.1121857 10.6287772 51.8955513 10.6287772 51.8955513 12.0777174 47.5647969 12.0777174 47.5647969 57.5061413 51.8955513 57.5061413"></polygon>
                        <rect id="矩形" fill="#EFEFEF" fill-rule="nonzero" x="40.0754352" y="34.0684239" width="11.8201161" height="1.44894022"></rect>
                        <rect id="矩形" fill="#FFFFFF" fill-rule="nonzero" x="56.1895551" y="10.2332609" width="24.2011605" height="2.24190217"></rect>
                        <rect id="矩形" fill="#FFFFFF" fill-rule="nonzero" x="56.1895551" y="33.6709783" width="19.7833656" height="2.24190217"></rect>
                        <rect id="矩形" fill="#FFFFFF" fill-rule="nonzero" x="78.1431335" y="33.6709783" width="2.24758221" height="2.24190217"></rect>
                        <rect id="矩形" fill="#FFFFFF" fill-rule="nonzero" x="56.1895551" y="57.110625" width="9.94777563" height="2.24190217"></rect>
                        <rect id="矩形" fill="#FFFFFF" fill-rule="nonzero" x="67.5415861" y="57.110625" width="2.24758221" height="2.24190217"></rect>
                        <path d="M26.1605416,19.3957337 C18.8104449,19.3957337 12.8626692,26.2892935 12.8626692,34.7919293 C12.8626692,43.2945652 18.8162476,50.1900543 26.1605416,50.1900543 C33.5048356,50.1900543 39.4584139,43.2964946 39.4584139,34.7919293 C39.4584139,26.2873641 33.5048356,19.3957337 26.1605416,19.3957337 Z M26.1605416,45.4207065 C23.2746615,45.4207065 20.9381044,40.6629348 20.9381044,34.7919293 C20.9381044,28.9209239 23.27853,24.1631522 26.1605416,24.1631522 C29.0425532,24.1631522 31.3829787,28.9228533 31.3829787,34.7919293 C31.3829787,40.6610054 29.0464217,45.4207065 26.1605416,45.4207065 L26.1605416,45.4207065 Z" id="形状" fill="#415CE5" fill-rule="nonzero"></path>
                        <path d="M13.0077369,35.3205707 C12.9361702,35.2356793 12.8742747,35.2048098 12.9709865,35.139212 C13.0154739,35.2626902 13.1083172,35.2607609 13.0754352,35.4305435 C13.1895551,35.4305435 13.0232108,35.2993478 13.1353965,35.2916304 C13.1624758,35.3398641 13.1353965,35.3649457 13.1779497,35.4189674 C13.1992263,35.4189674 13.3326886,35.449837 13.2823985,35.3552989 C13.0889749,35.2935598 13.4235977,35.2356793 13.5125725,35.2626902 C13.377176,35.0215217 13.8336557,35.0967663 13.6924565,34.8941848 C13.787234,34.9096196 13.7891683,34.9115489 13.8355899,34.9597826 C13.8162476,34.9096196 13.8529981,34.9192663 13.8897485,34.928913 C13.8897485,34.8227989 13.7408124,34.8247283 13.8065764,34.7784239 C13.8878143,34.917337 13.9129594,34.7224728 13.9555126,34.7938587 C13.9320736,34.829539 13.91871,34.8708617 13.9168279,34.9134783 C14.0135397,34.8961141 13.9941973,34.8208696 14.0580271,34.7861413 C14.0870406,34.8247283 14.1528046,34.8536685 14.1334623,34.7861413 C14.0909091,34.7861413 14.0502901,34.7668478 14.0174081,34.70125 C13.901354,34.70125 13.9168279,34.7919293 13.8239845,34.7533424 C13.9071567,34.7282609 13.7698259,34.5970652 13.8239845,34.5604076 C13.9400387,34.529538 13.8723404,34.6973913 13.9883946,34.6665217 C13.9381044,34.5874185 13.9458414,34.5333967 14.0096712,34.5063859 C13.8974855,34.2401359 13.688588,34.606712 13.5841393,34.6452989 C13.5377176,34.662663 13.5396518,34.5604076 13.5512573,34.7166848 C13.3713733,34.6703804 13.4680851,34.7166848 13.4410058,34.8363043 C13.3558994,34.7726359 13.3307544,34.9192663 13.2147002,34.8247283 C13.1663443,34.8691033 13.3133462,34.8999728 13.2282398,34.9694293 C13.1949068,34.9342008 13.1538656,34.9071292 13.1083172,34.8903261 C13.1295938,35.0832609 13.1547389,34.8903261 13.2243714,35.0234511 C13.0096712,35.0234511 13.2514507,35.1681522 13.1798839,35.2530435 C13.0947776,35.1874457 13.1431335,35.1816576 13.0425532,35.0851902 C13.106383,35.1025543 13.131528,35.0851902 13.098646,34.9983696 C13.0560928,34.9983696 13.0174081,34.9771467 12.9709865,35.0273098 C13.1121857,35.1372826 12.7079304,35.2067391 13.0077369,35.3205707 Z" id="路径" fill="#FFFFFF" fill-rule="nonzero"></path>
                        <path d="M13.9825919,34.3829076 C14.1528046,34.2922283 14.1760155,34.4022011 14.2321083,34.2459239 L14.2920696,34.3616848 C14.3152805,34.2690761 14.4854932,34.2478533 14.4061896,34.1012228 C14.483559,34.2536413 14.5396518,34.1012228 14.5996132,34.3423913 C14.655706,34.2304891 14.6344294,34.1899728 14.7098646,34.1398098 C14.6750484,34.0915761 14.622824,34.1398098 14.5764023,34.1571739 C14.4854932,33.9816033 14.6266925,33.9314402 14.7698259,33.8754891 C14.754352,33.9931793 14.7969052,33.9160054 14.8529981,33.9796739 C14.901354,33.9391576 14.7717602,33.7983152 14.9129594,33.807962 C14.9129594,33.8561957 14.8665377,33.8793478 14.9129594,33.952663 L15.0522244,34.0317663 C15.1508704,33.9796739 14.9323017,33.9295109 15.0270793,33.8986413 C15.1010273,33.9412526 15.1934418,33.935158 15.2611219,33.8832065 C15.2340426,33.81375 15.1953578,33.7905978 15.1528046,33.7905978 C15.1102515,33.7076359 15.2475822,33.725 15.27853,33.6825543 C15.384913,33.6729076 15.2514507,33.7597283 15.2108317,33.763587 C15.2591876,33.8542663 15.3423598,33.7905978 15.3810445,33.9217935 C15.3810445,33.997038 15.2843327,34.0259783 15.3365571,34.1359511 C15.3887814,34.2459239 15.4294004,33.908288 15.4371373,34.1359511 C15.4932302,34.0549185 15.4990329,34.0838587 15.6054159,34.0568478 C15.4960932,33.9760144 15.4062254,33.871873 15.3423598,33.7520109 C15.4119923,33.7520109 15.4294004,33.7848098 15.4216634,33.858125 C15.4371373,33.7732337 15.5261122,33.7732337 15.582205,33.8330435 C15.5938104,33.7944565 15.6034816,33.5590761 15.4990329,33.6401087 C15.4777563,33.5127717 15.5261122,33.5783696 15.6015474,33.553288 C15.6479691,33.6323913 15.6247582,33.6690489 15.6363636,33.725 C15.6634429,33.6285326 15.7098646,33.6922011 15.7833656,33.6671196 C15.7330754,33.4317391 15.8916828,33.6979891 15.8568665,33.4992663 C15.9052224,33.4876902 16.1141199,33.5706522 16.0367505,33.4298098 C16.1856867,33.5243478 16.3984526,33.2831793 16.4235977,33.4703261 C16.5396518,33.4491033 16.5106383,33.3217663 16.5125725,33.2156522 C16.5841393,33.2156522 16.6382979,33.2735326 16.7059961,33.2928261 C16.5531915,33.1153261 16.8858801,33.3892935 16.8355899,33.1616304 C16.901354,33.2079348 16.9961315,33.1732065 17.0541586,33.231087 C17.1179884,33.186712 17,33.1770652 17.0541586,33.0960326 C17.1644101,33.1249728 17.1624758,33.0477989 17.3094778,33.0362228 C17.384913,33.1905707 17.4081238,33.1828533 17.5280464,33.2986141 C17.6112186,33.242663 17.4816248,33.1654891 17.4854932,33.0863859 C17.6542305,33.1494215 17.8431531,33.0720243 17.9187621,32.9088859 C18.0154739,32.9474728 18.065764,32.9841304 18.1528046,32.9223913 C18.1528046,32.9571196 18.1257253,32.9686957 18.1295938,33.0111413 C18.1895551,32.9860598 18.2011605,32.9088859 18.2823985,32.9050272 C18.2998066,32.9725543 18.2591876,32.9822011 18.2630561,33.0381522 C18.3655706,33.0072826 18.417795,32.8452174 18.4564797,33.0130707 C18.5203095,33.0130707 18.4893617,32.8915217 18.5802708,32.9108152 C18.6363636,33.0921739 18.9245648,32.8857337 19.0096712,33.1133967 C19.0096712,32.9802717 19.0831721,32.9918478 19.1740812,32.8915217 C19.1740812,32.9686957 19.2301741,32.9532609 19.2727273,32.9436141 C19.3152805,32.9339674 19.3462282,32.9436141 19.3017408,33.020788 C19.5141604,33.0092201 19.7272021,33.0234734 19.9361702,33.0632337 C20.0856886,33.0976031 20.2261418,33.1633769 20.3481625,33.2561685 C20.3868472,33.2561685 20.3907157,33.1828533 20.4061896,33.1346196 C20.3230174,33.0574457 20.4893617,33.1153261 20.4197292,33.2252989 C20.5667311,33.1712772 20.6576402,33.2966848 20.8065764,33.1828533 C20.884148,33.3223358 21.0143625,33.4251327 21.1682785,33.4683967 C21.3127181,33.5249276 21.468138,33.5480167 21.622824,33.5359239 C21.6283755,33.5957963 21.6148374,33.6558889 21.5841393,33.7076359 C21.6847195,33.6883424 21.8007737,33.7346467 21.8800774,33.6015217 C21.8897485,33.7558696 21.8433269,33.7018478 21.9806576,33.6941304 C21.9187621,33.8369022 22.0599613,33.9044293 22.1953578,33.9700272 C22.3307544,34.035625 22.4816248,34.074212 22.4468085,34.1205163 C22.483559,34.1205163 22.483559,34.0915761 22.4680851,34.0838587 C22.6564904,34.2396954 22.8606921,34.3754858 23.0773694,34.4890217 C23.2933327,34.6073266 23.4813199,34.770495 23.6286267,34.9675 C23.6537718,34.9327717 23.6286267,34.9192663 23.6034816,34.8961141 C23.9284333,35.0716848 24.0386847,35.2569022 24.2591876,35.5347283 C24.303675,35.5115761 24.3675048,35.4286141 24.4661509,35.5347283 C24.4244856,35.553394 24.387981,35.5818618 24.3597679,35.6176902 C24.4023211,35.6176902 24.4448743,35.6176902 24.4912959,35.5540217 C24.5936345,35.8327237 24.8214922,36.0471405 25.106383,36.1328261 C24.8955513,36.12125 25.212766,36.3836413 25.1508704,36.2755978 C25.2804642,36.4994022 25.7504836,36.4955435 25.7504836,36.869837 C26.0580271,36.9277174 26.6054159,37.502663 27.0464217,37.7708424 C27.0116054,37.8402989 26.967118,37.8345109 26.934236,37.9097554 C27.0077369,37.940625 27.0560928,37.7901359 27.1276596,37.7611957 C27.3017408,37.9753533 27.5705996,37.7939946 27.55706,38.1470652 C27.72147,37.979212 27.9284333,38.1933696 27.934236,38.2975543 C27.9806576,38.2975543 27.9632495,38.2280978 27.934236,38.2088043 C28.0967118,38.0544565 28.098646,38.4017391 28.1972921,38.2088043 C28.259442,38.2785299 28.3351097,38.3349732 28.4197292,38.3747283 C28.5085788,38.412471 28.6013415,38.4402942 28.696325,38.4576902 C28.7930368,38.478913 28.8897485,38.4982065 28.9845261,38.5271467 C29.0805441,38.5490007 29.1734583,38.5827023 29.2611219,38.6274728 C29.2359768,38.5271467 29.4255319,38.6274728 29.5647969,38.7085054 C29.5764023,38.5001359 29.9516441,38.7432337 30.1237911,38.7721739 C30.2591876,38.7991848 30.4197292,38.6660598 30.5860735,38.6641304 C30.8317215,38.6641304 31.1218569,38.7741033 31.3423598,38.745163 C31.4205577,38.7343716 31.4971815,38.7142925 31.5705996,38.6853533 C31.6403393,38.6525777 31.7081477,38.6158605 31.7736944,38.5753804 C31.8800315,38.4983642 32.0047363,38.4504708 32.1353965,38.4364674 C32.1025145,38.4364674 32.2630561,38.6294022 32.1953578,38.4210326 C32.2793977,38.4526779 32.3729801,38.4470632 32.4526112,38.4055978 C32.5291691,38.3563897 32.6275041,38.3563897 32.7040619,38.4055978 C32.7775629,38.2358152 33.0116054,38.2628261 33.131528,38.3072011 C34.0290135,37.8730978 34.8723404,37.4872283 35.7079304,37.014538 C36.5743957,36.5408815 37.3582376,35.9303784 38.0290135,35.2067391 C38.4680851,34.7147554 38.8723404,34.1070109 39.4371373,33.8561957 C39.6982592,34.1436685 39.205029,34.1571739 39.0502901,34.3134511 C38.6943907,34.6607337 38.4390716,35.328288 37.9825919,35.6119022 C37.9284333,35.9842663 37.5203095,36.0151359 37.2959381,36.2524457 C37.237911,36.2871739 37.237911,36.3411957 37.2959381,36.4125815 C36.9903288,36.6826902 36.5415861,36.7405707 36.2611219,36.9663043 C36.1218569,37.0685598 36.0541586,37.2286957 35.8858801,37.3155163 C35.8858801,37.3155163 35.8858801,37.2229076 35.8665377,37.2229076 C35.8104449,37.2229076 35.72147,37.3367391 35.6112186,37.4351359 C35.5135817,37.5423166 35.3667853,37.590637 35.2243714,37.5624728 C35.1740812,37.8055707 34.8549323,37.7168207 34.7582205,37.9657065 C34.7135267,37.9457942 34.6743605,37.915335 34.6441006,37.8769565 C34.6634429,37.9290489 34.5764023,38.0563859 34.6054159,37.9444837 C34.4448743,38.0004348 34.2843327,38.0930435 34.1044487,38.1760054 C33.9140911,38.2607962 33.7130012,38.3192181 33.5067698,38.3496467 C33.4622824,38.4306793 33.4622824,38.5830978 33.3481625,38.4634783 C33.3365571,38.7741033 32.7678917,38.6081793 32.6479691,38.789538 C32.6479691,38.733587 32.6615087,38.6911413 32.7137331,38.6757065 C32.6421663,38.644837 32.5783366,38.7470924 32.4796905,38.6622011 C32.5280464,38.7065761 32.3868472,38.8647826 32.2959381,38.7085054 C32.3191489,38.9014402 32.0928433,38.695 32.1411992,38.8821467 C32.0309478,39.0249185 31.9148936,38.7567391 31.8259188,38.7818207 C31.7369439,38.8069022 31.7466151,39.100163 31.6092843,38.833913 C31.5531915,38.8493478 31.6092843,38.9824728 31.5764023,39.0152717 C31.3578337,38.96125 31.3539652,39.0519293 31.1895551,39.0750815 C31.1895551,38.8956522 31.0851064,39.1348913 31.1411992,38.9516033 C31.0744524,39.0114972 30.9843088,39.0384011 30.8955513,39.0249185 C30.7969052,39.011413 30.6924565,38.9805435 30.5957447,38.967038 C30.6537718,39.188913 30.5125725,38.999837 30.5067698,39.188913 C30.3638242,39.23806 30.2069066,39.1702621 30.1450677,39.0326359 C30.065764,39.0326359 30.1450677,39.177337 30.1760155,39.1638315 C30.1470019,39.266087 30.0967118,39.0422826 29.9825919,39.1155978 C30.1179884,38.999837 29.9497099,39.0982337 29.9555126,38.9400272 C29.8549323,38.9400272 29.7911025,39.1734783 29.794971,38.9400272 C29.7311412,38.9400272 29.7466151,39.055788 29.6595745,39.0210598 C29.7021277,38.967038 29.6769826,38.9535326 29.6595745,38.8917935 C29.6402321,38.9631793 29.450677,39.0172011 29.5435203,39.1040217 C29.4023211,39.1541848 29.0618956,39.011413 29.065764,38.9573913 C29,38.9573913 29.0019342,39.0673641 28.9187621,39.0249185 C28.8665377,38.8705707 28.8181818,38.9207337 28.6789168,38.8840761 C28.7001934,38.8088315 28.6615087,38.7856793 28.6789168,38.7085054 C28.5783366,38.7085054 28.688588,38.8049728 28.6382979,38.8763587 L28.5106383,38.8474185 C28.6131528,38.695 28.3655706,38.8686413 28.4603482,38.6544837 C28.1914894,38.6872826 28.2823985,38.7876087 28.1237911,38.556087 C27.9862079,38.5609107 27.8494983,38.5324463 27.7253385,38.473125 C27.5794461,38.4135455 27.4476716,38.3241652 27.3384913,38.2107337 C27.2088975,38.3670109 27.1605416,38.1644293 27.0096712,38.2936957 C26.8297037,38.1679168 26.6596401,38.0285978 26.5009671,37.8769565 L26.5686654,37.7650543 C26.4680851,37.8075 26.5241779,37.7168207 26.4816248,37.6647283 C26.3733075,37.7650543 26.5531915,37.7438315 26.4468085,37.8441576 C26.3636364,37.5238859 26.0464217,37.4197011 25.8452611,37.3676087 C25.8452611,37.2557065 25.7891683,37.1013587 25.6363636,37.224837 C25.6692456,36.9855978 25.2495164,36.9894565 25.3829787,36.7251359 C25.3558994,36.7945924 25.1160542,36.8775543 25.2030948,36.7019837 C25.106383,36.7019837 25.1025145,36.6749728 25.0464217,36.8023098 C25.0464217,36.6884783 25.0464217,36.609375 25.1818182,36.5785054 C24.9226306,36.6325272 24.5628627,36.482038 24.6015474,36.1926359 C24.5609284,36.254375 24.4081238,36.1617663 24.4468085,36.2370109 C24.3694391,36.348913 24.4468085,36.0980978 24.3462282,36.215788 C24.3462282,36.0845924 24.5667311,36.171413 24.6576402,36.071087 C24.5667311,36.0344293 24.4642166,36.171413 24.3791103,36.0228533 C24.3539652,36.0575815 24.3791103,36.0730163 24.4023211,36.0942391 C24.3017408,36.2003533 24.2398453,36.0325 24.3326886,35.9321739 L24.139265,35.8357065 C24.073501,35.7932609 24.1218569,35.7199457 24.0676983,35.6755707 C24.0135397,35.6311957 23.9381044,35.7411685 23.8568665,35.6755707 C23.9187621,35.7064402 23.8839458,35.4421196 23.7930368,35.5212228 C23.827853,35.455625 23.8626692,35.4710598 23.8955513,35.4884239 C23.9516441,35.4035326 23.8007737,35.4228261 23.7698259,35.449837 C23.7117988,35.3765217 23.8491296,35.4247554 23.8742747,35.3649457 C23.827958,35.3320767 23.7658524,35.3320767 23.7195358,35.3649457 C23.6750484,35.283913 23.8665377,35.272337 23.7736944,35.1913043 C23.6750484,35.3475815 23.7446809,35.0466033 23.5957447,35.1700815 C23.5280464,35.3109239 23.729207,35.2183152 23.6189555,35.3456522 C23.5880077,35.2684783 23.4816248,35.2144565 23.4680851,35.1314946 C23.4564797,35.1720109 23.4448743,35.2105978 23.4680851,35.2376087 C23.2773532,35.1896519 23.1480497,35.012816 23.1605416,34.8170109 C23.1431335,34.8498098 23.1257253,34.8440217 23.1083172,34.8363043 C23.1058925,34.8787764 23.1159779,34.9210282 23.1373308,34.9578533 C23.0826275,34.9951962 23.0235077,35.0256534 22.9613153,35.0485326 C22.9226306,34.9752174 22.9129594,34.8092935 23.0058027,34.7668478 C22.9787234,34.7668478 22.9555126,34.7861413 22.9284333,34.7668478 C22.8839458,34.8633152 22.9767892,34.9096196 22.860735,35.0330978 C22.8317215,34.8208696 22.7601547,34.8941848 22.860735,34.7687772 C22.7408124,34.6665217 22.7427466,34.9366304 22.7079304,34.7784239 C22.7330754,34.7494837 22.7195358,34.7379076 22.7079304,34.7263315 C22.7330754,34.6916033 22.7601547,34.7263315 22.7852998,34.7263315 C22.8259188,34.656875 22.7098646,34.651087 22.7253385,34.5912772 C22.7427466,34.739837 22.3791103,34.7340489 22.4990329,34.6047826 C22.4642166,34.5932065 22.4352031,34.6588043 22.4042553,34.70125 C22.4255319,34.5989946 22.1798839,34.6240761 22.3346228,34.4620109 C22.1237911,34.6202174 22.1411992,34.3153804 21.9477756,34.4060598 C21.9690522,34.213125 21.7079304,34.2922283 21.7969052,34.0954348 C21.696325,34.1533152 21.55706,34.0124728 21.615087,33.8253261 C21.5267375,33.8932086 21.40363,33.8932086 21.3152805,33.8253261 C21.1989256,33.7492825 21.0498334,33.7440775 20.9284333,33.8118207 C20.8955513,33.7790217 20.6015474,33.6285326 20.4777563,33.7404348 C20.589942,33.5706522 20.4487427,33.464538 20.3965184,33.4124457 C20.377176,33.5224185 20.3965184,33.5802989 20.4796905,33.6053804 C20.3629369,33.5974185 20.2456434,33.6065183 20.131528,33.6323913 C20.0483559,33.5629348 20.1895551,33.508913 20.1992263,33.597663 C20.1911762,33.5242379 20.2060366,33.4501235 20.2417795,33.3854348 C20.2108317,33.4819022 20.0967118,33.4047283 20.0870406,33.5359239 C19.9148936,33.4163043 19.9187621,33.4741848 19.8375242,33.3236957 C19.7369439,33.5687228 19.6441006,33.2272283 19.5705996,33.4819022 C19.5454545,33.452962 19.5203095,33.4259511 19.5087041,33.4819022 C19.4216634,33.3526359 19.2533849,33.1944293 19.205029,33.4664674 C19.1316248,33.4222244 19.096194,33.3350493 19.1179884,33.2523098 C19.0483559,33.2619565 19.0502901,33.364212 19.0541586,33.4722554 C18.8897485,33.4008696 18.7969052,33.3159783 18.5609284,33.408587 C18.6789168,33.1712772 18.4042553,33.4413859 18.4874275,33.242663 C18.417795,33.242663 18.3907157,33.2908967 18.4042553,33.3835054 C18.3268859,33.2445924 18.2495164,33.4163043 18.1489362,33.3294837 C18.1644101,33.4838315 18.0193424,33.4163043 18.073501,33.4722554 C18.073501,33.5320652 18.0038685,33.5166304 17.959381,33.5301359 C17.959381,33.4163043 17.9226306,33.375788 17.8491296,33.420163 C17.8491296,33.3661413 17.8723404,33.3236957 17.926499,33.3159783 C17.9071567,33.2407337 17.7504836,33.3352717 17.787234,33.4336685 C17.7176015,33.4780435 17.5415861,33.2851087 17.5764023,33.4819022 C17.5241779,33.4548913 17.4661509,33.4394565 17.4487427,33.331413 C17.4758221,33.331413 17.4893617,33.3680707 17.5203095,33.3603533 C17.5067698,33.3275543 17.4796905,33.325625 17.4719536,33.2831793 C17.417795,33.3044022 17.4158607,33.3719293 17.4448743,33.4761141 C17.3539652,33.4047283 17.3249516,33.5938043 17.2746615,33.4259511 C17.234853,33.4604348 17.2222937,33.5168084 17.2437137,33.5648641 C17.1209034,33.5520186 17.0006014,33.6057601 16.9284333,33.7057065 C16.893617,33.7057065 16.8839458,33.63625 16.8646035,33.5899457 C16.8123791,33.6034511 16.7969052,33.6439674 16.7988395,33.6999185 C16.7427466,33.7134239 16.7388781,33.5687228 16.6731141,33.6034511 C16.7311412,33.6922011 16.4448743,33.9102174 16.3481625,33.7095652 C16.3694391,33.8561957 16.3481625,33.7095652 16.2011605,33.7674457 C16.2243714,33.81375 16.2669246,33.7809511 16.303675,33.7674457 C16.2901354,33.9256522 16.1431335,33.7963859 16.0851064,33.807962 C16.0270793,33.819538 16.1953578,34.0259783 16.0599613,34.0008967 C16.065558,33.9265363 16.049434,33.8521512 16.0135397,33.7867391 C15.9323017,33.7288587 15.8201161,33.9160054 15.7040619,33.769375 C15.7040619,33.9719565 15.5860735,33.8484783 15.5319149,33.9314402 C15.6024463,33.9581783 15.6757603,33.9769458 15.7504836,33.9873913 C15.7272727,34.0452717 15.6982592,34.0549185 15.6382979,34.0259783 C15.6731141,34.1359511 15.7640232,34.0144022 15.7891683,34.1533152 C15.6286267,34.1533152 15.4603482,34.3829076 15.3268859,34.3173098 L15.3152805,34.3173098 C15.4158607,34.1822554 15.2495164,34.2690761 15.3152805,34.3173098 L15.2998066,34.3385326 C15.2301741,34.4234239 15.065764,34.4234239 14.8916828,34.3385326 C14.9129594,34.3694022 14.8916828,34.3790489 14.8916828,34.390625 C14.9308075,34.4299623 14.9907155,34.4400511 15.040619,34.4157065 C15.040619,34.5526902 14.8781431,34.485163 14.8471954,34.3636141 C14.8007737,34.4060598 14.8974855,34.5256793 14.7930368,34.5353261 C14.72147,34.4388587 14.8104449,34.429212 14.7736944,34.352038 C14.6731141,34.3636141 14.8046422,34.5025272 14.6731141,34.5025272 C14.6924565,34.5391848 14.72147,34.5141033 14.7466151,34.5025272 C14.7253385,34.6202174 14.6421663,34.5391848 14.5764023,34.6472283 C14.5183752,34.5276087 14.44294,34.5276087 14.3829787,34.4542935 C14.3365571,34.5218207 14.5067698,34.5083152 14.5299807,34.6703804 C14.4603482,34.6105707 14.3694391,34.5276087 14.4487427,34.7147554 C14.344294,34.872962 14.1605416,34.6202174 14.1431335,34.7340489 C13.926499,34.656875 14.106383,34.5218207 13.9825919,34.3829076 Z M22.0464217,34.2150543 C22.0618956,34.2343478 22.098646,34.2439946 22.0793037,34.2825815 C22.0696871,34.2799812 22.0595493,34.2843859 22.0549088,34.2931806 C22.0502683,34.3019753 22.052368,34.3128045 22.0599613,34.3192391 C22.1005803,34.2497826 22.1431335,34.4041304 22.1740812,34.429212 C22.2205029,34.3616848 22.1895551,34.3288859 22.2321083,34.263288 C22.245648,34.263288 22.2804642,34.2497826 22.2514507,34.2266304 C22.2422729,34.2380411 22.2283993,34.2446805 22.2137331,34.2446805 C22.1990669,34.2446805 22.1851933,34.2380411 22.1760155,34.2266304 C22.1876209,34.2054076 22.1760155,34.1726087 22.1489362,34.213125 C22.1740812,34.2382065 22.1798839,34.3095924 22.1334623,34.3038043 C22.1798839,34.2555707 22.1005803,34.1282337 22.0502901,34.2150543 L22.0464217,34.2150543 Z M17.9090909,33.2021467 C18.1025145,33.287038 18.0058027,32.8162772 17.9090909,33.0265761 C17.9361702,33.0265761 17.9729207,33.0265761 17.9806576,33.0613043 C18.0096712,33.1597011 17.901354,33.1211141 17.9090909,33.2021467 Z M16.9980658,33.45875 C17.0232108,33.45875 17.0425532,33.4838315 17.0502901,33.5339946 C17.1083172,33.5339946 17.1025145,33.4664674 17.1586074,33.4548913 C17.1740812,33.3121196 16.9748549,33.3931522 16.9980658,33.45875 L16.9980658,33.45875 Z M16.2978723,33.63625 C16.3365571,33.6208152 16.3500967,33.6979891 16.384913,33.6960598 C16.4119923,33.5802989 16.3617021,33.6516848 16.3133462,33.5841576 C16.3495784,33.5411804 16.3676153,33.4858225 16.3636364,33.4298098 C16.2475822,33.4317391 16.2765957,33.5378533 16.2978723,33.63625 Z" id="形状" fill="#FFFFFF" fill-rule="nonzero"></path>
                        <path d="M15.9361702,33.8272554 C15.9031771,33.9146285 15.8168132,33.9702315 15.7234043,33.9642391 C15.8355899,34.1494565 16.032882,33.9005707 15.9361702,33.8272554 Z" id="路径" fill="#FFFFFF" fill-rule="nonzero"></path>
                        <polygon id="路径" fill="#FFFFFF" fill-rule="nonzero" points="15.7195358 33.9584511 15.7156673 33.9642391 15.7234043 33.9642391"></polygon>
                        <path d="M12.8433269,35.5250815 C12.8781431,35.5115761 12.9148936,35.4729891 12.9458414,35.5135054 C12.9613153,35.6215489 12.8181818,35.4922826 12.9129594,35.6350543 C12.9480681,35.6048399 12.9962362,35.5946482 13.040619,35.6080435 C13.0116054,35.550163 12.9458414,35.4768478 12.9748549,35.4440489 C13.0038685,35.41125 13.0251451,35.4440489 13.0502901,35.4440489 C12.9400387,35.2607609 12.8994197,35.4922826 12.8239845,35.4305435 C12.8510638,35.3379348 12.9458414,35.372663 12.9323017,35.3128533 C12.8394584,35.3379348 12.9090909,35.2183152 12.8413926,35.1642935 C12.7513517,35.2680641 12.7521785,35.4222773 12.8433269,35.5250815 L12.8433269,35.5250815 Z" id="路径" fill="#FFFFFF" fill-rule="nonzero"></path>
                    </g>
                </g>
            </g>
        </g>
    </g>
</svg>